<?xml-stylesheet href="https://s3.amazonaws.com/maker.works.boards/css/blackpcb_tsm.css" type="text/css"?><svg xmlns="http://www.w3.org/2000/svg" version="1.1" xmlns:xlink="http://www.w3.org/1999/xlink" width="1.27in" height="1.26375in" viewBox="72.5 72.5 1270 1263.75" stroke-linecap="round" stroke-linejoin="round" stroke-width="0" stroke="#000"><defs><circle cx="0" cy="0" r="13.55" id="tool-D10-pad-1065"/><rect x="-16.1555" y="-32.888" width="32.311" height="65.776" transform="rotate(45)" id="tool-D11-pad-1066"/><circle cx="0" cy="0" r="35" id="tool-D12-pad-1067"/><rect x="-35" y="-35" width="70" height="70" transform="rotate(180)" id="tool-D13-pad-1068"/><circle cx="0" cy="0" r="35" id="tool-D14-pad-1069"/><rect x="-35" y="-35" width="70" height="70" transform="rotate(135)" id="tool-D15-pad-1070"/><rect x="-16.1555" y="-32.888" width="32.311" height="65.776" transform="rotate(180)" id="tool-D16-pad-1071"/><rect x="-16.1555" y="-32.888" width="32.311" height="65.776" transform="rotate(135)" id="tool-D17-pad-1072"/><rect x="-16.1555" y="-32.888" width="32.311" height="65.776" transform="rotate(90)" id="tool-D18-pad-1073"/><circle cx="0" cy="0" r="35" id="tool-D19-pad-1074"/><rect x="-35" y="-35" width="70" height="70" transform="rotate(225)" id="tool-D20-pad-1075"/><circle cx="0" cy="0" r="78.75" id="tool-D21-pad-1076"/><circle cx="0" cy="0" r="35" id="tool-D22-pad-1077"/><rect x="-35" y="-35" width="70" height="70" transform="rotate(270)" id="tool-D23-pad-1078"/><g id="tool-D24-pad-1079"><rect x="-6.929" y="-33.4645" width="13.858" height="66.929" transform="rotate(90)"/><rect x="-10.827" y="-29.567" width="21.654" height="59.134" transform="rotate(90)"/><circle cx="-29.567" cy="-6.929" r="3.8975"/><circle cx="-29.567" cy="6.929" r="3.8975"/><circle cx="29.567" cy="6.929" r="3.8975"/><circle cx="29.567" cy="-6.929" r="3.8975"/></g><rect x="-16.15" y="-32.9" width="32.3" height="65.8" id="tool-D25-pad-1080"/><circle cx="0" cy="0" r="35" id="tool-D26-pad-1081"/><rect x="-35" y="-35" width="70" height="70" transform="rotate(90)" id="tool-D27-pad-1082"/><circle cx="0" cy="0" r="29.55" id="tool-D28-pad-1083"/><rect x="-29.5275" y="-29.5275" width="59.055" height="59.055" transform="rotate(270)" id="tool-D29-pad-1084"/><rect x="-16.1555" y="-32.888" width="32.311" height="65.776" transform="rotate(270)" id="tool-D30-pad-1085"/></defs><g fill="currentColor" stroke="currentColor" transform="translate(0,1408.75) scale(1,-1)"><use x="462.5" y="627.5" xlink:href="#tool-D10-pad-1065"/><use x="1088.6" y="263.6" xlink:href="#tool-D11-pad-1066"/><use x="1176.4" y="351.4" xlink:href="#tool-D11-pad-1066"/><use x="107.5" y="607.5" xlink:href="#tool-D12-pad-1067"/><use x="107.5" y="507.5" xlink:href="#tool-D13-pad-1068"/><use x="107.5" y="957.5" xlink:href="#tool-D12-pad-1067"/><use x="107.5" y="857.5" xlink:href="#tool-D13-pad-1068"/><use x="1292.9" y="267.9" xlink:href="#tool-D14-pad-1069"/><use x="1222.1" y="197.1" xlink:href="#tool-D15-pad-1070"/><use x="619.5" y="257.5" xlink:href="#tool-D16-pad-1071"/><use x="495.5" y="257.5" xlink:href="#tool-D16-pad-1071"/><use x="1307.5" y="957.5" xlink:href="#tool-D12-pad-1067"/><use x="1307.5" y="857.5" xlink:href="#tool-D13-pad-1068"/><use x="326.4" y="263.6" xlink:href="#tool-D17-pad-1072"/><use x="238.6" y="351.4" xlink:href="#tool-D17-pad-1072"/><use x="257.5" y="495.5" xlink:href="#tool-D18-pad-1073"/><use x="257.5" y="619.5" xlink:href="#tool-D18-pad-1073"/><use x="257.5" y="845.5" xlink:href="#tool-D18-pad-1073"/><use x="257.5" y="969.5" xlink:href="#tool-D18-pad-1073"/><use x="122.1" y="267.9" xlink:href="#tool-D19-pad-1074"/><use x="192.9" y="197.1" xlink:href="#tool-D20-pad-1075"/><use x="1157.5" y="845.5" xlink:href="#tool-D18-pad-1073"/><use x="1157.5" y="969.5" xlink:href="#tool-D18-pad-1073"/><use x="707.5" y="457.5" xlink:href="#tool-D21-pad-1076"/><use x="1307.5" y="607.5" xlink:href="#tool-D12-pad-1067"/><use x="1307.5" y="507.5" xlink:href="#tool-D13-pad-1068"/><use x="507.5" y="107.5" xlink:href="#tool-D22-pad-1077"/><use x="607.5" y="107.5" xlink:href="#tool-D23-pad-1078"/><use x="1257.5" y="1257.5" xlink:href="#tool-D21-pad-1076"/><use x="524.4" y="1007.5" xlink:href="#tool-D24-pad-1079"/><use x="524.4" y="957.5" xlink:href="#tool-D24-pad-1079"/><use x="524.4" y="907.5" xlink:href="#tool-D24-pad-1079"/><use x="524.4" y="857.5" xlink:href="#tool-D24-pad-1079"/><use x="524.4" y="807.5" xlink:href="#tool-D24-pad-1079"/><use x="524.4" y="757.5" xlink:href="#tool-D24-pad-1079"/><use x="524.4" y="707.5" xlink:href="#tool-D24-pad-1079"/><use x="524.4" y="657.5" xlink:href="#tool-D24-pad-1079"/><use x="890.6" y="1007.5" xlink:href="#tool-D24-pad-1079"/><use x="890.6" y="957.5" xlink:href="#tool-D24-pad-1079"/><use x="890.6" y="907.5" xlink:href="#tool-D24-pad-1079"/><use x="890.6" y="857.5" xlink:href="#tool-D24-pad-1079"/><use x="890.6" y="807.5" xlink:href="#tool-D24-pad-1079"/><use x="890.6" y="757.5" xlink:href="#tool-D24-pad-1079"/><use x="890.6" y="707.5" xlink:href="#tool-D24-pad-1079"/><use x="890.6" y="657.5" xlink:href="#tool-D24-pad-1079"/><use x="795.5" y="257.5" xlink:href="#tool-D25-pad-1080"/><use x="919.5" y="257.5" xlink:href="#tool-D25-pad-1080"/><use x="907.5" y="107.5" xlink:href="#tool-D26-pad-1081"/><use x="807.5" y="107.5" xlink:href="#tool-D27-pad-1082"/><use x="157.5" y="1257.5" xlink:href="#tool-D21-pad-1076"/><use x="957.5" y="1157.5" xlink:href="#tool-D28-pad-1083"/><use x="857.5" y="1157.5" xlink:href="#tool-D28-pad-1083"/><use x="757.5" y="1157.5" xlink:href="#tool-D28-pad-1083"/><use x="657.5" y="1157.5" xlink:href="#tool-D28-pad-1083"/><use x="557.5" y="1157.5" xlink:href="#tool-D28-pad-1083"/><use x="457.5" y="1157.5" xlink:href="#tool-D28-pad-1083"/><use x="357.5" y="1157.5" xlink:href="#tool-D28-pad-1083"/><use x="1057.5" y="1157.5" xlink:href="#tool-D29-pad-1084"/><use x="1027.5" y="1049.5" xlink:href="#tool-D30-pad-1085"/><use x="1027.5" y="925.5" xlink:href="#tool-D30-pad-1085"/><use x="407.5" y="445.5" xlink:href="#tool-D18-pad-1073"/><use x="407.5" y="569.5" xlink:href="#tool-D18-pad-1073"/><use x="1157.5" y="495.5" xlink:href="#tool-D18-pad-1073"/><use x="1157.5" y="619.5" xlink:href="#tool-D18-pad-1073"/></g></svg>