<?xml-stylesheet href="https://s3.amazonaws.com/maker.works.boards/css/blackpcb_tss.css" type="text/css"?><svg xmlns="http://www.w3.org/2000/svg" version="1.1" xmlns:xlink="http://www.w3.org/1999/xlink" width="1.3653000000000002in" height="1.3281500000000002in" viewBox="24.85 37.849999999999994 1365.3000000000002 1328.15" stroke-linecap="round" stroke-linejoin="round" stroke-width="0" stroke="#000"><defs><circle cx="0" cy="0" r="9.85" id="tool-D11-pad-1062"/><circle cx="0" cy="0" r="23.6" id="tool-D12-pad-1063"/><circle cx="0" cy="0" r="20" id="tool-D13-pad-1064"/></defs><g fill="currentColor" stroke="currentColor" transform="translate(0,1403.85) scale(1,-1)"><path stroke-width="5.9" fill="none" d="M 1130.7 261.2 L 1178.8 309.3 M 1086.2 305.7 L 1134.3 353.8"/><path d="M 1040.1 298.4 L 1020.2 318.4 L 1029 327.2 L 1030.3 328.4 L 1031.5 329.4 L 1032.6 330.2 L 1033.6 330.7 L 1034.6 331 L 1035.6 331.2 L 1036.7 331.2 L 1037.7 331 L 1038.8 330.7 L 1039.8 330.2 L 1040.7 329.6 L 1041.6 328.9 L 1042.5 327.7 L 1043.2 326.6 L 1043.6 325.3 L 1043.8 323.9 L 1043.7 322.5 L 1043.2 321 L 1042.5 319.4 L 1041.9 318.6 L 1039.4 320.4 L 1039.8 321.1 L 1040 321.8 L 1040.2 322.5 L 1040.2 323.1 L 1040.1 323.8 L 1039.9 324.5 L 1039.7 325.1 L 1039.3 325.6 L 1038.9 326.1 L 1038.1 326.8 L 1037.3 327.2 L 1036.4 327.4 L 1035.5 327.4 L 1034.5 327.3 L 1033.5 326.8 L 1032.5 326.1 L 1031.4 325.1 L 1025.1 318.8 L 1031.6 312.2 L 1031.6 312.2 L 1037.3 317.9 L 1038.1 318.8 L 1038.8 319.6 L 1039.4 320.4 L 1041.9 318.6 L 1041.4 317.8 L 1042.1 318.1 L 1042.8 318.2 L 1043.4 318.4 L 1044 318.4 L 1045.1 318.4 L 1046.3 318.4 L 1047.5 318.2 L 1048.8 318 L 1057.7 316 L 1054.4 312.7 L 1047.6 314.2 L 1046.2 314.5 L 1045 314.7 L 1043.9 314.9 L 1043 315 L 1042.1 315.1 L 1041.4 315.1 L 1040.8 315.1 L 1040.3 315 L 1039.8 314.9 L 1039.4 314.7 L 1039 314.6 L 1038.6 314.4 L 1038.2 314.2 L 1037.9 313.8 L 1037.5 313.4 L 1037 313 L 1033.9 309.9 L 1042.8 301.1 L 1040.1 298.4 L 1040.1 298.4 Z"/><path d="M 1056.9 345.3 L 1054.6 342.6 L 1053.8 343.1 L 1053 343.5 L 1052.3 343.7 L 1051.6 343.8 L 1050.6 343.7 L 1049.7 343.5 L 1048.9 343.1 L 1048.1 342.4 L 1047.6 341.8 L 1047.2 341.1 L 1046.9 340.5 L 1046.7 339.7 L 1046.6 338.7 L 1046.7 337.6 L 1046.9 336.6 L 1047.3 335.4 L 1047.9 334.2 L 1048.8 332.9 L 1049.9 331.6 L 1051.3 330.1 L 1053.6 330.4 L 1053.6 329.8 L 1054 328.7 L 1054.6 327.7 L 1055.5 326.7 L 1055.5 326.7 L 1056.1 326.1 L 1056.8 325.6 L 1057.6 325.1 L 1058.4 324.8 L 1059.3 324.5 L 1060.1 324.4 L 1060.9 324.4 L 1061.7 324.5 L 1062.4 324.7 L 1063.1 325.1 L 1063.8 325.5 L 1064.3 326 L 1065 326.8 L 1065.5 327.7 L 1065.7 328.7 L 1065.7 329.9 L 1065.5 331 L 1065.1 332.2 L 1064.4 333.3 L 1063.4 334.4 L 1062.4 335.3 L 1061.3 336 L 1060.2 336.4 L 1059.1 336.5 L 1058 336.5 L 1056.9 336.2 L 1056 335.7 L 1055.1 334.9 L 1054.4 334.1 L 1053.9 333.1 L 1053.6 332.1 L 1053.5 331 L 1053.6 330.4 L 1051.3 330.1 L 1051.1 331.2 L 1051.1 332.3 L 1051.2 333.3 L 1051.4 334.3 L 1051.8 335.2 L 1052.2 336.1 L 1052.8 336.9 L 1053.4 337.6 L 1054.7 338.7 L 1056.2 339.4 L 1057.7 339.9 L 1059.4 340 L 1061.1 339.7 L 1062.8 339.2 L 1064.3 338.3 L 1065.8 337 L 1066.7 336 L 1067.4 335 L 1068 333.9 L 1068.5 332.7 L 1068.8 331.5 L 1068.9 330.3 L 1068.9 329.2 L 1068.7 328.1 L 1068.4 326.9 L 1067.9 325.9 L 1067.2 324.9 L 1066.4 324 L 1064.8 322.7 L 1063 321.8 L 1061.2 321.3 L 1059.1 321.2 L 1057 321.7 L 1054.7 322.8 L 1052.3 324.4 L 1049.8 326.7 L 1047.2 329.5 L 1045.3 332.3 L 1044.1 334.8 L 1043.5 337.3 L 1043.5 339.3 L 1044 341.2 L 1044.9 342.9 L 1046.2 344.5 L 1047.5 345.6 L 1048.7 346.4 L 1050 346.9 L 1051.4 347.1 L 1052.8 347.1 L 1054.2 346.7 L 1055.5 346.1 L 1056.9 345.3 L 1056.9 345.3 Z"/><path stroke-width="5.9" fill="none" d="M 174.2 440.8 L 40.8 440.8 M 174.2 440.8 L 174.2 674.2 M 174.2 674.2 L 40.8 674.2 M 40.8 674.2 L 40.8 440.8"/><path d="M 48.8 712.9 L 55.5 713.8 L 55.8 710.8 L 56.3 708.4 L 57 706.4 L 58 704.9 L 59.2 703.9 L 60.5 703.2 L 62.1 702.7 L 63.9 702.6 L 65.3 702.7 L 66.6 702.9 L 67.7 703.3 L 68.8 703.8 L 69.7 704.5 L 70.5 705.4 L 71.1 706.3 L 71.6 707.3 L 71.9 708.6 L 72.1 710.2 L 72.3 712.1 L 72.3 714.4 L 72.3 753.2 L 79.8 753.2 L 79.8 714.8 L 79.7 711.5 L 79.4 708.6 L 78.8 706 L 78.1 703.9 L 77.1 702 L 75.9 700.5 L 74.4 699.1 L 72.7 697.9 L 70.7 697.1 L 68.6 696.4 L 66.4 696 L 64 695.9 L 60.5 696.2 L 57.4 697 L 54.8 698.3 L 52.6 700.2 L 50.9 702.6 L 49.7 705.5 L 49 708.9 L 48.8 712.9 L 48.8 712.9 Z"/><path d="M 125.6 703.5 L 125.6 696.9 L 88.3 696.9 L 88.3 698.1 L 88.5 699.3 L 88.7 700.5 L 89.1 701.7 L 89.9 703.6 L 91 705.5 L 92.2 707.3 L 93.7 709.2 L 95.4 711.1 L 97.5 713.2 L 99.9 715.4 L 102.7 717.7 L 106.9 721.3 L 110.4 724.5 L 113.2 727.3 L 115.1 729.7 L 116.6 731.8 L 117.6 733.9 L 118.2 736 L 118.4 738 L 118.2 739.9 L 117.6 741.8 L 116.7 743.4 L 115.4 744.9 L 113.8 746.2 L 112 747 L 110 747.6 L 107.8 747.7 L 105.4 747.5 L 103.2 747 L 101.4 746 L 99.7 744.7 L 98.4 743.1 L 97.5 741.2 L 96.9 739 L 96.7 736.4 L 89.6 737.1 L 90.2 740.9 L 91.4 744.2 L 93 747 L 95.1 749.3 L 97.7 751.1 L 100.7 752.4 L 104.1 753.2 L 107.9 753.5 L 111.8 753.2 L 115.2 752.3 L 118.2 750.9 L 120.8 749 L 122.8 746.6 L 124.3 743.9 L 125.2 741 L 125.5 737.8 L 125.4 736.1 L 125.1 734.5 L 124.7 732.8 L 124.1 731.2 L 123.3 729.5 L 122.3 727.8 L 121 726.1 L 119.5 724.3 L 117.6 722.3 L 115.2 720 L 112.3 717.3 L 108.8 714.4 L 106 711.9 L 103.7 710 L 102 708.4 L 100.8 707.3 L 100 706.3 L 99.2 705.4 L 98.5 704.5 L 97.9 703.5 L 125.6 703.5 L 125.6 703.5 Z"/><path stroke-width="5.9" fill="none" d="M 174.2 790.8 L 40.8 790.8 M 174.2 790.8 L 174.2 1024.2 M 174.2 1024.2 L 40.8 1024.2 M 40.8 1024.2 L 40.8 790.8"/><path d="M 48.8 1062.9 L 55.5 1063.8 L 55.8 1060.8 L 56.3 1058.4 L 57 1056.4 L 58 1054.9 L 59.2 1053.9 L 60.5 1053.2 L 62.1 1052.7 L 63.9 1052.6 L 65.3 1052.7 L 66.6 1052.9 L 67.7 1053.3 L 68.8 1053.8 L 69.7 1054.5 L 70.5 1055.4 L 71.1 1056.3 L 71.6 1057.3 L 71.9 1058.6 L 72.1 1060.2 L 72.3 1062.1 L 72.3 1064.4 L 72.3 1103.2 L 79.8 1103.2 L 79.8 1064.8 L 79.7 1061.5 L 79.4 1058.6 L 78.8 1056 L 78.1 1053.9 L 77.1 1052 L 75.9 1050.5 L 74.4 1049.1 L 72.7 1047.9 L 70.7 1047.1 L 68.6 1046.4 L 66.4 1046 L 64 1045.9 L 60.5 1046.2 L 57.4 1047 L 54.8 1048.3 L 52.6 1050.2 L 50.9 1052.6 L 49.7 1055.5 L 49 1058.9 L 48.8 1062.9 L 48.8 1062.9 Z"/><path d="M 115.3 1046.9 L 108.3 1046.9 L 108.3 1091 L 107 1089.8 L 105.5 1088.6 L 103.7 1087.4 L 101.8 1086.2 L 99.8 1085.1 L 97.9 1084.1 L 96.2 1083.3 L 94.5 1082.6 L 94.5 1089.3 L 97.3 1090.8 L 99.9 1092.3 L 102.4 1094.1 L 104.6 1095.9 L 106.7 1097.9 L 108.4 1099.7 L 109.7 1101.6 L 110.8 1103.4 L 115.3 1103.4 L 115.3 1046.9 L 115.3 1046.9 Z"/><path stroke-width="5.9" fill="none" d="M 1222.1 102.8 L 1127.8 197.1 M 1222.1 102.8 L 1387.2 267.9 M 1387.2 267.9 L 1292.9 362.2 M 1292.9 362.2 L 1127.8 197.1"/><path d="M 1266.6 61.4 L 1270.8 66.8 L 1273.1 64.9 L 1275.1 63.4 L 1277 62.6 L 1278.7 62.2 L 1280.3 62.3 L 1281.8 62.8 L 1283.2 63.6 L 1284.6 64.8 L 1285.5 65.8 L 1286.2 66.8 L 1286.8 67.9 L 1287.1 69.1 L 1287.3 70.3 L 1287.3 71.4 L 1287.1 72.5 L 1286.6 73.6 L 1286 74.7 L 1285 76 L 1283.8 77.5 L 1282.2 79.1 L 1254.7 106.6 L 1260 111.8 L 1287.2 84.7 L 1289.5 82.2 L 1291.3 79.9 L 1292.7 77.7 L 1293.7 75.7 L 1294.3 73.7 L 1294.6 71.7 L 1294.5 69.7 L 1294.1 67.7 L 1293.3 65.7 L 1292.3 63.8 L 1291 61.9 L 1289.4 60.1 L 1286.7 57.8 L 1284 56.2 L 1281.2 55.3 L 1278.3 55.1 L 1275.4 55.6 L 1272.5 56.8 L 1269.5 58.7 L 1266.6 61.4 L 1266.6 61.4 Z"/><path d="M 1301.8 134.1 L 1297.3 128.8 L 1295.6 129.8 L 1294 130.5 L 1292.6 131 L 1291.3 131.2 L 1289.3 131 L 1287.5 130.5 L 1285.8 129.7 L 1284.3 128.4 L 1283.2 127.2 L 1282.4 125.8 L 1281.8 124.5 L 1281.5 123 L 1281.3 120.9 L 1281.5 118.8 L 1282 116.7 L 1282.8 114.4 L 1284 112 L 1285.7 109.5 L 1287.9 106.7 L 1290.6 103.8 L 1295.2 104.4 L 1295.3 103.2 L 1296.1 101 L 1297.3 98.9 L 1299 96.9 L 1299 96.9 L 1300.3 95.7 L 1301.8 94.7 L 1303.3 93.9 L 1304.9 93.2 L 1306.6 92.7 L 1308.2 92.4 L 1309.9 92.4 L 1311.4 92.7 L 1312.9 93.1 L 1314.3 93.7 L 1315.6 94.5 L 1316.7 95.5 L 1318.1 97.1 L 1319 99 L 1319.5 101 L 1319.5 103.3 L 1319.2 105.6 L 1318.2 107.9 L 1316.9 110.2 L 1314.9 112.3 L 1312.9 114.2 L 1310.7 115.5 L 1308.5 116.3 L 1306.2 116.6 L 1304 116.5 L 1302 116 L 1300.1 114.9 L 1298.3 113.5 L 1296.9 111.8 L 1295.8 109.8 L 1295.3 107.7 L 1295.1 105.5 L 1295.2 104.4 L 1290.6 103.8 L 1290.3 106 L 1290.2 108.1 L 1290.5 110.1 L 1290.9 112.1 L 1291.6 114 L 1292.6 115.7 L 1293.7 117.3 L 1295 118.8 L 1297.5 120.9 L 1300.4 122.4 L 1303.5 123.3 L 1306.9 123.5 L 1310.3 123.1 L 1313.6 121.9 L 1316.7 120.1 L 1319.7 117.7 L 1321.4 115.7 L 1322.9 113.6 L 1324.1 111.4 L 1325 109 L 1325.6 106.6 L 1325.9 104.3 L 1325.9 101.9 L 1325.5 99.7 L 1324.8 97.5 L 1323.8 95.4 L 1322.5 93.4 L 1320.8 91.6 L 1317.6 88.9 L 1314.1 87.1 L 1310.4 86.2 L 1306.3 86.1 L 1302 87 L 1297.5 89.1 L 1292.7 92.5 L 1287.6 97 L 1282.5 102.7 L 1278.7 108.1 L 1276.2 113.2 L 1275.1 118.1 L 1275.1 122.1 L 1276 125.9 L 1277.9 129.4 L 1280.6 132.7 L 1283 134.8 L 1285.5 136.3 L 1288.2 137.3 L 1290.9 137.8 L 1293.7 137.7 L 1296.4 137 L 1299.2 135.8 L 1301.8 134.1 L 1301.8 134.1 Z"/><path stroke-width="5.9" fill="none" d="M 591.6 289 L 523.4 289 M 591.6 226 L 523.4 226"/><path d="M 535.5 305.7 L 535.5 333.9 L 548 333.9 L 549.7 333.8 L 551.3 333.7 L 552.6 333.4 L 553.7 333.1 L 554.7 332.7 L 555.5 332.1 L 556.2 331.3 L 556.8 330.4 L 557.3 329.4 L 557.7 328.4 L 557.9 327.3 L 558 326.2 L 557.9 324.7 L 557.5 323.4 L 556.9 322.2 L 556.1 321.1 L 555 320.2 L 553.6 319.4 L 552 318.9 L 551 318.7 L 550.5 321.7 L 551.2 321.9 L 551.9 322.3 L 552.5 322.7 L 553 323.1 L 553.4 323.6 L 553.8 324.2 L 554 324.9 L 554.1 325.5 L 554.2 326.2 L 554.1 327.1 L 553.8 328 L 553.4 328.8 L 552.7 329.5 L 551.9 330 L 550.8 330.5 L 549.6 330.7 L 548.1 330.8 L 539.2 330.8 L 539.2 321.4 L 539.2 321.4 L 547.2 321.4 L 548.4 321.5 L 549.5 321.6 L 550.5 321.7 L 551 318.7 L 550.1 318.5 L 550.8 318.2 L 551.4 317.8 L 551.9 317.5 L 552.3 317.1 L 553.1 316.3 L 553.9 315.4 L 554.7 314.4 L 555.4 313.4 L 560.3 305.7 L 555.6 305.7 L 551.9 311.6 L 551.1 312.7 L 550.4 313.8 L 549.8 314.7 L 549.2 315.5 L 548.7 316 L 548.2 316.6 L 547.7 317 L 547.3 317.3 L 546.9 317.6 L 546.5 317.8 L 546 317.9 L 545.6 318.1 L 545.3 318.1 L 544.8 318.2 L 544.2 318.2 L 543.6 318.2 L 539.2 318.2 L 539.2 305.7 L 535.5 305.7 L 535.5 305.7 Z"/><path d="M 573.6 305.7 L 573.6 312.4 L 561.3 312.4 L 561.3 315.6 L 571.4 329.9 L 573.6 328.3 L 564.7 315.6 L 573.6 315.6 L 573.6 315.6 L 573.6 328.3 L 571.4 329.9 L 574.2 333.9 L 577 333.9 L 577 315.6 L 580.8 315.6 L 580.8 312.4 L 577 312.4 L 577 305.7 L 573.6 305.7 L 573.6 305.7 Z"/><path stroke-width="5.9" fill="none" d="M 1374.2 790.8 L 1240.8 790.8 M 1374.2 790.8 L 1374.2 1024.2 M 1374.2 1024.2 L 1240.8 1024.2 M 1240.8 1024.2 L 1240.8 790.8"/><path d="M 1288.8 1062.9 L 1295.5 1063.8 L 1295.8 1060.8 L 1296.3 1058.4 L 1297 1056.4 L 1298 1054.9 L 1299.2 1053.9 L 1300.5 1053.2 L 1302.1 1052.7 L 1303.9 1052.6 L 1305.3 1052.7 L 1306.6 1052.9 L 1307.7 1053.3 L 1308.8 1053.8 L 1309.7 1054.5 L 1310.5 1055.4 L 1311.1 1056.3 L 1311.6 1057.3 L 1311.9 1058.6 L 1312.1 1060.2 L 1312.3 1062.1 L 1312.3 1064.4 L 1312.3 1103.2 L 1319.8 1103.2 L 1319.8 1064.8 L 1319.7 1061.5 L 1319.4 1058.6 L 1318.8 1056 L 1318.1 1053.9 L 1317.1 1052 L 1315.9 1050.5 L 1314.4 1049.1 L 1312.7 1047.9 L 1310.7 1047.1 L 1308.6 1046.4 L 1306.4 1046 L 1304 1045.9 L 1300.5 1046.2 L 1297.4 1047 L 1294.8 1048.3 L 1292.6 1050.2 L 1290.9 1052.6 L 1289.7 1055.5 L 1289 1058.9 L 1288.8 1062.9 L 1288.8 1062.9 Z"/><path d="M 1339.8 1077.4 L 1342.1 1073.1 L 1341.2 1072.6 L 1339.4 1071.2 L 1338 1069.5 L 1337 1067.6 L 1336.4 1065.5 L 1336.2 1063.1 L 1336.2 1063.1 L 1336.3 1061.7 L 1336.6 1060.2 L 1337 1058.8 L 1337.6 1057.4 L 1338.4 1056.1 L 1339.4 1054.9 L 1340.5 1054 L 1341.8 1053.1 L 1343.2 1052.5 L 1344.7 1052 L 1346.2 1051.7 L 1347.8 1051.6 L 1350.1 1051.8 L 1352.3 1052.4 L 1354.2 1053.4 L 1356 1054.8 L 1357.3 1056.5 L 1358.4 1058.4 L 1359 1060.5 L 1359.2 1062.9 L 1359 1065.3 L 1358.3 1067.5 L 1357.3 1069.4 L 1355.8 1071.2 L 1354.1 1072.6 L 1352.1 1073.6 L 1349.9 1074.2 L 1347.5 1074.4 L 1345.2 1074.2 L 1343.1 1073.6 L 1342.1 1073.1 L 1339.8 1077.4 L 1342.4 1081.5 L 1344 1080.7 L 1345.8 1080.3 L 1347.7 1080.1 L 1349.6 1080.3 L 1351.4 1080.7 L 1352.9 1081.5 L 1354.3 1082.6 L 1355.4 1083.9 L 1356.2 1085.4 L 1356.7 1087 L 1356.8 1088.8 L 1356.7 1090.6 L 1356.2 1092.3 L 1355.3 1093.8 L 1354.2 1095.2 L 1352.8 1096.3 L 1351.2 1097.1 L 1349.5 1097.6 L 1347.7 1097.8 L 1345.7 1097.6 L 1344 1097.1 L 1342.5 1096.4 L 1341.1 1095.3 L 1339.9 1093.9 L 1339.1 1092.5 L 1338.6 1090.9 L 1338.4 1089.2 L 1338.4 1089.2 L 1338.6 1087.3 L 1339.1 1085.5 L 1339.9 1084 L 1341 1082.6 L 1342.4 1081.5 L 1339.8 1077.4 L 1337.8 1078.3 L 1336.1 1079.4 L 1334.6 1080.6 L 1333.4 1081.9 L 1332.5 1083.5 L 1331.9 1085.1 L 1331.5 1086.9 L 1331.4 1088.9 L 1331.7 1091.9 L 1332.5 1094.6 L 1333.9 1097.1 L 1335.8 1099.3 L 1338.2 1101.1 L 1341 1102.4 L 1344.1 1103.2 L 1347.6 1103.4 L 1351.1 1103.2 L 1354.2 1102.4 L 1357 1101 L 1359.4 1099.2 L 1361.4 1096.9 L 1362.8 1094.4 L 1363.7 1091.7 L 1364 1088.7 L 1363.8 1086.8 L 1363.4 1085.1 L 1362.8 1083.4 L 1361.9 1081.9 L 1360.7 1080.5 L 1359.3 1079.4 L 1357.6 1078.3 L 1355.6 1077.4 L 1358.1 1076.5 L 1360.2 1075.2 L 1362 1073.7 L 1363.5 1072 L 1364.7 1070 L 1365.6 1067.9 L 1366.1 1065.5 L 1366.2 1063 L 1365.9 1059.5 L 1365 1056.3 L 1363.4 1053.4 L 1361.1 1050.8 L 1358.4 1048.7 L 1355.2 1047.1 L 1351.6 1046.2 L 1347.7 1045.9 L 1343.7 1046.2 L 1340.1 1047.1 L 1337 1048.7 L 1334.2 1050.8 L 1332 1053.5 L 1330.4 1056.4 L 1329.4 1059.6 L 1329.1 1063.2 L 1329.3 1065.8 L 1329.8 1068.2 L 1330.7 1070.4 L 1331.9 1072.4 L 1333.4 1074.1 L 1335.3 1075.5 L 1337.4 1076.6 L 1339.8 1077.4 L 1339.8 1077.4 Z"/><path stroke-width="5.9" fill="none" d="M 328.8 305.7 L 280.7 353.8 M 284.3 261.2 L 236.2 309.3"/><path d="M 343.4 319.9 L 363.4 339.8 L 372.2 331 L 373.4 329.7 L 374.4 328.5 L 375.2 327.4 L 375.7 326.4 L 376 325.4 L 376.2 324.4 L 376.2 323.3 L 376 322.3 L 375.7 321.2 L 375.2 320.2 L 374.6 319.3 L 373.9 318.4 L 372.7 317.5 L 371.6 316.8 L 370.3 316.4 L 368.9 316.2 L 367.5 316.3 L 366 316.8 L 364.4 317.5 L 363.6 318.1 L 365.4 320.6 L 366.1 320.2 L 366.8 320 L 367.5 319.8 L 368.1 319.8 L 368.8 319.9 L 369.5 320.1 L 370.1 320.3 L 370.6 320.7 L 371.1 321.1 L 371.8 321.9 L 372.2 322.7 L 372.4 323.6 L 372.4 324.5 L 372.3 325.5 L 371.8 326.5 L 371.1 327.5 L 370.1 328.6 L 363.8 334.9 L 357.2 328.4 L 357.2 328.4 L 362.9 322.7 L 363.8 321.9 L 364.6 321.2 L 365.4 320.6 L 363.6 318.1 L 362.8 318.6 L 363.1 317.9 L 363.2 317.2 L 363.4 316.6 L 363.4 316 L 363.4 314.9 L 363.4 313.7 L 363.2 312.5 L 363 311.2 L 361 302.3 L 357.7 305.6 L 359.2 312.4 L 359.5 313.8 L 359.7 315 L 359.9 316.1 L 360 317 L 360.1 317.9 L 360.1 318.6 L 360.1 319.2 L 360 319.7 L 359.9 320.2 L 359.7 320.6 L 359.6 321 L 359.4 321.4 L 359.2 321.8 L 358.8 322.1 L 358.4 322.5 L 358 323 L 354.9 326.1 L 346.1 317.2 L 343.4 319.9 L 343.4 319.9 Z"/><path d="M 367.8 306 L 370.6 303.9 L 369.8 302.7 L 369.4 301.6 L 369.1 300.5 L 369 299.5 L 369.1 298.6 L 369.4 297.7 L 369.9 296.9 L 370.5 296.1 L 371.4 295.3 L 372.4 294.8 L 373.5 294.5 L 374.7 294.4 L 375.8 294.5 L 376.9 294.8 L 377.9 295.4 L 378.8 296.2 L 379.5 297 L 380.1 298 L 380.4 299 L 380.5 300 L 380.4 301.1 L 380.1 302.1 L 379.5 303.1 L 378.8 303.9 L 378.4 304.3 L 377.9 304.6 L 377.4 305 L 376.8 305.4 L 379.2 307.3 L 379.3 307.1 L 379.4 307 L 379.5 306.9 L 379.6 306.8 L 380.4 306.1 L 381.2 305.6 L 382.2 305.1 L 383.2 304.8 L 384.2 304.7 L 385.2 304.9 L 386.1 305.4 L 386.9 306.1 L 387.5 306.8 L 388 307.5 L 388.2 308.4 L 388.3 309.2 L 388.2 310.1 L 387.9 311 L 387.5 311.8 L 386.8 312.5 L 386.1 313.1 L 385.3 313.6 L 384.4 313.8 L 383.5 314 L 382.6 313.9 L 381.6 313.6 L 380.6 313.2 L 379.6 312.5 L 377.6 315.4 L 379.1 316.2 L 380.5 316.8 L 382 317.1 L 383.4 317.1 L 384.9 316.9 L 386.3 316.4 L 387.5 315.6 L 388.8 314.5 L 389.5 313.7 L 390.2 312.8 L 390.7 311.8 L 391.1 310.8 L 391.4 309.8 L 391.5 308.8 L 391.4 307.8 L 391.3 306.8 L 391 305.9 L 390.6 305 L 390.1 304.2 L 389.4 303.5 L 388.8 302.9 L 388 302.5 L 387.2 302.1 L 386.4 301.9 L 385.5 301.8 L 384.6 301.8 L 383.6 301.9 L 382.7 302.2 L 383.2 301.2 L 383.6 300.1 L 383.8 298.9 L 383.7 297.8 L 383.4 296.7 L 383 295.6 L 382.3 294.6 L 381.5 293.6 L 380.1 292.5 L 378.6 291.7 L 376.9 291.2 L 375.1 291.1 L 373.3 291.3 L 371.6 291.9 L 370 292.8 L 368.5 294.1 L 367.3 295.5 L 366.5 296.9 L 366 298.4 L 365.7 300 L 365.8 301.6 L 366.2 303.2 L 366.8 304.6 L 367.8 306 L 367.8 306 Z"/><path stroke-width="5.9" fill="none" d="M 289 523.4 L 289 591.6 M 226 523.4 L 226 591.6"/><path d="M 215.5 655.7 L 215.5 683.9 L 228 683.9 L 229.7 683.8 L 231.3 683.7 L 232.6 683.4 L 233.7 683.1 L 234.7 682.7 L 235.5 682.1 L 236.2 681.3 L 236.8 680.4 L 237.3 679.4 L 237.7 678.4 L 237.9 677.3 L 238 676.2 L 237.9 674.7 L 237.5 673.4 L 236.9 672.2 L 236.1 671.1 L 235 670.2 L 233.6 669.4 L 232 668.9 L 231 668.7 L 230.5 671.7 L 231.2 671.9 L 231.9 672.3 L 232.5 672.7 L 233 673.1 L 233.4 673.6 L 233.8 674.2 L 234 674.9 L 234.1 675.5 L 234.2 676.2 L 234.1 677.1 L 233.8 678 L 233.4 678.8 L 232.7 679.5 L 231.9 680 L 230.8 680.5 L 229.6 680.7 L 228.1 680.8 L 219.2 680.8 L 219.2 671.4 L 219.2 671.4 L 227.2 671.4 L 228.4 671.5 L 229.5 671.6 L 230.5 671.7 L 231 668.7 L 230.1 668.5 L 230.8 668.2 L 231.4 667.8 L 231.9 667.5 L 232.3 667.1 L 233.1 666.3 L 233.9 665.4 L 234.7 664.4 L 235.4 663.4 L 240.3 655.7 L 235.6 655.7 L 231.9 661.6 L 231.1 662.7 L 230.4 663.8 L 229.8 664.7 L 229.2 665.5 L 228.7 666 L 228.2 666.6 L 227.7 667 L 227.3 667.3 L 226.9 667.6 L 226.5 667.8 L 226 667.9 L 225.6 668.1 L 225.3 668.1 L 224.8 668.2 L 224.2 668.2 L 223.6 668.2 L 219.2 668.2 L 219.2 655.7 L 215.5 655.7 L 215.5 655.7 Z"/><path d="M 260.6 659 L 260.6 655.7 L 242 655.7 L 242 656.3 L 242.1 656.9 L 242.2 657.5 L 242.4 658.1 L 242.8 659 L 243.4 660 L 244 660.9 L 244.7 661.8 L 245.6 662.8 L 246.6 663.8 L 247.9 664.9 L 249.2 666.1 L 251.4 667.9 L 253.1 669.5 L 254.4 670.9 L 255.5 672.1 L 256.2 673.2 L 256.6 674.2 L 256.9 675.3 L 257.1 676.2 L 256.9 677.2 L 256.7 678.1 L 256.2 679 L 255.6 679.7 L 254.8 680.3 L 253.9 680.8 L 252.9 681 L 251.8 681.1 L 250.6 681 L 249.5 680.7 L 248.6 680.3 L 247.7 679.6 L 247.1 678.8 L 246.6 677.8 L 246.3 676.7 L 246.2 675.5 L 242.7 675.8 L 243 677.7 L 243.5 679.4 L 244.4 680.7 L 245.4 681.9 L 246.7 682.8 L 248.2 683.5 L 249.9 683.8 L 251.8 684 L 253.8 683.8 L 255.5 683.4 L 256.9 682.7 L 258.2 681.8 L 259.3 680.5 L 260 679.2 L 260.5 677.8 L 260.6 676.2 L 260.6 675.3 L 260.5 674.5 L 260.2 673.6 L 259.9 672.9 L 259.5 672 L 259 671.2 L 258.4 670.3 L 257.6 669.4 L 256.7 668.4 L 255.5 667.3 L 254 665.9 L 252.3 664.4 L 250.9 663.2 L 249.7 662.2 L 248.9 661.5 L 248.3 660.9 L 247.9 660.4 L 247.5 659.9 L 247.1 659.5 L 246.8 659 L 260.6 659 L 260.6 659 Z"/><path stroke-width="5.9" fill="none" d="M 289 873.4 L 289 941.6 M 226 873.4 L 226 941.6"/><path d="M 215.5 1005.7 L 215.5 1033.9 L 228 1033.9 L 229.7 1033.8 L 231.3 1033.7 L 232.6 1033.4 L 233.7 1033.1 L 234.7 1032.7 L 235.5 1032.1 L 236.2 1031.3 L 236.8 1030.4 L 237.3 1029.4 L 237.7 1028.4 L 237.9 1027.3 L 238 1026.2 L 237.9 1024.7 L 237.5 1023.4 L 236.9 1022.2 L 236.1 1021.1 L 235 1020.2 L 233.6 1019.4 L 232 1018.9 L 231 1018.7 L 230.5 1021.7 L 231.2 1021.9 L 231.9 1022.3 L 232.5 1022.7 L 233 1023.1 L 233.4 1023.6 L 233.8 1024.2 L 234 1024.9 L 234.1 1025.5 L 234.2 1026.2 L 234.1 1027.1 L 233.8 1028 L 233.4 1028.8 L 232.7 1029.5 L 231.9 1030 L 230.8 1030.5 L 229.6 1030.7 L 228.1 1030.8 L 219.2 1030.8 L 219.2 1021.4 L 219.2 1021.4 L 227.2 1021.4 L 228.4 1021.5 L 229.5 1021.6 L 230.5 1021.7 L 231 1018.7 L 230.1 1018.5 L 230.8 1018.2 L 231.4 1017.8 L 231.9 1017.5 L 232.3 1017.1 L 233.1 1016.3 L 233.9 1015.4 L 234.7 1014.4 L 235.4 1013.4 L 240.3 1005.7 L 235.6 1005.7 L 231.9 1011.6 L 231.1 1012.7 L 230.4 1013.8 L 229.8 1014.7 L 229.2 1015.5 L 228.7 1016 L 228.2 1016.6 L 227.7 1017 L 227.3 1017.3 L 226.9 1017.6 L 226.5 1017.8 L 226 1017.9 L 225.6 1018.1 L 225.3 1018.1 L 224.8 1018.2 L 224.2 1018.2 L 223.6 1018.2 L 219.2 1018.2 L 219.2 1005.7 L 215.5 1005.7 L 215.5 1005.7 Z"/><path d="M 255.5 1005.7 L 252 1005.7 L 252 1027.7 L 251.4 1027.1 L 250.6 1026.6 L 249.7 1026 L 248.8 1025.4 L 247.8 1024.8 L 246.8 1024.3 L 246 1023.9 L 245.1 1023.6 L 245.1 1026.9 L 246.5 1027.6 L 247.9 1028.4 L 249.1 1029.3 L 250.2 1030.2 L 251.2 1031.2 L 252 1032.1 L 252.7 1033.1 L 253.2 1034 L 255.5 1034 L 255.5 1005.7 L 255.5 1005.7 Z"/><path stroke-width="5.9" fill="none" d="M 287.2 197.1 L 192.9 102.8 M 287.2 197.1 L 122.1 362.2 M 122.1 362.2 L 27.8 267.9 M 27.8 267.9 L 192.9 102.8"/><path d="M 76.4 133.4 L 81.8 129.2 L 79.9 126.9 L 78.4 124.9 L 77.6 123 L 77.2 121.3 L 77.3 119.7 L 77.8 118.2 L 78.6 116.8 L 79.8 115.4 L 80.8 114.5 L 81.8 113.8 L 82.9 113.2 L 84.1 112.9 L 85.3 112.7 L 86.4 112.7 L 87.5 112.9 L 88.6 113.4 L 89.7 114 L 91 115 L 92.5 116.2 L 94.1 117.8 L 121.6 145.3 L 126.8 140 L 99.7 112.8 L 97.2 110.5 L 94.9 108.7 L 92.7 107.3 L 90.7 106.3 L 88.7 105.7 L 86.7 105.4 L 84.7 105.5 L 82.7 105.9 L 80.7 106.7 L 78.8 107.7 L 76.9 109 L 75.1 110.6 L 72.8 113.3 L 71.2 116 L 70.3 118.8 L 70.1 121.7 L 70.6 124.6 L 71.8 127.5 L 73.7 130.4 L 76.4 133.4 L 76.4 133.4 Z"/><path d="M 104.2 104 L 109.7 99.7 L 108.2 97.3 L 107.3 95 L 106.7 92.9 L 106.6 90.9 L 106.8 89 L 107.5 87.3 L 108.4 85.6 L 109.7 84.1 L 111.5 82.6 L 113.4 81.5 L 115.6 80.9 L 117.9 80.7 L 120.2 80.9 L 122.3 81.6 L 124.4 82.7 L 126.2 84.2 L 127.7 86 L 128.7 87.9 L 129.4 89.9 L 129.5 92 L 129.4 94.1 L 128.7 96.1 L 127.6 98 L 126.2 99.8 L 125.4 100.5 L 124.5 101.2 L 123.4 101.9 L 122.1 102.7 L 127 106.4 L 127.2 106.2 L 127.4 106 L 127.6 105.8 L 127.7 105.6 L 129.4 104.2 L 131.1 103 L 133 102.2 L 135 101.6 L 137 101.4 L 138.9 101.8 L 140.8 102.7 L 142.5 104.1 L 143.7 105.5 L 144.5 107 L 145 108.7 L 145.1 110.4 L 144.9 112.1 L 144.4 113.8 L 143.5 115.4 L 142.2 116.9 L 140.7 118.1 L 139.2 119 L 137.5 119.6 L 135.6 119.8 L 133.8 119.7 L 131.9 119.2 L 129.9 118.2 L 127.8 116.9 L 123.8 122.7 L 126.7 124.4 L 129.6 125.6 L 132.6 126.2 L 135.5 126.2 L 138.4 125.7 L 141.1 124.7 L 143.7 123.1 L 146.1 121 L 147.7 119.3 L 148.9 117.5 L 149.9 115.6 L 150.7 113.6 L 151.3 111.6 L 151.5 109.5 L 151.4 107.5 L 151.1 105.6 L 150.5 103.7 L 149.7 102 L 148.7 100.4 L 147.4 99 L 146.1 97.8 L 144.6 96.9 L 143.1 96.2 L 141.4 95.7 L 139.5 95.5 L 137.7 95.5 L 135.8 95.8 L 133.9 96.4 L 135 94.2 L 135.8 92 L 136.1 89.8 L 136 87.5 L 135.5 85.3 L 134.5 83.2 L 133.2 81.1 L 131.5 79.2 L 128.8 76.9 L 125.7 75.3 L 122.4 74.4 L 118.8 74.1 L 115.2 74.5 L 111.8 75.7 L 108.6 77.5 L 105.6 80.1 L 103.3 82.8 L 101.6 85.7 L 100.5 88.7 L 100 91.9 L 100.1 95.2 L 100.9 98.2 L 102.2 101.2 L 104.2 104 L 104.2 104 Z"/><path stroke-width="5.9" fill="none" d="M 1189 873.4 L 1189 941.6 M 1126 873.4 L 1126 941.6"/><path d="M 1155.5 1005.7 L 1155.5 1033.9 L 1168 1033.9 L 1169.7 1033.8 L 1171.3 1033.7 L 1172.6 1033.4 L 1173.7 1033.1 L 1174.7 1032.7 L 1175.5 1032.1 L 1176.2 1031.3 L 1176.8 1030.4 L 1177.3 1029.4 L 1177.7 1028.4 L 1177.9 1027.3 L 1178 1026.2 L 1177.9 1024.7 L 1177.5 1023.4 L 1176.9 1022.2 L 1176.1 1021.1 L 1175 1020.2 L 1173.6 1019.4 L 1172 1018.9 L 1171 1018.7 L 1170.5 1021.7 L 1171.2 1021.9 L 1171.9 1022.3 L 1172.5 1022.7 L 1173 1023.1 L 1173.4 1023.6 L 1173.8 1024.2 L 1174 1024.9 L 1174.1 1025.5 L 1174.2 1026.2 L 1174.1 1027.1 L 1173.8 1028 L 1173.4 1028.8 L 1172.7 1029.5 L 1171.9 1030 L 1170.8 1030.5 L 1169.6 1030.7 L 1168.1 1030.8 L 1159.2 1030.8 L 1159.2 1021.4 L 1159.2 1021.4 L 1167.2 1021.4 L 1168.4 1021.5 L 1169.5 1021.6 L 1170.5 1021.7 L 1171 1018.7 L 1170.1 1018.5 L 1170.8 1018.2 L 1171.4 1017.8 L 1171.9 1017.5 L 1172.3 1017.1 L 1173.1 1016.3 L 1173.9 1015.4 L 1174.7 1014.4 L 1175.4 1013.4 L 1180.3 1005.7 L 1175.6 1005.7 L 1171.9 1011.6 L 1171.1 1012.7 L 1170.4 1013.8 L 1169.8 1014.7 L 1169.2 1015.5 L 1168.7 1016 L 1168.2 1016.6 L 1167.7 1017 L 1167.3 1017.3 L 1166.9 1017.6 L 1166.5 1017.8 L 1166 1017.9 L 1165.6 1018.1 L 1165.3 1018.1 L 1164.8 1018.2 L 1164.2 1018.2 L 1163.6 1018.2 L 1159.2 1018.2 L 1159.2 1005.7 L 1155.5 1005.7 L 1155.5 1005.7 Z"/><path d="M 1187.8 1021 L 1188.9 1018.8 L 1188.4 1018.6 L 1187.6 1017.9 L 1186.9 1017 L 1186.4 1016 L 1186.1 1015 L 1186 1013.8 L 1186 1013.8 L 1186 1013.1 L 1186.2 1012.4 L 1186.4 1011.7 L 1186.7 1011 L 1187.1 1010.3 L 1187.5 1009.7 L 1188.1 1009.2 L 1188.8 1008.8 L 1189.5 1008.5 L 1190.2 1008.2 L 1191 1008.1 L 1191.8 1008.1 L 1192.9 1008.2 L 1194 1008.4 L 1195 1009 L 1195.8 1009.7 L 1196.6 1010.5 L 1197.1 1011.5 L 1197.3 1012.5 L 1197.5 1013.7 L 1197.3 1014.9 L 1197 1016 L 1196.5 1016.9 L 1195.8 1017.9 L 1194.9 1018.6 L 1193.9 1019.1 L 1192.8 1019.4 L 1191.6 1019.5 L 1190.5 1019.4 L 1189.4 1019.1 L 1188.9 1018.8 L 1187.8 1021 L 1189.1 1023 L 1189.9 1022.6 L 1190.7 1022.4 L 1191.7 1022.3 L 1192.7 1022.4 L 1193.6 1022.6 L 1194.3 1023 L 1195 1023.6 L 1195.6 1024.2 L 1196 1024.9 L 1196.2 1025.8 L 1196.3 1026.6 L 1196.2 1027.5 L 1196 1028.4 L 1195.5 1029.2 L 1195 1029.9 L 1194.3 1030.4 L 1193.5 1030.8 L 1192.6 1031 L 1191.7 1031.1 L 1190.7 1031 L 1189.9 1030.8 L 1189.1 1030.4 L 1188.4 1029.9 L 1187.8 1029.2 L 1187.4 1028.5 L 1187.2 1027.7 L 1187.1 1026.8 L 1187.1 1026.8 L 1187.2 1025.9 L 1187.4 1025 L 1187.8 1024.2 L 1188.4 1023.6 L 1189.1 1023 L 1187.8 1021 L 1186.8 1021.4 L 1185.9 1021.9 L 1185.2 1022.5 L 1184.6 1023.2 L 1184.2 1024 L 1183.8 1024.8 L 1183.6 1025.7 L 1183.6 1026.7 L 1183.7 1028.2 L 1184.1 1029.5 L 1184.8 1030.8 L 1185.8 1031.9 L 1186.9 1032.8 L 1188.3 1033.4 L 1189.9 1033.8 L 1191.6 1034 L 1193.4 1033.8 L 1195 1033.4 L 1196.4 1032.8 L 1197.6 1031.8 L 1198.6 1030.7 L 1199.3 1029.5 L 1199.7 1028.1 L 1199.8 1026.6 L 1199.8 1025.7 L 1199.6 1024.8 L 1199.3 1024 L 1198.8 1023.2 L 1198.2 1022.5 L 1197.5 1021.9 L 1196.7 1021.4 L 1195.7 1021 L 1196.9 1020.5 L 1198 1019.9 L 1198.9 1019.1 L 1199.6 1018.2 L 1200.2 1017.3 L 1200.6 1016.2 L 1200.9 1015 L 1201 1013.8 L 1200.8 1012 L 1200.4 1010.4 L 1199.5 1009 L 1198.4 1007.7 L 1197.1 1006.6 L 1195.5 1005.8 L 1193.7 1005.4 L 1191.7 1005.2 L 1189.7 1005.4 L 1187.9 1005.8 L 1186.4 1006.6 L 1185 1007.7 L 1183.9 1009 L 1183.1 1010.5 L 1182.6 1012.1 L 1182.4 1013.8 L 1182.5 1015.2 L 1182.8 1016.4 L 1183.2 1017.5 L 1183.8 1018.4 L 1184.6 1019.3 L 1185.5 1020 L 1186.6 1020.6 L 1187.8 1021 L 1187.8 1021 Z"/><path stroke-width="5.9" fill="none" d="M 1374.2 440.8 L 1240.8 440.8 M 1374.2 440.8 L 1374.2 674.2 M 1374.2 674.2 L 1240.8 674.2 M 1240.8 674.2 L 1240.8 440.8"/><path d="M 1288.8 712.9 L 1295.5 713.8 L 1295.8 710.8 L 1296.3 708.4 L 1297 706.4 L 1298 704.9 L 1299.2 703.9 L 1300.5 703.2 L 1302.1 702.7 L 1303.9 702.6 L 1305.3 702.7 L 1306.6 702.9 L 1307.7 703.3 L 1308.8 703.8 L 1309.7 704.5 L 1310.5 705.4 L 1311.1 706.3 L 1311.6 707.3 L 1311.9 708.6 L 1312.1 710.2 L 1312.3 712.1 L 1312.3 714.4 L 1312.3 753.2 L 1319.8 753.2 L 1319.8 714.8 L 1319.7 711.5 L 1319.4 708.6 L 1318.8 706 L 1318.1 703.9 L 1317.1 702 L 1315.9 700.5 L 1314.4 699.1 L 1312.7 697.9 L 1310.7 697.1 L 1308.6 696.4 L 1306.4 696 L 1304 695.9 L 1300.5 696.2 L 1297.4 697 L 1294.8 698.3 L 1292.6 700.2 L 1290.9 702.6 L 1289.7 705.5 L 1289 708.9 L 1288.8 712.9 L 1288.8 712.9 Z"/><path d="M 1329.7 745.8 L 1329.7 752.5 L 1366.1 752.5 L 1366.1 747.1 L 1363.4 744 L 1360.8 740.5 L 1358.1 736.4 L 1355.5 731.9 L 1353 727.1 L 1350.8 722.3 L 1348.9 717.3 L 1347.3 712.4 L 1346.4 708.8 L 1345.6 704.9 L 1345 701 L 1344.6 696.9 L 1337.5 696.9 L 1337.7 700.4 L 1338.2 704.2 L 1339 708.4 L 1340.1 712.9 L 1341.5 717.6 L 1343.2 722.2 L 1345.1 726.7 L 1347.3 731.1 L 1349.7 735.3 L 1352.1 739.2 L 1354.7 742.7 L 1357.3 745.8 L 1329.7 745.8 L 1329.7 745.8 Z"/><path stroke-width="5.9" fill="none" d="M 674.2 174.2 L 674.2 40.8 M 674.2 174.2 L 440.8 174.2 M 440.8 174.2 L 440.8 40.8 M 440.8 40.8 L 674.2 40.8"/><path d="M 338.8 92.9 L 345.5 93.8 L 345.8 90.8 L 346.3 88.4 L 347 86.4 L 348 84.9 L 349.2 83.9 L 350.5 83.2 L 352.1 82.7 L 353.9 82.6 L 355.3 82.7 L 356.6 82.9 L 357.7 83.3 L 358.8 83.8 L 359.7 84.5 L 360.5 85.4 L 361.1 86.3 L 361.6 87.3 L 361.9 88.6 L 362.1 90.2 L 362.3 92.1 L 362.3 94.4 L 362.3 133.2 L 369.8 133.2 L 369.8 94.8 L 369.7 91.5 L 369.4 88.6 L 368.8 86 L 368.1 83.9 L 367.1 82 L 365.9 80.5 L 364.4 79.1 L 362.7 77.9 L 360.7 77.1 L 358.6 76.4 L 356.4 76 L 354 75.9 L 350.5 76.2 L 347.4 77 L 344.8 78.3 L 342.6 80.2 L 340.9 82.6 L 339.7 85.5 L 339 88.9 L 338.8 92.9 L 338.8 92.9 Z"/><path d="M 401.4 76.9 L 401.4 90.4 L 376.9 90.4 L 376.9 96.7 L 397 125.2 L 401.4 122.1 L 383.7 96.7 L 401.4 96.7 L 401.4 96.7 L 401.4 122.1 L 397 125.2 L 402.7 133.2 L 408.3 133.2 L 408.3 96.7 L 415.9 96.7 L 415.9 90.4 L 408.3 90.4 L 408.3 76.9 L 401.4 76.9 L 401.4 76.9 Z"/><path stroke-width="5.9" fill="none" d="M 573.6 625.8 L 573.6 1039.2 M 841.4 625.8 L 841.4 1039.2 M 573.6 1039.2 L 841.4 1039.2 M 573.6 625.8 L 841.4 625.8"/><use x="524.4" y="1040" xlink:href="#tool-D11-pad-1062"/><use x="613" y="999.8" xlink:href="#tool-D12-pad-1063"/><path d="M 649 845.7 L 652.8 845.7 L 652.8 829.4 L 652.7 827.4 L 652.5 825.6 L 652.2 824 L 651.8 822.7 L 651.2 821.5 L 650.5 820.4 L 649.5 819.4 L 648.3 818.6 L 647 817.9 L 645.4 817.4 L 643.7 817.1 L 641.8 817 L 639.9 817.1 L 638.1 817.3 L 636.6 817.8 L 635.3 818.4 L 634.1 819.2 L 633.1 820.1 L 632.3 821.1 L 631.7 822.3 L 631.2 823.8 L 630.8 825.4 L 630.6 827.3 L 630.6 829.4 L 630.6 845.7 L 634.3 845.7 L 634.3 829.4 L 634.4 827.7 L 634.5 826.2 L 634.7 825 L 635 824 L 635.4 823.2 L 635.9 822.5 L 636.6 821.8 L 637.3 821.3 L 638.2 820.9 L 639.2 820.6 L 640.3 820.5 L 641.4 820.4 L 643.3 820.5 L 644.9 820.8 L 646.2 821.4 L 647.3 822.3 L 648.1 823.4 L 648.6 825 L 648.9 827 L 649 829.4 L 649 845.7 L 649 845.7 Z"/><path d="M 670.6 817.5 L 667.1 817.5 L 667.1 839.5 L 666.5 839 L 665.7 838.4 L 664.8 837.8 L 663.9 837.2 L 662.9 836.6 L 661.9 836.1 L 661 835.7 L 660.2 835.4 L 660.2 838.7 L 661.6 839.4 L 662.9 840.2 L 664.2 841.1 L 665.3 842 L 666.3 843 L 667.1 844 L 667.9 844.9 L 668.4 845.8 L 670.6 845.8 L 670.6 817.5 L 670.6 817.5 Z"/><path stroke-width="5.9" fill="none" d="M 823.4 226 L 891.6 226 M 823.4 289 L 891.6 289"/><path d="M 835.5 305.7 L 835.5 333.9 L 848 333.9 L 849.7 333.8 L 851.3 333.7 L 852.6 333.4 L 853.7 333.1 L 854.7 332.7 L 855.5 332.1 L 856.2 331.3 L 856.8 330.4 L 857.3 329.4 L 857.7 328.4 L 857.9 327.3 L 858 326.2 L 857.9 324.7 L 857.5 323.4 L 856.9 322.2 L 856.1 321.1 L 855 320.2 L 853.6 319.4 L 852 318.9 L 851 318.7 L 850.5 321.7 L 851.2 321.9 L 851.9 322.3 L 852.5 322.7 L 853 323.1 L 853.4 323.6 L 853.8 324.2 L 854 324.9 L 854.1 325.5 L 854.2 326.2 L 854.1 327.1 L 853.8 328 L 853.4 328.8 L 852.7 329.5 L 851.9 330 L 850.8 330.5 L 849.6 330.7 L 848.1 330.8 L 839.2 330.8 L 839.2 321.4 L 839.2 321.4 L 847.2 321.4 L 848.4 321.5 L 849.5 321.6 L 850.5 321.7 L 851 318.7 L 850.1 318.5 L 850.8 318.2 L 851.4 317.8 L 851.9 317.5 L 852.3 317.1 L 853.1 316.3 L 853.9 315.4 L 854.7 314.4 L 855.4 313.4 L 860.3 305.7 L 855.6 305.7 L 851.9 311.6 L 851.1 312.7 L 850.4 313.8 L 849.8 314.7 L 849.2 315.5 L 848.7 316 L 848.2 316.6 L 847.7 317 L 847.3 317.3 L 846.9 317.6 L 846.5 317.8 L 846 317.9 L 845.6 318.1 L 845.3 318.1 L 844.8 318.2 L 844.2 318.2 L 843.6 318.2 L 839.2 318.2 L 839.2 305.7 L 835.5 305.7 L 835.5 305.7 Z"/><path d="M 862.5 313.1 L 866.1 313.4 L 866.4 312.1 L 866.8 311 L 867.3 310.1 L 868 309.4 L 868.8 308.8 L 869.6 308.4 L 870.5 308.1 L 871.5 308.1 L 872.7 308.2 L 873.8 308.5 L 874.8 309.1 L 875.7 309.9 L 876.5 311 L 877 312.1 L 877.4 313.4 L 877.5 314.9 L 877.4 316.3 L 877.1 317.6 L 876.6 318.7 L 875.8 319.6 L 874.9 320.4 L 873.9 320.9 L 872.7 321.2 L 871.5 321.3 L 870.6 321.3 L 869.9 321.1 L 869.1 320.9 L 868.4 320.6 L 867.8 320.1 L 867.2 319.7 L 866.8 319.2 L 866.3 318.6 L 863.1 319 L 865.8 333.5 L 879.8 333.5 L 879.8 330.2 L 868.6 330.2 L 867.1 322.6 L 868.3 323.4 L 869.7 323.9 L 871 324.3 L 872.4 324.4 L 874.2 324.2 L 875.8 323.7 L 877.3 322.9 L 878.6 321.8 L 879.7 320.5 L 880.5 318.9 L 881 317.1 L 881.2 315.3 L 881 313.4 L 880.6 311.7 L 879.9 310.1 L 878.9 308.6 L 877.4 307.1 L 875.7 306.1 L 873.7 305.4 L 871.5 305.2 L 869.7 305.3 L 868 305.7 L 866.6 306.4 L 865.3 307.3 L 864.2 308.5 L 863.3 309.9 L 862.8 311.4 L 862.5 313.1 L 862.5 313.1 Z"/><path stroke-width="5.9" fill="none" d="M 740.8 40.8 L 740.8 174.2 M 740.8 40.8 L 974.2 40.8 M 974.2 40.8 L 974.2 174.2 M 974.2 174.2 L 740.8 174.2"/><path d="M 998.8 92.9 L 1005.5 93.8 L 1005.8 90.8 L 1006.3 88.4 L 1007 86.4 L 1008 84.9 L 1009.2 83.9 L 1010.5 83.2 L 1012.1 82.7 L 1013.9 82.6 L 1015.3 82.7 L 1016.6 82.9 L 1017.7 83.3 L 1018.8 83.8 L 1019.7 84.5 L 1020.5 85.4 L 1021.1 86.3 L 1021.6 87.3 L 1021.9 88.6 L 1022.1 90.2 L 1022.3 92.1 L 1022.3 94.4 L 1022.3 133.2 L 1029.8 133.2 L 1029.8 94.8 L 1029.7 91.5 L 1029.4 88.6 L 1028.8 86 L 1028.1 83.9 L 1027.1 82 L 1025.9 80.5 L 1024.4 79.1 L 1022.7 77.9 L 1020.7 77.1 L 1018.6 76.4 L 1016.4 76 L 1014 75.9 L 1010.5 76.2 L 1007.4 77 L 1004.8 78.3 L 1002.6 80.2 L 1000.9 82.6 L 999.7 85.5 L 999 88.9 L 998.8 92.9 L 998.8 92.9 Z"/><path d="M 1039.2 91.6 L 1046.4 92.3 L 1047 89.7 L 1047.8 87.6 L 1048.9 85.8 L 1050.2 84.3 L 1051.8 83.1 L 1053.4 82.3 L 1055.3 81.8 L 1057.3 81.6 L 1059.7 81.8 L 1061.9 82.5 L 1063.9 83.7 L 1065.8 85.4 L 1067.3 87.4 L 1068.4 89.7 L 1069 92.4 L 1069.2 95.4 L 1069 98.2 L 1068.4 100.6 L 1067.3 102.9 L 1065.9 104.7 L 1064.1 106.2 L 1062.1 107.3 L 1059.7 107.9 L 1057.2 108.1 L 1055.5 108.1 L 1054 107.7 L 1052.5 107.3 L 1051.2 106.6 L 1049.9 105.8 L 1048.8 104.9 L 1047.8 103.8 L 1046.9 102.7 L 1040.4 103.5 L 1045.9 132.5 L 1073.9 132.5 L 1073.9 125.8 L 1051.4 125.8 L 1048.4 110.7 L 1051 112.3 L 1053.6 113.4 L 1056.3 114 L 1059 114.2 L 1062.6 113.9 L 1065.8 113 L 1068.8 111.4 L 1071.5 109.1 L 1073.7 106.4 L 1075.3 103.3 L 1076.2 99.8 L 1076.6 96 L 1076.3 92.3 L 1075.5 88.8 L 1074 85.7 L 1072.1 82.7 L 1069.2 79.7 L 1065.7 77.6 L 1061.8 76.3 L 1057.3 75.9 L 1053.6 76.2 L 1050.3 77 L 1047.3 78.3 L 1044.7 80.2 L 1042.6 82.5 L 1040.9 85.2 L 1039.8 88.2 L 1039.2 91.6 L 1039.2 91.6 Z"/><path stroke-width="5.9" fill="none" d="M 1127.2 1227.2 L 1127.2 1087.8 M 1127.2 1227.2 L 287.8 1227.2 M 287.8 1227.2 L 287.8 1087.8 M 287.8 1087.8 L 1127.2 1087.8"/><use x="1127.5" y="1157.5" xlink:href="#tool-D13-pad-1064"/><path stroke-width="5.9" fill="none" d="M 996 1021.6 L 996 953.4 M 1059 1021.6 L 1059 953.4"/><path d="M 1078.4 1042.8 L 1078.4 1071 L 1090.9 1071 L 1092.7 1070.9 L 1094.2 1070.8 L 1095.5 1070.6 L 1096.6 1070.2 L 1097.5 1069.8 L 1098.4 1069.2 L 1099.1 1068.4 L 1099.7 1067.5 L 1100.3 1066.6 L 1100.6 1065.5 L 1100.8 1064.4 L 1100.9 1063.3 L 1100.8 1061.9 L 1100.4 1060.5 L 1099.8 1059.3 L 1099 1058.2 L 1097.9 1057.3 L 1096.5 1056.6 L 1094.9 1056 L 1093.9 1055.8 L 1093.3 1058.8 L 1094.1 1059.1 L 1094.8 1059.4 L 1095.4 1059.7 L 1095.9 1060.2 L 1096.3 1060.8 L 1096.6 1061.4 L 1096.9 1062 L 1097 1062.6 L 1097.1 1063.3 L 1097 1064.2 L 1096.7 1065.1 L 1096.2 1065.9 L 1095.6 1066.6 L 1094.8 1067.1 L 1093.8 1067.5 L 1092.5 1067.8 L 1091 1067.9 L 1082.1 1067.9 L 1082.1 1058.6 L 1082.1 1058.6 L 1090.1 1058.6 L 1091.3 1058.6 L 1092.4 1058.7 L 1093.3 1058.8 L 1093.9 1055.8 L 1093 1055.6 L 1093.7 1055.3 L 1094.3 1054.9 L 1094.8 1054.6 L 1095.2 1054.2 L 1096 1053.4 L 1096.8 1052.5 L 1097.6 1051.6 L 1098.3 1050.5 L 1103.2 1042.8 L 1098.5 1042.8 L 1094.8 1048.7 L 1094 1049.9 L 1093.3 1050.9 L 1092.7 1051.8 L 1092.1 1052.5 L 1091.6 1053.2 L 1091.1 1053.7 L 1090.6 1054.1 L 1090.2 1054.4 L 1089.8 1054.7 L 1089.4 1054.9 L 1089 1055.1 L 1088.5 1055.2 L 1088.1 1055.3 L 1087.7 1055.3 L 1087.1 1055.3 L 1086.4 1055.3 L 1082.1 1055.3 L 1082.1 1042.8 L 1078.4 1042.8 L 1078.4 1042.8 Z"/><path d="M 1105.9 1049.3 L 1109.2 1049.6 L 1109.5 1048.5 L 1109.8 1047.6 L 1110.3 1046.8 L 1110.8 1046.2 L 1111.4 1045.8 L 1112.2 1045.4 L 1113 1045.2 L 1113.9 1045.2 L 1114.6 1045.2 L 1115.4 1045.3 L 1116 1045.6 L 1116.7 1045.9 L 1117.2 1046.3 L 1117.8 1046.8 L 1118.2 1047.3 L 1118.6 1047.9 L 1119 1048.5 L 1119.4 1049.3 L 1119.7 1050.2 L 1119.9 1051.2 L 1120.1 1052.2 L 1120.3 1053.2 L 1120.4 1054.3 L 1120.5 1055.4 L 1120.5 1055.5 L 1120.5 1055.6 L 1120.4 1055.8 L 1120.4 1056.1 L 1118.7 1057.3 L 1119.2 1058 L 1119.7 1059.1 L 1119.9 1060.3 L 1120 1061.8 L 1120 1061.8 L 1119.9 1063.2 L 1119.6 1064.4 L 1119.2 1065.5 L 1118.4 1066.5 L 1117.6 1067.3 L 1116.7 1067.8 L 1115.7 1068.1 L 1114.6 1068.2 L 1113.5 1068.1 L 1112.5 1067.8 L 1111.5 1067.2 L 1110.6 1066.4 L 1109.9 1065.3 L 1109.4 1064.2 L 1109 1062.9 L 1108.9 1061.5 L 1109 1060.2 L 1109.3 1059 L 1109.8 1058 L 1110.5 1057.1 L 1111.4 1056.4 L 1112.3 1055.8 L 1113.4 1055.5 L 1114.5 1055.4 L 1115.7 1055.5 L 1116.7 1055.8 L 1117.7 1056.4 L 1118.5 1057.1 L 1118.7 1057.3 L 1120.4 1056.1 L 1119.9 1055.3 L 1119.2 1054.6 L 1118.4 1053.9 L 1117.6 1053.4 L 1116.7 1052.9 L 1115.7 1052.6 L 1114.7 1052.4 L 1113.7 1052.3 L 1112 1052.5 L 1110.5 1053 L 1109 1053.8 L 1107.8 1054.9 L 1106.7 1056.3 L 1106 1057.8 L 1105.5 1059.6 L 1105.3 1061.6 L 1105.5 1063.6 L 1106 1065.5 L 1106.8 1067.1 L 1107.9 1068.5 L 1109.2 1069.6 L 1110.7 1070.5 L 1112.4 1070.9 L 1114.2 1071.1 L 1115.6 1071 L 1116.8 1070.7 L 1118.1 1070.3 L 1119.2 1069.6 L 1120.3 1068.8 L 1121.2 1067.8 L 1122 1066.7 L 1122.7 1065.4 L 1123.2 1063.9 L 1123.6 1062 L 1123.8 1059.9 L 1123.9 1057.5 L 1123.8 1054.9 L 1123.6 1052.6 L 1123.2 1050.6 L 1122.7 1048.9 L 1122.1 1047.3 L 1121.2 1046 L 1120.3 1044.9 L 1119.2 1044 L 1118 1043.2 L 1116.7 1042.7 L 1115.3 1042.4 L 1113.8 1042.3 L 1112.2 1042.4 L 1110.8 1042.8 L 1109.5 1043.4 L 1108.4 1044.2 L 1107.5 1045.2 L 1106.7 1046.4 L 1106.2 1047.7 L 1105.9 1049.3 L 1105.9 1049.3 Z"/><path stroke-width="5.9" fill="none" d="M 439 473.4 L 439 541.6 M 376 473.4 L 376 541.6"/><path d="M 405.5 385.6 L 409.3 384.6 L 408.6 382.5 L 407.6 380.6 L 406.5 379 L 405.1 377.6 L 403.4 376.6 L 401.7 375.8 L 399.7 375.4 L 397.6 375.2 L 395.4 375.3 L 393.5 375.7 L 391.7 376.2 L 390.2 377.1 L 388.8 378.1 L 387.7 379.4 L 386.7 380.8 L 385.8 382.4 L 385.2 384.2 L 384.7 386.1 L 384.5 388 L 384.4 390 L 384.5 392.1 L 384.8 394.1 L 385.3 396 L 386 397.7 L 387 399.2 L 388.1 400.6 L 389.4 401.7 L 390.8 402.7 L 392.4 403.4 L 394.1 403.9 L 395.8 404.2 L 397.7 404.4 L 399.7 404.2 L 401.6 403.8 L 403.2 403.1 L 404.8 402.2 L 406.1 401 L 407.2 399.6 L 408.1 398 L 408.8 396.2 L 405.1 395.3 L 404.6 396.7 L 403.9 397.9 L 403.2 399 L 402.3 399.7 L 401.3 400.4 L 400.2 400.8 L 398.9 401.1 L 397.6 401.2 L 396 401.1 L 394.6 400.8 L 393.3 400.3 L 392.1 399.6 L 391.2 398.8 L 390.3 397.8 L 389.6 396.7 L 389.1 395.4 L 388.7 394.1 L 388.4 392.8 L 388.2 391.4 L 388.2 390 L 388.2 388.3 L 388.4 386.6 L 388.8 385.1 L 389.2 383.7 L 389.9 382.5 L 390.6 381.4 L 391.5 380.5 L 392.5 379.7 L 393.6 379.2 L 394.8 378.7 L 396 378.5 L 397.3 378.4 L 398.8 378.5 L 400.2 378.8 L 401.4 379.4 L 402.6 380.2 L 403.6 381.2 L 404.4 382.5 L 405.1 383.9 L 405.5 385.6 L 405.5 385.6 Z"/><path d="M 425.5 375.7 L 422 375.7 L 422 397.7 L 421.4 397.1 L 420.6 396.6 L 419.7 396 L 418.8 395.4 L 417.8 394.8 L 416.8 394.3 L 416 393.9 L 415.1 393.6 L 415.1 396.9 L 416.5 397.6 L 417.9 398.4 L 419.1 399.3 L 420.2 400.2 L 421.2 401.2 L 422 402.1 L 422.7 403.1 L 423.2 404 L 425.5 404 L 425.5 375.7 L 425.5 375.7 Z"/><path stroke-width="5.9" fill="none" d="M 1189 523.4 L 1189 591.6 M 1126 523.4 L 1126 591.6"/><path d="M 1155.5 655.7 L 1155.5 683.9 L 1168 683.9 L 1169.7 683.8 L 1171.3 683.7 L 1172.6 683.4 L 1173.7 683.1 L 1174.7 682.7 L 1175.5 682.1 L 1176.2 681.3 L 1176.8 680.4 L 1177.3 679.4 L 1177.7 678.4 L 1177.9 677.3 L 1178 676.2 L 1177.9 674.7 L 1177.5 673.4 L 1176.9 672.2 L 1176.1 671.1 L 1175 670.2 L 1173.6 669.4 L 1172 668.9 L 1171 668.7 L 1170.5 671.7 L 1171.2 671.9 L 1171.9 672.3 L 1172.5 672.7 L 1173 673.1 L 1173.4 673.6 L 1173.8 674.2 L 1174 674.9 L 1174.1 675.5 L 1174.2 676.2 L 1174.1 677.1 L 1173.8 678 L 1173.4 678.8 L 1172.7 679.5 L 1171.9 680 L 1170.8 680.5 L 1169.6 680.7 L 1168.1 680.8 L 1159.2 680.8 L 1159.2 671.4 L 1159.2 671.4 L 1167.2 671.4 L 1168.4 671.5 L 1169.5 671.6 L 1170.5 671.7 L 1171 668.7 L 1170.1 668.5 L 1170.8 668.2 L 1171.4 667.8 L 1171.9 667.5 L 1172.3 667.1 L 1173.1 666.3 L 1173.9 665.4 L 1174.7 664.4 L 1175.4 663.4 L 1180.3 655.7 L 1175.6 655.7 L 1171.9 661.6 L 1171.1 662.7 L 1170.4 663.8 L 1169.8 664.7 L 1169.2 665.5 L 1168.7 666 L 1168.2 666.6 L 1167.7 667 L 1167.3 667.3 L 1166.9 667.6 L 1166.5 667.8 L 1166 667.9 L 1165.6 668.1 L 1165.3 668.1 L 1164.8 668.2 L 1164.2 668.2 L 1163.6 668.2 L 1159.2 668.2 L 1159.2 655.7 L 1155.5 655.7 L 1155.5 655.7 Z"/><path d="M 1182.7 680.2 L 1182.7 683.5 L 1200.9 683.5 L 1200.9 680.8 L 1199.6 679.3 L 1198.2 677.5 L 1196.9 675.5 L 1195.6 673.2 L 1194.4 670.8 L 1193.2 668.4 L 1192.3 665.9 L 1191.5 663.4 L 1191 661.6 L 1190.6 659.7 L 1190.4 657.7 L 1190.2 655.7 L 1186.6 655.7 L 1186.8 657.4 L 1187 659.4 L 1187.4 661.4 L 1187.9 663.7 L 1188.6 666 L 1189.5 668.4 L 1190.4 670.6 L 1191.5 672.8 L 1192.7 674.9 L 1193.9 676.8 L 1195.2 678.6 L 1196.5 680.2 L 1182.7 680.2 L 1182.7 680.2 Z"/><path d="M 977.5 1262.1 L 941.7 1262.1 L 941.7 1266.9 L 977.5 1266.9 L 977.5 1262.1 L 977.5 1262.1 Z"/><path d="M 977.5 1275.2 L 941.7 1275.2 L 941.7 1280.1 L 969.8 1298.8 L 941.7 1298.8 L 941.7 1303.4 L 977.5 1303.4 L 977.5 1298.5 L 949.4 1279.7 L 977.5 1279.7 L 977.5 1275.2 L 977.5 1275.2 Z"/><path d="M 977.5 1320.5 L 945.9 1320.5 L 945.9 1308.7 L 941.7 1308.7 L 941.7 1337 L 945.9 1337 L 945.9 1325.2 L 977.5 1325.2 L 977.5 1320.5 L 977.5 1320.5 Z"/><path d="M 766 1259.7 L 765.6 1264.2 L 766.9 1264.4 L 768.1 1264.7 L 769.1 1265.2 L 770 1265.7 L 770.8 1266.4 L 771.6 1267.2 L 772.2 1268.2 L 772.8 1269.3 L 773.2 1270.5 L 773.6 1271.9 L 773.8 1273.3 L 773.9 1274.8 L 773.8 1276.1 L 773.6 1277.3 L 773.4 1278.5 L 773.1 1279.6 L 772.6 1280.5 L 772.1 1281.4 L 771.5 1282.1 L 770.8 1282.7 L 770.1 1283.1 L 769.4 1283.4 L 768.6 1283.6 L 767.8 1283.7 L 766.9 1283.6 L 766.2 1283.4 L 765.5 1283.1 L 764.8 1282.7 L 764.2 1282.1 L 763.7 1281.4 L 763.2 1280.5 L 762.7 1279.5 L 762.4 1278.5 L 762 1277.1 L 761.6 1275.3 L 761 1273.1 L 760.4 1270.8 L 759.8 1268.9 L 759.3 1267.4 L 758.8 1266.2 L 758.1 1265 L 757.3 1264 L 756.4 1263.1 L 755.4 1262.4 L 754.4 1261.8 L 753.3 1261.4 L 752.1 1261.2 L 751 1261.1 L 749.6 1261.2 L 748.3 1261.5 L 747.1 1262 L 745.9 1262.7 L 744.8 1263.5 L 743.8 1264.5 L 743 1265.8 L 742.3 1267.1 L 741.8 1268.7 L 741.4 1270.3 L 741.2 1271.9 L 741.1 1273.7 L 741.2 1275.6 L 741.4 1277.5 L 741.8 1279.2 L 742.4 1280.7 L 743.1 1282.1 L 744 1283.4 L 745 1284.5 L 746.2 1285.4 L 747.4 1286.1 L 748.8 1286.7 L 750.3 1287 L 751.8 1287.1 L 752.1 1282.6 L 750.5 1282.3 L 749.2 1281.8 L 748 1281.1 L 747 1280.1 L 746.2 1279 L 745.7 1277.5 L 745.4 1275.8 L 745.3 1273.9 L 745.4 1271.9 L 745.6 1270.2 L 746.2 1268.8 L 746.8 1267.7 L 747.7 1266.8 L 748.6 1266.2 L 749.6 1265.8 L 750.6 1265.7 L 751.6 1265.8 L 752.4 1266 L 753.2 1266.5 L 753.8 1267.1 L 754.4 1268 L 755.1 1269.5 L 755.7 1271.6 L 756.4 1274.2 L 757 1276.9 L 757.6 1279.1 L 758.1 1280.8 L 758.6 1282.1 L 759.4 1283.6 L 760.3 1284.9 L 761.2 1285.9 L 762.3 1286.8 L 763.4 1287.4 L 764.7 1287.9 L 766 1288.1 L 767.4 1288.2 L 768.8 1288.1 L 770.2 1287.8 L 771.5 1287.3 L 772.8 1286.6 L 774 1285.7 L 775 1284.6 L 775.9 1283.3 L 776.7 1281.9 L 777.3 1280.3 L 777.8 1278.6 L 778 1276.9 L 778.1 1275 L 778 1272.7 L 777.8 1270.5 L 777.3 1268.6 L 776.7 1266.9 L 775.9 1265.3 L 774.9 1263.9 L 773.8 1262.7 L 772.4 1261.7 L 771 1260.9 L 769.4 1260.3 L 767.7 1259.9 L 766 1259.7 L 766 1259.7 Z"/><path d="M 764.9 1320.3 L 766.2 1325 L 768.9 1324.1 L 771.3 1322.9 L 773.3 1321.4 L 775.1 1319.6 L 776.4 1317.6 L 777.3 1315.3 L 777.9 1312.9 L 778.1 1310.2 L 778 1307.4 L 777.5 1304.9 L 776.8 1302.7 L 775.8 1300.8 L 774.4 1299 L 772.9 1297.5 L 771 1296.3 L 768.9 1295.2 L 766.7 1294.4 L 764.3 1293.8 L 761.9 1293.4 L 759.4 1293.3 L 756.6 1293.5 L 754.1 1293.9 L 751.8 1294.5 L 749.6 1295.5 L 747.6 1296.7 L 745.9 1298.1 L 744.5 1299.7 L 743.2 1301.6 L 742.3 1303.6 L 741.6 1305.7 L 741.2 1307.9 L 741.1 1310.2 L 741.3 1312.8 L 741.8 1315.2 L 742.6 1317.3 L 743.8 1319.3 L 745.3 1321 L 747.1 1322.4 L 749.2 1323.5 L 751.5 1324.4 L 752.6 1319.7 L 750.8 1319 L 749.2 1318.2 L 748 1317.2 L 746.9 1316.1 L 746.2 1314.8 L 745.6 1313.4 L 745.3 1311.9 L 745.1 1310.1 L 745.3 1308.2 L 745.6 1306.4 L 746.3 1304.7 L 747.1 1303.2 L 748.2 1301.9 L 749.4 1300.9 L 750.8 1300 L 752.4 1299.4 L 754.1 1298.8 L 755.8 1298.5 L 757.5 1298.3 L 759.3 1298.2 L 761.5 1298.3 L 763.6 1298.6 L 765.5 1299 L 767.3 1299.5 L 768.9 1300.3 L 770.3 1301.2 L 771.4 1302.4 L 772.4 1303.7 L 773.1 1305.1 L 773.6 1306.6 L 774 1308.2 L 774.1 1309.8 L 773.9 1311.7 L 773.5 1313.4 L 772.8 1315.1 L 771.8 1316.5 L 770.5 1317.8 L 768.9 1318.8 L 767.1 1319.6 L 764.9 1320.3 L 764.9 1320.3 Z"/><path d="M 777.5 1330.6 L 741.7 1330.6 L 741.7 1335.4 L 773.3 1335.4 L 773.3 1353 L 777.5 1353 L 777.5 1330.6 L 777.5 1330.6 Z"/><path d="M 677.5 1257.4 L 644.2 1270.2 L 645.5 1273.6 L 647.2 1273.2 L 648.9 1272.8 L 650.6 1272.3 L 652.3 1271.7 L 662.8 1267.7 L 662.8 1267.7 L 662.8 1279.9 L 652.9 1276.2 L 650.7 1275.3 L 648.8 1274.7 L 647 1274.1 L 645.5 1273.6 L 644.2 1270.2 L 641.7 1271.2 L 641.7 1276.3 L 677.5 1290.9 L 677.5 1285.5 L 666.7 1281.4 L 666.7 1266.4 L 677.5 1262.5 L 677.5 1257.4 L 677.5 1257.4 Z"/><path d="M 659.9 1292.9 L 656.8 1293 L 654.1 1293.2 L 651.7 1293.6 L 649.6 1294.2 L 647.8 1295 L 646.2 1295.8 L 644.8 1296.9 L 643.7 1298.1 L 642.7 1299.5 L 642.1 1301 L 641.7 1302.7 L 641.6 1304.6 L 641.6 1306 L 641.9 1307.3 L 642.2 1308.5 L 642.7 1309.7 L 643.4 1310.7 L 644.2 1311.6 L 645 1312.5 L 646.1 1313.2 L 647.2 1313.9 L 648.5 1314.5 L 649.9 1315 L 651.4 1315.5 L 653.1 1315.8 L 655.1 1316.1 L 657.3 1316.2 L 659.9 1316.3 L 662.9 1316.2 L 665.5 1315.9 L 667.9 1315.5 L 670 1315 L 671.8 1314.2 L 673.4 1313.4 L 674.8 1312.3 L 676 1311.1 L 676.9 1309.7 L 677.6 1308.2 L 678 1306.5 L 678.1 1304.6 L 678.1 1304.3 L 674.5 1304.6 L 674.3 1306 L 673.8 1307.4 L 672.9 1308.6 L 671.6 1309.7 L 669.7 1310.6 L 667.2 1311.2 L 663.9 1311.6 L 659.9 1311.8 L 655.8 1311.6 L 652.5 1311.2 L 649.9 1310.6 L 648.1 1309.7 L 646.8 1308.6 L 645.9 1307.4 L 645.4 1306 L 645.2 1304.5 L 645.4 1303.1 L 645.8 1301.8 L 646.6 1300.7 L 647.8 1299.7 L 649.7 1298.7 L 652.4 1298 L 655.8 1297.6 L 659.9 1297.5 L 659.9 1297.5 L 663.9 1297.6 L 667.2 1298 L 669.7 1298.6 L 671.6 1299.5 L 672.9 1300.6 L 673.8 1301.8 L 674.3 1303.1 L 674.5 1304.6 L 678.1 1304.3 L 677.9 1302.1 L 677.2 1300 L 676 1298.1 L 674.4 1296.5 L 671.8 1294.9 L 668.5 1293.8 L 664.5 1293.1 L 659.9 1292.9 L 659.9 1292.9 Z"/><path d="M 866 1259.7 L 865.6 1264.2 L 866.9 1264.4 L 868.1 1264.7 L 869.1 1265.2 L 870 1265.7 L 870.8 1266.4 L 871.6 1267.2 L 872.2 1268.2 L 872.8 1269.3 L 873.2 1270.5 L 873.6 1271.9 L 873.8 1273.3 L 873.9 1274.8 L 873.8 1276.1 L 873.6 1277.3 L 873.4 1278.5 L 873.1 1279.6 L 872.6 1280.5 L 872.1 1281.4 L 871.5 1282.1 L 870.8 1282.7 L 870.1 1283.1 L 869.4 1283.4 L 868.6 1283.6 L 867.8 1283.7 L 866.9 1283.6 L 866.2 1283.4 L 865.5 1283.1 L 864.8 1282.7 L 864.2 1282.1 L 863.7 1281.4 L 863.2 1280.5 L 862.7 1279.5 L 862.4 1278.5 L 862 1277.1 L 861.6 1275.3 L 861 1273.1 L 860.4 1270.8 L 859.8 1268.9 L 859.3 1267.4 L 858.8 1266.2 L 858.1 1265 L 857.3 1264 L 856.4 1263.1 L 855.4 1262.4 L 854.4 1261.8 L 853.3 1261.4 L 852.1 1261.2 L 851 1261.1 L 849.6 1261.2 L 848.3 1261.5 L 847.1 1262 L 845.9 1262.7 L 844.8 1263.5 L 843.8 1264.5 L 843 1265.8 L 842.3 1267.1 L 841.8 1268.7 L 841.4 1270.3 L 841.2 1271.9 L 841.1 1273.7 L 841.2 1275.6 L 841.4 1277.5 L 841.8 1279.2 L 842.4 1280.7 L 843.1 1282.1 L 844 1283.4 L 845 1284.5 L 846.2 1285.4 L 847.4 1286.1 L 848.8 1286.7 L 850.3 1287 L 851.8 1287.1 L 852.1 1282.6 L 850.5 1282.3 L 849.2 1281.8 L 848 1281.1 L 847 1280.1 L 846.2 1279 L 845.7 1277.5 L 845.4 1275.8 L 845.3 1273.9 L 845.4 1271.9 L 845.6 1270.2 L 846.2 1268.8 L 846.8 1267.7 L 847.7 1266.8 L 848.6 1266.2 L 849.6 1265.8 L 850.6 1265.7 L 851.6 1265.8 L 852.4 1266 L 853.2 1266.5 L 853.8 1267.1 L 854.4 1268 L 855.1 1269.5 L 855.7 1271.6 L 856.4 1274.2 L 857 1276.9 L 857.6 1279.1 L 858.1 1280.8 L 858.6 1282.1 L 859.4 1283.6 L 860.3 1284.9 L 861.2 1285.9 L 862.3 1286.8 L 863.4 1287.4 L 864.7 1287.9 L 866 1288.1 L 867.4 1288.2 L 868.8 1288.1 L 870.2 1287.8 L 871.5 1287.3 L 872.8 1286.6 L 874 1285.7 L 875 1284.6 L 875.9 1283.3 L 876.7 1281.9 L 877.3 1280.3 L 877.8 1278.6 L 878 1276.9 L 878.1 1275 L 878 1272.7 L 877.8 1270.5 L 877.3 1268.6 L 876.7 1266.9 L 875.9 1265.3 L 874.9 1263.9 L 873.8 1262.7 L 872.4 1261.7 L 871 1260.9 L 869.4 1260.3 L 867.7 1259.9 L 866 1259.7 L 866 1259.7 Z"/><path d="M 877.5 1294.7 L 841.7 1294.7 L 841.7 1306.9 L 845.9 1306.9 L 845.9 1299.4 L 873.3 1299.4 L 873.3 1299.4 L 873.3 1307.1 L 873.2 1308.8 L 873.1 1310.3 L 872.9 1311.6 L 872.6 1312.7 L 872.3 1313.6 L 871.8 1314.5 L 871.3 1315.2 L 870.8 1315.8 L 869.9 1316.6 L 868.8 1317.3 L 867.6 1318 L 866.2 1318.5 L 864.7 1318.9 L 863.1 1319.2 L 861.3 1319.4 L 859.4 1319.4 L 856.7 1319.3 L 854.4 1319 L 852.4 1318.4 L 850.7 1317.6 L 849.3 1316.6 L 848.2 1315.5 L 847.3 1314.4 L 846.7 1313.1 L 846.4 1312 L 846.1 1310.6 L 846 1308.9 L 845.9 1306.9 L 841.7 1306.9 L 841.7 1307 L 841.8 1309 L 841.8 1310.7 L 842 1312.2 L 842.2 1313.4 L 842.7 1314.9 L 843.2 1316.2 L 843.9 1317.5 L 844.8 1318.6 L 846.1 1320 L 847.5 1321.1 L 849.1 1322.1 L 850.9 1322.9 L 852.8 1323.5 L 854.9 1324 L 857.1 1324.2 L 859.4 1324.3 L 861.4 1324.2 L 863.2 1324.1 L 865 1323.8 L 866.6 1323.3 L 868.1 1322.9 L 869.5 1322.3 L 870.8 1321.6 L 871.8 1320.9 L 872.8 1320.1 L 873.7 1319.4 L 874.4 1318.5 L 875.1 1317.7 L 875.6 1316.7 L 876.1 1315.7 L 876.6 1314.6 L 876.9 1313.4 L 877.1 1312.1 L 877.3 1310.7 L 877.5 1309.2 L 877.5 1307.6 L 877.5 1294.7 L 877.5 1294.7 Z"/><path d="M 877.5 1326.9 L 844.2 1339.7 L 845.5 1343.1 L 847.2 1342.7 L 848.9 1342.3 L 850.6 1341.7 L 852.3 1341.2 L 862.8 1337.2 L 862.8 1337.2 L 862.8 1349.4 L 852.9 1345.6 L 850.7 1344.8 L 848.8 1344.1 L 847 1343.5 L 845.5 1343.1 L 844.2 1339.7 L 841.7 1340.6 L 841.7 1345.7 L 877.5 1360.4 L 877.5 1355 L 866.7 1350.8 L 866.7 1335.8 L 877.5 1331.9 L 877.5 1326.9 L 877.5 1326.9 Z"/><path d="M 577.5 1257.4 L 544.2 1270.2 L 545.5 1273.6 L 547.2 1273.2 L 548.9 1272.8 L 550.6 1272.3 L 552.3 1271.7 L 562.8 1267.7 L 562.8 1267.7 L 562.8 1279.9 L 552.9 1276.2 L 550.7 1275.3 L 548.8 1274.7 L 547 1274.1 L 545.5 1273.6 L 544.2 1270.2 L 541.7 1271.2 L 541.7 1276.3 L 577.5 1290.9 L 577.5 1285.5 L 566.7 1281.4 L 566.7 1266.4 L 577.5 1262.5 L 577.5 1257.4 L 577.5 1257.4 Z"/><path d="M 577.5 1309.5 L 577.5 1305.1 L 549.5 1305.1 L 550.3 1304.2 L 551 1303.2 L 551.8 1302.1 L 552.5 1300.9 L 553.2 1299.7 L 553.8 1298.5 L 554.4 1297.3 L 554.8 1296.3 L 550.5 1296.3 L 549.6 1298.1 L 548.6 1299.7 L 547.5 1301.3 L 546.4 1302.7 L 545.1 1304 L 543.9 1305.1 L 542.7 1306 L 541.6 1306.6 L 541.6 1309.5 L 577.5 1309.5 L 577.5 1309.5 Z"/><path d="M 477.5 1257.4 L 444.2 1270.2 L 445.5 1273.6 L 447.2 1273.2 L 448.9 1272.8 L 450.6 1272.3 L 452.3 1271.7 L 462.8 1267.7 L 462.8 1267.7 L 462.8 1279.9 L 452.9 1276.2 L 450.7 1275.3 L 448.8 1274.7 L 447 1274.1 L 445.5 1273.6 L 444.2 1270.2 L 441.7 1271.2 L 441.7 1276.3 L 477.5 1290.9 L 477.5 1285.5 L 466.7 1281.4 L 466.7 1266.4 L 477.5 1262.5 L 477.5 1257.4 L 477.5 1257.4 Z"/><path d="M 473.3 1316 L 477.5 1316 L 477.5 1292.4 L 476.7 1292.4 L 475.9 1292.5 L 475.2 1292.6 L 474.4 1292.9 L 473.2 1293.4 L 472.1 1294 L 470.8 1294.9 L 469.7 1295.8 L 468.5 1296.9 L 467.1 1298.2 L 465.8 1299.7 L 464.3 1301.5 L 462 1304.2 L 460 1306.4 L 458.2 1308.1 L 456.7 1309.4 L 455.3 1310.3 L 454 1310.9 L 452.7 1311.3 L 451.4 1311.4 L 450.1 1311.4 L 449 1311 L 447.9 1310.4 L 447 1309.6 L 446.2 1308.6 L 445.6 1307.4 L 445.3 1306.2 L 445.2 1304.7 L 445.3 1303.2 L 445.7 1301.9 L 446.3 1300.7 L 447.1 1299.6 L 448.1 1298.8 L 449.4 1298.2 L 450.8 1297.9 L 452.4 1297.7 L 451.9 1293.2 L 449.5 1293.6 L 447.5 1294.3 L 445.7 1295.3 L 444.2 1296.7 L 443.1 1298.3 L 442.2 1300.2 L 441.7 1302.4 L 441.6 1304.8 L 441.8 1307.3 L 442.3 1309.4 L 443.2 1311.3 L 444.4 1313 L 445.9 1314.3 L 447.6 1315.2 L 449.5 1315.8 L 451.5 1316 L 452.6 1315.9 L 453.6 1315.8 L 454.7 1315.5 L 455.7 1315.1 L 456.8 1314.6 L 457.9 1313.9 L 459 1313.1 L 460.1 1312.2 L 461.4 1311 L 462.8 1309.5 L 464.5 1307.6 L 466.4 1305.4 L 467.9 1303.6 L 469.2 1302.1 L 470.2 1301 L 470.9 1300.3 L 471.5 1299.8 L 472.1 1299.3 L 472.7 1298.8 L 473.3 1298.5 L 473.3 1316 L 473.3 1316 Z"/><path d="M 1063.4 1278.1 L 1059.3 1278.1 L 1059.2 1293.2 L 1072.5 1293.2 L 1073.8 1291.5 L 1074.9 1289.7 L 1075.9 1287.9 L 1076.7 1286.1 L 1077.3 1284.2 L 1077.8 1282.3 L 1078 1280.4 L 1078.1 1278.4 L 1078 1275.9 L 1077.5 1273.4 L 1076.8 1271.1 L 1075.8 1268.9 L 1074.6 1266.8 L 1073.1 1265.1 L 1071.3 1263.6 L 1069.3 1262.3 L 1067.1 1261.4 L 1064.8 1260.7 L 1062.3 1260.3 L 1059.8 1260.2 L 1057.2 1260.3 L 1054.7 1260.7 L 1052.3 1261.4 L 1050 1262.3 L 1047.9 1263.6 L 1046.1 1265 L 1044.5 1266.7 L 1043.3 1268.6 L 1042.3 1270.8 L 1041.6 1273.1 L 1041.2 1275.5 L 1041.1 1278.1 L 1041.2 1280 L 1041.4 1281.8 L 1041.8 1283.5 L 1042.3 1285.1 L 1043.1 1286.6 L 1043.9 1287.9 L 1044.8 1289 L 1045.8 1290 L 1047.1 1290.8 L 1048.4 1291.6 L 1050 1292.2 L 1051.7 1292.7 L 1052.9 1288.4 L 1051.6 1288 L 1050.5 1287.5 L 1049.4 1287 L 1048.6 1286.4 L 1047.9 1285.8 L 1047.2 1285 L 1046.6 1284.1 L 1046.1 1283.1 L 1045.7 1281.9 L 1045.4 1280.7 L 1045.2 1279.4 L 1045.1 1278.1 L 1045.2 1276.6 L 1045.4 1275.1 L 1045.7 1273.7 L 1046.1 1272.5 L 1046.7 1271.4 L 1047.3 1270.3 L 1048 1269.5 L 1048.8 1268.7 L 1049.5 1268 L 1050.4 1267.4 L 1051.3 1266.9 L 1052.3 1266.4 L 1054 1265.8 L 1055.7 1265.4 L 1057.6 1265.1 L 1059.5 1265.1 L 1061.8 1265.1 L 1063.9 1265.5 L 1065.8 1266 L 1067.5 1266.7 L 1069 1267.6 L 1070.3 1268.7 L 1071.4 1270 L 1072.3 1271.5 L 1073 1273.1 L 1073.4 1274.7 L 1073.8 1276.4 L 1073.8 1278.2 L 1073.8 1279.7 L 1073.5 1281.2 L 1073.2 1282.7 L 1072.7 1284.2 L 1072.1 1285.6 L 1071.4 1286.8 L 1070.8 1287.8 L 1070.1 1288.6 L 1063.4 1288.6 L 1063.4 1278.1 L 1063.4 1278.1 Z"/><path d="M 1077.5 1300.2 L 1041.7 1300.2 L 1041.7 1305.1 L 1069.8 1323.9 L 1041.7 1323.9 L 1041.7 1328.4 L 1077.5 1328.4 L 1077.5 1323.5 L 1049.4 1304.7 L 1077.5 1304.7 L 1077.5 1300.2 L 1077.5 1300.2 Z"/><path d="M 1077.5 1336.4 L 1041.7 1336.4 L 1041.7 1348.6 L 1045.9 1348.6 L 1045.9 1341.1 L 1073.3 1341.1 L 1073.3 1341.1 L 1073.3 1348.7 L 1073.2 1350.4 L 1073.1 1351.9 L 1072.9 1353.2 L 1072.6 1354.3 L 1072.3 1355.3 L 1071.8 1356.1 L 1071.3 1356.9 L 1070.8 1357.5 L 1069.9 1358.3 L 1068.8 1359 L 1067.6 1359.6 L 1066.2 1360.1 L 1064.7 1360.5 L 1063.1 1360.8 L 1061.3 1361 L 1059.4 1361.1 L 1056.7 1361 L 1054.4 1360.6 L 1052.4 1360 L 1050.7 1359.2 L 1049.3 1358.2 L 1048.2 1357.2 L 1047.3 1356 L 1046.7 1354.7 L 1046.4 1353.6 L 1046.1 1352.3 L 1046 1350.6 L 1045.9 1348.6 L 1041.7 1348.6 L 1041.7 1348.7 L 1041.8 1350.6 L 1041.8 1352.4 L 1042 1353.8 L 1042.2 1355.1 L 1042.7 1356.6 L 1043.2 1357.9 L 1043.9 1359.2 L 1044.8 1360.3 L 1046.1 1361.6 L 1047.5 1362.8 L 1049.1 1363.8 L 1050.9 1364.5 L 1052.8 1365.2 L 1054.9 1365.6 L 1057.1 1365.8 L 1059.4 1366 L 1061.4 1365.9 L 1063.2 1365.7 L 1065 1365.4 L 1066.6 1365 L 1068.1 1364.5 L 1069.5 1363.9 L 1070.8 1363.2 L 1071.8 1362.5 L 1072.8 1361.8 L 1073.7 1361 L 1074.4 1360.2 L 1075.1 1359.3 L 1075.6 1358.4 L 1076.1 1357.3 L 1076.6 1356.2 L 1076.9 1355 L 1077.1 1353.7 L 1077.3 1352.3 L 1077.5 1350.8 L 1077.5 1349.3 L 1077.5 1336.4 L 1077.5 1336.4 Z"/><path d="M 377.5 1271.6 L 341.7 1257.7 L 341.7 1262.9 L 367.7 1272.1 L 369.2 1272.7 L 370.7 1273.2 L 372.2 1273.6 L 373.6 1274 L 372.1 1274.5 L 370.6 1274.9 L 369.2 1275.4 L 367.7 1276 L 341.7 1285.6 L 341.7 1290.5 L 377.5 1276.4 L 377.5 1271.6 L 377.5 1271.6 Z"/><path d="M 364.9 1320.3 L 366.2 1325 L 368.9 1324.1 L 371.3 1322.9 L 373.3 1321.4 L 375.1 1319.6 L 376.4 1317.6 L 377.3 1315.3 L 377.9 1312.9 L 378.1 1310.2 L 378 1307.4 L 377.5 1304.9 L 376.8 1302.7 L 375.8 1300.8 L 374.4 1299 L 372.9 1297.5 L 371 1296.3 L 368.9 1295.2 L 366.7 1294.4 L 364.3 1293.8 L 361.9 1293.4 L 359.4 1293.3 L 356.6 1293.5 L 354.1 1293.9 L 351.8 1294.5 L 349.6 1295.5 L 347.6 1296.7 L 345.9 1298.1 L 344.5 1299.7 L 343.2 1301.6 L 342.3 1303.6 L 341.6 1305.7 L 341.2 1307.9 L 341.1 1310.2 L 341.3 1312.8 L 341.8 1315.2 L 342.6 1317.3 L 343.8 1319.3 L 345.3 1321 L 347.1 1322.4 L 349.2 1323.5 L 351.5 1324.4 L 352.6 1319.7 L 350.8 1319 L 349.2 1318.2 L 348 1317.2 L 346.9 1316.1 L 346.2 1314.8 L 345.6 1313.4 L 345.3 1311.9 L 345.1 1310.1 L 345.3 1308.2 L 345.6 1306.4 L 346.3 1304.7 L 347.1 1303.2 L 348.2 1301.9 L 349.4 1300.9 L 350.8 1300 L 352.4 1299.4 L 354.1 1298.8 L 355.8 1298.5 L 357.5 1298.3 L 359.3 1298.2 L 361.5 1298.3 L 363.6 1298.6 L 365.5 1299 L 367.3 1299.5 L 368.9 1300.3 L 370.3 1301.2 L 371.4 1302.4 L 372.4 1303.7 L 373.1 1305.1 L 373.6 1306.6 L 374 1308.2 L 374.1 1309.8 L 373.9 1311.7 L 373.5 1313.4 L 372.8 1315.1 L 371.8 1316.5 L 370.5 1317.8 L 368.9 1318.8 L 367.1 1319.6 L 364.9 1320.3 L 364.9 1320.3 Z"/><path d="M 364.9 1356.4 L 366.2 1361.1 L 368.9 1360.2 L 371.3 1359 L 373.3 1357.5 L 375.1 1355.7 L 376.4 1353.7 L 377.3 1351.4 L 377.9 1349 L 378.1 1346.3 L 378 1343.5 L 377.5 1341 L 376.8 1338.8 L 375.8 1336.9 L 374.4 1335.1 L 372.9 1333.7 L 371 1332.4 L 368.9 1331.4 L 366.7 1330.5 L 364.3 1329.9 L 361.9 1329.6 L 359.4 1329.5 L 356.6 1329.6 L 354.1 1330 L 351.8 1330.6 L 349.6 1331.6 L 347.6 1332.8 L 345.9 1334.2 L 344.5 1335.8 L 343.2 1337.7 L 342.3 1339.7 L 341.6 1341.8 L 341.2 1344 L 341.1 1346.4 L 341.3 1348.9 L 341.8 1351.3 L 342.6 1353.4 L 343.8 1355.4 L 345.3 1357.1 L 347.1 1358.5 L 349.2 1359.6 L 351.5 1360.5 L 352.6 1355.8 L 350.8 1355.1 L 349.2 1354.3 L 348 1353.3 L 346.9 1352.2 L 346.2 1350.9 L 345.6 1349.5 L 345.3 1348 L 345.1 1346.2 L 345.3 1344.3 L 345.6 1342.5 L 346.3 1340.8 L 347.1 1339.4 L 348.2 1338.1 L 349.4 1337 L 350.8 1336.1 L 352.4 1335.5 L 354.1 1335 L 355.8 1334.6 L 357.5 1334.4 L 359.3 1334.4 L 361.5 1334.4 L 363.6 1334.7 L 365.5 1335.1 L 367.3 1335.6 L 368.9 1336.4 L 370.3 1337.4 L 371.4 1338.5 L 372.4 1339.8 L 373.1 1341.2 L 373.6 1342.7 L 374 1344.3 L 374.1 1345.9 L 373.9 1347.8 L 373.5 1349.5 L 372.8 1351.2 L 371.8 1352.6 L 370.5 1353.9 L 368.9 1354.9 L 367.1 1355.8 L 364.9 1356.4 L 364.9 1356.4 Z"/></g></svg>