%FSLAX33Y33*%
%MOMM*%
%AMRect-W820710-H1670710-RO0.750*
21,1,0.82071,1.67071,0.,0.,225*%
%AMRect-W1778000-H1778000-RO1.000*
21,1,1.778,1.778,0.,0.,180*%
%AMRect-W1778000-H1778000-RO0.250*
21,1,1.778,1.778,0.,0.,315*%
%AMRect-W820710-H1670710-RO1.000*
21,1,0.82071,1.67071,0.,0.,180*%
%AMRect-W820710-H1670710-RO1.250*
21,1,0.82071,1.67071,0.,0.,135*%
%AMRect-W820710-H1670710-RO1.500*
21,1,0.82071,1.67071,0.,0.,90*%
%AMRect-W1778000-H1778000-RO0.750*
21,1,1.778,1.778,0.,0.,225*%
%AMRect-W820710-H1670710-RO0.500*
21,1,0.82071,1.67071,0.,0.,270*%
%AMRect-W1778000-H1778000-RO0.500*
21,1,1.778,1.778,0.,0.,270*%
%AMRR-H1699999-W549999-R98999-RO1.500*
21,1,0.352001,1.699999,0.,0.,90*
21,1,0.549999,1.502001,0.,0.,90*
1,1,0.197998,-0.7510005,-0.1760005*
1,1,0.197998,-0.7510005,0.1760005*
1,1,0.197998,0.7510005,0.1760005*
1,1,0.197998,0.7510005,-0.1760005*%
%AMRect-W1500000-H1500000-RO0.500*
21,1,1.5,1.5,0.,0.,270*%
%ADD10C,0.68834*%
%ADD11Rect-W820710-H1670710-RO0.750*%
%ADD12C,1.778*%
%ADD13Rect-W1778000-H1778000-RO1.000*%
%ADD14C,1.778*%
%ADD15Rect-W1778000-H1778000-RO0.250*%
%ADD16Rect-W820710-H1670710-RO1.000*%
%ADD17R,1.778X1.778*%
%ADD18C,1.778*%
%ADD19Rect-W820710-H1670710-RO1.250*%
%ADD20Rect-W820710-H1670710-RO1.500*%
%ADD21C,1.778*%
%ADD22Rect-W1778000-H1778000-RO0.750*%
%ADD23Rect-W820710-H1670710-RO0.500*%
%ADD24C,4.*%
%ADD25C,1.778*%
%ADD26Rect-W1778000-H1778000-RO0.500*%
%ADD27RR-H1699999-W549999-R98999-RO1.500*%
%ADD28C,1.5*%
%ADD29Rect-W1500000-H1500000-RO0.500*%
D10*
%LNtop solder mask_traces*%
G01*
X11557Y15113D03*
%LNtop solder mask component 48f78adb2b7037fe*%
D11*
X29689Y8734D03*
X27461Y6506D03*
%LNtop solder mask component fc4ab4143d6492ec*%
D12*
X2540Y15240D03*
D13*
X2540Y12700D03*
%LNtop solder mask component acea897f8989f1d9*%
D14*
X30852Y4817D03*
D15*
X32648Y6613D03*
%LNtop solder mask component 7f83bd30abf15710*%
D16*
X15545Y6350D03*
X12395Y6350D03*
%LNtop solder mask component 50fb72db43f2db52*%
D17*
X33020Y24130D03*
D18*
X33020Y21590D03*
%LNtop solder mask component 8bdea769ffbae0d0*%
D19*
X8099Y6506D03*
X5871Y8734D03*
%LNtop solder mask component 0b6faf164e5a0518*%
D20*
X6350Y12395D03*
X6350Y15545D03*
%LNtop solder mask component 6cb0e7e3f02311c0*%
X6350Y21285D03*
X6350Y24435D03*
%LNtop solder mask component 07940880643af1f4*%
D21*
X2912Y6613D03*
D22*
X4708Y4817D03*
%LNtop solder mask component 7d8ea873bf19028c*%
D23*
X29210Y24435D03*
X29210Y21285D03*
%LNtop solder mask component c49cb73e0cfdca39*%
D24*
X17780Y11430D03*
%LNtop solder mask component 8081dbe1fc64fbc3*%
D12*
X2540Y24130D03*
D13*
X2540Y21590D03*
%LNtop solder mask component 432a153fe0b184c8*%
D17*
X33020Y15240D03*
D18*
X33020Y12700D03*
%LNtop solder mask component 2783f7ae62fabf0f*%
D25*
X12700Y2540D03*
D26*
X15240Y2540D03*
%LNtop solder mask component 96b70c30af19ca9a*%
D24*
X31750Y31750D03*
%LNtop solder mask component 7e02e7b59318a54f*%
D27*
X13130Y24765D03*
X13130Y23495D03*
X13130Y22225D03*
X13130Y20955D03*
X13130Y19685D03*
X13130Y18415D03*
X13130Y17145D03*
X13130Y15875D03*
X22430Y24765D03*
X22430Y23495D03*
X22430Y22225D03*
X22430Y20955D03*
X22430Y19685D03*
X22430Y18415D03*
X22430Y17145D03*
X22430Y15875D03*
%LNtop solder mask component e43c40593395f77c*%
D16*
X23165Y6350D03*
X20015Y6350D03*
%LNtop solder mask component 7b98a7e85593e7e7*%
D25*
X20320Y2540D03*
D26*
X22860Y2540D03*
%LNtop solder mask component be02c169f3ae9f69*%
D24*
X3810Y31750D03*
%LNtop solder mask component 005ca3e7d4f4fb47*%
D28*
X24130Y29845D03*
X21590Y29845D03*
X19050Y29845D03*
X16510Y29845D03*
X13970Y29845D03*
X11430Y29845D03*
X8890Y29845D03*
D29*
X26670Y29845D03*
%LNtop solder mask component 427f096e4d3aae24*%
D23*
X25908Y25832D03*
X25908Y22682D03*
%LNtop solder mask component c320845981998eb0*%
D20*
X10160Y10490D03*
X10160Y13640D03*
%LNtop solder mask component e793a6abe9ce9fda*%
D23*
X29210Y15545D03*
X29210Y12395D03*
M02*