%FSLAX33Y33*%
%MOMM*%
%ADD10C,0.0508*%
D10*
%LNpour fill*%
G01*
X22835Y17755D02*
X22835Y17755D01*
X12725Y17755*
X12725Y15265*
X17481Y15265*
X17483Y15266*
X17486Y15267*
X17779Y15300*
X17781Y15300*
X18074Y15267*
X18077Y15266*
X18079Y15265*
X22835Y15265*
X22835Y17755*
X12725Y15290D02*
X17689Y15290D01*
X17871Y15290D02*
X22835Y15290D01*
X12725Y15339D02*
X22835Y15339D01*
X12725Y15389D02*
X22835Y15389D01*
X12725Y15438D02*
X22835Y15438D01*
X12725Y15488D02*
X22835Y15488D01*
X12725Y15537D02*
X22835Y15537D01*
X12725Y15587D02*
X22835Y15587D01*
X12725Y15636D02*
X22835Y15636D01*
X12725Y15686D02*
X22835Y15686D01*
X12725Y15735D02*
X22835Y15735D01*
X12725Y15785D02*
X22835Y15785D01*
X12725Y15834D02*
X22835Y15834D01*
X12725Y15884D02*
X22835Y15884D01*
X12725Y15933D02*
X22835Y15933D01*
X12725Y15983D02*
X22835Y15983D01*
X12725Y16032D02*
X22835Y16032D01*
X12725Y16082D02*
X22835Y16082D01*
X12725Y16132D02*
X22835Y16132D01*
X12725Y16181D02*
X22835Y16181D01*
X12725Y16231D02*
X22835Y16231D01*
X12725Y16280D02*
X22835Y16280D01*
X12725Y16330D02*
X22835Y16330D01*
X12725Y16379D02*
X22835Y16379D01*
X12725Y16429D02*
X22835Y16429D01*
X12725Y16478D02*
X22835Y16478D01*
X12725Y16528D02*
X22835Y16528D01*
X12725Y16577D02*
X22835Y16577D01*
X12725Y16627D02*
X22835Y16627D01*
X12725Y16676D02*
X22835Y16676D01*
X12725Y16726D02*
X22835Y16726D01*
X12725Y16775D02*
X22835Y16775D01*
X12725Y16825D02*
X22835Y16825D01*
X12725Y16874D02*
X22835Y16874D01*
X12725Y16924D02*
X22835Y16924D01*
X12725Y16974D02*
X22835Y16974D01*
X12725Y17023D02*
X22835Y17023D01*
X12725Y17073D02*
X22835Y17073D01*
X12725Y17122D02*
X22835Y17122D01*
X12725Y17172D02*
X22835Y17172D01*
X12725Y17221D02*
X22835Y17221D01*
X12725Y17271D02*
X22835Y17271D01*
X12725Y17320D02*
X22835Y17320D01*
X12725Y17370D02*
X22835Y17370D01*
X12725Y17419D02*
X22835Y17419D01*
X12725Y17469D02*
X22835Y17469D01*
X12725Y17518D02*
X22835Y17518D01*
X12725Y17568D02*
X22835Y17568D01*
X12725Y17617D02*
X22835Y17617D01*
X12725Y17667D02*
X22835Y17667D01*
X12725Y17716D02*
X22835Y17716D01*
%LNbottom silkscreen_traces*%
%LNtext*%
G36*
X24895Y24130D02*
X24439Y25315D01*
X24319Y25269D01*
X24332Y25208D01*
X24348Y25147D01*
X24367Y25086D01*
X24388Y25026D01*
X24527Y24653D01*
X24527Y24653D01*
X24096Y24653D01*
X24229Y25005D01*
X24257Y25082D01*
X24282Y25151D01*
X24302Y25214D01*
X24319Y25269D01*
X24439Y25315D01*
X24406Y25403D01*
X24224Y25403D01*
X23703Y24130D01*
X23895Y24130D01*
X24044Y24515D01*
X24576Y24515D01*
X24716Y24130D01*
X24895Y24130D01*
X24895Y24130D01*
X23591Y24130D02*
X23591Y25052D01*
X23450Y25052D01*
X23450Y24912D01*
X23424Y24957D01*
X23398Y24994D01*
X23374Y25022D01*
X23351Y25042D01*
X23327Y25055D01*
X23303Y25065D01*
X23277Y25071D01*
X23250Y25073D01*
X23211Y25070D01*
X23171Y25060D01*
X23130Y25045D01*
X23090Y25022D01*
X23143Y24877D01*
X23172Y24892D01*
X23201Y24903D01*
X23229Y24909D01*
X23258Y24911D01*
X23283Y24909D01*
X23307Y24904D01*
X23329Y24894D01*
X23350Y24881D01*
X23369Y24864D01*
X23385Y24844D01*
X23398Y24821D01*
X23408Y24795D01*
X23420Y24752D01*
X23428Y24708D01*
X23433Y24661D01*
X23434Y24613D01*
X23434Y24130D01*
X23591Y24130D01*
X23591Y24130D01*
X22395Y24468D02*
X22241Y24448D01*
X22259Y24373D01*
X22286Y24306D01*
X22323Y24248D01*
X22370Y24199D01*
X22425Y24160D01*
X22486Y24132D01*
X22553Y24115D01*
X22625Y24109D01*
X22715Y24117D01*
X22796Y24140D01*
X22867Y24179D01*
X22930Y24233D01*
X22980Y24301D01*
X23016Y24383D01*
X23037Y24479D01*
X23045Y24588D01*
X23041Y24660D01*
X23032Y24728D01*
X23017Y24791D01*
X22995Y24849D01*
X22967Y24901D01*
X22933Y24947D01*
X22892Y24985D01*
X22844Y25017D01*
X22793Y25041D01*
X22739Y25059D01*
X22683Y25069D01*
X22624Y25073D01*
X22553Y25068D01*
X22488Y25054D01*
X22430Y25030D01*
X22379Y24997D01*
X22335Y24955D01*
X22300Y24905D01*
X22274Y24847D01*
X22256Y24781D01*
X22408Y24758D01*
X22421Y24801D01*
X22438Y24839D01*
X22460Y24871D01*
X22485Y24897D01*
X22514Y24918D01*
X22546Y24933D01*
X22581Y24941D01*
X22618Y24944D01*
X22675Y24939D01*
X22725Y24923D01*
X22770Y24897D01*
X22810Y24860D01*
X22842Y24811D01*
X22865Y24750D01*
X22879Y24677D01*
X22884Y24592D01*
X22879Y24505D01*
X22866Y24431D01*
X22844Y24370D01*
X22813Y24322D01*
X22774Y24285D01*
X22731Y24259D01*
X22682Y24243D01*
X22627Y24238D01*
X22583Y24241D01*
X22543Y24252D01*
X22506Y24269D01*
X22473Y24294D01*
X22445Y24326D01*
X22423Y24366D01*
X22406Y24413D01*
X22395Y24468D01*
X22395Y24468D01*
X21506Y24244D02*
X21549Y24210D01*
X21555Y24205D01*
X21615Y24293D01*
X21587Y24318D01*
X21563Y24347D01*
X21544Y24379D01*
X21533Y24409D01*
X21525Y24445D01*
X21521Y24487D01*
X21519Y24535D01*
X21519Y24593D01*
X21519Y24593D01*
X21567Y24576D01*
X21625Y24561D01*
X21695Y24547D01*
X21774Y24534D01*
X21819Y24527D01*
X21857Y24519D01*
X21887Y24511D01*
X21911Y24502D01*
X21929Y24493D01*
X21946Y24481D01*
X21960Y24467D01*
X21972Y24452D01*
X21982Y24434D01*
X21989Y24416D01*
X21993Y24397D01*
X21994Y24377D01*
X21991Y24347D01*
X21982Y24320D01*
X21967Y24295D01*
X21947Y24273D01*
X21920Y24255D01*
X21888Y24242D01*
X21851Y24234D01*
X21808Y24232D01*
X21764Y24234D01*
X21723Y24241D01*
X21684Y24254D01*
X21648Y24271D01*
X21615Y24293D01*
X21555Y24205D01*
X21591Y24181D01*
X21633Y24157D01*
X21673Y24140D01*
X21714Y24126D01*
X21756Y24117D01*
X21800Y24111D01*
X21846Y24109D01*
X21917Y24114D01*
X21980Y24128D01*
X22034Y24151D01*
X22079Y24183D01*
X22115Y24223D01*
X22140Y24268D01*
X22156Y24318D01*
X22161Y24373D01*
X22159Y24406D01*
X22153Y24438D01*
X22143Y24468D01*
X22130Y24497D01*
X22113Y24523D01*
X22094Y24547D01*
X22073Y24568D01*
X22049Y24587D01*
X22023Y24603D01*
X21996Y24616D01*
X21967Y24628D01*
X21937Y24638D01*
X21911Y24644D01*
X21879Y24650D01*
X21841Y24656D01*
X21798Y24661D01*
X21709Y24673D01*
X21634Y24686D01*
X21570Y24700D01*
X21519Y24715D01*
X21519Y24730D01*
X21518Y24741D01*
X21518Y24750D01*
X21518Y24756D01*
X21521Y24800D01*
X21529Y24837D01*
X21543Y24867D01*
X21563Y24891D01*
X21596Y24914D01*
X21637Y24930D01*
X21685Y24940D01*
X21741Y24943D01*
X21792Y24941D01*
X21836Y24934D01*
X21873Y24922D01*
X21903Y24905D01*
X21928Y24882D01*
X21949Y24851D01*
X21967Y24813D01*
X21981Y24768D01*
X22134Y24789D01*
X22122Y24836D01*
X22106Y24878D01*
X22087Y24915D01*
X22065Y24947D01*
X22039Y24976D01*
X22007Y25001D01*
X21970Y25022D01*
X21927Y25040D01*
X21880Y25055D01*
X21830Y25065D01*
X21776Y25071D01*
X21718Y25073D01*
X21662Y25071D01*
X21611Y25066D01*
X21566Y25057D01*
X21526Y25045D01*
X21492Y25030D01*
X21462Y25014D01*
X21437Y24995D01*
X21418Y24975D01*
X21401Y24953D01*
X21388Y24928D01*
X21377Y24900D01*
X21369Y24869D01*
X21366Y24845D01*
X21363Y24813D01*
X21362Y24773D01*
X21361Y24725D01*
X21361Y24516D01*
X21360Y24417D01*
X21359Y24338D01*
X21356Y24280D01*
X21351Y24241D01*
X21345Y24212D01*
X21336Y24184D01*
X21325Y24157D01*
X21312Y24130D01*
X21475Y24130D01*
X21486Y24155D01*
X21495Y24183D01*
X21502Y24212D01*
X21506Y24244D01*
X21506Y24244D01*
X20521Y24130D02*
X20521Y24246D01*
X20592Y24319D01*
X20590Y24321D01*
X20558Y24369D01*
X20536Y24427D01*
X20523Y24497D01*
X20518Y24577D01*
X20523Y24665D01*
X20536Y24741D01*
X20559Y24804D01*
X20591Y24855D01*
X20630Y24894D01*
X20672Y24921D01*
X20719Y24938D01*
X20771Y24943D01*
X20821Y24938D01*
X20866Y24922D01*
X20908Y24896D01*
X20945Y24858D01*
X20975Y24810D01*
X20997Y24749D01*
X21010Y24676D01*
X21015Y24590D01*
X21015Y24590D01*
X21010Y24507D01*
X20996Y24435D01*
X20973Y24375D01*
X20940Y24325D01*
X20901Y24287D01*
X20859Y24260D01*
X20813Y24243D01*
X20764Y24238D01*
X20715Y24243D01*
X20669Y24259D01*
X20627Y24285D01*
X20592Y24319D01*
X20521Y24246D01*
X20570Y24186D01*
X20629Y24143D01*
X20699Y24118D01*
X20779Y24109D01*
X20833Y24113D01*
X20884Y24124D01*
X20934Y24143D01*
X20981Y24170D01*
X21025Y24203D01*
X21063Y24243D01*
X21097Y24288D01*
X21125Y24340D01*
X21147Y24396D01*
X21163Y24457D01*
X21172Y24521D01*
X21175Y24590D01*
X21172Y24658D01*
X21164Y24722D01*
X21149Y24783D01*
X21129Y24841D01*
X21103Y24894D01*
X21072Y24940D01*
X21034Y24980D01*
X20991Y25013D01*
X20944Y25039D01*
X20894Y25058D01*
X20841Y25069D01*
X20786Y25073D01*
X20745Y25071D01*
X20707Y25064D01*
X20671Y25053D01*
X20637Y25038D01*
X20606Y25019D01*
X20578Y24997D01*
X20553Y24973D01*
X20531Y24946D01*
X20531Y25403D01*
X20376Y25403D01*
X20376Y24130D01*
X20521Y24130D01*
X20521Y24130D01*
X19499Y24427D02*
X19337Y24407D01*
X19361Y24340D01*
X19392Y24281D01*
X19431Y24230D01*
X19479Y24187D01*
X19534Y24153D01*
X19597Y24129D01*
X19666Y24114D01*
X19743Y24109D01*
X19839Y24117D01*
X19924Y24140D01*
X19999Y24179D01*
X20064Y24234D01*
X20115Y24302D01*
X20153Y24383D01*
X20175Y24477D01*
X20182Y24583D01*
X20175Y24693D01*
X20152Y24790D01*
X20115Y24874D01*
X20062Y24944D01*
X19998Y25001D01*
X19925Y25041D01*
X19843Y25065D01*
X19752Y25073D01*
X19738Y25072D01*
X19750Y24944D01*
X19801Y24940D01*
X19849Y24926D01*
X19892Y24904D01*
X19931Y24872D01*
X19963Y24833D01*
X19988Y24788D01*
X20004Y24737D01*
X20012Y24680D01*
X20012Y24680D01*
X19497Y24680D01*
X19505Y24734D01*
X19517Y24781D01*
X19534Y24821D01*
X19556Y24854D01*
X19596Y24894D01*
X19642Y24922D01*
X19693Y24939D01*
X19750Y24944D01*
X19738Y25072D01*
X19663Y25065D01*
X19584Y25041D01*
X19512Y25002D01*
X19449Y24947D01*
X19398Y24878D01*
X19361Y24795D01*
X19340Y24700D01*
X19332Y24593D01*
X19332Y24585D01*
X19332Y24575D01*
X19333Y24564D01*
X19333Y24551D01*
X20021Y24551D01*
X20012Y24480D01*
X19995Y24417D01*
X19969Y24363D01*
X19935Y24318D01*
X19894Y24283D01*
X19848Y24258D01*
X19797Y24243D01*
X19742Y24238D01*
X19701Y24240D01*
X19662Y24249D01*
X19627Y24263D01*
X19595Y24283D01*
X19566Y24309D01*
X19541Y24341D01*
X19518Y24381D01*
X19499Y24427D01*
X19499Y24427D01*
X17719Y24576D02*
X17551Y24534D01*
X17582Y24436D01*
X17625Y24351D01*
X17678Y24278D01*
X17741Y24217D01*
X17814Y24170D01*
X17894Y24136D01*
X17982Y24115D01*
X18078Y24108D01*
X18176Y24114D01*
X18264Y24129D01*
X18343Y24155D01*
X18412Y24192D01*
X18473Y24239D01*
X18526Y24295D01*
X18571Y24360D01*
X18609Y24435D01*
X18638Y24516D01*
X18659Y24599D01*
X18672Y24686D01*
X18676Y24776D01*
X18671Y24872D01*
X18657Y24962D01*
X18633Y25046D01*
X18600Y25123D01*
X18558Y25192D01*
X18508Y25253D01*
X18450Y25305D01*
X18384Y25348D01*
X18312Y25381D01*
X18236Y25405D01*
X18158Y25420D01*
X18075Y25424D01*
X17983Y25418D01*
X17899Y25400D01*
X17823Y25370D01*
X17754Y25327D01*
X17694Y25274D01*
X17643Y25210D01*
X17603Y25137D01*
X17572Y25054D01*
X17738Y25015D01*
X17763Y25079D01*
X17793Y25135D01*
X17827Y25181D01*
X17867Y25217D01*
X17912Y25245D01*
X17962Y25264D01*
X18017Y25276D01*
X18079Y25280D01*
X18149Y25276D01*
X18213Y25263D01*
X18272Y25241D01*
X18324Y25210D01*
X18369Y25172D01*
X18408Y25128D01*
X18439Y25077D01*
X18462Y25021D01*
X18480Y24961D01*
X18492Y24901D01*
X18500Y24839D01*
X18502Y24777D01*
X18499Y24698D01*
X18490Y24625D01*
X18476Y24556D01*
X18455Y24493D01*
X18428Y24437D01*
X18394Y24388D01*
X18354Y24346D01*
X18308Y24312D01*
X18257Y24286D01*
X18204Y24267D01*
X18149Y24256D01*
X18092Y24252D01*
X18024Y24258D01*
X17961Y24273D01*
X17904Y24298D01*
X17852Y24334D01*
X17807Y24380D01*
X17770Y24435D01*
X17740Y24501D01*
X17719Y24576D01*
X17719Y24576D01*
X17421Y24591D02*
X17412Y24711D01*
X17386Y24814D01*
X17341Y24900D01*
X17279Y24970D01*
X17216Y25015D01*
X17147Y25047D01*
X17071Y25066D01*
X16989Y25073D01*
X16898Y25065D01*
X16816Y25042D01*
X16743Y25003D01*
X16678Y24948D01*
X16625Y24880D01*
X16588Y24800D01*
X16565Y24708D01*
X16558Y24604D01*
X16561Y24520D01*
X16571Y24445D01*
X16588Y24380D01*
X16611Y24324D01*
X16641Y24276D01*
X16676Y24233D01*
X16718Y24197D01*
X16766Y24166D01*
X16818Y24141D01*
X16873Y24123D01*
X16930Y24113D01*
X16989Y24109D01*
X17000Y24110D01*
X16989Y24238D01*
X16933Y24243D01*
X16882Y24260D01*
X16836Y24287D01*
X16795Y24326D01*
X16762Y24376D01*
X16737Y24438D01*
X16723Y24511D01*
X16718Y24596D01*
X16723Y24677D01*
X16738Y24747D01*
X16762Y24806D01*
X16796Y24855D01*
X16837Y24894D01*
X16883Y24921D01*
X16934Y24938D01*
X16989Y24943D01*
X17045Y24938D01*
X17096Y24922D01*
X17142Y24894D01*
X17183Y24856D01*
X17217Y24806D01*
X17241Y24746D01*
X17256Y24674D01*
X17261Y24591D01*
X17261Y24591D01*
X17256Y24508D01*
X17241Y24436D01*
X17217Y24375D01*
X17183Y24326D01*
X17142Y24287D01*
X17096Y24260D01*
X17045Y24243D01*
X16989Y24238D01*
X17000Y24110D01*
X17081Y24117D01*
X17164Y24140D01*
X17238Y24179D01*
X17302Y24233D01*
X17354Y24302D01*
X17392Y24385D01*
X17414Y24481D01*
X17421Y24591D01*
X17421Y24591D01*
X16374Y24130D02*
X16374Y25052D01*
X16234Y25052D01*
X16234Y24921D01*
X16177Y24987D01*
X16110Y25035D01*
X16031Y25063D01*
X15940Y25073D01*
X15899Y25071D01*
X15860Y25065D01*
X15823Y25056D01*
X15787Y25043D01*
X15754Y25027D01*
X15726Y25008D01*
X15702Y24987D01*
X15682Y24964D01*
X15666Y24939D01*
X15653Y24911D01*
X15642Y24881D01*
X15634Y24849D01*
X15630Y24823D01*
X15627Y24789D01*
X15626Y24747D01*
X15625Y24697D01*
X15625Y24130D01*
X15781Y24130D01*
X15781Y24691D01*
X15783Y24736D01*
X15786Y24774D01*
X15792Y24807D01*
X15800Y24834D01*
X15810Y24856D01*
X15825Y24876D01*
X15843Y24894D01*
X15864Y24909D01*
X15889Y24922D01*
X15915Y24930D01*
X15943Y24936D01*
X15973Y24937D01*
X16021Y24933D01*
X16066Y24922D01*
X16108Y24902D01*
X16146Y24874D01*
X16177Y24835D01*
X16200Y24782D01*
X16214Y24715D01*
X16218Y24634D01*
X16218Y24130D01*
X16374Y24130D01*
X16374Y24130D01*
X15044Y24270D02*
X15022Y24132D01*
X15054Y24126D01*
X15084Y24121D01*
X15113Y24119D01*
X15140Y24118D01*
X15180Y24120D01*
X15215Y24125D01*
X15246Y24133D01*
X15272Y24145D01*
X15293Y24159D01*
X15312Y24176D01*
X15326Y24195D01*
X15338Y24216D01*
X15346Y24243D01*
X15352Y24284D01*
X15356Y24336D01*
X15357Y24400D01*
X15357Y24930D01*
X15471Y24930D01*
X15471Y25052D01*
X15357Y25052D01*
X15357Y25280D01*
X15201Y25374D01*
X15201Y25052D01*
X15044Y25052D01*
X15044Y24930D01*
X15201Y24930D01*
X15201Y24391D01*
X15201Y24361D01*
X15199Y24336D01*
X15197Y24318D01*
X15193Y24305D01*
X15188Y24296D01*
X15182Y24288D01*
X15175Y24281D01*
X15166Y24275D01*
X15156Y24270D01*
X15144Y24267D01*
X15129Y24264D01*
X15113Y24264D01*
X15099Y24264D01*
X15083Y24265D01*
X15065Y24267D01*
X15044Y24270D01*
X15044Y24270D01*
X14893Y24130D02*
X14893Y25052D01*
X14753Y25052D01*
X14753Y24912D01*
X14726Y24957D01*
X14701Y24994D01*
X14677Y25022D01*
X14653Y25042D01*
X14630Y25055D01*
X14605Y25065D01*
X14580Y25071D01*
X14553Y25073D01*
X14513Y25070D01*
X14473Y25060D01*
X14433Y25045D01*
X14392Y25022D01*
X14446Y24877D01*
X14475Y24892D01*
X14503Y24903D01*
X14532Y24909D01*
X14561Y24911D01*
X14586Y24909D01*
X14609Y24904D01*
X14632Y24894D01*
X14653Y24881D01*
X14672Y24864D01*
X14688Y24844D01*
X14701Y24821D01*
X14711Y24795D01*
X14722Y24752D01*
X14730Y24708D01*
X14735Y24661D01*
X14737Y24613D01*
X14737Y24130D01*
X14893Y24130D01*
X14893Y24130D01*
X14358Y24591D02*
X14349Y24711D01*
X14322Y24814D01*
X14278Y24900D01*
X14215Y24970D01*
X14153Y25015D01*
X14083Y25047D01*
X14008Y25066D01*
X13925Y25073D01*
X13835Y25065D01*
X13753Y25042D01*
X13679Y25003D01*
X13614Y24948D01*
X13562Y24880D01*
X13524Y24800D01*
X13501Y24708D01*
X13494Y24604D01*
X13497Y24520D01*
X13507Y24445D01*
X13524Y24380D01*
X13547Y24324D01*
X13577Y24276D01*
X13613Y24233D01*
X13655Y24197D01*
X13703Y24166D01*
X13755Y24141D01*
X13809Y24123D01*
X13866Y24113D01*
X13925Y24109D01*
X13936Y24110D01*
X13925Y24238D01*
X13870Y24243D01*
X13819Y24260D01*
X13773Y24287D01*
X13732Y24326D01*
X13698Y24376D01*
X13674Y24438D01*
X13659Y24511D01*
X13654Y24596D01*
X13659Y24677D01*
X13674Y24747D01*
X13698Y24806D01*
X13732Y24855D01*
X13773Y24894D01*
X13819Y24921D01*
X13870Y24938D01*
X13925Y24943D01*
X13981Y24938D01*
X14032Y24922D01*
X14079Y24894D01*
X14120Y24856D01*
X14154Y24806D01*
X14178Y24746D01*
X14192Y24674D01*
X14197Y24591D01*
X14197Y24591D01*
X14192Y24508D01*
X14178Y24436D01*
X14154Y24375D01*
X14120Y24326D01*
X14079Y24287D01*
X14032Y24260D01*
X13981Y24243D01*
X13925Y24238D01*
X13936Y24110D01*
X14017Y24117D01*
X14100Y24140D01*
X14174Y24179D01*
X14238Y24233D01*
X14290Y24302D01*
X14328Y24385D01*
X14350Y24481D01*
X14358Y24591D01*
X14358Y24591D01*
X13314Y24130D02*
X13314Y25403D01*
X13158Y25403D01*
X13158Y24130D01*
X13314Y24130D01*
X13314Y24130D01*
X12919Y24130D02*
X12919Y25403D01*
X12763Y25403D01*
X12763Y24130D01*
X12919Y24130D01*
X12919Y24130D01*
X11890Y24427D02*
X11728Y24407D01*
X11751Y24340D01*
X11783Y24281D01*
X11822Y24230D01*
X11870Y24187D01*
X11925Y24153D01*
X11987Y24129D01*
X12057Y24114D01*
X12133Y24109D01*
X12229Y24117D01*
X12315Y24140D01*
X12390Y24179D01*
X12454Y24234D01*
X12506Y24302D01*
X12543Y24383D01*
X12565Y24477D01*
X12573Y24583D01*
X12565Y24693D01*
X12543Y24790D01*
X12505Y24874D01*
X12453Y24944D01*
X12389Y25001D01*
X12315Y25041D01*
X12233Y25065D01*
X12142Y25073D01*
X12129Y25072D01*
X12140Y24944D01*
X12192Y24940D01*
X12239Y24926D01*
X12283Y24904D01*
X12321Y24872D01*
X12354Y24833D01*
X12378Y24788D01*
X12395Y24737D01*
X12403Y24680D01*
X12403Y24680D01*
X11888Y24680D01*
X11895Y24734D01*
X11908Y24781D01*
X11925Y24821D01*
X11947Y24854D01*
X11987Y24894D01*
X12033Y24922D01*
X12084Y24939D01*
X12140Y24944D01*
X12129Y25072D01*
X12054Y25065D01*
X11974Y25041D01*
X11903Y25002D01*
X11840Y24947D01*
X11789Y24878D01*
X11752Y24795D01*
X11730Y24700D01*
X11723Y24593D01*
X11723Y24585D01*
X11723Y24575D01*
X11723Y24564D01*
X11724Y24551D01*
X12411Y24551D01*
X12403Y24480D01*
X12385Y24417D01*
X12360Y24363D01*
X12325Y24318D01*
X12284Y24283D01*
X12239Y24258D01*
X12188Y24243D01*
X12133Y24238D01*
X12091Y24240D01*
X12053Y24249D01*
X12018Y24263D01*
X11986Y24283D01*
X11957Y24309D01*
X11931Y24341D01*
X11909Y24381D01*
X11890Y24427D01*
X11890Y24427D01*
X11534Y24130D02*
X11534Y25052D01*
X11393Y25052D01*
X11393Y24912D01*
X11367Y24957D01*
X11341Y24994D01*
X11317Y25022D01*
X11293Y25042D01*
X11270Y25055D01*
X11246Y25065D01*
X11220Y25071D01*
X11193Y25073D01*
X11154Y25070D01*
X11114Y25060D01*
X11073Y25045D01*
X11033Y25022D01*
X11086Y24877D01*
X11115Y24892D01*
X11144Y24903D01*
X11172Y24909D01*
X11201Y24911D01*
X11226Y24909D01*
X11250Y24904D01*
X11272Y24894D01*
X11293Y24881D01*
X11312Y24864D01*
X11328Y24844D01*
X11341Y24821D01*
X11351Y24795D01*
X11363Y24752D01*
X11371Y24708D01*
X11376Y24661D01*
X11377Y24613D01*
X11377Y24130D01*
X11534Y24130D01*
X11534Y24130D01*
X22359Y19050D02*
X22852Y20323D01*
X22670Y20323D01*
X22339Y19398D01*
X22320Y19343D01*
X22302Y19290D01*
X22287Y19239D01*
X22272Y19190D01*
X22257Y19242D01*
X22240Y19294D01*
X22223Y19346D01*
X22204Y19398D01*
X21860Y20323D01*
X21688Y20323D01*
X22186Y19050D01*
X22359Y19050D01*
X22359Y19050D01*
X21024Y19347D02*
X20862Y19327D01*
X20885Y19260D01*
X20917Y19201D01*
X20956Y19150D01*
X21004Y19107D01*
X21059Y19073D01*
X21121Y19049D01*
X21191Y19034D01*
X21268Y19029D01*
X21364Y19037D01*
X21449Y19060D01*
X21524Y19099D01*
X21589Y19154D01*
X21640Y19222D01*
X21677Y19303D01*
X21700Y19397D01*
X21707Y19503D01*
X21700Y19613D01*
X21677Y19710D01*
X21640Y19794D01*
X21587Y19864D01*
X21523Y19921D01*
X21450Y19961D01*
X21367Y19985D01*
X21276Y19993D01*
X21263Y19992D01*
X21275Y19864D01*
X21326Y19860D01*
X21374Y19846D01*
X21417Y19824D01*
X21456Y19792D01*
X21488Y19753D01*
X21513Y19708D01*
X21529Y19657D01*
X21537Y19600D01*
X21537Y19600D01*
X21022Y19600D01*
X21030Y19654D01*
X21042Y19701D01*
X21059Y19741D01*
X21081Y19774D01*
X21121Y19814D01*
X21167Y19842D01*
X21218Y19859D01*
X21275Y19864D01*
X21263Y19992D01*
X21188Y19985D01*
X21108Y19961D01*
X21037Y19922D01*
X20974Y19867D01*
X20923Y19798D01*
X20886Y19715D01*
X20864Y19620D01*
X20857Y19513D01*
X20857Y19505D01*
X20857Y19495D01*
X20858Y19484D01*
X20858Y19471D01*
X21546Y19471D01*
X21537Y19400D01*
X21520Y19337D01*
X21494Y19283D01*
X21460Y19238D01*
X21419Y19203D01*
X21373Y19178D01*
X21322Y19163D01*
X21267Y19158D01*
X21225Y19160D01*
X21187Y19169D01*
X21152Y19183D01*
X21120Y19203D01*
X21091Y19229D01*
X21066Y19261D01*
X21043Y19301D01*
X21024Y19347D01*
X21024Y19347D01*
X20668Y19050D02*
X20668Y19972D01*
X20527Y19972D01*
X20527Y19832D01*
X20501Y19877D01*
X20475Y19914D01*
X20451Y19942D01*
X20428Y19962D01*
X20404Y19975D01*
X20380Y19985D01*
X20354Y19991D01*
X20328Y19993D01*
X20288Y19990D01*
X20248Y19980D01*
X20208Y19965D01*
X20167Y19942D01*
X20221Y19797D01*
X20249Y19812D01*
X20278Y19823D01*
X20307Y19829D01*
X20335Y19831D01*
X20360Y19829D01*
X20384Y19824D01*
X20406Y19814D01*
X20427Y19801D01*
X20446Y19784D01*
X20462Y19764D01*
X20475Y19741D01*
X20486Y19715D01*
X20497Y19672D01*
X20505Y19628D01*
X20510Y19581D01*
X20512Y19533D01*
X20512Y19050D01*
X20668Y19050D01*
X20668Y19050D01*
X20137Y19325D02*
X19982Y19350D01*
X19973Y19306D01*
X19957Y19267D01*
X19936Y19235D01*
X19910Y19207D01*
X19877Y19185D01*
X19838Y19170D01*
X19794Y19161D01*
X19743Y19158D01*
X19693Y19160D01*
X19650Y19169D01*
X19613Y19182D01*
X19584Y19201D01*
X19561Y19224D01*
X19544Y19249D01*
X19535Y19276D01*
X19531Y19304D01*
X19534Y19329D01*
X19543Y19352D01*
X19557Y19371D01*
X19577Y19388D01*
X19599Y19399D01*
X19633Y19411D01*
X19679Y19425D01*
X19737Y19441D01*
X19817Y19462D01*
X19883Y19481D01*
X19936Y19499D01*
X19975Y19516D01*
X20007Y19533D01*
X20034Y19554D01*
X20057Y19577D01*
X20076Y19603D01*
X20091Y19632D01*
X20102Y19662D01*
X20108Y19694D01*
X20110Y19727D01*
X20109Y19757D01*
X20103Y19787D01*
X20095Y19814D01*
X20082Y19841D01*
X20067Y19866D01*
X20049Y19889D01*
X20028Y19910D01*
X20005Y19929D01*
X19986Y19942D01*
X19962Y19953D01*
X19936Y19964D01*
X19906Y19974D01*
X19874Y19982D01*
X19841Y19988D01*
X19807Y19992D01*
X19771Y19993D01*
X19718Y19991D01*
X19669Y19985D01*
X19623Y19975D01*
X19580Y19962D01*
X19542Y19945D01*
X19509Y19925D01*
X19482Y19902D01*
X19459Y19877D01*
X19441Y19848D01*
X19426Y19815D01*
X19414Y19777D01*
X19406Y19734D01*
X19558Y19713D01*
X19566Y19747D01*
X19579Y19777D01*
X19596Y19802D01*
X19619Y19824D01*
X19646Y19842D01*
X19679Y19854D01*
X19717Y19862D01*
X19760Y19864D01*
X19810Y19862D01*
X19852Y19855D01*
X19887Y19844D01*
X19913Y19829D01*
X19934Y19810D01*
X19948Y19790D01*
X19957Y19769D01*
X19959Y19745D01*
X19958Y19731D01*
X19955Y19717D01*
X19949Y19703D01*
X19940Y19691D01*
X19929Y19679D01*
X19916Y19668D01*
X19899Y19658D01*
X19880Y19649D01*
X19863Y19643D01*
X19834Y19635D01*
X19794Y19623D01*
X19742Y19609D01*
X19666Y19588D01*
X19602Y19569D01*
X19550Y19552D01*
X19511Y19537D01*
X19480Y19521D01*
X19453Y19502D01*
X19429Y19480D01*
X19408Y19455D01*
X19392Y19426D01*
X19380Y19394D01*
X19373Y19359D01*
X19371Y19321D01*
X19374Y19282D01*
X19382Y19245D01*
X19396Y19209D01*
X19416Y19174D01*
X19442Y19141D01*
X19472Y19113D01*
X19507Y19088D01*
X19548Y19067D01*
X19592Y19050D01*
X19640Y19039D01*
X19690Y19032D01*
X19742Y19029D01*
X19827Y19034D01*
X19901Y19048D01*
X19964Y19071D01*
X20016Y19104D01*
X20059Y19146D01*
X20093Y19197D01*
X20119Y19256D01*
X20137Y19325D01*
X20137Y19325D01*
X19184Y19050D02*
X19184Y19972D01*
X19028Y19972D01*
X19028Y19050D01*
X19184Y19050D01*
X19184Y19050D01*
X19184Y20143D02*
X19184Y20323D01*
X19028Y20323D01*
X19028Y20143D01*
X19184Y20143D01*
X19184Y20143D01*
X18848Y19511D02*
X18839Y19631D01*
X18813Y19734D01*
X18768Y19820D01*
X18706Y19890D01*
X18643Y19935D01*
X18574Y19967D01*
X18498Y19986D01*
X18416Y19993D01*
X18325Y19985D01*
X18243Y19962D01*
X18170Y19923D01*
X18105Y19868D01*
X18052Y19800D01*
X18015Y19720D01*
X17992Y19628D01*
X17984Y19524D01*
X17988Y19440D01*
X17998Y19365D01*
X18014Y19300D01*
X18038Y19244D01*
X18067Y19196D01*
X18103Y19153D01*
X18145Y19117D01*
X18193Y19086D01*
X18245Y19061D01*
X18300Y19043D01*
X18357Y19033D01*
X18416Y19029D01*
X18427Y19030D01*
X18416Y19158D01*
X18360Y19163D01*
X18309Y19180D01*
X18263Y19207D01*
X18222Y19246D01*
X18188Y19296D01*
X18164Y19358D01*
X18150Y19431D01*
X18145Y19516D01*
X18150Y19597D01*
X18164Y19667D01*
X18189Y19726D01*
X18223Y19775D01*
X18264Y19814D01*
X18310Y19841D01*
X18360Y19858D01*
X18416Y19863D01*
X18472Y19858D01*
X18523Y19842D01*
X18569Y19814D01*
X18610Y19776D01*
X18644Y19726D01*
X18668Y19666D01*
X18683Y19594D01*
X18688Y19511D01*
X18688Y19511D01*
X18683Y19428D01*
X18668Y19356D01*
X18644Y19295D01*
X18610Y19246D01*
X18569Y19207D01*
X18523Y19180D01*
X18472Y19163D01*
X18416Y19158D01*
X18427Y19030D01*
X18508Y19037D01*
X18591Y19060D01*
X18664Y19099D01*
X18729Y19153D01*
X18781Y19222D01*
X18818Y19305D01*
X18841Y19401D01*
X18848Y19511D01*
X18848Y19511D01*
X17801Y19050D02*
X17801Y19972D01*
X17661Y19972D01*
X17661Y19841D01*
X17604Y19907D01*
X17536Y19955D01*
X17457Y19983D01*
X17367Y19993D01*
X17326Y19991D01*
X17287Y19985D01*
X17250Y19976D01*
X17214Y19963D01*
X17181Y19947D01*
X17153Y19928D01*
X17129Y19907D01*
X17109Y19884D01*
X17093Y19859D01*
X17080Y19831D01*
X17069Y19801D01*
X17061Y19769D01*
X17057Y19743D01*
X17054Y19709D01*
X17052Y19667D01*
X17052Y19617D01*
X17052Y19050D01*
X17208Y19050D01*
X17208Y19611D01*
X17209Y19656D01*
X17213Y19694D01*
X17218Y19727D01*
X17226Y19754D01*
X17237Y19776D01*
X17252Y19796D01*
X17270Y19814D01*
X17291Y19829D01*
X17315Y19842D01*
X17342Y19850D01*
X17370Y19856D01*
X17400Y19857D01*
X17448Y19853D01*
X17493Y19842D01*
X17534Y19822D01*
X17572Y19794D01*
X17604Y19755D01*
X17627Y19702D01*
X17640Y19635D01*
X17645Y19554D01*
X17645Y19050D01*
X17801Y19050D01*
X17801Y19050D01*
X15773Y19050D02*
X15929Y19050D01*
X15929Y20046D01*
X15960Y20019D01*
X15995Y19992D01*
X16034Y19965D01*
X16077Y19938D01*
X16122Y19913D01*
X16164Y19891D01*
X16204Y19873D01*
X16242Y19857D01*
X16242Y20008D01*
X16178Y20041D01*
X16119Y20077D01*
X16064Y20116D01*
X16013Y20158D01*
X15967Y20201D01*
X15929Y20244D01*
X15898Y20286D01*
X15874Y20328D01*
X15773Y20328D01*
X15773Y19050D01*
X15773Y19050D01*
X15285Y19050D02*
X15285Y19228D01*
X15107Y19228D01*
X15107Y19050D01*
X15285Y19050D01*
X15285Y19050D01*
X14879Y19678D02*
X14876Y19785D01*
X14867Y19881D01*
X14853Y19967D01*
X14832Y20041D01*
X14806Y20106D01*
X14775Y20163D01*
X14737Y20212D01*
X14694Y20253D01*
X14646Y20286D01*
X14591Y20309D01*
X14530Y20323D01*
X14464Y20328D01*
X14414Y20325D01*
X14368Y20318D01*
X14324Y20305D01*
X14284Y20287D01*
X14247Y20264D01*
X14214Y20236D01*
X14183Y20204D01*
X14157Y20168D01*
X14133Y20127D01*
X14112Y20082D01*
X14093Y20032D01*
X14078Y19979D01*
X14065Y19918D01*
X14056Y19848D01*
X14051Y19767D01*
X14049Y19678D01*
X14052Y19571D01*
X14060Y19475D01*
X14075Y19390D01*
X14095Y19316D01*
X14121Y19251D01*
X14152Y19194D01*
X14190Y19145D01*
X14233Y19103D01*
X14281Y19071D01*
X14336Y19047D01*
X14397Y19033D01*
X14464Y19028D01*
X14476Y19029D01*
X14464Y19157D01*
X14412Y19163D01*
X14365Y19183D01*
X14322Y19215D01*
X14283Y19261D01*
X14251Y19326D01*
X14228Y19417D01*
X14214Y19534D01*
X14210Y19678D01*
X14214Y19822D01*
X14228Y19939D01*
X14251Y20030D01*
X14283Y20095D01*
X14322Y20140D01*
X14365Y20173D01*
X14413Y20192D01*
X14466Y20199D01*
X14517Y20193D01*
X14562Y20176D01*
X14603Y20147D01*
X14638Y20107D01*
X14673Y20037D01*
X14698Y19942D01*
X14713Y19822D01*
X14718Y19678D01*
X14718Y19678D01*
X14714Y19534D01*
X14700Y19417D01*
X14677Y19326D01*
X14645Y19261D01*
X14606Y19215D01*
X14563Y19183D01*
X14516Y19163D01*
X14464Y19157D01*
X14476Y19029D01*
X14551Y19037D01*
X14628Y19061D01*
X14696Y19103D01*
X14753Y19160D01*
X14808Y19252D01*
X14847Y19369D01*
X14871Y19511D01*
X14879Y19678D01*
X14879Y19678D01*
X13802Y19050D02*
X13802Y19228D01*
X13624Y19228D01*
X13624Y19050D01*
X13802Y19050D01*
X13802Y19050D01*
X13396Y19678D02*
X13393Y19785D01*
X13384Y19881D01*
X13370Y19967D01*
X13350Y20041D01*
X13324Y20106D01*
X13292Y20163D01*
X13255Y20212D01*
X13212Y20253D01*
X13163Y20286D01*
X13108Y20309D01*
X13048Y20323D01*
X12981Y20328D01*
X12931Y20325D01*
X12885Y20318D01*
X12842Y20305D01*
X12801Y20287D01*
X12764Y20264D01*
X12731Y20236D01*
X12701Y20204D01*
X12674Y20168D01*
X12650Y20127D01*
X12629Y20082D01*
X12610Y20032D01*
X12595Y19979D01*
X12582Y19918D01*
X12573Y19848D01*
X12568Y19767D01*
X12566Y19678D01*
X12569Y19571D01*
X12578Y19475D01*
X12592Y19390D01*
X12612Y19316D01*
X12638Y19251D01*
X12670Y19194D01*
X12707Y19145D01*
X12750Y19103D01*
X12799Y19071D01*
X12853Y19047D01*
X12914Y19033D01*
X12981Y19028D01*
X12993Y19029D01*
X12981Y19157D01*
X12929Y19163D01*
X12882Y19183D01*
X12839Y19215D01*
X12800Y19261D01*
X12768Y19326D01*
X12745Y19417D01*
X12731Y19534D01*
X12727Y19678D01*
X12731Y19822D01*
X12745Y19939D01*
X12768Y20030D01*
X12800Y20095D01*
X12839Y20140D01*
X12882Y20173D01*
X12930Y20192D01*
X12983Y20199D01*
X13034Y20193D01*
X13080Y20176D01*
X13120Y20147D01*
X13155Y20107D01*
X13190Y20037D01*
X13215Y19942D01*
X13230Y19822D01*
X13235Y19678D01*
X13235Y19678D01*
X13231Y19534D01*
X13217Y19417D01*
X13194Y19326D01*
X13162Y19261D01*
X13123Y19215D01*
X13080Y19183D01*
X13033Y19163D01*
X12981Y19157D01*
X12993Y19029D01*
X13068Y19037D01*
X13145Y19061D01*
X13213Y19103D01*
X13270Y19160D01*
X13325Y19252D01*
X13365Y19369D01*
X13388Y19511D01*
X13396Y19678D01*
X13396Y19678D01*
X22730Y21590D02*
X22730Y22863D01*
X22252Y22863D01*
X22183Y22860D01*
X22121Y22853D01*
X22066Y22841D01*
X22018Y22824D01*
X21977Y22802D01*
X21940Y22775D01*
X21908Y22743D01*
X21880Y22705D01*
X21858Y22665D01*
X21843Y22623D01*
X21833Y22581D01*
X21830Y22537D01*
X21833Y22497D01*
X21841Y22458D01*
X21855Y22420D01*
X21875Y22384D01*
X21900Y22349D01*
X21930Y22318D01*
X21966Y22291D01*
X22008Y22267D01*
X22058Y22147D01*
X22081Y22156D01*
X22117Y22166D01*
X22160Y22172D01*
X22210Y22176D01*
X22267Y22178D01*
X22561Y22178D01*
X22561Y21740D01*
X22561Y21740D01*
X22244Y21740D01*
X22207Y21741D01*
X22175Y21742D01*
X22149Y21744D01*
X22130Y21746D01*
X22102Y21752D01*
X22076Y21760D01*
X22053Y21770D01*
X22033Y21781D01*
X22014Y21795D01*
X21997Y21811D01*
X21982Y21830D01*
X21968Y21852D01*
X21957Y21876D01*
X21950Y21902D01*
X21945Y21929D01*
X21943Y21959D01*
X21945Y21993D01*
X21952Y22025D01*
X21964Y22055D01*
X21980Y22083D01*
X22000Y22107D01*
X22023Y22127D01*
X22050Y22144D01*
X22058Y22147D01*
X22008Y22267D01*
X22069Y22368D01*
X22047Y22386D01*
X22029Y22406D01*
X22014Y22430D01*
X22004Y22456D01*
X21998Y22485D01*
X21996Y22517D01*
X21998Y22548D01*
X22004Y22577D01*
X22013Y22604D01*
X22027Y22629D01*
X22043Y22651D01*
X22063Y22669D01*
X22087Y22684D01*
X22113Y22695D01*
X22147Y22703D01*
X22190Y22708D01*
X22243Y22711D01*
X22307Y22713D01*
X22561Y22713D01*
X22561Y22328D01*
X22561Y22328D01*
X22286Y22328D01*
X22234Y22329D01*
X22190Y22332D01*
X22154Y22336D01*
X22126Y22343D01*
X22095Y22354D01*
X22069Y22368D01*
X22008Y22267D01*
X21954Y22247D01*
X21906Y22221D01*
X21865Y22190D01*
X21831Y22152D01*
X21804Y22109D01*
X21784Y22063D01*
X21773Y22013D01*
X21769Y21959D01*
X21771Y21915D01*
X21778Y21873D01*
X21790Y21832D01*
X21806Y21793D01*
X21826Y21756D01*
X21849Y21725D01*
X21873Y21697D01*
X21900Y21674D01*
X21929Y21655D01*
X21962Y21638D01*
X21999Y21623D01*
X22039Y21611D01*
X22083Y21602D01*
X22132Y21595D01*
X22186Y21591D01*
X22244Y21590D01*
X22730Y21590D01*
X22730Y21590D01*
X20953Y21590D02*
X20953Y21725D01*
X21011Y21657D01*
X21080Y21608D01*
X21158Y21579D01*
X21245Y21569D01*
X21285Y21571D01*
X21324Y21577D01*
X21361Y21587D01*
X21398Y21600D01*
X21431Y21617D01*
X21459Y21636D01*
X21483Y21656D01*
X21503Y21679D01*
X21518Y21704D01*
X21532Y21732D01*
X21543Y21762D01*
X21551Y21795D01*
X21555Y21821D01*
X21558Y21854D01*
X21560Y21894D01*
X21560Y21941D01*
X21560Y22512D01*
X21404Y22512D01*
X21404Y22001D01*
X21403Y21944D01*
X21402Y21898D01*
X21399Y21862D01*
X21395Y21836D01*
X21385Y21807D01*
X21372Y21781D01*
X21354Y21758D01*
X21332Y21739D01*
X21307Y21724D01*
X21279Y21713D01*
X21248Y21706D01*
X21214Y21704D01*
X21179Y21706D01*
X21146Y21713D01*
X21113Y21724D01*
X21082Y21740D01*
X21053Y21759D01*
X21029Y21782D01*
X21010Y21808D01*
X20995Y21838D01*
X20984Y21872D01*
X20976Y21914D01*
X20971Y21962D01*
X20969Y22018D01*
X20969Y22512D01*
X20813Y22512D01*
X20813Y21590D01*
X20953Y21590D01*
X20953Y21590D01*
X20227Y21730D02*
X20204Y21592D01*
X20236Y21586D01*
X20267Y21581D01*
X20295Y21579D01*
X20322Y21578D01*
X20362Y21580D01*
X20398Y21585D01*
X20428Y21593D01*
X20454Y21605D01*
X20476Y21619D01*
X20494Y21636D01*
X20509Y21655D01*
X20520Y21676D01*
X20529Y21703D01*
X20535Y21744D01*
X20538Y21796D01*
X20539Y21860D01*
X20539Y22390D01*
X20654Y22390D01*
X20654Y22512D01*
X20539Y22512D01*
X20539Y22740D01*
X20384Y22834D01*
X20384Y22512D01*
X20227Y22512D01*
X20227Y22390D01*
X20384Y22390D01*
X20384Y21851D01*
X20383Y21821D01*
X20382Y21796D01*
X20379Y21778D01*
X20376Y21765D01*
X20371Y21756D01*
X20365Y21748D01*
X20357Y21741D01*
X20349Y21735D01*
X20338Y21730D01*
X20326Y21727D01*
X20312Y21724D01*
X20295Y21724D01*
X20281Y21724D01*
X20265Y21725D01*
X20247Y21727D01*
X20227Y21730D01*
X20227Y21730D01*
X19733Y21730D02*
X19710Y21592D01*
X19742Y21586D01*
X19773Y21581D01*
X19801Y21579D01*
X19828Y21578D01*
X19868Y21580D01*
X19904Y21585D01*
X19934Y21593D01*
X19960Y21605D01*
X19982Y21619D01*
X20000Y21636D01*
X20015Y21655D01*
X20026Y21676D01*
X20035Y21703D01*
X20041Y21744D01*
X20044Y21796D01*
X20045Y21860D01*
X20045Y22390D01*
X20160Y22390D01*
X20160Y22512D01*
X20045Y22512D01*
X20045Y22740D01*
X19890Y22834D01*
X19890Y22512D01*
X19733Y22512D01*
X19733Y22390D01*
X19890Y22390D01*
X19890Y21851D01*
X19889Y21821D01*
X19888Y21796D01*
X19885Y21778D01*
X19882Y21765D01*
X19877Y21756D01*
X19871Y21748D01*
X19864Y21741D01*
X19855Y21735D01*
X19844Y21730D01*
X19832Y21727D01*
X19818Y21724D01*
X19801Y21724D01*
X19787Y21724D01*
X19771Y21725D01*
X19753Y21727D01*
X19733Y21730D01*
X19733Y21730D01*
X19638Y22051D02*
X19629Y22171D01*
X19603Y22274D01*
X19558Y22360D01*
X19496Y22430D01*
X19433Y22475D01*
X19364Y22507D01*
X19288Y22526D01*
X19206Y22533D01*
X19115Y22525D01*
X19033Y22502D01*
X18960Y22463D01*
X18895Y22408D01*
X18842Y22340D01*
X18805Y22260D01*
X18782Y22168D01*
X18774Y22064D01*
X18778Y21980D01*
X18788Y21905D01*
X18804Y21840D01*
X18828Y21784D01*
X18858Y21736D01*
X18893Y21693D01*
X18935Y21657D01*
X18983Y21626D01*
X19035Y21601D01*
X19090Y21583D01*
X19147Y21573D01*
X19206Y21569D01*
X19217Y21570D01*
X19206Y21698D01*
X19150Y21703D01*
X19099Y21720D01*
X19053Y21747D01*
X19012Y21786D01*
X18978Y21836D01*
X18954Y21898D01*
X18940Y21971D01*
X18935Y22056D01*
X18940Y22137D01*
X18954Y22207D01*
X18979Y22266D01*
X19013Y22315D01*
X19054Y22354D01*
X19100Y22381D01*
X19151Y22398D01*
X19206Y22403D01*
X19262Y22398D01*
X19313Y22382D01*
X19359Y22354D01*
X19400Y22316D01*
X19434Y22266D01*
X19458Y22206D01*
X19473Y22134D01*
X19478Y22051D01*
X19478Y22051D01*
X19473Y21968D01*
X19458Y21896D01*
X19434Y21835D01*
X19400Y21786D01*
X19359Y21747D01*
X19313Y21720D01*
X19262Y21703D01*
X19206Y21698D01*
X19217Y21570D01*
X19298Y21577D01*
X19381Y21600D01*
X19455Y21639D01*
X19519Y21693D01*
X19571Y21762D01*
X19608Y21845D01*
X19631Y21941D01*
X19638Y22051D01*
X19638Y22051D01*
X18591Y21590D02*
X18591Y22512D01*
X18451Y22512D01*
X18451Y22381D01*
X18394Y22447D01*
X18326Y22495D01*
X18247Y22523D01*
X18157Y22533D01*
X18116Y22531D01*
X18077Y22525D01*
X18040Y22516D01*
X18004Y22503D01*
X17971Y22487D01*
X17943Y22468D01*
X17919Y22447D01*
X17899Y22424D01*
X17883Y22399D01*
X17870Y22371D01*
X17859Y22341D01*
X17851Y22309D01*
X17847Y22283D01*
X17844Y22249D01*
X17843Y22207D01*
X17842Y22157D01*
X17842Y21590D01*
X17998Y21590D01*
X17998Y22151D01*
X17999Y22196D01*
X18003Y22234D01*
X18009Y22267D01*
X18016Y22294D01*
X18027Y22316D01*
X18042Y22336D01*
X18060Y22354D01*
X18081Y22369D01*
X18105Y22382D01*
X18132Y22390D01*
X18160Y22396D01*
X18190Y22397D01*
X18238Y22393D01*
X18283Y22382D01*
X18324Y22362D01*
X18362Y22334D01*
X18394Y22295D01*
X18417Y22242D01*
X18430Y22175D01*
X18435Y22094D01*
X18435Y21590D01*
X18591Y21590D01*
X18591Y21590D01*
X17095Y21590D02*
X17095Y22863D01*
X16618Y22863D01*
X16549Y22860D01*
X16486Y22853D01*
X16432Y22841D01*
X16384Y22824D01*
X16342Y22802D01*
X16305Y22775D01*
X16273Y22743D01*
X16246Y22705D01*
X16224Y22665D01*
X16208Y22623D01*
X16199Y22581D01*
X16196Y22537D01*
X16199Y22497D01*
X16207Y22458D01*
X16221Y22420D01*
X16240Y22384D01*
X16265Y22349D01*
X16296Y22318D01*
X16332Y22291D01*
X16374Y22267D01*
X16423Y22147D01*
X16446Y22156D01*
X16482Y22166D01*
X16525Y22172D01*
X16575Y22176D01*
X16633Y22178D01*
X16927Y22178D01*
X16927Y21740D01*
X16927Y21740D01*
X16610Y21740D01*
X16572Y21741D01*
X16541Y21742D01*
X16515Y21744D01*
X16495Y21746D01*
X16468Y21752D01*
X16442Y21760D01*
X16419Y21770D01*
X16398Y21781D01*
X16380Y21795D01*
X16363Y21811D01*
X16347Y21830D01*
X16334Y21852D01*
X16323Y21876D01*
X16315Y21902D01*
X16310Y21929D01*
X16309Y21959D01*
X16311Y21993D01*
X16318Y22025D01*
X16329Y22055D01*
X16345Y22083D01*
X16365Y22107D01*
X16389Y22127D01*
X16416Y22144D01*
X16423Y22147D01*
X16374Y22267D01*
X16435Y22368D01*
X16413Y22386D01*
X16394Y22406D01*
X16380Y22430D01*
X16370Y22456D01*
X16364Y22485D01*
X16362Y22517D01*
X16364Y22548D01*
X16369Y22577D01*
X16379Y22604D01*
X16392Y22629D01*
X16409Y22651D01*
X16429Y22669D01*
X16452Y22684D01*
X16479Y22695D01*
X16512Y22703D01*
X16556Y22708D01*
X16609Y22711D01*
X16673Y22713D01*
X16927Y22713D01*
X16927Y22328D01*
X16927Y22328D01*
X16652Y22328D01*
X16600Y22329D01*
X16556Y22332D01*
X16519Y22336D01*
X16491Y22343D01*
X16461Y22354D01*
X16435Y22368D01*
X16374Y22267D01*
X16320Y22247D01*
X16272Y22221D01*
X16231Y22190D01*
X16196Y22152D01*
X16169Y22109D01*
X16150Y22063D01*
X16138Y22013D01*
X16134Y21959D01*
X16137Y21915D01*
X16144Y21873D01*
X16156Y21832D01*
X16172Y21793D01*
X16192Y21756D01*
X16214Y21725D01*
X16239Y21697D01*
X16265Y21674D01*
X16295Y21655D01*
X16328Y21638D01*
X16365Y21623D01*
X16405Y21611D01*
X16449Y21602D01*
X16498Y21595D01*
X16552Y21591D01*
X16610Y21590D01*
X17095Y21590D01*
X17095Y21590D01*
X15981Y22051D02*
X15972Y22171D01*
X15945Y22274D01*
X15901Y22360D01*
X15838Y22430D01*
X15776Y22475D01*
X15706Y22507D01*
X15631Y22526D01*
X15548Y22533D01*
X15458Y22525D01*
X15376Y22502D01*
X15302Y22463D01*
X15237Y22408D01*
X15185Y22340D01*
X15147Y22260D01*
X15124Y22168D01*
X15117Y22064D01*
X15120Y21980D01*
X15130Y21905D01*
X15147Y21840D01*
X15170Y21784D01*
X15200Y21736D01*
X15236Y21693D01*
X15278Y21657D01*
X15326Y21626D01*
X15378Y21601D01*
X15432Y21583D01*
X15489Y21573D01*
X15548Y21569D01*
X15559Y21570D01*
X15548Y21698D01*
X15493Y21703D01*
X15442Y21720D01*
X15396Y21747D01*
X15355Y21786D01*
X15321Y21836D01*
X15297Y21898D01*
X15282Y21971D01*
X15277Y22056D01*
X15282Y22137D01*
X15297Y22207D01*
X15321Y22266D01*
X15355Y22315D01*
X15396Y22354D01*
X15442Y22381D01*
X15493Y22398D01*
X15548Y22403D01*
X15604Y22398D01*
X15655Y22382D01*
X15702Y22354D01*
X15743Y22316D01*
X15777Y22266D01*
X15801Y22206D01*
X15815Y22134D01*
X15820Y22051D01*
X15820Y22051D01*
X15815Y21968D01*
X15801Y21896D01*
X15777Y21835D01*
X15743Y21786D01*
X15702Y21747D01*
X15655Y21720D01*
X15604Y21703D01*
X15548Y21698D01*
X15559Y21570D01*
X15640Y21577D01*
X15723Y21600D01*
X15797Y21639D01*
X15861Y21693D01*
X15913Y21762D01*
X15951Y21845D01*
X15973Y21941D01*
X15981Y22051D01*
X15981Y22051D01*
X14332Y21704D02*
X14375Y21670D01*
X14381Y21665D01*
X14441Y21753D01*
X14412Y21778D01*
X14389Y21807D01*
X14370Y21839D01*
X14359Y21869D01*
X14351Y21905D01*
X14347Y21947D01*
X14345Y21995D01*
X14345Y22053D01*
X14345Y22053D01*
X14393Y22036D01*
X14451Y22021D01*
X14520Y22007D01*
X14600Y21994D01*
X14645Y21987D01*
X14682Y21979D01*
X14713Y21971D01*
X14737Y21962D01*
X14755Y21953D01*
X14772Y21941D01*
X14786Y21927D01*
X14798Y21912D01*
X14808Y21894D01*
X14814Y21876D01*
X14819Y21857D01*
X14820Y21837D01*
X14817Y21807D01*
X14808Y21780D01*
X14793Y21755D01*
X14773Y21733D01*
X14746Y21715D01*
X14714Y21702D01*
X14677Y21694D01*
X14634Y21692D01*
X14590Y21694D01*
X14549Y21701D01*
X14510Y21714D01*
X14473Y21731D01*
X14441Y21753D01*
X14381Y21665D01*
X14417Y21641D01*
X14459Y21617D01*
X14499Y21600D01*
X14540Y21586D01*
X14582Y21577D01*
X14626Y21571D01*
X14671Y21569D01*
X14743Y21574D01*
X14806Y21588D01*
X14860Y21611D01*
X14905Y21643D01*
X14941Y21683D01*
X14966Y21728D01*
X14981Y21778D01*
X14987Y21833D01*
X14985Y21866D01*
X14979Y21898D01*
X14969Y21928D01*
X14956Y21957D01*
X14939Y21983D01*
X14920Y22007D01*
X14899Y22028D01*
X14875Y22047D01*
X14849Y22063D01*
X14822Y22076D01*
X14793Y22088D01*
X14763Y22098D01*
X14737Y22104D01*
X14705Y22110D01*
X14667Y22116D01*
X14624Y22121D01*
X14535Y22133D01*
X14459Y22146D01*
X14396Y22160D01*
X14345Y22175D01*
X14345Y22190D01*
X14344Y22201D01*
X14344Y22210D01*
X14344Y22216D01*
X14347Y22260D01*
X14355Y22297D01*
X14369Y22327D01*
X14388Y22351D01*
X14422Y22374D01*
X14463Y22390D01*
X14511Y22400D01*
X14566Y22403D01*
X14618Y22401D01*
X14662Y22394D01*
X14699Y22382D01*
X14729Y22365D01*
X14754Y22342D01*
X14775Y22311D01*
X14793Y22273D01*
X14807Y22228D01*
X14960Y22249D01*
X14948Y22296D01*
X14932Y22338D01*
X14913Y22375D01*
X14891Y22407D01*
X14865Y22436D01*
X14833Y22461D01*
X14796Y22482D01*
X14753Y22500D01*
X14706Y22515D01*
X14656Y22525D01*
X14601Y22531D01*
X14544Y22533D01*
X14488Y22531D01*
X14437Y22526D01*
X14392Y22517D01*
X14352Y22505D01*
X14317Y22490D01*
X14288Y22474D01*
X14263Y22455D01*
X14243Y22435D01*
X14227Y22413D01*
X14214Y22388D01*
X14203Y22360D01*
X14195Y22329D01*
X14191Y22305D01*
X14189Y22273D01*
X14187Y22233D01*
X14187Y22185D01*
X14187Y21976D01*
X14186Y21877D01*
X14184Y21798D01*
X14181Y21740D01*
X14177Y21701D01*
X14171Y21672D01*
X14162Y21644D01*
X14151Y21617D01*
X14137Y21590D01*
X14301Y21590D01*
X14312Y21615D01*
X14321Y21643D01*
X14327Y21672D01*
X14332Y21704D01*
X14332Y21704D01*
X13946Y21590D02*
X13946Y22512D01*
X13806Y22512D01*
X13806Y22372D01*
X13779Y22417D01*
X13754Y22454D01*
X13730Y22482D01*
X13706Y22502D01*
X13683Y22515D01*
X13659Y22525D01*
X13633Y22531D01*
X13606Y22533D01*
X13566Y22530D01*
X13527Y22520D01*
X13486Y22505D01*
X13446Y22482D01*
X13499Y22337D01*
X13528Y22352D01*
X13557Y22363D01*
X13585Y22369D01*
X13614Y22371D01*
X13639Y22369D01*
X13663Y22364D01*
X13685Y22354D01*
X13706Y22341D01*
X13725Y22324D01*
X13741Y22304D01*
X13754Y22281D01*
X13764Y22255D01*
X13776Y22212D01*
X13784Y22168D01*
X13789Y22121D01*
X13790Y22073D01*
X13790Y21590D01*
X13946Y21590D01*
X13946Y21590D01*
X12755Y21590D02*
X12755Y21706D01*
X12826Y21779D01*
X12824Y21781D01*
X12792Y21829D01*
X12770Y21887D01*
X12756Y21957D01*
X12752Y22037D01*
X12756Y22125D01*
X12770Y22201D01*
X12793Y22264D01*
X12825Y22315D01*
X12863Y22354D01*
X12906Y22381D01*
X12953Y22398D01*
X13005Y22403D01*
X13054Y22398D01*
X13100Y22382D01*
X13142Y22356D01*
X13179Y22318D01*
X13209Y22270D01*
X13231Y22209D01*
X13244Y22136D01*
X13249Y22050D01*
X13249Y22050D01*
X13244Y21967D01*
X13230Y21895D01*
X13207Y21835D01*
X13174Y21785D01*
X13135Y21747D01*
X13092Y21720D01*
X13047Y21703D01*
X12998Y21698D01*
X12948Y21703D01*
X12903Y21719D01*
X12861Y21745D01*
X12826Y21779D01*
X12755Y21706D01*
X12804Y21646D01*
X12863Y21603D01*
X12932Y21578D01*
X13012Y21569D01*
X13066Y21573D01*
X13118Y21584D01*
X13168Y21603D01*
X13215Y21630D01*
X13259Y21663D01*
X13297Y21703D01*
X13330Y21748D01*
X13358Y21800D01*
X13381Y21856D01*
X13396Y21917D01*
X13406Y21981D01*
X13409Y22050D01*
X13406Y22118D01*
X13398Y22182D01*
X13383Y22243D01*
X13363Y22301D01*
X13337Y22354D01*
X13306Y22400D01*
X13268Y22440D01*
X13225Y22473D01*
X13178Y22499D01*
X13128Y22518D01*
X13075Y22529D01*
X13019Y22533D01*
X12979Y22531D01*
X12941Y22524D01*
X12905Y22513D01*
X12871Y22498D01*
X12840Y22479D01*
X12812Y22457D01*
X12787Y22433D01*
X12765Y22406D01*
X12765Y22863D01*
X12610Y22863D01*
X12610Y21590D01*
X12755Y21590D01*
X12755Y21590D01*
G37*
M02*