%FSLAX33Y33*%
%MOMM*%
%ADD10C,0.15*%
%ADD11C,0.500001X0.000003*%
%ADD12C,1.199997X0.000001*%
%ADD13C,1.016*%
D10*
%LNtop silkscreen_traces*%
%LNtop silkscreen component 48f78adb2b7037fe*%
G01*
X28621Y8797D02*
X27398Y7574D01*
X29752Y7666D02*
X28529Y6443D01*
G36*
X28261Y9168D02*
X27755Y9674D01*
X27979Y9898D01*
X28012Y9929D01*
X28042Y9955D01*
X28070Y9974D01*
X28096Y9988D01*
X28121Y9996D01*
X28146Y10001D01*
X28173Y10000D01*
X28200Y9996D01*
X28227Y9987D01*
X28253Y9975D01*
X28276Y9960D01*
X28298Y9941D01*
X28321Y9913D01*
X28339Y9882D01*
X28349Y9850D01*
X28354Y9815D01*
X28351Y9778D01*
X28340Y9740D01*
X28320Y9701D01*
X28307Y9681D01*
X28242Y9725D01*
X28252Y9743D01*
X28258Y9761D01*
X28262Y9778D01*
X28263Y9795D01*
X28261Y9813D01*
X28256Y9829D01*
X28249Y9845D01*
X28240Y9859D01*
X28229Y9872D01*
X28210Y9887D01*
X28189Y9898D01*
X28167Y9904D01*
X28144Y9904D01*
X28119Y9900D01*
X28093Y9888D01*
X28066Y9870D01*
X28038Y9845D01*
X27878Y9685D01*
X28045Y9518D01*
X28045Y9518D01*
X28189Y9662D01*
X28210Y9684D01*
X28228Y9705D01*
X28242Y9725D01*
X28307Y9681D01*
X28293Y9660D01*
X28312Y9666D01*
X28329Y9671D01*
X28345Y9674D01*
X28359Y9675D01*
X28387Y9676D01*
X28417Y9674D01*
X28449Y9670D01*
X28481Y9664D01*
X28707Y9614D01*
X28623Y9530D01*
X28451Y9568D01*
X28415Y9575D01*
X28384Y9582D01*
X28356Y9586D01*
X28333Y9589D01*
X28312Y9591D01*
X28294Y9592D01*
X28278Y9591D01*
X28265Y9589D01*
X28253Y9586D01*
X28241Y9582D01*
X28231Y9578D01*
X28221Y9572D01*
X28213Y9567D01*
X28204Y9559D01*
X28193Y9549D01*
X28181Y9537D01*
X28103Y9460D01*
X28328Y9235D01*
X28261Y9168D01*
X28261Y9168D01*
X28686Y10357D02*
X28629Y10290D01*
X28607Y10303D01*
X28587Y10312D01*
X28569Y10318D01*
X28552Y10320D01*
X28527Y10318D01*
X28504Y10312D01*
X28483Y10301D01*
X28463Y10284D01*
X28450Y10269D01*
X28440Y10252D01*
X28432Y10235D01*
X28428Y10216D01*
X28426Y10190D01*
X28428Y10163D01*
X28434Y10136D01*
X28444Y10107D01*
X28459Y10077D01*
X28481Y10044D01*
X28509Y10010D01*
X28544Y9972D01*
X28602Y9979D01*
X28604Y9964D01*
X28613Y9937D01*
X28629Y9910D01*
X28650Y9885D01*
X28650Y9885D01*
X28667Y9870D01*
X28685Y9857D01*
X28705Y9846D01*
X28725Y9837D01*
X28747Y9831D01*
X28768Y9828D01*
X28788Y9828D01*
X28808Y9831D01*
X28827Y9836D01*
X28845Y9844D01*
X28861Y9854D01*
X28875Y9867D01*
X28892Y9888D01*
X28904Y9911D01*
X28910Y9937D01*
X28911Y9966D01*
X28906Y9996D01*
X28895Y10025D01*
X28877Y10053D01*
X28853Y10081D01*
X28826Y10104D01*
X28799Y10121D01*
X28771Y10131D01*
X28742Y10135D01*
X28714Y10134D01*
X28688Y10127D01*
X28664Y10114D01*
X28642Y10095D01*
X28623Y10073D01*
X28610Y10049D01*
X28603Y10022D01*
X28600Y9994D01*
X28602Y9979D01*
X28544Y9972D01*
X28539Y10000D01*
X28539Y10027D01*
X28542Y10053D01*
X28548Y10078D01*
X28557Y10102D01*
X28569Y10124D01*
X28583Y10144D01*
X28599Y10163D01*
X28632Y10190D01*
X28668Y10209D01*
X28708Y10220D01*
X28751Y10223D01*
X28794Y10217D01*
X28836Y10203D01*
X28875Y10180D01*
X28913Y10148D01*
X28935Y10123D01*
X28954Y10097D01*
X28969Y10069D01*
X28981Y10039D01*
X28989Y10008D01*
X28992Y9978D01*
X28992Y9949D01*
X28987Y9920D01*
X28978Y9892D01*
X28965Y9865D01*
X28948Y9840D01*
X28927Y9817D01*
X28887Y9783D01*
X28842Y9760D01*
X28795Y9748D01*
X28743Y9747D01*
X28689Y9759D01*
X28631Y9786D01*
X28570Y9828D01*
X28506Y9886D01*
X28441Y9958D01*
X28393Y10027D01*
X28361Y10092D01*
X28347Y10154D01*
X28347Y10205D01*
X28359Y10253D01*
X28382Y10298D01*
X28416Y10339D01*
X28447Y10366D01*
X28479Y10385D01*
X28512Y10398D01*
X28548Y10404D01*
X28583Y10403D01*
X28618Y10394D01*
X28652Y10379D01*
X28686Y10357D01*
X28686Y10357D01*
G37*
%LNtop silkscreen component fc4ab4143d6492ec*%
X4235Y11005D02*
X0845Y11005D01*
X4235Y11005D02*
X4235Y16935D01*
X0845Y16935*
X0845Y11005*
G36*
X1049Y17916D02*
X1220Y17940D01*
X1227Y17864D01*
X1239Y17802D01*
X1257Y17752D01*
X1282Y17715D01*
X1312Y17689D01*
X1347Y17670D01*
X1387Y17658D01*
X1433Y17655D01*
X1468Y17657D01*
X1500Y17663D01*
X1529Y17673D01*
X1556Y17687D01*
X1580Y17705D01*
X1600Y17726D01*
X1616Y17750D01*
X1628Y17776D01*
X1636Y17808D01*
X1642Y17849D01*
X1646Y17898D01*
X1647Y17955D01*
X1647Y18942D01*
X1837Y18942D01*
X1837Y17966D01*
X1834Y17881D01*
X1826Y17807D01*
X1812Y17742D01*
X1793Y17688D01*
X1768Y17641D01*
X1737Y17601D01*
X1699Y17566D01*
X1655Y17537D01*
X1606Y17515D01*
X1553Y17499D01*
X1496Y17489D01*
X1434Y17486D01*
X1345Y17492D01*
X1268Y17513D01*
X1201Y17547D01*
X1146Y17594D01*
X1102Y17655D01*
X1072Y17729D01*
X1054Y17816D01*
X1049Y17916D01*
X1049Y17916D01*
X2999Y17679D02*
X2999Y17510D01*
X2052Y17510D01*
X2053Y17541D01*
X2057Y17572D01*
X2063Y17602D01*
X2073Y17632D01*
X2094Y17680D01*
X2120Y17728D01*
X2152Y17775D01*
X2189Y17823D01*
X2233Y17871D01*
X2286Y17924D01*
X2348Y17980D01*
X2419Y18039D01*
X2526Y18130D01*
X2614Y18211D01*
X2684Y18282D01*
X2734Y18343D01*
X2770Y18398D01*
X2796Y18451D01*
X2811Y18503D01*
X2816Y18554D01*
X2811Y18604D01*
X2797Y18650D01*
X2774Y18692D01*
X2741Y18730D01*
X2701Y18762D01*
X2655Y18784D01*
X2604Y18798D01*
X2547Y18802D01*
X2486Y18797D01*
X2432Y18783D01*
X2385Y18759D01*
X2343Y18726D01*
X2310Y18684D01*
X2286Y18635D01*
X2271Y18579D01*
X2266Y18515D01*
X2086Y18533D01*
X2101Y18628D01*
X2130Y18712D01*
X2171Y18783D01*
X2225Y18842D01*
X2291Y18888D01*
X2367Y18921D01*
X2454Y18941D01*
X2550Y18948D01*
X2648Y18940D01*
X2735Y18919D01*
X2811Y18883D01*
X2877Y18833D01*
X2929Y18773D01*
X2967Y18705D01*
X2989Y18631D01*
X2997Y18550D01*
X2995Y18507D01*
X2988Y18465D01*
X2977Y18423D01*
X2962Y18381D01*
X2941Y18339D01*
X2915Y18296D01*
X2883Y18252D01*
X2845Y18206D01*
X2797Y18156D01*
X2736Y18097D01*
X2662Y18030D01*
X2574Y17954D01*
X2502Y17893D01*
X2444Y17843D01*
X2400Y17803D01*
X2371Y17774D01*
X2349Y17750D01*
X2330Y17727D01*
X2312Y17703D01*
X2297Y17679D01*
X2999Y17679D01*
X2999Y17679D01*
G37*
%LNtop silkscreen component acea897f8989f1d9*%
X32648Y9010D02*
X35045Y6613D01*
X32648Y9010D02*
X28455Y4817D01*
X30852Y2420*
X35045Y6613*
G36*
X31982Y1622D02*
X32087Y1760D01*
X32145Y1711D01*
X32198Y1675D01*
X32246Y1653D01*
X32289Y1644D01*
X32329Y1647D01*
X32367Y1658D01*
X32404Y1679D01*
X32439Y1709D01*
X32462Y1734D01*
X32480Y1761D01*
X32494Y1789D01*
X32503Y1819D01*
X32507Y1848D01*
X32506Y1877D01*
X32501Y1905D01*
X32490Y1932D01*
X32473Y1961D01*
X32449Y1994D01*
X32417Y2031D01*
X32377Y2072D01*
X31680Y2770D01*
X31814Y2904D01*
X32504Y2214D01*
X32562Y2152D01*
X32609Y2094D01*
X32645Y2038D01*
X32670Y1986D01*
X32685Y1936D01*
X32691Y1885D01*
X32689Y1834D01*
X32679Y1783D01*
X32660Y1732D01*
X32634Y1683D01*
X32600Y1635D01*
X32559Y1590D01*
X32491Y1532D01*
X32422Y1491D01*
X32351Y1468D01*
X32278Y1462D01*
X32204Y1475D01*
X32130Y1505D01*
X32056Y1554D01*
X31982Y1622D01*
X31982Y1622D01*
X32875Y3469D02*
X32761Y3336D01*
X32718Y3361D01*
X32678Y3379D01*
X32641Y3391D01*
X32608Y3396D01*
X32558Y3392D01*
X32512Y3379D01*
X32469Y3357D01*
X32430Y3324D01*
X32404Y3294D01*
X32383Y3260D01*
X32368Y3225D01*
X32359Y3187D01*
X32355Y3135D01*
X32360Y3082D01*
X32372Y3027D01*
X32392Y2969D01*
X32422Y2909D01*
X32466Y2844D01*
X32522Y2775D01*
X32591Y2700D01*
X32708Y2714D01*
X32711Y2684D01*
X32730Y2629D01*
X32761Y2576D01*
X32804Y2525D01*
X32804Y2525D01*
X32838Y2495D01*
X32874Y2469D01*
X32913Y2448D01*
X32954Y2430D01*
X32997Y2417D01*
X33039Y2411D01*
X33080Y2411D01*
X33120Y2417D01*
X33158Y2428D01*
X33193Y2444D01*
X33225Y2464D01*
X33254Y2489D01*
X33288Y2531D01*
X33311Y2578D01*
X33324Y2630D01*
X33325Y2688D01*
X33316Y2747D01*
X33293Y2805D01*
X33258Y2862D01*
X33209Y2917D01*
X33156Y2963D01*
X33102Y2997D01*
X33046Y3018D01*
X32988Y3026D01*
X32932Y3023D01*
X32880Y3009D01*
X32831Y2983D01*
X32787Y2946D01*
X32750Y2902D01*
X32724Y2853D01*
X32709Y2800D01*
X32704Y2743D01*
X32708Y2714D01*
X32591Y2700D01*
X32582Y2756D01*
X32581Y2810D01*
X32587Y2862D01*
X32599Y2911D01*
X32617Y2959D01*
X32641Y3003D01*
X32669Y3043D01*
X32702Y3081D01*
X32767Y3135D01*
X32840Y3173D01*
X32919Y3195D01*
X33005Y3201D01*
X33092Y3190D01*
X33175Y3161D01*
X33254Y3115D01*
X33329Y3052D01*
X33373Y3002D01*
X33411Y2949D01*
X33441Y2893D01*
X33465Y2833D01*
X33481Y2772D01*
X33488Y2712D01*
X33487Y2653D01*
X33477Y2595D01*
X33459Y2539D01*
X33433Y2486D01*
X33400Y2436D01*
X33358Y2389D01*
X33277Y2322D01*
X33188Y2276D01*
X33093Y2252D01*
X32990Y2250D01*
X32881Y2273D01*
X32765Y2327D01*
X32643Y2412D01*
X32515Y2528D01*
X32385Y2672D01*
X32289Y2809D01*
X32226Y2939D01*
X32197Y3063D01*
X32198Y3166D01*
X32221Y3261D01*
X32267Y3351D01*
X32336Y3434D01*
X32397Y3487D01*
X32461Y3526D01*
X32528Y3551D01*
X32599Y3563D01*
X32670Y3561D01*
X32739Y3544D01*
X32808Y3514D01*
X32875Y3469D01*
X32875Y3469D01*
G37*
%LNtop silkscreen component 7f83bd30abf15710*%
X14835Y7150D02*
X13105Y7150D01*
X14835Y5550D02*
X13105Y5550D01*
G36*
X13411Y7574D02*
X13411Y8290D01*
X13728Y8290D01*
X13773Y8289D01*
X13813Y8285D01*
X13846Y8279D01*
X13874Y8271D01*
X13898Y8259D01*
X13919Y8244D01*
X13937Y8225D01*
X13953Y8202D01*
X13966Y8177D01*
X13976Y8151D01*
X13981Y8123D01*
X13983Y8095D01*
X13980Y8058D01*
X13971Y8024D01*
X13955Y7994D01*
X13934Y7966D01*
X13906Y7942D01*
X13871Y7923D01*
X13830Y7909D01*
X13806Y7904D01*
X13791Y7981D01*
X13811Y7987D01*
X13828Y7995D01*
X13843Y8005D01*
X13856Y8017D01*
X13867Y8030D01*
X13875Y8045D01*
X13881Y8061D01*
X13884Y8077D01*
X13886Y8095D01*
X13883Y8119D01*
X13876Y8141D01*
X13865Y8161D01*
X13849Y8178D01*
X13828Y8192D01*
X13801Y8203D01*
X13769Y8209D01*
X13732Y8211D01*
X13506Y8211D01*
X13506Y7974D01*
X13506Y7974D01*
X13709Y7974D01*
X13740Y7975D01*
X13767Y7977D01*
X13791Y7981D01*
X13806Y7904D01*
X13782Y7900D01*
X13799Y7891D01*
X13815Y7882D01*
X13828Y7873D01*
X13839Y7864D01*
X13859Y7844D01*
X13879Y7821D01*
X13898Y7796D01*
X13917Y7769D01*
X14042Y7574D01*
X13923Y7574D01*
X13828Y7723D01*
X13808Y7753D01*
X13790Y7780D01*
X13774Y7803D01*
X13760Y7822D01*
X13747Y7837D01*
X13734Y7851D01*
X13722Y7861D01*
X13712Y7869D01*
X13701Y7876D01*
X13690Y7881D01*
X13679Y7885D01*
X13668Y7888D01*
X13659Y7890D01*
X13647Y7891D01*
X13633Y7892D01*
X13616Y7892D01*
X13506Y7892D01*
X13506Y7574D01*
X13411Y7574D01*
X13411Y7574D01*
X14378Y7574D02*
X14378Y7745D01*
X14067Y7745D01*
X14067Y7826D01*
X14322Y8188D01*
X14378Y8149D01*
X14154Y7826D01*
X14378Y7826D01*
X14378Y7826D01*
X14378Y8149D01*
X14322Y8188D01*
X14394Y8290D01*
X14466Y8290D01*
X14466Y7826D01*
X14562Y7826D01*
X14562Y7745D01*
X14466Y7745D01*
X14466Y7574D01*
X14378Y7574D01*
X14378Y7574D01*
G37*
%LNtop silkscreen component 50fb72db43f2db52*%
X31325Y25825D02*
X34715Y25825D01*
X31325Y25825D02*
X31325Y19895D01*
X34715Y19895*
X34715Y25825*
G36*
X32545Y26552D02*
X32716Y26576D01*
X32723Y26500D01*
X32735Y26438D01*
X32753Y26388D01*
X32778Y26351D01*
X32808Y26325D01*
X32843Y26306D01*
X32883Y26294D01*
X32929Y26291D01*
X32964Y26293D01*
X32996Y26299D01*
X33025Y26309D01*
X33052Y26323D01*
X33076Y26341D01*
X33096Y26362D01*
X33112Y26386D01*
X33124Y26412D01*
X33132Y26444D01*
X33138Y26485D01*
X33142Y26534D01*
X33143Y26591D01*
X33143Y27578D01*
X33333Y27578D01*
X33333Y26602D01*
X33330Y26517D01*
X33322Y26443D01*
X33308Y26378D01*
X33289Y26324D01*
X33264Y26277D01*
X33233Y26237D01*
X33195Y26202D01*
X33151Y26173D01*
X33102Y26151D01*
X33049Y26135D01*
X32992Y26125D01*
X32930Y26122D01*
X32841Y26128D01*
X32764Y26149D01*
X32697Y26183D01*
X32642Y26230D01*
X32598Y26291D01*
X32568Y26365D01*
X32550Y26452D01*
X32545Y26552D01*
X32545Y26552D01*
X33841Y26922D02*
X33899Y26813D01*
X33875Y26800D01*
X33831Y26764D01*
X33795Y26721D01*
X33770Y26672D01*
X33755Y26618D01*
X33750Y26559D01*
X33750Y26559D01*
X33752Y26522D01*
X33759Y26485D01*
X33770Y26449D01*
X33785Y26414D01*
X33805Y26380D01*
X33830Y26351D01*
X33858Y26326D01*
X33891Y26305D01*
X33927Y26288D01*
X33964Y26276D01*
X34003Y26269D01*
X34043Y26266D01*
X34103Y26271D01*
X34158Y26286D01*
X34207Y26312D01*
X34251Y26347D01*
X34286Y26390D01*
X34312Y26439D01*
X34327Y26493D01*
X34333Y26553D01*
X34327Y26614D01*
X34311Y26669D01*
X34285Y26719D01*
X34248Y26763D01*
X34203Y26800D01*
X34153Y26825D01*
X34098Y26841D01*
X34037Y26846D01*
X33977Y26841D01*
X33923Y26826D01*
X33899Y26813D01*
X33841Y26922D01*
X33907Y27026D01*
X33947Y27006D01*
X33992Y26994D01*
X34042Y26990D01*
X34090Y26994D01*
X34134Y27006D01*
X34173Y27026D01*
X34208Y27054D01*
X34236Y27087D01*
X34257Y27125D01*
X34269Y27166D01*
X34273Y27210D01*
X34269Y27257D01*
X34256Y27299D01*
X34235Y27338D01*
X34206Y27373D01*
X34171Y27402D01*
X34131Y27422D01*
X34087Y27435D01*
X34040Y27439D01*
X33991Y27435D01*
X33948Y27423D01*
X33908Y27403D01*
X33873Y27375D01*
X33844Y27341D01*
X33823Y27304D01*
X33810Y27264D01*
X33806Y27220D01*
X33806Y27220D01*
X33810Y27172D01*
X33823Y27128D01*
X33843Y27089D01*
X33872Y27054D01*
X33907Y27026D01*
X33841Y26922D01*
X33790Y26945D01*
X33746Y26971D01*
X33709Y27002D01*
X33679Y27037D01*
X33656Y27076D01*
X33640Y27118D01*
X33630Y27164D01*
X33627Y27214D01*
X33634Y27289D01*
X33655Y27358D01*
X33690Y27421D01*
X33739Y27477D01*
X33800Y27524D01*
X33870Y27557D01*
X33949Y27577D01*
X34038Y27584D01*
X34127Y27577D01*
X34207Y27556D01*
X34278Y27522D01*
X34339Y27475D01*
X34389Y27417D01*
X34425Y27354D01*
X34447Y27285D01*
X34454Y27209D01*
X34450Y27161D01*
X34441Y27116D01*
X34424Y27075D01*
X34401Y27036D01*
X34372Y27001D01*
X34336Y26971D01*
X34293Y26944D01*
X34243Y26922D01*
X34305Y26898D01*
X34359Y26866D01*
X34405Y26828D01*
X34443Y26784D01*
X34474Y26734D01*
X34495Y26679D01*
X34508Y26619D01*
X34512Y26555D01*
X34504Y26467D01*
X34480Y26386D01*
X34439Y26313D01*
X34382Y26247D01*
X34312Y26192D01*
X34232Y26153D01*
X34141Y26129D01*
X34041Y26122D01*
X33940Y26129D01*
X33849Y26153D01*
X33769Y26192D01*
X33699Y26247D01*
X33642Y26314D01*
X33601Y26388D01*
X33577Y26470D01*
X33569Y26560D01*
X33573Y26627D01*
X33587Y26688D01*
X33609Y26744D01*
X33640Y26794D01*
X33679Y26837D01*
X33726Y26873D01*
X33780Y26902D01*
X33841Y26922D01*
X33841Y26922D01*
G37*
%LNtop silkscreen component 8bdea769ffbae0d0*%
X8162Y7574D02*
X6939Y8797D01*
X7031Y6443D02*
X5808Y7666D01*
G36*
X8533Y7934D02*
X9039Y8440D01*
X9263Y8216D01*
X9294Y8183D01*
X9320Y8153D01*
X9339Y8125D01*
X9353Y8099D01*
X9361Y8074D01*
X9365Y8049D01*
X9365Y8022D01*
X9361Y7995D01*
X9352Y7968D01*
X9340Y7943D01*
X9325Y7919D01*
X9306Y7897D01*
X9277Y7874D01*
X9247Y7856D01*
X9215Y7846D01*
X9180Y7841D01*
X9143Y7844D01*
X9105Y7856D01*
X9066Y7875D01*
X9046Y7888D01*
X9090Y7953D01*
X9108Y7943D01*
X9126Y7937D01*
X9143Y7933D01*
X9160Y7932D01*
X9178Y7934D01*
X9194Y7939D01*
X9210Y7946D01*
X9224Y7955D01*
X9236Y7966D01*
X9252Y7985D01*
X9263Y8006D01*
X9269Y8028D01*
X9269Y8051D01*
X9265Y8076D01*
X9253Y8102D01*
X9235Y8129D01*
X9210Y8157D01*
X9050Y8317D01*
X8883Y8150D01*
X8883Y8150D01*
X9027Y8006D01*
X9049Y7985D01*
X9070Y7967D01*
X9090Y7953D01*
X9046Y7888D01*
X9025Y7902D01*
X9031Y7883D01*
X9036Y7866D01*
X9039Y7850D01*
X9040Y7837D01*
X9041Y7808D01*
X9039Y7778D01*
X9035Y7746D01*
X9029Y7714D01*
X8979Y7488D01*
X8895Y7572D01*
X8933Y7744D01*
X8940Y7780D01*
X8946Y7811D01*
X8951Y7839D01*
X8954Y7862D01*
X8956Y7883D01*
X8957Y7901D01*
X8956Y7917D01*
X8954Y7930D01*
X8951Y7942D01*
X8947Y7954D01*
X8943Y7964D01*
X8937Y7974D01*
X8932Y7982D01*
X8924Y7991D01*
X8914Y8002D01*
X8902Y8014D01*
X8825Y8092D01*
X8600Y7867D01*
X8533Y7934D01*
X8533Y7934D01*
X9151Y7583D02*
X9222Y7529D01*
X9203Y7498D01*
X9191Y7469D01*
X9184Y7442D01*
X9182Y7416D01*
X9185Y7393D01*
X9193Y7370D01*
X9205Y7350D01*
X9221Y7330D01*
X9244Y7311D01*
X9269Y7298D01*
X9297Y7289D01*
X9326Y7287D01*
X9355Y7290D01*
X9382Y7298D01*
X9408Y7312D01*
X9431Y7332D01*
X9450Y7354D01*
X9463Y7378D01*
X9471Y7403D01*
X9474Y7430D01*
X9471Y7457D01*
X9463Y7483D01*
X9449Y7507D01*
X9431Y7529D01*
X9421Y7538D01*
X9409Y7547D01*
X9395Y7557D01*
X9380Y7566D01*
X9441Y7614D01*
X9444Y7611D01*
X9446Y7608D01*
X9449Y7605D01*
X9451Y7603D01*
X9471Y7585D01*
X9493Y7571D01*
X9517Y7560D01*
X9543Y7552D01*
X9568Y7550D01*
X9593Y7555D01*
X9616Y7566D01*
X9638Y7584D01*
X9653Y7602D01*
X9664Y7621D01*
X9670Y7642D01*
X9672Y7664D01*
X9669Y7686D01*
X9662Y7708D01*
X9651Y7728D01*
X9635Y7746D01*
X9616Y7762D01*
X9596Y7774D01*
X9574Y7781D01*
X9551Y7784D01*
X9528Y7782D01*
X9503Y7775D01*
X9478Y7764D01*
X9452Y7747D01*
X9401Y7820D01*
X9438Y7842D01*
X9475Y7857D01*
X9512Y7864D01*
X9549Y7865D01*
X9586Y7859D01*
X9621Y7845D01*
X9653Y7826D01*
X9684Y7799D01*
X9704Y7777D01*
X9720Y7755D01*
X9733Y7730D01*
X9743Y7705D01*
X9750Y7679D01*
X9753Y7653D01*
X9752Y7628D01*
X9748Y7603D01*
X9740Y7579D01*
X9730Y7557D01*
X9717Y7537D01*
X9701Y7519D01*
X9684Y7504D01*
X9665Y7492D01*
X9645Y7483D01*
X9624Y7477D01*
X9601Y7474D01*
X9578Y7475D01*
X9553Y7479D01*
X9529Y7486D01*
X9543Y7459D01*
X9553Y7431D01*
X9557Y7402D01*
X9555Y7374D01*
X9549Y7345D01*
X9537Y7318D01*
X9520Y7292D01*
X9499Y7267D01*
X9464Y7238D01*
X9425Y7218D01*
X9383Y7206D01*
X9338Y7203D01*
X9292Y7209D01*
X9249Y7223D01*
X9208Y7247D01*
X9170Y7279D01*
X9140Y7314D01*
X9118Y7350D01*
X9105Y7389D01*
X9099Y7430D01*
X9100Y7471D01*
X9110Y7510D01*
X9127Y7547D01*
X9151Y7583D01*
X9151Y7583D01*
G37*
%LNtop silkscreen component 0b6faf164e5a0518*%
X7150Y13105D02*
X7150Y14835D01*
X5550Y13105D02*
X5550Y14835D01*
G36*
X5283Y16464D02*
X5283Y17180D01*
X5600Y17180D01*
X5645Y17179D01*
X5685Y17175D01*
X5718Y17169D01*
X5746Y17161D01*
X5770Y17149D01*
X5791Y17134D01*
X5809Y17115D01*
X5825Y17092D01*
X5838Y17067D01*
X5848Y17041D01*
X5853Y17013D01*
X5855Y16985D01*
X5852Y16948D01*
X5843Y16914D01*
X5827Y16884D01*
X5806Y16856D01*
X5778Y16832D01*
X5743Y16813D01*
X5702Y16799D01*
X5678Y16794D01*
X5663Y16871D01*
X5683Y16877D01*
X5700Y16885D01*
X5715Y16895D01*
X5728Y16907D01*
X5739Y16920D01*
X5747Y16935D01*
X5753Y16951D01*
X5756Y16967D01*
X5758Y16985D01*
X5755Y17009D01*
X5748Y17031D01*
X5737Y17051D01*
X5721Y17068D01*
X5700Y17082D01*
X5673Y17093D01*
X5641Y17099D01*
X5604Y17101D01*
X5378Y17101D01*
X5378Y16864D01*
X5378Y16864D01*
X5581Y16864D01*
X5612Y16865D01*
X5639Y16867D01*
X5663Y16871D01*
X5678Y16794D01*
X5654Y16790D01*
X5671Y16781D01*
X5687Y16772D01*
X5700Y16763D01*
X5711Y16754D01*
X5731Y16734D01*
X5751Y16711D01*
X5770Y16686D01*
X5789Y16659D01*
X5914Y16464D01*
X5795Y16464D01*
X5700Y16613D01*
X5680Y16643D01*
X5662Y16670D01*
X5646Y16693D01*
X5632Y16712D01*
X5619Y16727D01*
X5606Y16741D01*
X5594Y16751D01*
X5584Y16759D01*
X5573Y16766D01*
X5562Y16771D01*
X5551Y16775D01*
X5540Y16778D01*
X5531Y16780D01*
X5519Y16781D01*
X5505Y16782D01*
X5488Y16782D01*
X5378Y16782D01*
X5378Y16464D01*
X5283Y16464D01*
X5283Y16464D01*
X6430Y16548D02*
X6430Y16464D01*
X5957Y16464D01*
X5957Y16480D01*
X5959Y16495D01*
X5962Y16510D01*
X5967Y16525D01*
X5977Y16549D01*
X5991Y16573D01*
X6006Y16597D01*
X6025Y16620D01*
X6047Y16645D01*
X6074Y16671D01*
X6105Y16699D01*
X6140Y16729D01*
X6194Y16774D01*
X6238Y16814D01*
X6272Y16850D01*
X6298Y16880D01*
X6316Y16908D01*
X6328Y16935D01*
X6336Y16961D01*
X6339Y16986D01*
X6336Y17011D01*
X6329Y17034D01*
X6318Y17055D01*
X6301Y17074D01*
X6281Y17090D01*
X6258Y17101D01*
X6232Y17108D01*
X6204Y17110D01*
X6174Y17108D01*
X6147Y17100D01*
X6123Y17089D01*
X6102Y17072D01*
X6086Y17051D01*
X6074Y17026D01*
X6066Y16998D01*
X6064Y16966D01*
X5973Y16976D01*
X5981Y17023D01*
X5995Y17065D01*
X6016Y17100D01*
X6043Y17130D01*
X6076Y17153D01*
X6114Y17170D01*
X6157Y17179D01*
X6206Y17183D01*
X6255Y17179D01*
X6298Y17168D01*
X6336Y17151D01*
X6369Y17126D01*
X6395Y17095D01*
X6414Y17062D01*
X6425Y17025D01*
X6429Y16984D01*
X6428Y16963D01*
X6425Y16941D01*
X6419Y16920D01*
X6411Y16900D01*
X6401Y16879D01*
X6388Y16857D01*
X6372Y16835D01*
X6353Y16812D01*
X6329Y16787D01*
X6299Y16758D01*
X6262Y16724D01*
X6218Y16686D01*
X6182Y16656D01*
X6153Y16630D01*
X6131Y16611D01*
X6116Y16596D01*
X6105Y16584D01*
X6095Y16572D01*
X6087Y16560D01*
X6079Y16548D01*
X6430Y16548D01*
X6430Y16548D01*
G37*
%LNtop silkscreen component 6cb0e7e3f02311c0*%
X7150Y21995D02*
X7150Y23725D01*
X5550Y21995D02*
X5550Y23725D01*
G36*
X5283Y25354D02*
X5283Y26070D01*
X5600Y26070D01*
X5645Y26069D01*
X5685Y26065D01*
X5718Y26059D01*
X5746Y26051D01*
X5770Y26039D01*
X5791Y26024D01*
X5809Y26005D01*
X5825Y25982D01*
X5838Y25957D01*
X5848Y25931D01*
X5853Y25903D01*
X5855Y25875D01*
X5852Y25838D01*
X5843Y25804D01*
X5827Y25774D01*
X5806Y25746D01*
X5778Y25722D01*
X5743Y25703D01*
X5702Y25689D01*
X5678Y25684D01*
X5663Y25761D01*
X5683Y25767D01*
X5700Y25775D01*
X5715Y25785D01*
X5728Y25797D01*
X5739Y25810D01*
X5747Y25825D01*
X5753Y25841D01*
X5756Y25857D01*
X5758Y25875D01*
X5755Y25899D01*
X5748Y25921D01*
X5737Y25941D01*
X5721Y25958D01*
X5700Y25972D01*
X5673Y25983D01*
X5641Y25989D01*
X5604Y25991D01*
X5378Y25991D01*
X5378Y25754D01*
X5378Y25754D01*
X5581Y25754D01*
X5612Y25755D01*
X5639Y25757D01*
X5663Y25761D01*
X5678Y25684D01*
X5654Y25680D01*
X5671Y25671D01*
X5687Y25662D01*
X5700Y25653D01*
X5711Y25644D01*
X5731Y25624D01*
X5751Y25601D01*
X5770Y25576D01*
X5789Y25549D01*
X5914Y25354D01*
X5795Y25354D01*
X5700Y25503D01*
X5680Y25533D01*
X5662Y25560D01*
X5646Y25583D01*
X5632Y25602D01*
X5619Y25617D01*
X5606Y25631D01*
X5594Y25641D01*
X5584Y25649D01*
X5573Y25656D01*
X5562Y25661D01*
X5551Y25665D01*
X5540Y25668D01*
X5531Y25670D01*
X5519Y25671D01*
X5505Y25672D01*
X5488Y25672D01*
X5378Y25672D01*
X5378Y25354D01*
X5283Y25354D01*
X5283Y25354D01*
X6299Y25354D02*
X6211Y25354D01*
X6211Y25914D01*
X6194Y25899D01*
X6175Y25884D01*
X6152Y25869D01*
X6128Y25854D01*
X6103Y25839D01*
X6079Y25827D01*
X6057Y25817D01*
X6035Y25808D01*
X6035Y25893D01*
X6071Y25911D01*
X6105Y25931D01*
X6136Y25953D01*
X6164Y25977D01*
X6190Y26002D01*
X6211Y26026D01*
X6229Y26049D01*
X6242Y26073D01*
X6299Y26073D01*
X6299Y25354D01*
X6299Y25354D01*
G37*
%LNtop silkscreen component 07940880643af1f4*%
X7105Y4817D02*
X4708Y2420D01*
X7105Y4817D02*
X2912Y9010D01*
X0515Y6613*
X4708Y2420*
G36*
X1749Y3197D02*
X1887Y3092D01*
X1838Y3034D01*
X1802Y2981D01*
X1780Y2933D01*
X1771Y2890D01*
X1774Y2850D01*
X1785Y2812D01*
X1806Y2775D01*
X1836Y2740D01*
X1861Y2717D01*
X1888Y2699D01*
X1916Y2685D01*
X1946Y2676D01*
X1975Y2672D01*
X2004Y2673D01*
X2032Y2678D01*
X2059Y2689D01*
X2088Y2706D01*
X2121Y2730D01*
X2158Y2762D01*
X2199Y2802D01*
X2897Y3499D01*
X3031Y3365D01*
X2341Y2675D01*
X2279Y2617D01*
X2221Y2570D01*
X2165Y2534D01*
X2113Y2509D01*
X2063Y2494D01*
X2012Y2487D01*
X1961Y2490D01*
X1910Y2500D01*
X1859Y2519D01*
X1810Y2545D01*
X1762Y2579D01*
X1717Y2620D01*
X1659Y2688D01*
X1618Y2757D01*
X1595Y2828D01*
X1589Y2901D01*
X1602Y2975D01*
X1632Y3048D01*
X1681Y3122D01*
X1749Y3197D01*
X1749Y3197D01*
X2455Y2451D02*
X2596Y2343D01*
X2559Y2281D01*
X2534Y2223D01*
X2520Y2169D01*
X2516Y2118D01*
X2523Y2070D01*
X2539Y2026D01*
X2563Y1985D01*
X2595Y1946D01*
X2641Y1908D01*
X2691Y1880D01*
X2746Y1864D01*
X2804Y1859D01*
X2863Y1864D01*
X2917Y1881D01*
X2968Y1910D01*
X3015Y1949D01*
X3052Y1993D01*
X3079Y2041D01*
X3095Y2092D01*
X3100Y2146D01*
X3095Y2200D01*
X3078Y2251D01*
X3051Y2299D01*
X3014Y2344D01*
X2994Y2362D01*
X2971Y2380D01*
X2943Y2399D01*
X2912Y2418D01*
X3035Y2513D01*
X3040Y2506D01*
X3045Y2501D01*
X3050Y2496D01*
X3054Y2492D01*
X3095Y2455D01*
X3139Y2426D01*
X3187Y2405D01*
X3238Y2390D01*
X3289Y2386D01*
X3338Y2395D01*
X3385Y2418D01*
X3429Y2454D01*
X3459Y2490D01*
X3480Y2528D01*
X3493Y2570D01*
X3496Y2614D01*
X3491Y2658D01*
X3477Y2700D01*
X3454Y2740D01*
X3422Y2778D01*
X3384Y2810D01*
X3344Y2833D01*
X3301Y2848D01*
X3255Y2853D01*
X3208Y2850D01*
X3159Y2836D01*
X3108Y2813D01*
X3056Y2779D01*
X2954Y2925D01*
X3028Y2969D01*
X3102Y2999D01*
X3177Y3014D01*
X3251Y3015D01*
X3324Y3003D01*
X3394Y2976D01*
X3459Y2936D01*
X3521Y2883D01*
X3560Y2840D01*
X3592Y2795D01*
X3618Y2746D01*
X3638Y2695D01*
X3652Y2643D01*
X3658Y2591D01*
X3656Y2541D01*
X3648Y2491D01*
X3633Y2444D01*
X3612Y2400D01*
X3586Y2360D01*
X3554Y2324D01*
X3520Y2294D01*
X3483Y2270D01*
X3443Y2252D01*
X3400Y2240D01*
X3354Y2234D01*
X3308Y2235D01*
X3259Y2243D01*
X3210Y2258D01*
X3239Y2203D01*
X3258Y2147D01*
X3266Y2090D01*
X3263Y2033D01*
X3250Y1976D01*
X3227Y1922D01*
X3194Y1870D01*
X3150Y1820D01*
X3080Y1762D01*
X3003Y1721D01*
X2919Y1698D01*
X2828Y1692D01*
X2736Y1703D01*
X2650Y1732D01*
X2568Y1779D01*
X2492Y1844D01*
X2433Y1913D01*
X2389Y1986D01*
X2362Y2063D01*
X2350Y2145D01*
X2353Y2227D01*
X2372Y2305D01*
X2406Y2380D01*
X2455Y2451D01*
X2455Y2451D01*
G37*
%LNtop silkscreen component 7d8ea873bf19028c*%
X28410Y23725D02*
X28410Y21995D01*
X30010Y23725D02*
X30010Y21995D01*
G36*
X29159Y25354D02*
X29159Y26070D01*
X29476Y26070D01*
X29521Y26069D01*
X29561Y26065D01*
X29594Y26059D01*
X29622Y26051D01*
X29646Y26039D01*
X29667Y26024D01*
X29685Y26005D01*
X29701Y25982D01*
X29714Y25957D01*
X29724Y25931D01*
X29729Y25903D01*
X29731Y25875D01*
X29728Y25838D01*
X29719Y25804D01*
X29703Y25774D01*
X29682Y25746D01*
X29654Y25722D01*
X29619Y25703D01*
X29578Y25689D01*
X29554Y25684D01*
X29539Y25761D01*
X29559Y25767D01*
X29576Y25775D01*
X29591Y25785D01*
X29604Y25797D01*
X29615Y25810D01*
X29623Y25825D01*
X29629Y25841D01*
X29632Y25857D01*
X29634Y25875D01*
X29631Y25899D01*
X29624Y25921D01*
X29613Y25941D01*
X29597Y25958D01*
X29576Y25972D01*
X29549Y25983D01*
X29517Y25989D01*
X29480Y25991D01*
X29254Y25991D01*
X29254Y25754D01*
X29254Y25754D01*
X29457Y25754D01*
X29488Y25755D01*
X29515Y25757D01*
X29539Y25761D01*
X29554Y25684D01*
X29530Y25680D01*
X29547Y25671D01*
X29563Y25662D01*
X29576Y25653D01*
X29587Y25644D01*
X29607Y25624D01*
X29627Y25601D01*
X29646Y25576D01*
X29665Y25549D01*
X29790Y25354D01*
X29671Y25354D01*
X29576Y25503D01*
X29556Y25533D01*
X29538Y25560D01*
X29522Y25583D01*
X29508Y25602D01*
X29495Y25617D01*
X29482Y25631D01*
X29470Y25641D01*
X29460Y25649D01*
X29449Y25656D01*
X29438Y25661D01*
X29427Y25665D01*
X29416Y25668D01*
X29407Y25670D01*
X29395Y25671D01*
X29381Y25672D01*
X29364Y25672D01*
X29254Y25672D01*
X29254Y25354D01*
X29159Y25354D01*
X29159Y25354D01*
X29979Y25742D02*
X30008Y25687D01*
X29996Y25681D01*
X29974Y25663D01*
X29956Y25641D01*
X29944Y25617D01*
X29936Y25590D01*
X29933Y25561D01*
X29933Y25561D01*
X29935Y25542D01*
X29938Y25524D01*
X29943Y25506D01*
X29951Y25488D01*
X29961Y25471D01*
X29973Y25457D01*
X29988Y25444D01*
X30004Y25433D01*
X30022Y25425D01*
X30041Y25419D01*
X30060Y25415D01*
X30080Y25414D01*
X30110Y25417D01*
X30137Y25424D01*
X30162Y25437D01*
X30184Y25455D01*
X30202Y25476D01*
X30215Y25501D01*
X30222Y25528D01*
X30225Y25558D01*
X30222Y25588D01*
X30214Y25616D01*
X30201Y25640D01*
X30183Y25663D01*
X30160Y25681D01*
X30135Y25694D01*
X30107Y25702D01*
X30077Y25704D01*
X30047Y25702D01*
X30020Y25694D01*
X30008Y25687D01*
X29979Y25742D01*
X30012Y25794D01*
X30032Y25784D01*
X30054Y25778D01*
X30079Y25776D01*
X30104Y25778D01*
X30126Y25784D01*
X30145Y25794D01*
X30163Y25808D01*
X30177Y25825D01*
X30187Y25843D01*
X30193Y25864D01*
X30195Y25886D01*
X30193Y25909D01*
X30187Y25931D01*
X30176Y25950D01*
X30162Y25968D01*
X30144Y25982D01*
X30124Y25992D01*
X30102Y25998D01*
X30078Y26000D01*
X30054Y25998D01*
X30032Y25992D01*
X30013Y25982D01*
X29995Y25968D01*
X29980Y25951D01*
X29970Y25933D01*
X29964Y25913D01*
X29962Y25891D01*
X29962Y25891D01*
X29964Y25867D01*
X29970Y25845D01*
X29980Y25825D01*
X29994Y25808D01*
X30012Y25794D01*
X29979Y25742D01*
X29954Y25753D01*
X29932Y25766D01*
X29913Y25782D01*
X29898Y25799D01*
X29887Y25819D01*
X29878Y25840D01*
X29874Y25863D01*
X29872Y25888D01*
X29875Y25926D01*
X29886Y25960D01*
X29903Y25991D01*
X29928Y26020D01*
X29958Y26043D01*
X29993Y26059D01*
X30033Y26069D01*
X30077Y26073D01*
X30122Y26069D01*
X30162Y26059D01*
X30197Y26042D01*
X30228Y26018D01*
X30253Y25990D01*
X30271Y25958D01*
X30282Y25923D01*
X30285Y25886D01*
X30284Y25862D01*
X30279Y25839D01*
X30271Y25818D01*
X30259Y25799D01*
X30245Y25782D01*
X30226Y25766D01*
X30205Y25753D01*
X30180Y25742D01*
X30211Y25730D01*
X30238Y25714D01*
X30261Y25695D01*
X30280Y25673D01*
X30295Y25648D01*
X30306Y25620D01*
X30313Y25591D01*
X30315Y25559D01*
X30311Y25515D01*
X30299Y25474D01*
X30278Y25437D01*
X30250Y25404D01*
X30215Y25377D01*
X30175Y25357D01*
X30129Y25346D01*
X30079Y25342D01*
X30028Y25346D01*
X29983Y25357D01*
X29943Y25377D01*
X29908Y25405D01*
X29880Y25438D01*
X29859Y25475D01*
X29847Y25516D01*
X29843Y25561D01*
X29845Y25595D01*
X29852Y25625D01*
X29863Y25653D01*
X29878Y25678D01*
X29898Y25700D01*
X29921Y25718D01*
X29948Y25732D01*
X29979Y25742D01*
X29979Y25742D01*
G37*
%LNtop silkscreen component 8081dbe1fc64fbc3*%
X4235Y19895D02*
X0845Y19895D01*
X4235Y19895D02*
X4235Y25825D01*
X0845Y25825*
X0845Y19895*
G36*
X1049Y26806D02*
X1220Y26830D01*
X1227Y26754D01*
X1239Y26692D01*
X1257Y26642D01*
X1282Y26605D01*
X1312Y26579D01*
X1347Y26560D01*
X1387Y26548D01*
X1433Y26545D01*
X1468Y26547D01*
X1500Y26553D01*
X1529Y26563D01*
X1556Y26577D01*
X1580Y26595D01*
X1600Y26616D01*
X1616Y26640D01*
X1628Y26666D01*
X1636Y26698D01*
X1642Y26739D01*
X1646Y26788D01*
X1647Y26845D01*
X1647Y27832D01*
X1837Y27832D01*
X1837Y26856D01*
X1834Y26771D01*
X1826Y26697D01*
X1812Y26632D01*
X1793Y26578D01*
X1768Y26531D01*
X1737Y26491D01*
X1699Y26456D01*
X1655Y26427D01*
X1606Y26405D01*
X1553Y26389D01*
X1496Y26379D01*
X1434Y26376D01*
X1345Y26382D01*
X1268Y26403D01*
X1201Y26437D01*
X1146Y26484D01*
X1102Y26545D01*
X1072Y26619D01*
X1054Y26706D01*
X1049Y26806D01*
X1049Y26806D01*
X2737Y26400D02*
X2561Y26400D01*
X2561Y27520D01*
X2527Y27490D01*
X2488Y27460D01*
X2444Y27429D01*
X2395Y27399D01*
X2345Y27371D01*
X2297Y27346D01*
X2252Y27325D01*
X2210Y27308D01*
X2210Y27478D01*
X2281Y27515D01*
X2348Y27555D01*
X2410Y27599D01*
X2467Y27646D01*
X2519Y27695D01*
X2562Y27743D01*
X2597Y27791D01*
X2624Y27837D01*
X2737Y27837D01*
X2737Y26400D01*
X2737Y26400D01*
G37*
%LNtop silkscreen component 432a153fe0b184c8*%
X31325Y16935D02*
X34715Y16935D01*
X31325Y16935D02*
X31325Y11005D01*
X34715Y11005*
X34715Y16935*
G36*
X32545Y17662D02*
X32716Y17686D01*
X32723Y17610D01*
X32735Y17548D01*
X32753Y17498D01*
X32778Y17461D01*
X32808Y17435D01*
X32843Y17416D01*
X32883Y17404D01*
X32929Y17401D01*
X32964Y17403D01*
X32996Y17409D01*
X33025Y17419D01*
X33052Y17433D01*
X33076Y17451D01*
X33096Y17472D01*
X33112Y17496D01*
X33124Y17522D01*
X33132Y17554D01*
X33138Y17595D01*
X33142Y17644D01*
X33143Y17701D01*
X33143Y18688D01*
X33333Y18688D01*
X33333Y17712D01*
X33330Y17627D01*
X33322Y17553D01*
X33308Y17488D01*
X33289Y17434D01*
X33264Y17387D01*
X33233Y17347D01*
X33195Y17312D01*
X33151Y17283D01*
X33102Y17261D01*
X33049Y17245D01*
X32992Y17235D01*
X32930Y17232D01*
X32841Y17238D01*
X32764Y17259D01*
X32697Y17293D01*
X32642Y17340D01*
X32598Y17401D01*
X32568Y17475D01*
X32550Y17562D01*
X32545Y17662D01*
X32545Y17662D01*
X33583Y18500D02*
X33583Y18669D01*
X34509Y18669D01*
X34509Y18532D01*
X34441Y18454D01*
X34373Y18363D01*
X34306Y18260D01*
X34238Y18146D01*
X34175Y18024D01*
X34119Y17901D01*
X34071Y17776D01*
X34031Y17650D01*
X34007Y17558D01*
X33988Y17461D01*
X33973Y17361D01*
X33963Y17256D01*
X33783Y17256D01*
X33788Y17345D01*
X33801Y17443D01*
X33821Y17549D01*
X33849Y17664D01*
X33884Y17783D01*
X33926Y17899D01*
X33975Y18013D01*
X34031Y18126D01*
X34092Y18232D01*
X34154Y18330D01*
X34218Y18420D01*
X34284Y18500D01*
X33583Y18500D01*
X33583Y18500D01*
G37*
%LNtop silkscreen component 2783f7ae62fabf0f*%
X16935Y4235D02*
X16935Y0845D01*
X16935Y4235D02*
X11005Y4235D01*
X11005Y0845*
X16935Y0845*
G36*
X8415Y2168D02*
X8586Y2192D01*
X8593Y2116D01*
X8605Y2054D01*
X8623Y2004D01*
X8648Y1967D01*
X8678Y1941D01*
X8713Y1922D01*
X8753Y1910D01*
X8799Y1907D01*
X8834Y1909D01*
X8866Y1915D01*
X8895Y1925D01*
X8922Y1939D01*
X8946Y1957D01*
X8966Y1978D01*
X8982Y2002D01*
X8994Y2028D01*
X9002Y2060D01*
X9008Y2101D01*
X9012Y2150D01*
X9013Y2207D01*
X9013Y3194D01*
X9203Y3194D01*
X9203Y2218D01*
X9200Y2133D01*
X9192Y2059D01*
X9178Y1994D01*
X9159Y1940D01*
X9134Y1893D01*
X9103Y1853D01*
X9065Y1818D01*
X9021Y1789D01*
X8972Y1767D01*
X8919Y1751D01*
X8862Y1741D01*
X8800Y1738D01*
X8711Y1744D01*
X8634Y1765D01*
X8567Y1799D01*
X8512Y1846D01*
X8468Y1907D01*
X8438Y1981D01*
X8420Y2068D01*
X8415Y2168D01*
X8415Y2168D01*
X10004Y1762D02*
X10004Y2105D01*
X9383Y2105D01*
X9383Y2266D01*
X9893Y2990D01*
X10004Y2911D01*
X9556Y2266D01*
X10004Y2266D01*
X10004Y2266D01*
X10004Y2911D01*
X9893Y2990D01*
X10037Y3194D01*
X10180Y3194D01*
X10180Y2266D01*
X10373Y2266D01*
X10373Y2105D01*
X10180Y2105D01*
X10180Y1762D01*
X10004Y1762D01*
X10004Y1762D01*
G37*
%LNtop silkscreen component 7e02e7b59318a54f*%
X14380Y15070D02*
X14380Y25570D01*
X21180Y15070D02*
X21180Y25570D01*
X14380Y25570D02*
X21180Y25570D01*
X14380Y15070D02*
X21180Y15070D01*
D11*
X13130Y25590D03*
D12*
X15380Y24570D03*
G36*
X16295Y20655D02*
X16390Y20655D01*
X16390Y20241D01*
X16388Y20190D01*
X16383Y20144D01*
X16376Y20104D01*
X16365Y20070D01*
X16351Y20040D01*
X16331Y20012D01*
X16306Y19988D01*
X16277Y19967D01*
X16243Y19949D01*
X16203Y19937D01*
X16159Y19929D01*
X16110Y19927D01*
X16062Y19929D01*
X16018Y19935D01*
X15980Y19946D01*
X15945Y19961D01*
X15916Y19981D01*
X15890Y20004D01*
X15870Y20031D01*
X15854Y20062D01*
X15842Y20098D01*
X15833Y20140D01*
X15828Y20187D01*
X15827Y20241D01*
X15827Y20655D01*
X15921Y20655D01*
X15921Y20242D01*
X15922Y20198D01*
X15926Y20161D01*
X15931Y20129D01*
X15939Y20104D01*
X15949Y20083D01*
X15962Y20065D01*
X15979Y20049D01*
X15998Y20036D01*
X16021Y20026D01*
X16045Y20018D01*
X16072Y20014D01*
X16102Y20012D01*
X16150Y20015D01*
X16191Y20024D01*
X16224Y20039D01*
X16250Y20060D01*
X16270Y20089D01*
X16284Y20129D01*
X16292Y20180D01*
X16295Y20242D01*
X16295Y20655D01*
X16295Y20655D01*
X16843Y19939D02*
X16755Y19939D01*
X16755Y20499D01*
X16738Y20484D01*
X16718Y20469D01*
X16696Y20454D01*
X16672Y20439D01*
X16646Y20424D01*
X16623Y20412D01*
X16600Y20402D01*
X16579Y20393D01*
X16579Y20478D01*
X16615Y20496D01*
X16648Y20516D01*
X16679Y20538D01*
X16708Y20562D01*
X16734Y20587D01*
X16755Y20611D01*
X16773Y20634D01*
X16786Y20658D01*
X16843Y20658D01*
X16843Y19939D01*
X16843Y19939D01*
G37*
%LNtop silkscreen component e43c40593395f77c*%
D10*
X22455Y7150D02*
X20725Y7150D01*
X22455Y5550D02*
X20725Y5550D01*
G36*
X21031Y7574D02*
X21031Y8290D01*
X21348Y8290D01*
X21393Y8289D01*
X21433Y8285D01*
X21466Y8279D01*
X21494Y8271D01*
X21518Y8259D01*
X21539Y8244D01*
X21557Y8225D01*
X21573Y8202D01*
X21586Y8177D01*
X21596Y8151D01*
X21601Y8123D01*
X21603Y8095D01*
X21600Y8058D01*
X21591Y8024D01*
X21575Y7994D01*
X21554Y7966D01*
X21526Y7942D01*
X21491Y7923D01*
X21450Y7909D01*
X21426Y7904D01*
X21411Y7981D01*
X21431Y7987D01*
X21448Y7995D01*
X21463Y8005D01*
X21476Y8017D01*
X21487Y8030D01*
X21495Y8045D01*
X21501Y8061D01*
X21504Y8077D01*
X21506Y8095D01*
X21503Y8119D01*
X21496Y8141D01*
X21485Y8161D01*
X21469Y8178D01*
X21448Y8192D01*
X21421Y8203D01*
X21389Y8209D01*
X21352Y8211D01*
X21126Y8211D01*
X21126Y7974D01*
X21126Y7974D01*
X21329Y7974D01*
X21360Y7975D01*
X21387Y7977D01*
X21411Y7981D01*
X21426Y7904D01*
X21402Y7900D01*
X21419Y7891D01*
X21435Y7882D01*
X21448Y7873D01*
X21459Y7864D01*
X21479Y7844D01*
X21499Y7821D01*
X21518Y7796D01*
X21537Y7769D01*
X21662Y7574D01*
X21543Y7574D01*
X21448Y7723D01*
X21428Y7753D01*
X21410Y7780D01*
X21394Y7803D01*
X21380Y7822D01*
X21367Y7837D01*
X21354Y7851D01*
X21342Y7861D01*
X21332Y7869D01*
X21321Y7876D01*
X21310Y7881D01*
X21299Y7885D01*
X21288Y7888D01*
X21279Y7890D01*
X21267Y7891D01*
X21253Y7892D01*
X21236Y7892D01*
X21126Y7892D01*
X21126Y7574D01*
X21031Y7574D01*
X21031Y7574D01*
X21716Y7761D02*
X21808Y7769D01*
X21815Y7738D01*
X21825Y7710D01*
X21839Y7687D01*
X21856Y7668D01*
X21876Y7653D01*
X21897Y7643D01*
X21921Y7636D01*
X21946Y7634D01*
X21977Y7637D01*
X22005Y7646D01*
X22030Y7661D01*
X22053Y7682D01*
X22073Y7708D01*
X22086Y7738D01*
X22095Y7771D01*
X22097Y7809D01*
X22095Y7844D01*
X22087Y7876D01*
X22074Y7904D01*
X22055Y7928D01*
X22032Y7947D01*
X22006Y7960D01*
X21977Y7968D01*
X21945Y7971D01*
X21924Y7970D01*
X21904Y7966D01*
X21885Y7960D01*
X21868Y7952D01*
X21852Y7941D01*
X21837Y7930D01*
X21825Y7916D01*
X21814Y7902D01*
X21732Y7912D01*
X21801Y8280D01*
X22157Y8280D01*
X22157Y8196D01*
X21871Y8196D01*
X21833Y8004D01*
X21865Y8023D01*
X21899Y8037D01*
X21933Y8046D01*
X21968Y8049D01*
X22013Y8045D01*
X22054Y8032D01*
X22092Y8012D01*
X22126Y7984D01*
X22154Y7949D01*
X22175Y7909D01*
X22187Y7865D01*
X22191Y7817D01*
X22187Y7770D01*
X22176Y7726D01*
X22159Y7686D01*
X22134Y7649D01*
X22096Y7611D01*
X22053Y7584D01*
X22002Y7567D01*
X21946Y7562D01*
X21899Y7565D01*
X21857Y7575D01*
X21820Y7593D01*
X21787Y7616D01*
X21759Y7646D01*
X21738Y7680D01*
X21724Y7719D01*
X21716Y7761D01*
X21716Y7761D01*
G37*
%LNtop silkscreen component 7b98a7e85593e7e7*%
X24555Y4235D02*
X24555Y0845D01*
X24555Y4235D02*
X18625Y4235D01*
X18625Y0845*
X24555Y0845*
G36*
X25179Y2168D02*
X25350Y2192D01*
X25357Y2116D01*
X25369Y2054D01*
X25387Y2004D01*
X25412Y1967D01*
X25442Y1941D01*
X25477Y1922D01*
X25517Y1910D01*
X25563Y1907D01*
X25598Y1909D01*
X25630Y1915D01*
X25659Y1925D01*
X25686Y1939D01*
X25710Y1957D01*
X25730Y1978D01*
X25746Y2002D01*
X25758Y2028D01*
X25766Y2060D01*
X25772Y2101D01*
X25776Y2150D01*
X25777Y2207D01*
X25777Y3194D01*
X25967Y3194D01*
X25967Y2218D01*
X25964Y2133D01*
X25956Y2059D01*
X25942Y1994D01*
X25923Y1940D01*
X25898Y1893D01*
X25867Y1853D01*
X25829Y1818D01*
X25785Y1789D01*
X25736Y1767D01*
X25683Y1751D01*
X25626Y1741D01*
X25564Y1738D01*
X25475Y1744D01*
X25398Y1765D01*
X25331Y1799D01*
X25276Y1846D01*
X25232Y1907D01*
X25202Y1981D01*
X25184Y2068D01*
X25179Y2168D01*
X25179Y2168D01*
X26205Y2137D02*
X26389Y2153D01*
X26403Y2089D01*
X26424Y2035D01*
X26451Y1988D01*
X26485Y1950D01*
X26524Y1920D01*
X26567Y1899D01*
X26614Y1886D01*
X26665Y1882D01*
X26726Y1888D01*
X26782Y1906D01*
X26833Y1936D01*
X26880Y1978D01*
X26918Y2030D01*
X26946Y2089D01*
X26962Y2157D01*
X26968Y2232D01*
X26962Y2303D01*
X26946Y2366D01*
X26920Y2422D01*
X26883Y2469D01*
X26838Y2507D01*
X26786Y2534D01*
X26727Y2551D01*
X26662Y2556D01*
X26620Y2554D01*
X26581Y2546D01*
X26544Y2534D01*
X26509Y2517D01*
X26476Y2497D01*
X26448Y2473D01*
X26423Y2447D01*
X26401Y2417D01*
X26236Y2439D01*
X26375Y3174D01*
X27087Y3174D01*
X27087Y3006D01*
X26515Y3006D01*
X26438Y2621D01*
X26504Y2661D01*
X26570Y2689D01*
X26639Y2706D01*
X26709Y2711D01*
X26799Y2703D01*
X26882Y2679D01*
X26957Y2638D01*
X27025Y2581D01*
X27082Y2512D01*
X27122Y2433D01*
X27146Y2345D01*
X27154Y2247D01*
X27147Y2153D01*
X27126Y2066D01*
X27090Y1986D01*
X27041Y1911D01*
X26966Y1835D01*
X26878Y1781D01*
X26778Y1748D01*
X26665Y1738D01*
X26572Y1744D01*
X26487Y1765D01*
X26412Y1799D01*
X26346Y1847D01*
X26291Y1906D01*
X26249Y1974D01*
X26220Y2051D01*
X26205Y2137D01*
X26205Y2137D01*
G37*
%LNtop silkscreen component 005ca3e7d4f4fb47*%
X28440Y31615D02*
X28440Y28075D01*
X28440Y31615D02*
X7120Y31615D01*
X7120Y28075*
X28440Y28075*
D13*
X28448Y29845D03*
%LNtop silkscreen component 427f096e4d3aae24*%
D10*
X25108Y25122D02*
X25108Y23392D01*
X26708Y25122D02*
X26708Y23392D01*
G36*
X27200Y26170D02*
X27200Y26885D01*
X27518Y26885D01*
X27563Y26884D01*
X27602Y26881D01*
X27635Y26875D01*
X27663Y26866D01*
X27687Y26855D01*
X27708Y26840D01*
X27727Y26821D01*
X27743Y26798D01*
X27756Y26773D01*
X27765Y26747D01*
X27771Y26719D01*
X27773Y26690D01*
X27770Y26654D01*
X27760Y26620D01*
X27745Y26589D01*
X27723Y26562D01*
X27695Y26538D01*
X27661Y26519D01*
X27619Y26505D01*
X27595Y26500D01*
X27580Y26577D01*
X27600Y26583D01*
X27617Y26591D01*
X27632Y26600D01*
X27645Y26612D01*
X27656Y26626D01*
X27664Y26641D01*
X27670Y26657D01*
X27674Y26673D01*
X27675Y26690D01*
X27673Y26714D01*
X27666Y26736D01*
X27654Y26756D01*
X27638Y26774D01*
X27617Y26788D01*
X27591Y26798D01*
X27559Y26804D01*
X27522Y26806D01*
X27295Y26806D01*
X27295Y26570D01*
X27295Y26570D01*
X27499Y26570D01*
X27529Y26570D01*
X27557Y26573D01*
X27580Y26577D01*
X27595Y26500D01*
X27571Y26495D01*
X27589Y26486D01*
X27604Y26477D01*
X27617Y26469D01*
X27628Y26460D01*
X27649Y26439D01*
X27668Y26417D01*
X27688Y26392D01*
X27707Y26364D01*
X27831Y26170D01*
X27712Y26170D01*
X27617Y26319D01*
X27597Y26349D01*
X27579Y26375D01*
X27563Y26398D01*
X27549Y26417D01*
X27536Y26433D01*
X27524Y26446D01*
X27512Y26457D01*
X27501Y26465D01*
X27490Y26471D01*
X27479Y26477D01*
X27469Y26481D01*
X27458Y26484D01*
X27448Y26486D01*
X27436Y26487D01*
X27422Y26487D01*
X27405Y26488D01*
X27295Y26488D01*
X27295Y26170D01*
X27200Y26170D01*
X27200Y26170D01*
X27899Y26335D02*
X27983Y26343D01*
X27990Y26315D01*
X27999Y26292D01*
X28010Y26272D01*
X28024Y26257D01*
X28040Y26245D01*
X28059Y26236D01*
X28079Y26231D01*
X28102Y26230D01*
X28121Y26231D01*
X28140Y26234D01*
X28157Y26240D01*
X28173Y26248D01*
X28187Y26258D01*
X28201Y26270D01*
X28212Y26283D01*
X28223Y26298D01*
X28232Y26315D01*
X28241Y26334D01*
X28249Y26357D01*
X28256Y26382D01*
X28261Y26408D01*
X28265Y26435D01*
X28268Y26462D01*
X28269Y26489D01*
X28269Y26492D01*
X28269Y26496D01*
X28268Y26501D01*
X28268Y26507D01*
X28224Y26539D01*
X28236Y26556D01*
X28249Y26584D01*
X28256Y26615D01*
X28258Y26651D01*
X28258Y26651D01*
X28256Y26687D01*
X28248Y26719D01*
X28236Y26747D01*
X28218Y26771D01*
X28197Y26791D01*
X28174Y26805D01*
X28149Y26813D01*
X28121Y26816D01*
X28093Y26813D01*
X28066Y26804D01*
X28042Y26789D01*
X28019Y26768D01*
X28000Y26742D01*
X27987Y26713D01*
X27978Y26680D01*
X27976Y26644D01*
X27978Y26611D01*
X27986Y26582D01*
X27999Y26556D01*
X28017Y26533D01*
X28039Y26514D01*
X28063Y26501D01*
X28090Y26493D01*
X28119Y26490D01*
X28148Y26493D01*
X28174Y26501D01*
X28198Y26514D01*
X28219Y26533D01*
X28224Y26539D01*
X28268Y26507D01*
X28254Y26487D01*
X28237Y26469D01*
X28218Y26452D01*
X28196Y26438D01*
X28173Y26427D01*
X28149Y26419D01*
X28123Y26414D01*
X28097Y26412D01*
X28055Y26416D01*
X28015Y26428D01*
X27979Y26449D01*
X27947Y26477D01*
X27920Y26512D01*
X27901Y26551D01*
X27889Y26597D01*
X27885Y26647D01*
X27889Y26698D01*
X27901Y26745D01*
X27922Y26786D01*
X27950Y26822D01*
X27984Y26851D01*
X28022Y26872D01*
X28064Y26884D01*
X28110Y26888D01*
X28145Y26886D01*
X28177Y26879D01*
X28208Y26867D01*
X28238Y26851D01*
X28265Y26830D01*
X28289Y26805D01*
X28309Y26776D01*
X28326Y26744D01*
X28339Y26705D01*
X28349Y26658D01*
X28354Y26604D01*
X28356Y26542D01*
X28354Y26477D01*
X28349Y26419D01*
X28339Y26368D01*
X28326Y26324D01*
X28310Y26285D01*
X28289Y26252D01*
X28265Y26224D01*
X28238Y26200D01*
X28207Y26181D01*
X28174Y26168D01*
X28138Y26160D01*
X28100Y26157D01*
X28060Y26160D01*
X28023Y26169D01*
X27991Y26184D01*
X27963Y26204D01*
X27939Y26230D01*
X27920Y26260D01*
X27907Y26295D01*
X27899Y26335D01*
X27899Y26335D01*
G37*
%LNtop silkscreen component c320845981998eb0*%
X10960Y11200D02*
X10960Y12930D01*
X9360Y11200D02*
X9360Y12930D01*
G36*
X10110Y8968D02*
X10205Y8944D01*
X10187Y8889D01*
X10163Y8841D01*
X10134Y8800D01*
X10098Y8766D01*
X10057Y8739D01*
X10012Y8720D01*
X9962Y8709D01*
X9909Y8705D01*
X9853Y8708D01*
X9804Y8717D01*
X9759Y8731D01*
X9720Y8752D01*
X9686Y8778D01*
X9657Y8810D01*
X9631Y8846D01*
X9610Y8888D01*
X9593Y8934D01*
X9582Y8981D01*
X9575Y9030D01*
X9572Y9080D01*
X9575Y9134D01*
X9583Y9185D01*
X9596Y9232D01*
X9615Y9275D01*
X9639Y9314D01*
X9667Y9349D01*
X9699Y9378D01*
X9736Y9402D01*
X9777Y9421D01*
X9819Y9434D01*
X9864Y9442D01*
X9910Y9445D01*
X9962Y9442D01*
X10009Y9431D01*
X10052Y9414D01*
X10091Y9390D01*
X10125Y9360D01*
X10153Y9325D01*
X10176Y9283D01*
X10193Y9237D01*
X10100Y9215D01*
X10086Y9251D01*
X10069Y9282D01*
X10050Y9308D01*
X10027Y9328D01*
X10002Y9344D01*
X9974Y9355D01*
X9942Y9362D01*
X9908Y9364D01*
X9869Y9362D01*
X9832Y9354D01*
X9800Y9342D01*
X9770Y9324D01*
X9745Y9303D01*
X9723Y9278D01*
X9706Y9250D01*
X9692Y9218D01*
X9682Y9185D01*
X9675Y9151D01*
X9671Y9116D01*
X9670Y9081D01*
X9671Y9037D01*
X9676Y8995D01*
X9685Y8957D01*
X9696Y8921D01*
X9712Y8889D01*
X9730Y8862D01*
X9753Y8839D01*
X9779Y8820D01*
X9808Y8805D01*
X9838Y8794D01*
X9869Y8788D01*
X9901Y8786D01*
X9939Y8789D01*
X9974Y8797D01*
X10006Y8812D01*
X10036Y8832D01*
X10061Y8857D01*
X10082Y8889D01*
X10098Y8926D01*
X10110Y8968D01*
X10110Y8968D01*
X10617Y8717D02*
X10529Y8717D01*
X10529Y9277D01*
X10512Y9262D01*
X10493Y9247D01*
X10470Y9232D01*
X10446Y9217D01*
X10421Y9202D01*
X10397Y9190D01*
X10375Y9180D01*
X10353Y9171D01*
X10353Y9256D01*
X10389Y9274D01*
X10423Y9294D01*
X10454Y9316D01*
X10482Y9340D01*
X10508Y9365D01*
X10529Y9389D01*
X10547Y9412D01*
X10560Y9436D01*
X10617Y9436D01*
X10617Y8717D01*
X10617Y8717D01*
G37*
%LNtop silkscreen component e793a6abe9ce9fda*%
X28410Y14835D02*
X28410Y13105D01*
X30010Y14835D02*
X30010Y13105D01*
G36*
X29159Y16464D02*
X29159Y17180D01*
X29476Y17180D01*
X29521Y17179D01*
X29561Y17175D01*
X29594Y17169D01*
X29622Y17161D01*
X29646Y17149D01*
X29667Y17134D01*
X29685Y17115D01*
X29701Y17092D01*
X29714Y17067D01*
X29724Y17041D01*
X29729Y17013D01*
X29731Y16985D01*
X29728Y16948D01*
X29719Y16914D01*
X29703Y16884D01*
X29682Y16856D01*
X29654Y16832D01*
X29619Y16813D01*
X29578Y16799D01*
X29554Y16794D01*
X29539Y16871D01*
X29559Y16877D01*
X29576Y16885D01*
X29591Y16895D01*
X29604Y16907D01*
X29615Y16920D01*
X29623Y16935D01*
X29629Y16951D01*
X29632Y16967D01*
X29634Y16985D01*
X29631Y17009D01*
X29624Y17031D01*
X29613Y17051D01*
X29597Y17068D01*
X29576Y17082D01*
X29549Y17093D01*
X29517Y17099D01*
X29480Y17101D01*
X29254Y17101D01*
X29254Y16864D01*
X29254Y16864D01*
X29457Y16864D01*
X29488Y16865D01*
X29515Y16867D01*
X29539Y16871D01*
X29554Y16794D01*
X29530Y16790D01*
X29547Y16781D01*
X29563Y16772D01*
X29576Y16763D01*
X29587Y16754D01*
X29607Y16734D01*
X29627Y16711D01*
X29646Y16686D01*
X29665Y16659D01*
X29790Y16464D01*
X29671Y16464D01*
X29576Y16613D01*
X29556Y16643D01*
X29538Y16670D01*
X29522Y16693D01*
X29508Y16712D01*
X29495Y16727D01*
X29482Y16741D01*
X29470Y16751D01*
X29460Y16759D01*
X29449Y16766D01*
X29438Y16771D01*
X29427Y16775D01*
X29416Y16778D01*
X29407Y16780D01*
X29395Y16781D01*
X29381Y16782D01*
X29364Y16782D01*
X29254Y16782D01*
X29254Y16464D01*
X29159Y16464D01*
X29159Y16464D01*
X29850Y17086D02*
X29850Y17171D01*
X30313Y17171D01*
X30313Y17102D01*
X30279Y17063D01*
X30245Y17017D01*
X30211Y16966D01*
X30178Y16909D01*
X30146Y16848D01*
X30118Y16787D01*
X30094Y16724D01*
X30074Y16661D01*
X30062Y16615D01*
X30052Y16567D01*
X30045Y16516D01*
X30040Y16464D01*
X29950Y16464D01*
X29953Y16508D01*
X29959Y16557D01*
X29969Y16610D01*
X29983Y16668D01*
X30001Y16727D01*
X30022Y16786D01*
X30046Y16843D01*
X30074Y16899D01*
X30104Y16952D01*
X30135Y17001D01*
X30168Y17046D01*
X30200Y17086D01*
X29850Y17086D01*
X29850Y17086D01*
G37*
%LNtext*%
G36*
X19266Y32188D02*
X19256Y32302D01*
X19289Y32307D01*
X19318Y32315D01*
X19345Y32326D01*
X19368Y32339D01*
X19389Y32356D01*
X19407Y32377D01*
X19424Y32402D01*
X19439Y32431D01*
X19450Y32462D01*
X19459Y32496D01*
X19464Y32532D01*
X19466Y32570D01*
X19464Y32603D01*
X19460Y32635D01*
X19454Y32664D01*
X19445Y32692D01*
X19434Y32716D01*
X19421Y32738D01*
X19406Y32755D01*
X19389Y32770D01*
X19371Y32781D01*
X19352Y32789D01*
X19332Y32794D01*
X19311Y32796D01*
X19290Y32794D01*
X19271Y32790D01*
X19253Y32782D01*
X19236Y32771D01*
X19221Y32757D01*
X19207Y32738D01*
X19194Y32716D01*
X19183Y32689D01*
X19175Y32665D01*
X19165Y32630D01*
X19153Y32584D01*
X19138Y32527D01*
X19124Y32469D01*
X19109Y32421D01*
X19095Y32382D01*
X19082Y32352D01*
X19064Y32321D01*
X19044Y32295D01*
X19021Y32273D01*
X18997Y32255D01*
X18971Y32241D01*
X18944Y32231D01*
X18914Y32225D01*
X18884Y32223D01*
X18850Y32225D01*
X18817Y32233D01*
X18786Y32245D01*
X18755Y32262D01*
X18727Y32284D01*
X18703Y32310D01*
X18682Y32341D01*
X18664Y32376D01*
X18651Y32415D01*
X18641Y32455D01*
X18635Y32498D01*
X18633Y32543D01*
X18635Y32592D01*
X18642Y32638D01*
X18652Y32681D01*
X18666Y32721D01*
X18684Y32757D01*
X18706Y32789D01*
X18732Y32817D01*
X18762Y32840D01*
X18794Y32858D01*
X18829Y32872D01*
X18866Y32880D01*
X18905Y32884D01*
X18914Y32769D01*
X18873Y32762D01*
X18838Y32749D01*
X18808Y32730D01*
X18783Y32706D01*
X18764Y32676D01*
X18750Y32640D01*
X18742Y32597D01*
X18739Y32548D01*
X18742Y32497D01*
X18749Y32453D01*
X18762Y32417D01*
X18779Y32389D01*
X18800Y32367D01*
X18824Y32351D01*
X18849Y32342D01*
X18876Y32339D01*
X18899Y32341D01*
X18921Y32348D01*
X18940Y32359D01*
X18956Y32374D01*
X18972Y32398D01*
X18989Y32437D01*
X19005Y32489D01*
X19021Y32555D01*
X19037Y32623D01*
X19052Y32679D01*
X19066Y32724D01*
X19079Y32757D01*
X19099Y32794D01*
X19121Y32826D01*
X19145Y32852D01*
X19172Y32874D01*
X19201Y32890D01*
X19232Y32902D01*
X19266Y32909D01*
X19301Y32912D01*
X19337Y32909D01*
X19372Y32901D01*
X19405Y32888D01*
X19438Y32870D01*
X19468Y32847D01*
X19495Y32820D01*
X19518Y32787D01*
X19538Y32751D01*
X19553Y32711D01*
X19565Y32668D01*
X19571Y32623D01*
X19574Y32576D01*
X19571Y32516D01*
X19565Y32462D01*
X19553Y32413D01*
X19538Y32369D01*
X19517Y32329D01*
X19492Y32294D01*
X19463Y32264D01*
X19429Y32238D01*
X19392Y32217D01*
X19352Y32202D01*
X19310Y32192D01*
X19266Y32188D01*
X19266Y32188D01*
X19239Y33725D02*
X19270Y33845D01*
X19339Y33822D01*
X19400Y33792D01*
X19452Y33754D01*
X19496Y33709D01*
X19530Y33657D01*
X19554Y33600D01*
X19569Y33537D01*
X19574Y33469D01*
X19570Y33399D01*
X19559Y33335D01*
X19540Y33279D01*
X19514Y33230D01*
X19480Y33186D01*
X19440Y33148D01*
X19394Y33116D01*
X19340Y33089D01*
X19283Y33068D01*
X19223Y33053D01*
X19161Y33044D01*
X19097Y33041D01*
X19028Y33045D01*
X18964Y33055D01*
X18904Y33072D01*
X18849Y33096D01*
X18799Y33126D01*
X18756Y33161D01*
X18719Y33203D01*
X18688Y33250D01*
X18664Y33301D01*
X18647Y33355D01*
X18637Y33412D01*
X18633Y33470D01*
X18638Y33536D01*
X18651Y33596D01*
X18672Y33651D01*
X18703Y33700D01*
X18741Y33743D01*
X18786Y33779D01*
X18839Y33808D01*
X18898Y33830D01*
X18926Y33711D01*
X18880Y33693D01*
X18840Y33672D01*
X18808Y33648D01*
X18782Y33619D01*
X18762Y33587D01*
X18748Y33551D01*
X18739Y33512D01*
X18736Y33468D01*
X18739Y33418D01*
X18749Y33372D01*
X18765Y33330D01*
X18787Y33293D01*
X18814Y33260D01*
X18845Y33233D01*
X18881Y33211D01*
X18921Y33194D01*
X18964Y33181D01*
X19007Y33173D01*
X19051Y33167D01*
X19096Y33165D01*
X19152Y33167D01*
X19205Y33174D01*
X19253Y33184D01*
X19298Y33199D01*
X19339Y33218D01*
X19374Y33242D01*
X19404Y33271D01*
X19428Y33304D01*
X19446Y33341D01*
X19460Y33379D01*
X19468Y33418D01*
X19471Y33459D01*
X19467Y33507D01*
X19456Y33552D01*
X19438Y33593D01*
X19412Y33630D01*
X19380Y33662D01*
X19340Y33689D01*
X19293Y33709D01*
X19239Y33725D01*
X19239Y33725D01*
X19558Y33988D02*
X18649Y33988D01*
X18649Y34109D01*
X19451Y34109D01*
X19451Y34556D01*
X19558Y34556D01*
X19558Y33988D01*
X19558Y33988D01*
X24638Y32249D02*
X23729Y32249D01*
X23729Y32370D01*
X24638Y32370D01*
X24638Y32249D01*
X24638Y32249D01*
X24638Y32581D02*
X23729Y32581D01*
X23729Y32704D01*
X24443Y33181D01*
X23729Y33181D01*
X23729Y33297D01*
X24638Y33297D01*
X24638Y33173D01*
X23924Y32696D01*
X24638Y32696D01*
X24638Y32581D01*
X24638Y32581D01*
X24638Y33730D02*
X23836Y33730D01*
X23836Y33431D01*
X23729Y33431D01*
X23729Y34151D01*
X23836Y34151D01*
X23836Y33851D01*
X24638Y33851D01*
X24638Y33730D01*
X24638Y33730D01*
X17018Y32129D02*
X16171Y32454D01*
X16204Y32540D01*
X16248Y32531D01*
X16292Y32519D01*
X16335Y32506D01*
X16378Y32491D01*
X16645Y32391D01*
X16645Y32391D01*
X16645Y32700D01*
X16393Y32605D01*
X16338Y32584D01*
X16288Y32567D01*
X16244Y32552D01*
X16204Y32540D01*
X16171Y32454D01*
X16109Y32478D01*
X16109Y32608D01*
X17018Y32980D01*
X17018Y32843D01*
X16743Y32737D01*
X16743Y32357D01*
X17018Y32257D01*
X17018Y32129D01*
X17018Y32129D01*
X16570Y33031D02*
X16493Y33033D01*
X16424Y33039D01*
X16363Y33049D01*
X16310Y33064D01*
X16264Y33083D01*
X16223Y33105D01*
X16188Y33132D01*
X16159Y33163D01*
X16135Y33197D01*
X16119Y33236D01*
X16109Y33280D01*
X16105Y33327D01*
X16107Y33363D01*
X16113Y33396D01*
X16122Y33427D01*
X16135Y33456D01*
X16151Y33482D01*
X16171Y33506D01*
X16193Y33528D01*
X16220Y33547D01*
X16249Y33564D01*
X16281Y33579D01*
X16316Y33592D01*
X16355Y33603D01*
X16398Y33612D01*
X16448Y33619D01*
X16506Y33622D01*
X16570Y33624D01*
X16646Y33622D01*
X16714Y33615D01*
X16775Y33605D01*
X16828Y33591D01*
X16874Y33572D01*
X16915Y33550D01*
X16950Y33523D01*
X16980Y33492D01*
X17003Y33458D01*
X17020Y33418D01*
X17030Y33375D01*
X17034Y33327D01*
X17033Y33319D01*
X16942Y33327D01*
X16937Y33364D01*
X16923Y33398D01*
X16900Y33429D01*
X16867Y33457D01*
X16821Y33479D01*
X16756Y33496D01*
X16672Y33506D01*
X16570Y33509D01*
X16467Y33506D01*
X16383Y33496D01*
X16318Y33479D01*
X16271Y33457D01*
X16239Y33429D01*
X16216Y33398D01*
X16202Y33363D01*
X16198Y33326D01*
X16202Y33289D01*
X16214Y33257D01*
X16234Y33228D01*
X16263Y33203D01*
X16313Y33178D01*
X16381Y33160D01*
X16467Y33149D01*
X16570Y33146D01*
X16570Y33146D01*
X16672Y33149D01*
X16756Y33159D01*
X16821Y33175D01*
X16868Y33198D01*
X16900Y33226D01*
X16923Y33256D01*
X16937Y33290D01*
X16942Y33327D01*
X17033Y33319D01*
X17028Y33265D01*
X17010Y33210D01*
X16980Y33162D01*
X16939Y33121D01*
X16874Y33081D01*
X16790Y33053D01*
X16689Y33036D01*
X16570Y33031D01*
X16570Y33031D01*
X21806Y32188D02*
X21796Y32302D01*
X21829Y32307D01*
X21858Y32315D01*
X21885Y32326D01*
X21908Y32339D01*
X21929Y32356D01*
X21947Y32377D01*
X21964Y32402D01*
X21979Y32431D01*
X21990Y32462D01*
X21999Y32496D01*
X22004Y32532D01*
X22006Y32570D01*
X22004Y32603D01*
X22000Y32635D01*
X21994Y32664D01*
X21985Y32692D01*
X21974Y32716D01*
X21961Y32738D01*
X21946Y32755D01*
X21929Y32770D01*
X21911Y32781D01*
X21892Y32789D01*
X21872Y32794D01*
X21851Y32796D01*
X21830Y32794D01*
X21811Y32790D01*
X21793Y32782D01*
X21776Y32771D01*
X21761Y32757D01*
X21747Y32738D01*
X21734Y32716D01*
X21723Y32689D01*
X21715Y32665D01*
X21705Y32630D01*
X21693Y32584D01*
X21678Y32527D01*
X21664Y32469D01*
X21649Y32421D01*
X21635Y32382D01*
X21622Y32352D01*
X21604Y32321D01*
X21584Y32295D01*
X21561Y32273D01*
X21537Y32255D01*
X21511Y32241D01*
X21484Y32231D01*
X21454Y32225D01*
X21424Y32223D01*
X21390Y32225D01*
X21357Y32233D01*
X21326Y32245D01*
X21295Y32262D01*
X21267Y32284D01*
X21243Y32310D01*
X21222Y32341D01*
X21204Y32376D01*
X21191Y32415D01*
X21181Y32455D01*
X21175Y32498D01*
X21173Y32543D01*
X21175Y32592D01*
X21182Y32638D01*
X21192Y32681D01*
X21206Y32721D01*
X21224Y32757D01*
X21246Y32789D01*
X21272Y32817D01*
X21302Y32840D01*
X21334Y32858D01*
X21369Y32872D01*
X21406Y32880D01*
X21445Y32884D01*
X21454Y32769D01*
X21413Y32762D01*
X21378Y32749D01*
X21348Y32730D01*
X21323Y32706D01*
X21304Y32676D01*
X21290Y32640D01*
X21282Y32597D01*
X21279Y32548D01*
X21282Y32497D01*
X21289Y32453D01*
X21302Y32417D01*
X21319Y32389D01*
X21340Y32367D01*
X21364Y32351D01*
X21389Y32342D01*
X21416Y32339D01*
X21439Y32341D01*
X21461Y32348D01*
X21480Y32359D01*
X21496Y32374D01*
X21512Y32398D01*
X21529Y32437D01*
X21545Y32489D01*
X21561Y32555D01*
X21577Y32623D01*
X21592Y32679D01*
X21606Y32724D01*
X21619Y32757D01*
X21639Y32794D01*
X21661Y32826D01*
X21685Y32852D01*
X21712Y32874D01*
X21741Y32890D01*
X21772Y32902D01*
X21806Y32909D01*
X21841Y32912D01*
X21877Y32909D01*
X21912Y32901D01*
X21945Y32888D01*
X21978Y32870D01*
X22008Y32847D01*
X22035Y32820D01*
X22058Y32787D01*
X22078Y32751D01*
X22093Y32711D01*
X22105Y32668D01*
X22111Y32623D01*
X22114Y32576D01*
X22111Y32516D01*
X22105Y32462D01*
X22093Y32413D01*
X22078Y32369D01*
X22057Y32329D01*
X22032Y32294D01*
X22003Y32264D01*
X21969Y32238D01*
X21932Y32217D01*
X21892Y32202D01*
X21850Y32192D01*
X21806Y32188D01*
X21806Y32188D01*
X22098Y33076D02*
X21189Y33076D01*
X21189Y33387D01*
X21296Y33387D01*
X21296Y33196D01*
X21991Y33196D01*
X21991Y33196D01*
X21991Y33390D01*
X21990Y33433D01*
X21987Y33471D01*
X21981Y33504D01*
X21974Y33532D01*
X21965Y33556D01*
X21954Y33578D01*
X21941Y33597D01*
X21927Y33613D01*
X21904Y33633D01*
X21877Y33651D01*
X21846Y33667D01*
X21812Y33680D01*
X21774Y33690D01*
X21732Y33698D01*
X21686Y33702D01*
X21637Y33704D01*
X21569Y33701D01*
X21511Y33692D01*
X21460Y33677D01*
X21417Y33657D01*
X21382Y33632D01*
X21353Y33605D01*
X21331Y33575D01*
X21315Y33543D01*
X21307Y33515D01*
X21301Y33480D01*
X21297Y33437D01*
X21296Y33387D01*
X21189Y33387D01*
X21189Y33389D01*
X21190Y33439D01*
X21192Y33483D01*
X21196Y33520D01*
X21202Y33551D01*
X21213Y33589D01*
X21227Y33623D01*
X21245Y33655D01*
X21267Y33684D01*
X21300Y33718D01*
X21336Y33747D01*
X21377Y33772D01*
X21422Y33792D01*
X21471Y33808D01*
X21524Y33819D01*
X21579Y33825D01*
X21638Y33828D01*
X21689Y33826D01*
X21736Y33822D01*
X21781Y33814D01*
X21822Y33803D01*
X21860Y33791D01*
X21895Y33776D01*
X21927Y33760D01*
X21954Y33741D01*
X21979Y33722D01*
X22001Y33702D01*
X22020Y33681D01*
X22037Y33659D01*
X22051Y33635D01*
X22063Y33609D01*
X22074Y33581D01*
X22082Y33550D01*
X22089Y33517D01*
X22094Y33482D01*
X22097Y33444D01*
X22098Y33404D01*
X22098Y33076D01*
X22098Y33076D01*
X22098Y33893D02*
X21251Y34219D01*
X21284Y34305D01*
X21328Y34295D01*
X21372Y34284D01*
X21415Y34270D01*
X21458Y34256D01*
X21725Y34156D01*
X21725Y34156D01*
X21725Y34464D01*
X21473Y34369D01*
X21418Y34349D01*
X21368Y34331D01*
X21324Y34316D01*
X21284Y34305D01*
X21251Y34219D01*
X21189Y34243D01*
X21189Y34372D01*
X22098Y34744D01*
X22098Y34607D01*
X21823Y34501D01*
X21823Y34121D01*
X22098Y34021D01*
X22098Y33893D01*
X22098Y33893D01*
X14478Y32129D02*
X13631Y32454D01*
X13664Y32540D01*
X13708Y32531D01*
X13752Y32519D01*
X13795Y32506D01*
X13838Y32491D01*
X14105Y32391D01*
X14105Y32391D01*
X14105Y32700D01*
X13853Y32605D01*
X13798Y32584D01*
X13748Y32567D01*
X13704Y32552D01*
X13664Y32540D01*
X13631Y32454D01*
X13569Y32478D01*
X13569Y32608D01*
X14478Y32980D01*
X14478Y32843D01*
X14203Y32737D01*
X14203Y32357D01*
X14478Y32257D01*
X14478Y32129D01*
X14478Y32129D01*
X14478Y33451D02*
X14478Y33340D01*
X13767Y33340D01*
X13786Y33318D01*
X13805Y33293D01*
X13824Y33265D01*
X13844Y33234D01*
X13862Y33202D01*
X13877Y33172D01*
X13890Y33143D01*
X13901Y33116D01*
X13793Y33116D01*
X13770Y33162D01*
X13745Y33204D01*
X13717Y33244D01*
X13687Y33280D01*
X13656Y33313D01*
X13625Y33340D01*
X13595Y33362D01*
X13565Y33379D01*
X13565Y33451D01*
X14478Y33451D01*
X14478Y33451D01*
X11938Y32129D02*
X11091Y32454D01*
X11124Y32540D01*
X11168Y32531D01*
X11212Y32519D01*
X11255Y32506D01*
X11298Y32491D01*
X11565Y32391D01*
X11565Y32391D01*
X11565Y32700D01*
X11313Y32605D01*
X11258Y32584D01*
X11208Y32567D01*
X11164Y32552D01*
X11124Y32540D01*
X11091Y32454D01*
X11029Y32478D01*
X11029Y32608D01*
X11938Y32980D01*
X11938Y32843D01*
X11663Y32737D01*
X11663Y32357D01*
X11938Y32257D01*
X11938Y32129D01*
X11938Y32129D01*
X11831Y33617D02*
X11938Y33617D01*
X11938Y33017D01*
X11918Y33017D01*
X11898Y33019D01*
X11879Y33023D01*
X11860Y33030D01*
X11830Y33043D01*
X11800Y33059D01*
X11769Y33080D01*
X11740Y33103D01*
X11709Y33131D01*
X11675Y33165D01*
X11640Y33204D01*
X11602Y33249D01*
X11544Y33317D01*
X11493Y33373D01*
X11448Y33417D01*
X11409Y33449D01*
X11374Y33472D01*
X11340Y33488D01*
X11307Y33498D01*
X11275Y33501D01*
X11243Y33499D01*
X11214Y33490D01*
X11187Y33475D01*
X11163Y33454D01*
X11143Y33429D01*
X11129Y33399D01*
X11120Y33367D01*
X11118Y33330D01*
X11121Y33292D01*
X11130Y33258D01*
X11145Y33228D01*
X11166Y33201D01*
X11192Y33180D01*
X11224Y33165D01*
X11259Y33156D01*
X11300Y33152D01*
X11288Y33038D01*
X11228Y33048D01*
X11175Y33066D01*
X11130Y33092D01*
X11092Y33126D01*
X11063Y33168D01*
X11042Y33216D01*
X11029Y33271D01*
X11025Y33333D01*
X11030Y33395D01*
X11043Y33450D01*
X11066Y33498D01*
X11098Y33540D01*
X11136Y33573D01*
X11179Y33597D01*
X11226Y33611D01*
X11278Y33616D01*
X11305Y33615D01*
X11332Y33611D01*
X11358Y33604D01*
X11385Y33594D01*
X11412Y33581D01*
X11439Y33564D01*
X11467Y33544D01*
X11496Y33520D01*
X11528Y33490D01*
X11565Y33451D01*
X11608Y33404D01*
X11656Y33348D01*
X11695Y33302D01*
X11727Y33265D01*
X11752Y33237D01*
X11770Y33219D01*
X11785Y33205D01*
X11800Y33193D01*
X11816Y33181D01*
X11831Y33172D01*
X11831Y33617D01*
X11831Y33617D01*
X26821Y32654D02*
X26715Y32654D01*
X26714Y33039D01*
X27051Y33039D01*
X27085Y32995D01*
X27113Y32949D01*
X27138Y32903D01*
X27158Y32857D01*
X27173Y32809D01*
X27185Y32761D01*
X27191Y32712D01*
X27194Y32663D01*
X27190Y32598D01*
X27179Y32535D01*
X27161Y32476D01*
X27136Y32420D01*
X27104Y32368D01*
X27066Y32324D01*
X27021Y32286D01*
X26970Y32254D01*
X26914Y32230D01*
X26855Y32213D01*
X26793Y32202D01*
X26728Y32199D01*
X26663Y32202D01*
X26600Y32212D01*
X26539Y32230D01*
X26480Y32254D01*
X26426Y32285D01*
X26380Y32322D01*
X26341Y32365D01*
X26309Y32414D01*
X26285Y32468D01*
X26267Y32526D01*
X26257Y32588D01*
X26253Y32654D01*
X26255Y32702D01*
X26261Y32748D01*
X26271Y32791D01*
X26285Y32832D01*
X26303Y32870D01*
X26324Y32903D01*
X26347Y32932D01*
X26374Y32957D01*
X26405Y32978D01*
X26440Y32997D01*
X26479Y33013D01*
X26523Y33026D01*
X26553Y32917D01*
X26520Y32906D01*
X26491Y32894D01*
X26465Y32881D01*
X26444Y32866D01*
X26425Y32850D01*
X26408Y32830D01*
X26393Y32806D01*
X26380Y32780D01*
X26370Y32751D01*
X26362Y32720D01*
X26358Y32688D01*
X26356Y32654D01*
X26358Y32615D01*
X26363Y32577D01*
X26370Y32543D01*
X26381Y32512D01*
X26395Y32483D01*
X26411Y32457D01*
X26428Y32435D01*
X26448Y32415D01*
X26468Y32397D01*
X26490Y32382D01*
X26513Y32369D01*
X26537Y32357D01*
X26580Y32342D01*
X26625Y32331D01*
X26672Y32325D01*
X26720Y32323D01*
X26779Y32325D01*
X26832Y32333D01*
X26880Y32346D01*
X26924Y32364D01*
X26962Y32388D01*
X26995Y32416D01*
X27023Y32449D01*
X27045Y32486D01*
X27063Y32527D01*
X27075Y32569D01*
X27083Y32612D01*
X27085Y32656D01*
X27083Y32695D01*
X27077Y32733D01*
X27068Y32771D01*
X27055Y32809D01*
X27040Y32844D01*
X27024Y32874D01*
X27008Y32900D01*
X26991Y32922D01*
X26821Y32922D01*
X26821Y32654D01*
X26821Y32654D01*
X27178Y33216D02*
X26269Y33216D01*
X26269Y33339D01*
X26983Y33817D01*
X26269Y33817D01*
X26269Y33932D01*
X27178Y33932D01*
X27178Y33808D01*
X26464Y33331D01*
X27178Y33331D01*
X27178Y33216D01*
X27178Y33216D01*
X27178Y34134D02*
X26269Y34134D01*
X26269Y34445D01*
X26376Y34445D01*
X26376Y34254D01*
X27071Y34254D01*
X27071Y34254D01*
X27071Y34448D01*
X27070Y34491D01*
X27067Y34529D01*
X27061Y34561D01*
X27054Y34589D01*
X27045Y34614D01*
X27034Y34635D01*
X27021Y34655D01*
X27007Y34671D01*
X26984Y34691D01*
X26957Y34709D01*
X26926Y34725D01*
X26892Y34738D01*
X26854Y34748D01*
X26812Y34756D01*
X26766Y34760D01*
X26717Y34762D01*
X26649Y34759D01*
X26591Y34750D01*
X26540Y34735D01*
X26497Y34715D01*
X26462Y34690D01*
X26433Y34663D01*
X26411Y34633D01*
X26395Y34601D01*
X26387Y34573D01*
X26381Y34538D01*
X26377Y34495D01*
X26376Y34445D01*
X26269Y34445D01*
X26269Y34447D01*
X26270Y34497D01*
X26272Y34541D01*
X26276Y34578D01*
X26282Y34609D01*
X26293Y34647D01*
X26307Y34681D01*
X26325Y34713D01*
X26347Y34742D01*
X26380Y34776D01*
X26416Y34805D01*
X26457Y34830D01*
X26502Y34850D01*
X26551Y34866D01*
X26604Y34877D01*
X26659Y34883D01*
X26718Y34886D01*
X26769Y34884D01*
X26816Y34880D01*
X26861Y34872D01*
X26902Y34861D01*
X26940Y34848D01*
X26975Y34834D01*
X27007Y34817D01*
X27034Y34799D01*
X27059Y34780D01*
X27081Y34760D01*
X27100Y34739D01*
X27117Y34717D01*
X27131Y34693D01*
X27143Y34667D01*
X27154Y34639D01*
X27162Y34608D01*
X27169Y34575D01*
X27174Y34540D01*
X27177Y34502D01*
X27178Y34462D01*
X27178Y34134D01*
X27178Y34134D01*
X9398Y32489D02*
X8489Y32137D01*
X8489Y32267D01*
X9149Y32503D01*
X9188Y32517D01*
X9226Y32529D01*
X9263Y32541D01*
X9298Y32551D01*
X9261Y32562D01*
X9224Y32574D01*
X9187Y32586D01*
X9149Y32600D01*
X8489Y32845D01*
X8489Y32968D01*
X9398Y32612D01*
X9398Y32489D01*
X9398Y32489D01*
X9079Y33725D02*
X9110Y33845D01*
X9179Y33822D01*
X9240Y33792D01*
X9292Y33754D01*
X9336Y33709D01*
X9370Y33657D01*
X9394Y33600D01*
X9409Y33537D01*
X9414Y33469D01*
X9410Y33399D01*
X9399Y33335D01*
X9380Y33279D01*
X9354Y33230D01*
X9320Y33186D01*
X9280Y33148D01*
X9234Y33116D01*
X9180Y33089D01*
X9123Y33068D01*
X9063Y33053D01*
X9001Y33044D01*
X8937Y33041D01*
X8868Y33045D01*
X8804Y33055D01*
X8744Y33072D01*
X8689Y33096D01*
X8639Y33126D01*
X8596Y33161D01*
X8559Y33203D01*
X8528Y33250D01*
X8504Y33301D01*
X8487Y33355D01*
X8477Y33412D01*
X8473Y33470D01*
X8478Y33536D01*
X8491Y33596D01*
X8512Y33651D01*
X8543Y33700D01*
X8581Y33743D01*
X8626Y33779D01*
X8679Y33808D01*
X8738Y33830D01*
X8766Y33711D01*
X8720Y33693D01*
X8680Y33672D01*
X8648Y33648D01*
X8622Y33619D01*
X8602Y33587D01*
X8588Y33551D01*
X8579Y33512D01*
X8576Y33468D01*
X8579Y33418D01*
X8589Y33372D01*
X8605Y33330D01*
X8627Y33293D01*
X8654Y33260D01*
X8685Y33233D01*
X8721Y33211D01*
X8761Y33194D01*
X8804Y33181D01*
X8847Y33173D01*
X8891Y33167D01*
X8936Y33165D01*
X8992Y33167D01*
X9045Y33174D01*
X9093Y33184D01*
X9138Y33199D01*
X9179Y33218D01*
X9214Y33242D01*
X9244Y33271D01*
X9268Y33304D01*
X9286Y33341D01*
X9300Y33379D01*
X9308Y33418D01*
X9311Y33459D01*
X9307Y33507D01*
X9296Y33552D01*
X9278Y33593D01*
X9252Y33630D01*
X9220Y33662D01*
X9180Y33689D01*
X9133Y33709D01*
X9079Y33725D01*
X9079Y33725D01*
X9079Y34642D02*
X9110Y34762D01*
X9179Y34739D01*
X9240Y34709D01*
X9292Y34671D01*
X9336Y34626D01*
X9370Y34574D01*
X9394Y34517D01*
X9409Y34454D01*
X9414Y34386D01*
X9410Y34316D01*
X9399Y34253D01*
X9380Y34196D01*
X9354Y34147D01*
X9320Y34103D01*
X9280Y34066D01*
X9234Y34033D01*
X9180Y34007D01*
X9123Y33986D01*
X9063Y33971D01*
X9001Y33962D01*
X8937Y33959D01*
X8868Y33962D01*
X8804Y33972D01*
X8744Y33989D01*
X8689Y34013D01*
X8639Y34043D01*
X8596Y34079D01*
X8559Y34120D01*
X8528Y34167D01*
X8504Y34219D01*
X8487Y34272D01*
X8477Y34329D01*
X8473Y34388D01*
X8478Y34453D01*
X8491Y34513D01*
X8512Y34568D01*
X8543Y34617D01*
X8581Y34660D01*
X8626Y34696D01*
X8679Y34725D01*
X8738Y34747D01*
X8766Y34628D01*
X8720Y34611D01*
X8680Y34589D01*
X8648Y34565D01*
X8622Y34536D01*
X8602Y34504D01*
X8588Y34469D01*
X8579Y34429D01*
X8576Y34385D01*
X8579Y34335D01*
X8589Y34289D01*
X8605Y34247D01*
X8627Y34210D01*
X8654Y34177D01*
X8685Y34150D01*
X8721Y34128D01*
X8761Y34111D01*
X8804Y34099D01*
X8847Y34090D01*
X8891Y34084D01*
X8936Y34083D01*
X8992Y34085D01*
X9045Y34091D01*
X9093Y34102D01*
X9138Y34116D01*
X9179Y34136D01*
X9214Y34160D01*
X9244Y34188D01*
X9268Y34221D01*
X9286Y34258D01*
X9300Y34296D01*
X9308Y34335D01*
X9311Y34376D01*
X9307Y34424D01*
X9296Y34469D01*
X9278Y34510D01*
X9252Y34547D01*
X9220Y34579D01*
X9180Y34606D01*
X9133Y34627D01*
X9079Y34642D01*
X9079Y34642D01*
G37*
M02*