%FSLAX33Y33*%
%MOMM*%
%AMRect-W1778000-H1778000-RO1.000*
21,1,1.778,1.778,0.,0.,180*%
%AMRect-W1778000-H1778000-RO0.250*
21,1,1.778,1.778,0.,0.,315*%
%AMRect-W1778000-H1778000-RO0.750*
21,1,1.778,1.778,0.,0.,225*%
%AMRect-W1778000-H1778000-RO0.500*
21,1,1.778,1.778,0.,0.,270*%
%AMRect-W1500000-H1500000-RO0.500*
21,1,1.5,1.5,0.,0.,270*%
%ADD10C,0.0508*%
%ADD11C,0.68834*%
%ADD12C,1.778*%
%ADD13Rect-W1778000-H1778000-RO1.000*%
%ADD14C,1.778*%
%ADD15Rect-W1778000-H1778000-RO0.250*%
%ADD16R,1.778X1.778*%
%ADD17C,1.778*%
%ADD18C,1.778*%
%ADD19Rect-W1778000-H1778000-RO0.750*%
%ADD20C,4.*%
%ADD21C,1.778*%
%ADD22Rect-W1778000-H1778000-RO0.500*%
%ADD23C,1.5*%
%ADD24Rect-W1500000-H1500000-RO0.500*%
D10*
%LNpour fill*%
G01*
X35027Y35027D02*
X35027Y35027D01*
X0533Y35027*
X0533Y0533*
X35027Y0533*
X35027Y35027*
X3734Y29546D02*
X3734Y29546D01*
X3734Y29775*
X3886Y29775*
X3886Y29546*
X3903Y29531*
X4305Y29576*
X4308Y29577*
X4776Y29741*
X4779Y29742*
X5199Y30006*
X5201Y30008*
X5552Y30359*
X5554Y30361*
X5818Y30781*
X5819Y30784*
X5983Y31252*
X5984Y31255*
X6029Y31657*
X6014Y31674*
X5785Y31674*
X5785Y31826*
X6014Y31826*
X6029Y31843*
X5984Y32245*
X5983Y32248*
X5819Y32716*
X5818Y32719*
X5554Y33139*
X5552Y33141*
X5201Y33492*
X5199Y33494*
X4779Y33758*
X4776Y33759*
X4308Y33923*
X4305Y33924*
X3903Y33969*
X3886Y33954*
X3886Y33725*
X3734Y33725*
X3734Y33954*
X3717Y33969*
X3315Y33924*
X3312Y33923*
X2844Y33759*
X2841Y33758*
X2421Y33494*
X2419Y33492*
X2068Y33141*
X2066Y33139*
X1802Y32719*
X1801Y32716*
X1637Y32248*
X1636Y32245*
X1591Y31843*
X1606Y31826*
X1835Y31826*
X1835Y31674*
X1606Y31674*
X1591Y31657*
X1636Y31255*
X1637Y31252*
X1801Y30784*
X1802Y30781*
X2066Y30361*
X2068Y30359*
X2419Y30008*
X2421Y30006*
X2841Y29742*
X2844Y29741*
X3312Y29577*
X3315Y29576*
X3717Y29531*
X3734Y29546*
X32245Y29576D02*
X32245Y29576D01*
X32248Y29577*
X32716Y29741*
X32719Y29742*
X33139Y30006*
X33141Y30008*
X33492Y30359*
X33494Y30361*
X33758Y30781*
X33759Y30784*
X33923Y31252*
X33924Y31255*
X33969Y31657*
X33954Y31674*
X33725Y31674*
X33725Y31826*
X33954Y31826*
X33969Y31843*
X33924Y32245*
X33923Y32248*
X33759Y32716*
X33758Y32719*
X33494Y33139*
X33492Y33141*
X33141Y33492*
X33139Y33494*
X32719Y33758*
X32716Y33759*
X32248Y33923*
X32245Y33924*
X31843Y33969*
X31826Y33954*
X31826Y33725*
X31674Y33725*
X31674Y33954*
X31657Y33969*
X31255Y33924*
X31252Y33923*
X30784Y33759*
X30781Y33758*
X30361Y33494*
X30359Y33492*
X30008Y33141*
X30006Y33139*
X29742Y32719*
X29741Y32716*
X29577Y32248*
X29576Y32245*
X29531Y31843*
X29546Y31826*
X29775Y31826*
X29775Y31674*
X29546Y31674*
X29531Y31657*
X29576Y31255*
X29577Y31252*
X29741Y30784*
X29742Y30781*
X30006Y30361*
X30008Y30359*
X30359Y30008*
X30361Y30006*
X30781Y29742*
X30784Y29741*
X31252Y29577*
X31255Y29576*
X31657Y29531*
X31674Y29546*
X31674Y29775*
X31826Y29775*
X31826Y29546*
X31843Y29531*
X32245Y29576*
X26495Y28880D02*
X26495Y28880D01*
X26495Y29120*
X26845Y29120*
X26845Y28880*
X26859Y28865*
X27421Y28865*
X27422Y28865*
X27455Y28868*
X27457Y28868*
X27490Y28876*
X27492Y28877*
X27523Y28890*
X27525Y28891*
X27554Y28909*
X27556Y28910*
X27582Y28932*
X27583Y28933*
X27605Y28959*
X27606Y28961*
X27624Y28990*
X27625Y28992*
X27638Y29023*
X27639Y29025*
X27647Y29058*
X27647Y29060*
X27650Y29094*
X27650Y29095*
X27650Y29656*
X27635Y29670*
X27395Y29670*
X27395Y30020*
X27635Y30020*
X27650Y30034*
X27650Y30595*
X27650Y30596*
X27647Y30630*
X27647Y30632*
X27639Y30665*
X27638Y30667*
X27625Y30698*
X27624Y30700*
X27606Y30729*
X27605Y30731*
X27583Y30757*
X27582Y30758*
X27556Y30780*
X27554Y30781*
X27525Y30799*
X27523Y30800*
X27492Y30813*
X27490Y30814*
X27457Y30822*
X27455Y30822*
X27421Y30825*
X27420Y30825*
X26859Y30825*
X26845Y30810*
X26845Y30570*
X26495Y30570*
X26495Y30810*
X26481Y30825*
X25920Y30825*
X25919Y30825*
X25885Y30822*
X25883Y30822*
X25850Y30814*
X25848Y30813*
X25817Y30800*
X25815Y30799*
X25786Y30781*
X25784Y30780*
X25758Y30758*
X25757Y30757*
X25735Y30731*
X25734Y30729*
X25716Y30700*
X25715Y30698*
X25702Y30667*
X25701Y30665*
X25693Y30632*
X25693Y30630*
X25690Y30597*
X25690Y30596*
X25690Y30034*
X25705Y30020*
X25945Y30020*
X25945Y29670*
X25705Y29670*
X25690Y29656*
X25690Y29094*
X25690Y29093*
X25693Y29060*
X25693Y29058*
X25701Y29025*
X25702Y29023*
X25715Y28992*
X25716Y28990*
X25734Y28961*
X25735Y28959*
X25757Y28933*
X25758Y28932*
X25784Y28910*
X25786Y28909*
X25815Y28891*
X25817Y28890*
X25848Y28877*
X25850Y28876*
X25883Y28868*
X25885Y28868*
X25918Y28865*
X25919Y28865*
X26481Y28865*
X26495Y28880*
X9010Y28873D02*
X9010Y28873D01*
X9236Y28929*
X9239Y28930*
X9445Y29038*
X9448Y29040*
X9622Y29194*
X9624Y29197*
X9757Y29388*
X9758Y29391*
X9841Y29609*
X9842Y29612*
X9870Y29843*
X9870Y29847*
X9842Y30078*
X9841Y30081*
X9758Y30299*
X9757Y30302*
X9624Y30493*
X9622Y30496*
X9448Y30650*
X9445Y30652*
X9239Y30760*
X9236Y30761*
X9010Y30817*
X9007Y30818*
X8773Y30818*
X8770Y30817*
X8544Y30761*
X8541Y30760*
X8335Y30652*
X8332Y30650*
X8158Y30496*
X8156Y30493*
X8023Y30302*
X8022Y30299*
X7939Y30081*
X7938Y30078*
X7910Y29847*
X7910Y29843*
X7938Y29612*
X7939Y29609*
X8022Y29391*
X8023Y29388*
X8156Y29197*
X8158Y29194*
X8332Y29040*
X8335Y29038*
X8541Y28930*
X8544Y28929*
X8770Y28873*
X8773Y28872*
X9007Y28872*
X9010Y28873*
X11550Y28873D02*
X11550Y28873D01*
X11776Y28929*
X11779Y28930*
X11985Y29038*
X11988Y29040*
X12162Y29194*
X12164Y29197*
X12297Y29388*
X12298Y29391*
X12381Y29609*
X12382Y29612*
X12410Y29843*
X12410Y29847*
X12382Y30078*
X12381Y30081*
X12298Y30299*
X12297Y30302*
X12164Y30493*
X12162Y30496*
X11988Y30650*
X11985Y30652*
X11779Y30760*
X11776Y30761*
X11550Y30817*
X11547Y30818*
X11313Y30818*
X11310Y30817*
X11084Y30761*
X11081Y30760*
X10875Y30652*
X10872Y30650*
X10698Y30496*
X10696Y30493*
X10563Y30302*
X10562Y30299*
X10479Y30081*
X10478Y30078*
X10450Y29847*
X10450Y29843*
X10478Y29612*
X10479Y29609*
X10562Y29391*
X10563Y29388*
X10696Y29197*
X10698Y29194*
X10872Y29040*
X10875Y29038*
X11081Y28930*
X11084Y28929*
X11310Y28873*
X11313Y28872*
X11547Y28872*
X11550Y28873*
X14090Y28873D02*
X14090Y28873D01*
X14316Y28929*
X14319Y28930*
X14525Y29038*
X14528Y29040*
X14702Y29194*
X14704Y29197*
X14837Y29388*
X14838Y29391*
X14921Y29609*
X14922Y29612*
X14950Y29843*
X14950Y29847*
X14922Y30078*
X14921Y30081*
X14838Y30299*
X14837Y30302*
X14704Y30493*
X14702Y30496*
X14528Y30650*
X14525Y30652*
X14319Y30760*
X14316Y30761*
X14090Y30817*
X14087Y30818*
X13853Y30818*
X13850Y30817*
X13624Y30761*
X13621Y30760*
X13415Y30652*
X13412Y30650*
X13238Y30496*
X13236Y30493*
X13103Y30302*
X13102Y30299*
X13019Y30081*
X13018Y30078*
X12990Y29847*
X12990Y29843*
X13018Y29612*
X13019Y29609*
X13102Y29391*
X13103Y29388*
X13236Y29197*
X13238Y29194*
X13412Y29040*
X13415Y29038*
X13621Y28930*
X13624Y28929*
X13850Y28873*
X13853Y28872*
X14087Y28872*
X14090Y28873*
X16630Y28873D02*
X16630Y28873D01*
X16856Y28929*
X16859Y28930*
X17065Y29038*
X17068Y29040*
X17242Y29194*
X17244Y29197*
X17377Y29388*
X17378Y29391*
X17461Y29609*
X17462Y29612*
X17490Y29843*
X17490Y29847*
X17462Y30078*
X17461Y30081*
X17378Y30299*
X17377Y30302*
X17244Y30493*
X17242Y30496*
X17068Y30650*
X17065Y30652*
X16859Y30760*
X16856Y30761*
X16630Y30817*
X16627Y30818*
X16393Y30818*
X16390Y30817*
X16164Y30761*
X16161Y30760*
X15955Y30652*
X15952Y30650*
X15778Y30496*
X15776Y30493*
X15643Y30302*
X15642Y30299*
X15559Y30081*
X15558Y30078*
X15530Y29847*
X15530Y29843*
X15558Y29612*
X15559Y29609*
X15642Y29391*
X15643Y29388*
X15776Y29197*
X15778Y29194*
X15952Y29040*
X15955Y29038*
X16161Y28930*
X16164Y28929*
X16390Y28873*
X16393Y28872*
X16627Y28872*
X16630Y28873*
X19170Y28873D02*
X19170Y28873D01*
X19396Y28929*
X19399Y28930*
X19605Y29038*
X19608Y29040*
X19782Y29194*
X19784Y29197*
X19917Y29388*
X19918Y29391*
X20001Y29609*
X20002Y29612*
X20030Y29843*
X20030Y29847*
X20002Y30078*
X20001Y30081*
X19918Y30299*
X19917Y30302*
X19784Y30493*
X19782Y30496*
X19608Y30650*
X19605Y30652*
X19399Y30760*
X19396Y30761*
X19170Y30817*
X19167Y30818*
X18933Y30818*
X18930Y30817*
X18704Y30761*
X18701Y30760*
X18495Y30652*
X18492Y30650*
X18318Y30496*
X18316Y30493*
X18183Y30302*
X18182Y30299*
X18099Y30081*
X18098Y30078*
X18070Y29847*
X18070Y29843*
X18098Y29612*
X18099Y29609*
X18182Y29391*
X18183Y29388*
X18316Y29197*
X18318Y29194*
X18492Y29040*
X18495Y29038*
X18701Y28930*
X18704Y28929*
X18930Y28873*
X18933Y28872*
X19167Y28872*
X19170Y28873*
X21710Y28873D02*
X21710Y28873D01*
X21936Y28929*
X21939Y28930*
X22145Y29038*
X22148Y29040*
X22322Y29194*
X22324Y29197*
X22457Y29388*
X22458Y29391*
X22541Y29609*
X22542Y29612*
X22570Y29843*
X22570Y29847*
X22542Y30078*
X22541Y30081*
X22458Y30299*
X22457Y30302*
X22324Y30493*
X22322Y30496*
X22148Y30650*
X22145Y30652*
X21939Y30760*
X21936Y30761*
X21710Y30817*
X21707Y30818*
X21473Y30818*
X21470Y30817*
X21244Y30761*
X21241Y30760*
X21035Y30652*
X21032Y30650*
X20858Y30496*
X20856Y30493*
X20723Y30302*
X20722Y30299*
X20639Y30081*
X20638Y30078*
X20610Y29847*
X20610Y29843*
X20638Y29612*
X20639Y29609*
X20722Y29391*
X20723Y29388*
X20856Y29197*
X20858Y29194*
X21032Y29040*
X21035Y29038*
X21241Y28930*
X21244Y28929*
X21470Y28873*
X21473Y28872*
X21707Y28872*
X21710Y28873*
X24250Y28873D02*
X24250Y28873D01*
X24476Y28929*
X24479Y28930*
X24685Y29038*
X24688Y29040*
X24862Y29194*
X24864Y29197*
X24997Y29388*
X24998Y29391*
X25081Y29609*
X25082Y29612*
X25110Y29843*
X25110Y29847*
X25082Y30078*
X25081Y30081*
X24998Y30299*
X24997Y30302*
X24864Y30493*
X24862Y30496*
X24688Y30650*
X24685Y30652*
X24479Y30760*
X24476Y30761*
X24250Y30817*
X24247Y30818*
X24013Y30818*
X24010Y30817*
X23784Y30761*
X23781Y30760*
X23575Y30652*
X23572Y30650*
X23398Y30496*
X23396Y30493*
X23263Y30302*
X23262Y30299*
X23179Y30081*
X23178Y30078*
X23150Y29847*
X23150Y29843*
X23178Y29612*
X23179Y29609*
X23262Y29391*
X23263Y29388*
X23396Y29197*
X23398Y29194*
X23572Y29040*
X23575Y29038*
X23781Y28930*
X23784Y28929*
X24010Y28873*
X24013Y28872*
X24247Y28872*
X24250Y28873*
X32944Y23026D02*
X32944Y23026D01*
X32944Y23266*
X33096Y23266*
X33096Y23026*
X33111Y23011*
X33910Y23011*
X33911Y23011*
X33944Y23014*
X33946Y23014*
X33979Y23022*
X33981Y23023*
X34012Y23036*
X34014Y23037*
X34043Y23055*
X34045Y23056*
X34071Y23078*
X34072Y23079*
X34094Y23105*
X34095Y23107*
X34113Y23136*
X34114Y23138*
X34127Y23169*
X34128Y23171*
X34136Y23204*
X34136Y23206*
X34139Y23240*
X34139Y23241*
X34139Y24039*
X34124Y24054*
X33884Y24054*
X33884Y24206*
X34124Y24206*
X34139Y24221*
X34139Y25019*
X34139Y25020*
X34136Y25054*
X34136Y25056*
X34128Y25089*
X34127Y25091*
X34114Y25122*
X34113Y25124*
X34095Y25153*
X34094Y25155*
X34072Y25181*
X34071Y25182*
X34045Y25204*
X34043Y25205*
X34014Y25223*
X34012Y25224*
X33981Y25237*
X33979Y25238*
X33946Y25246*
X33944Y25246*
X33910Y25249*
X33909Y25249*
X33111Y25249*
X33096Y25234*
X33096Y24994*
X32944Y24994*
X32944Y25234*
X32929Y25249*
X32131Y25249*
X32130Y25249*
X32096Y25246*
X32094Y25246*
X32061Y25238*
X32059Y25237*
X32028Y25224*
X32026Y25223*
X31997Y25205*
X31995Y25204*
X31969Y25182*
X31968Y25181*
X31946Y25155*
X31945Y25153*
X31927Y25124*
X31926Y25122*
X31913Y25091*
X31912Y25089*
X31904Y25056*
X31904Y25054*
X31901Y25021*
X31901Y25020*
X31901Y24221*
X31916Y24206*
X32156Y24206*
X32156Y24054*
X31916Y24054*
X31901Y24039*
X31901Y23240*
X31901Y23239*
X31904Y23206*
X31904Y23204*
X31912Y23171*
X31913Y23169*
X31926Y23138*
X31927Y23136*
X31945Y23107*
X31946Y23105*
X31968Y23079*
X31969Y23078*
X31995Y23056*
X31997Y23055*
X32026Y23037*
X32028Y23036*
X32059Y23023*
X32061Y23022*
X32094Y23014*
X32096Y23014*
X32129Y23011*
X32130Y23011*
X32929Y23011*
X32944Y23026*
X2676Y23020D02*
X2676Y23020D01*
X2935Y23084*
X2938Y23085*
X3174Y23209*
X3177Y23210*
X3376Y23387*
X3378Y23389*
X3530Y23609*
X3531Y23612*
X3626Y23861*
X3626Y23864*
X3659Y24128*
X3659Y24132*
X3626Y24396*
X3626Y24399*
X3531Y24648*
X3530Y24651*
X3378Y24871*
X3376Y24873*
X3177Y25050*
X3174Y25051*
X2938Y25175*
X2935Y25176*
X2676Y25240*
X2673Y25241*
X2407Y25241*
X2404Y25240*
X2145Y25176*
X2142Y25175*
X1906Y25051*
X1903Y25050*
X1704Y24873*
X1702Y24871*
X1550Y24651*
X1549Y24648*
X1454Y24399*
X1454Y24396*
X1421Y24132*
X1421Y24128*
X1454Y23864*
X1454Y23861*
X1549Y23612*
X1550Y23609*
X1702Y23389*
X1704Y23387*
X1903Y23210*
X1906Y23209*
X2142Y23085*
X2145Y23084*
X2404Y23020*
X2407Y23019*
X2673Y23019*
X2676Y23020*
X2464Y20486D02*
X2464Y20486D01*
X2464Y20726*
X2616Y20726*
X2616Y20486*
X2631Y20471*
X3430Y20471*
X3431Y20471*
X3464Y20474*
X3466Y20474*
X3499Y20482*
X3501Y20483*
X3532Y20496*
X3534Y20497*
X3563Y20515*
X3565Y20516*
X3591Y20538*
X3592Y20539*
X3614Y20565*
X3615Y20567*
X3633Y20596*
X3634Y20598*
X3647Y20629*
X3648Y20631*
X3656Y20664*
X3656Y20666*
X3659Y20700*
X3659Y20701*
X3659Y21499*
X3644Y21514*
X3404Y21514*
X3404Y21666*
X3644Y21666*
X3659Y21681*
X3659Y22479*
X3659Y22480*
X3656Y22514*
X3656Y22516*
X3648Y22549*
X3647Y22551*
X3634Y22582*
X3633Y22584*
X3615Y22613*
X3614Y22615*
X3592Y22641*
X3591Y22642*
X3565Y22664*
X3563Y22665*
X3534Y22683*
X3532Y22684*
X3501Y22697*
X3499Y22698*
X3466Y22706*
X3464Y22706*
X3430Y22709*
X3429Y22709*
X2631Y22709*
X2616Y22694*
X2616Y22454*
X2464Y22454*
X2464Y22694*
X2449Y22709*
X1651Y22709*
X1650Y22709*
X1616Y22706*
X1614Y22706*
X1581Y22698*
X1579Y22697*
X1548Y22684*
X1546Y22683*
X1517Y22665*
X1515Y22664*
X1489Y22642*
X1488Y22641*
X1466Y22615*
X1465Y22613*
X1447Y22584*
X1446Y22582*
X1433Y22551*
X1432Y22549*
X1424Y22516*
X1424Y22514*
X1421Y22481*
X1421Y22480*
X1421Y21681*
X1436Y21666*
X1676Y21666*
X1676Y21514*
X1436Y21514*
X1421Y21499*
X1421Y20700*
X1421Y20699*
X1424Y20666*
X1424Y20664*
X1432Y20631*
X1433Y20629*
X1446Y20598*
X1447Y20596*
X1465Y20567*
X1466Y20565*
X1488Y20539*
X1489Y20538*
X1515Y20516*
X1517Y20515*
X1546Y20497*
X1548Y20496*
X1579Y20483*
X1581Y20482*
X1614Y20474*
X1616Y20474*
X1649Y20471*
X1650Y20471*
X2449Y20471*
X2464Y20486*
X33156Y20480D02*
X33156Y20480D01*
X33415Y20544*
X33418Y20545*
X33654Y20669*
X33657Y20670*
X33856Y20847*
X33858Y20849*
X34010Y21069*
X34011Y21072*
X34106Y21321*
X34106Y21324*
X34139Y21588*
X34139Y21592*
X34106Y21856*
X34106Y21859*
X34011Y22108*
X34010Y22111*
X33858Y22331*
X33856Y22333*
X33657Y22510*
X33654Y22511*
X33418Y22635*
X33415Y22636*
X33156Y22700*
X33153Y22701*
X32887Y22701*
X32884Y22700*
X32625Y22636*
X32622Y22635*
X32386Y22511*
X32383Y22510*
X32184Y22333*
X32182Y22331*
X32030Y22111*
X32029Y22108*
X31934Y21859*
X31934Y21856*
X31901Y21592*
X31901Y21588*
X31934Y21324*
X31934Y21321*
X32029Y21072*
X32030Y21069*
X32182Y20849*
X32184Y20847*
X32383Y20670*
X32386Y20669*
X32622Y20545*
X32625Y20544*
X32884Y20480*
X32887Y20479*
X33153Y20479*
X33156Y20480*
X32944Y14136D02*
X32944Y14136D01*
X32944Y14376*
X33096Y14376*
X33096Y14136*
X33111Y14121*
X33910Y14121*
X33911Y14121*
X33944Y14124*
X33946Y14124*
X33979Y14132*
X33981Y14133*
X34012Y14146*
X34014Y14147*
X34043Y14165*
X34045Y14166*
X34071Y14188*
X34072Y14189*
X34094Y14215*
X34095Y14217*
X34113Y14246*
X34114Y14248*
X34127Y14279*
X34128Y14281*
X34136Y14314*
X34136Y14316*
X34139Y14350*
X34139Y14351*
X34139Y15149*
X34124Y15164*
X33884Y15164*
X33884Y15316*
X34124Y15316*
X34139Y15331*
X34139Y16129*
X34139Y16130*
X34136Y16164*
X34136Y16166*
X34128Y16199*
X34127Y16201*
X34114Y16232*
X34113Y16234*
X34095Y16263*
X34094Y16265*
X34072Y16291*
X34071Y16292*
X34045Y16314*
X34043Y16315*
X34014Y16333*
X34012Y16334*
X33981Y16347*
X33979Y16348*
X33946Y16356*
X33944Y16356*
X33910Y16359*
X33909Y16359*
X33111Y16359*
X33096Y16344*
X33096Y16104*
X32944Y16104*
X32944Y16344*
X32929Y16359*
X32131Y16359*
X32130Y16359*
X32096Y16356*
X32094Y16356*
X32061Y16348*
X32059Y16347*
X32028Y16334*
X32026Y16333*
X31997Y16315*
X31995Y16314*
X31969Y16292*
X31968Y16291*
X31946Y16265*
X31945Y16263*
X31927Y16234*
X31926Y16232*
X31913Y16201*
X31912Y16199*
X31904Y16166*
X31904Y16164*
X31901Y16131*
X31901Y16130*
X31901Y15331*
X31916Y15316*
X32156Y15316*
X32156Y15164*
X31916Y15164*
X31901Y15149*
X31901Y14350*
X31901Y14349*
X31904Y14316*
X31904Y14314*
X31912Y14281*
X31913Y14279*
X31926Y14248*
X31927Y14246*
X31945Y14217*
X31946Y14215*
X31968Y14189*
X31969Y14188*
X31995Y14166*
X31997Y14165*
X32026Y14147*
X32028Y14146*
X32059Y14133*
X32061Y14132*
X32094Y14124*
X32096Y14124*
X32129Y14121*
X32130Y14121*
X32929Y14121*
X32944Y14136*
X2676Y14130D02*
X2676Y14130D01*
X2935Y14194*
X2938Y14195*
X3174Y14319*
X3177Y14320*
X3376Y14497*
X3378Y14499*
X3530Y14719*
X3531Y14722*
X3626Y14971*
X3626Y14974*
X3659Y15238*
X3659Y15242*
X3626Y15506*
X3626Y15509*
X3531Y15758*
X3530Y15761*
X3378Y15981*
X3376Y15983*
X3177Y16160*
X3174Y16161*
X2938Y16285*
X2935Y16286*
X2676Y16350*
X2673Y16351*
X2407Y16351*
X2404Y16350*
X2145Y16286*
X2142Y16285*
X1906Y16161*
X1903Y16160*
X1704Y15983*
X1702Y15981*
X1550Y15761*
X1549Y15758*
X1454Y15509*
X1454Y15506*
X1421Y15242*
X1421Y15238*
X1454Y14974*
X1454Y14971*
X1549Y14722*
X1550Y14719*
X1702Y14499*
X1704Y14497*
X1903Y14320*
X1906Y14319*
X2142Y14195*
X2145Y14194*
X2404Y14130*
X2407Y14129*
X2673Y14129*
X2676Y14130*
X2464Y11596D02*
X2464Y11596D01*
X2464Y11836*
X2616Y11836*
X2616Y11596*
X2631Y11581*
X3430Y11581*
X3431Y11581*
X3464Y11584*
X3466Y11584*
X3499Y11592*
X3501Y11593*
X3532Y11606*
X3534Y11607*
X3563Y11625*
X3565Y11626*
X3591Y11648*
X3592Y11649*
X3614Y11675*
X3615Y11677*
X3633Y11706*
X3634Y11708*
X3647Y11739*
X3648Y11741*
X3656Y11774*
X3656Y11776*
X3659Y11810*
X3659Y11811*
X3659Y12609*
X3644Y12624*
X3404Y12624*
X3404Y12776*
X3644Y12776*
X3659Y12791*
X3659Y13589*
X3659Y13590*
X3656Y13624*
X3656Y13626*
X3648Y13659*
X3647Y13661*
X3634Y13692*
X3633Y13694*
X3615Y13723*
X3614Y13725*
X3592Y13751*
X3591Y13752*
X3565Y13774*
X3563Y13775*
X3534Y13793*
X3532Y13794*
X3501Y13807*
X3499Y13808*
X3466Y13816*
X3464Y13816*
X3430Y13819*
X3429Y13819*
X2631Y13819*
X2616Y13804*
X2616Y13564*
X2464Y13564*
X2464Y13804*
X2449Y13819*
X1651Y13819*
X1650Y13819*
X1616Y13816*
X1614Y13816*
X1581Y13808*
X1579Y13807*
X1548Y13794*
X1546Y13793*
X1517Y13775*
X1515Y13774*
X1489Y13752*
X1488Y13751*
X1466Y13725*
X1465Y13723*
X1447Y13694*
X1446Y13692*
X1433Y13661*
X1432Y13659*
X1424Y13626*
X1424Y13624*
X1421Y13591*
X1421Y13590*
X1421Y12791*
X1436Y12776*
X1676Y12776*
X1676Y12624*
X1436Y12624*
X1421Y12609*
X1421Y11810*
X1421Y11809*
X1424Y11776*
X1424Y11774*
X1432Y11741*
X1433Y11739*
X1446Y11708*
X1447Y11706*
X1465Y11677*
X1466Y11675*
X1488Y11649*
X1489Y11648*
X1515Y11626*
X1517Y11625*
X1546Y11607*
X1548Y11606*
X1579Y11593*
X1581Y11592*
X1614Y11584*
X1616Y11584*
X1649Y11581*
X1650Y11581*
X2449Y11581*
X2464Y11596*
X33156Y11590D02*
X33156Y11590D01*
X33415Y11654*
X33418Y11655*
X33654Y11779*
X33657Y11780*
X33856Y11957*
X33858Y11959*
X34010Y12179*
X34011Y12182*
X34106Y12431*
X34106Y12434*
X34139Y12698*
X34139Y12702*
X34106Y12966*
X34106Y12969*
X34011Y13218*
X34010Y13221*
X33858Y13441*
X33856Y13443*
X33657Y13620*
X33654Y13621*
X33418Y13745*
X33415Y13746*
X33156Y13810*
X33153Y13811*
X32887Y13811*
X32884Y13810*
X32625Y13746*
X32622Y13745*
X32386Y13621*
X32383Y13620*
X32184Y13443*
X32182Y13441*
X32030Y13221*
X32029Y13218*
X31934Y12969*
X31934Y12966*
X31901Y12702*
X31901Y12698*
X31934Y12434*
X31934Y12431*
X32029Y12182*
X32030Y12179*
X32182Y11959*
X32184Y11957*
X32383Y11780*
X32386Y11779*
X32622Y11655*
X32625Y11654*
X32884Y11590*
X32887Y11589*
X33153Y11589*
X33156Y11590*
X18275Y9256D02*
X18275Y9256D01*
X18278Y9257*
X18746Y9421*
X18749Y9422*
X19169Y9686*
X19171Y9688*
X19522Y10039*
X19524Y10041*
X19788Y10461*
X19789Y10464*
X19953Y10932*
X19954Y10935*
X19999Y11337*
X19984Y11354*
X19755Y11354*
X19755Y11506*
X19984Y11506*
X19999Y11523*
X19954Y11925*
X19953Y11928*
X19789Y12396*
X19788Y12399*
X19524Y12819*
X19522Y12821*
X19171Y13172*
X19169Y13174*
X18749Y13438*
X18746Y13439*
X18278Y13603*
X18275Y13604*
X17873Y13649*
X17856Y13634*
X17856Y13405*
X17704Y13405*
X17704Y13634*
X17687Y13649*
X17285Y13604*
X17282Y13603*
X16814Y13439*
X16811Y13438*
X16391Y13174*
X16389Y13172*
X16038Y12821*
X16036Y12819*
X15772Y12399*
X15771Y12396*
X15607Y11928*
X15606Y11925*
X15561Y11523*
X15576Y11506*
X15805Y11506*
X15805Y11354*
X15576Y11354*
X15561Y11337*
X15606Y10935*
X15607Y10932*
X15771Y10464*
X15772Y10461*
X16036Y10041*
X16038Y10039*
X16389Y9688*
X16391Y9686*
X16811Y9422*
X16814Y9421*
X17282Y9257*
X17285Y9256*
X17687Y9211*
X17704Y9226*
X17704Y9455*
X17856Y9455*
X17856Y9226*
X17873Y9211*
X18275Y9256*
X32782Y5169D02*
X32782Y5169D01*
X32784Y5171*
X32809Y5192*
X32810Y5193*
X34068Y6451*
X34069Y6452*
X34090Y6477*
X34092Y6479*
X34111Y6511*
X34097Y6537*
X33829Y6537*
X33829Y6689*
X34097Y6689*
X34111Y6715*
X34092Y6747*
X34090Y6749*
X34069Y6774*
X34068Y6775*
X32810Y8033*
X32809Y8034*
X32784Y8055*
X32782Y8057*
X32750Y8076*
X32724Y8062*
X32724Y7743*
X32572Y7743*
X32572Y8062*
X32546Y8076*
X32514Y8057*
X32512Y8055*
X32487Y8034*
X32486Y8033*
X31228Y6775*
X31227Y6774*
X31206Y6749*
X31204Y6747*
X31185Y6715*
X31199Y6689*
X31467Y6689*
X31467Y6537*
X31199Y6537*
X31185Y6511*
X31204Y6479*
X31206Y6477*
X31227Y6452*
X31228Y6451*
X32486Y5193*
X32487Y5192*
X32512Y5171*
X32514Y5169*
X32546Y5150*
X32572Y5164*
X32572Y5483*
X32724Y5483*
X32724Y5164*
X32750Y5150*
X32782Y5169*
X3048Y5503D02*
X3048Y5503D01*
X3307Y5567*
X3310Y5568*
X3546Y5692*
X3549Y5693*
X3748Y5870*
X3750Y5872*
X3902Y6092*
X3903Y6095*
X3998Y6344*
X3998Y6347*
X4031Y6611*
X4031Y6615*
X3998Y6879*
X3998Y6882*
X3903Y7132*
X3902Y7134*
X3750Y7354*
X3748Y7356*
X3549Y7533*
X3546Y7534*
X3310Y7658*
X3307Y7659*
X3048Y7723*
X3045Y7724*
X2779Y7724*
X2776Y7723*
X2517Y7659*
X2514Y7658*
X2278Y7534*
X2275Y7533*
X2076Y7356*
X2074Y7354*
X1922Y7134*
X1921Y7132*
X1826Y6882*
X1826Y6879*
X1793Y6615*
X1793Y6611*
X1826Y6347*
X1826Y6344*
X1921Y6095*
X1922Y6092*
X2074Y5872*
X2076Y5870*
X2275Y5693*
X2278Y5692*
X2514Y5568*
X2517Y5567*
X2776Y5503*
X2779Y5502*
X3045Y5502*
X3048Y5503*
X4842Y3373D02*
X4842Y3373D01*
X4844Y3375*
X4869Y3396*
X4870Y3397*
X6128Y4655*
X6129Y4656*
X6150Y4681*
X6152Y4683*
X6171Y4715*
X6157Y4741*
X5838Y4741*
X5838Y4893*
X6157Y4893*
X6171Y4919*
X6152Y4951*
X6150Y4953*
X6129Y4978*
X6128Y4979*
X4870Y6237*
X4869Y6238*
X4844Y6259*
X4842Y6261*
X4810Y6280*
X4784Y6266*
X4784Y5998*
X4632Y5998*
X4632Y6266*
X4606Y6280*
X4574Y6261*
X4572Y6259*
X4547Y6238*
X4546Y6237*
X3288Y4979*
X3287Y4978*
X3266Y4953*
X3264Y4951*
X3245Y4919*
X3259Y4893*
X3578Y4893*
X3578Y4741*
X3259Y4741*
X3245Y4715*
X3264Y4683*
X3266Y4681*
X3287Y4656*
X3288Y4655*
X4546Y3397*
X4547Y3396*
X4572Y3375*
X4574Y3373*
X4606Y3354*
X4632Y3368*
X4632Y3687*
X4784Y3687*
X4784Y3368*
X4810Y3354*
X4842Y3373*
X30988Y3707D02*
X30988Y3707D01*
X31247Y3771*
X31250Y3772*
X31486Y3896*
X31489Y3897*
X31688Y4074*
X31690Y4076*
X31842Y4296*
X31843Y4298*
X31938Y4548*
X31938Y4551*
X31971Y4815*
X31971Y4819*
X31938Y5083*
X31938Y5086*
X31843Y5335*
X31842Y5338*
X31690Y5558*
X31688Y5560*
X31489Y5737*
X31486Y5738*
X31250Y5862*
X31247Y5863*
X30988Y5927*
X30985Y5928*
X30719Y5928*
X30716Y5927*
X30457Y5863*
X30454Y5862*
X30218Y5738*
X30215Y5737*
X30016Y5560*
X30014Y5558*
X29862Y5338*
X29861Y5335*
X29766Y5086*
X29766Y5083*
X29733Y4819*
X29733Y4815*
X29766Y4551*
X29766Y4548*
X29861Y4298*
X29862Y4296*
X30014Y4076*
X30016Y4074*
X30215Y3897*
X30218Y3896*
X30454Y3772*
X30457Y3771*
X30716Y3707*
X30719Y3706*
X30985Y3706*
X30988Y3707*
X15164Y1436D02*
X15164Y1436D01*
X15164Y1676*
X15316Y1676*
X15316Y1436*
X15331Y1421*
X16130Y1421*
X16131Y1421*
X16164Y1424*
X16166Y1424*
X16199Y1432*
X16201Y1433*
X16232Y1446*
X16234Y1447*
X16263Y1465*
X16265Y1466*
X16291Y1488*
X16292Y1489*
X16314Y1515*
X16315Y1517*
X16333Y1546*
X16334Y1548*
X16347Y1579*
X16348Y1581*
X16356Y1614*
X16356Y1616*
X16359Y1650*
X16359Y1651*
X16359Y2449*
X16344Y2464*
X16104Y2464*
X16104Y2616*
X16344Y2616*
X16359Y2631*
X16359Y3429*
X16359Y3430*
X16356Y3464*
X16356Y3466*
X16348Y3499*
X16347Y3501*
X16334Y3532*
X16333Y3534*
X16315Y3563*
X16314Y3565*
X16292Y3591*
X16291Y3592*
X16265Y3614*
X16263Y3615*
X16234Y3633*
X16232Y3634*
X16201Y3647*
X16199Y3648*
X16166Y3656*
X16164Y3656*
X16130Y3659*
X16129Y3659*
X15331Y3659*
X15316Y3644*
X15316Y3404*
X15164Y3404*
X15164Y3644*
X15149Y3659*
X14351Y3659*
X14350Y3659*
X14316Y3656*
X14314Y3656*
X14281Y3648*
X14279Y3647*
X14248Y3634*
X14246Y3633*
X14217Y3615*
X14215Y3614*
X14189Y3592*
X14188Y3591*
X14166Y3565*
X14165Y3563*
X14147Y3534*
X14146Y3532*
X14133Y3501*
X14132Y3499*
X14124Y3466*
X14124Y3464*
X14121Y3431*
X14121Y3430*
X14121Y2631*
X14136Y2616*
X14376Y2616*
X14376Y2464*
X14136Y2464*
X14121Y2449*
X14121Y1650*
X14121Y1649*
X14124Y1616*
X14124Y1614*
X14132Y1581*
X14133Y1579*
X14146Y1548*
X14147Y1546*
X14165Y1517*
X14166Y1515*
X14188Y1489*
X14189Y1488*
X14215Y1466*
X14217Y1465*
X14246Y1447*
X14248Y1446*
X14279Y1433*
X14281Y1432*
X14314Y1424*
X14316Y1424*
X14349Y1421*
X14350Y1421*
X15149Y1421*
X15164Y1436*
X22784Y1436D02*
X22784Y1436D01*
X22784Y1676*
X22936Y1676*
X22936Y1436*
X22951Y1421*
X23750Y1421*
X23751Y1421*
X23784Y1424*
X23786Y1424*
X23819Y1432*
X23821Y1433*
X23852Y1446*
X23854Y1447*
X23883Y1465*
X23885Y1466*
X23911Y1488*
X23912Y1489*
X23934Y1515*
X23935Y1517*
X23953Y1546*
X23954Y1548*
X23967Y1579*
X23968Y1581*
X23976Y1614*
X23976Y1616*
X23979Y1650*
X23979Y1651*
X23979Y2449*
X23964Y2464*
X23724Y2464*
X23724Y2616*
X23964Y2616*
X23979Y2631*
X23979Y3429*
X23979Y3430*
X23976Y3464*
X23976Y3466*
X23968Y3499*
X23967Y3501*
X23954Y3532*
X23953Y3534*
X23935Y3563*
X23934Y3565*
X23912Y3591*
X23911Y3592*
X23885Y3614*
X23883Y3615*
X23854Y3633*
X23852Y3634*
X23821Y3647*
X23819Y3648*
X23786Y3656*
X23784Y3656*
X23750Y3659*
X23749Y3659*
X22951Y3659*
X22936Y3644*
X22936Y3404*
X22784Y3404*
X22784Y3644*
X22769Y3659*
X21971Y3659*
X21970Y3659*
X21936Y3656*
X21934Y3656*
X21901Y3648*
X21899Y3647*
X21868Y3634*
X21866Y3633*
X21837Y3615*
X21835Y3614*
X21809Y3592*
X21808Y3591*
X21786Y3565*
X21785Y3563*
X21767Y3534*
X21766Y3532*
X21753Y3501*
X21752Y3499*
X21744Y3466*
X21744Y3464*
X21741Y3431*
X21741Y3430*
X21741Y2631*
X21756Y2616*
X21996Y2616*
X21996Y2464*
X21756Y2464*
X21741Y2449*
X21741Y1650*
X21741Y1649*
X21744Y1616*
X21744Y1614*
X21752Y1581*
X21753Y1579*
X21766Y1548*
X21767Y1546*
X21785Y1517*
X21786Y1515*
X21808Y1489*
X21809Y1488*
X21835Y1466*
X21837Y1465*
X21866Y1447*
X21868Y1446*
X21899Y1433*
X21901Y1432*
X21934Y1424*
X21936Y1424*
X21969Y1421*
X21970Y1421*
X22769Y1421*
X22784Y1436*
X12836Y1430D02*
X12836Y1430D01*
X13095Y1494*
X13098Y1495*
X13334Y1619*
X13337Y1620*
X13536Y1797*
X13538Y1799*
X13690Y2019*
X13691Y2022*
X13786Y2271*
X13786Y2274*
X13819Y2538*
X13819Y2542*
X13786Y2806*
X13786Y2809*
X13691Y3058*
X13690Y3061*
X13538Y3281*
X13536Y3283*
X13337Y3460*
X13334Y3461*
X13098Y3585*
X13095Y3586*
X12836Y3650*
X12833Y3651*
X12567Y3651*
X12564Y3650*
X12305Y3586*
X12302Y3585*
X12066Y3461*
X12063Y3460*
X11864Y3283*
X11862Y3281*
X11710Y3061*
X11709Y3058*
X11614Y2809*
X11614Y2806*
X11581Y2542*
X11581Y2538*
X11614Y2274*
X11614Y2271*
X11709Y2022*
X11710Y2019*
X11862Y1799*
X11864Y1797*
X12063Y1620*
X12066Y1619*
X12302Y1495*
X12305Y1494*
X12564Y1430*
X12567Y1429*
X12833Y1429*
X12836Y1430*
X20456Y1430D02*
X20456Y1430D01*
X20715Y1494*
X20718Y1495*
X20954Y1619*
X20957Y1620*
X21156Y1797*
X21158Y1799*
X21310Y2019*
X21311Y2022*
X21406Y2271*
X21406Y2274*
X21439Y2538*
X21439Y2542*
X21406Y2806*
X21406Y2809*
X21311Y3058*
X21310Y3061*
X21158Y3281*
X21156Y3283*
X20957Y3460*
X20954Y3461*
X20718Y3585*
X20715Y3586*
X20456Y3650*
X20453Y3651*
X20187Y3651*
X20184Y3650*
X19925Y3586*
X19922Y3585*
X19686Y3461*
X19683Y3460*
X19484Y3283*
X19482Y3281*
X19330Y3061*
X19329Y3058*
X19234Y2809*
X19234Y2806*
X19201Y2542*
X19201Y2538*
X19234Y2274*
X19234Y2271*
X19329Y2022*
X19330Y2019*
X19482Y1799*
X19484Y1797*
X19683Y1620*
X19686Y1619*
X19922Y1495*
X19925Y1494*
X20184Y1430*
X20187Y1429*
X20453Y1429*
X20456Y1430*
X0533Y0558D02*
X35027Y0558D01*
X0533Y0607D02*
X35027Y0607D01*
X0533Y0657D02*
X35027Y0657D01*
X0533Y0706D02*
X35027Y0706D01*
X0533Y0756D02*
X35027Y0756D01*
X0533Y0805D02*
X35027Y0805D01*
X0533Y0855D02*
X35027Y0855D01*
X0533Y0904D02*
X35027Y0904D01*
X0533Y0954D02*
X35027Y0954D01*
X0533Y1003D02*
X35027Y1003D01*
X0533Y1053D02*
X35027Y1053D01*
X0533Y1102D02*
X35027Y1102D01*
X0533Y1152D02*
X35027Y1152D01*
X0533Y1201D02*
X35027Y1201D01*
X0533Y1251D02*
X35027Y1251D01*
X0533Y1300D02*
X35027Y1300D01*
X0533Y1350D02*
X35027Y1350D01*
X0533Y1400D02*
X35027Y1400D01*
X0533Y1449D02*
X12485Y1449D01*
X12915Y1449D02*
X14242Y1449D01*
X15164Y1449D02*
X15316Y1449D01*
X16238Y1449D02*
X20105Y1449D01*
X20535Y1449D02*
X21862Y1449D01*
X22784Y1449D02*
X22936Y1449D01*
X23858Y1449D02*
X35027Y1449D01*
X0533Y1499D02*
X12294Y1499D01*
X13106Y1499D02*
X14180Y1499D01*
X15164Y1499D02*
X15316Y1499D01*
X16300Y1499D02*
X19914Y1499D01*
X20726Y1499D02*
X21800Y1499D01*
X22784Y1499D02*
X22936Y1499D01*
X23920Y1499D02*
X35027Y1499D01*
X0533Y1548D02*
X12200Y1548D01*
X13200Y1548D02*
X14146Y1548D01*
X15164Y1548D02*
X15316Y1548D01*
X16334Y1548D02*
X19820Y1548D01*
X20820Y1548D02*
X21766Y1548D01*
X22784Y1548D02*
X22936Y1548D01*
X23954Y1548D02*
X35027Y1548D01*
X0533Y1598D02*
X12106Y1598D01*
X13294Y1598D02*
X14128Y1598D01*
X15164Y1598D02*
X15316Y1598D01*
X16352Y1598D02*
X19726Y1598D01*
X20914Y1598D02*
X21748Y1598D01*
X22784Y1598D02*
X22936Y1598D01*
X23972Y1598D02*
X35027Y1598D01*
X0533Y1647D02*
X12033Y1647D01*
X13367Y1647D02*
X14122Y1647D01*
X15164Y1647D02*
X15316Y1647D01*
X16358Y1647D02*
X19653Y1647D01*
X20987Y1647D02*
X21742Y1647D01*
X22784Y1647D02*
X22936Y1647D01*
X23978Y1647D02*
X35027Y1647D01*
X0533Y1697D02*
X11977Y1697D01*
X13423Y1697D02*
X14121Y1697D01*
X16359Y1697D02*
X19597Y1697D01*
X21043Y1697D02*
X21741Y1697D01*
X23979Y1697D02*
X35027Y1697D01*
X0533Y1746D02*
X11921Y1746D01*
X13479Y1746D02*
X14121Y1746D01*
X16359Y1746D02*
X19541Y1746D01*
X21099Y1746D02*
X21741Y1746D01*
X23979Y1746D02*
X35027Y1746D01*
X0533Y1796D02*
X11865Y1796D01*
X13535Y1796D02*
X14121Y1796D01*
X16359Y1796D02*
X19485Y1796D01*
X21155Y1796D02*
X21741Y1796D01*
X23979Y1796D02*
X35027Y1796D01*
X0533Y1845D02*
X11830Y1845D01*
X13570Y1845D02*
X14121Y1845D01*
X16359Y1845D02*
X19450Y1845D01*
X21190Y1845D02*
X21741Y1845D01*
X23979Y1845D02*
X35027Y1845D01*
X0533Y1895D02*
X11796Y1895D01*
X13604Y1895D02*
X14121Y1895D01*
X16359Y1895D02*
X19416Y1895D01*
X21224Y1895D02*
X21741Y1895D01*
X23979Y1895D02*
X35027Y1895D01*
X0533Y1944D02*
X11762Y1944D01*
X13638Y1944D02*
X14121Y1944D01*
X16359Y1944D02*
X19382Y1944D01*
X21258Y1944D02*
X21741Y1944D01*
X23979Y1944D02*
X35027Y1944D01*
X0533Y1994D02*
X11727Y1994D01*
X13673Y1994D02*
X14121Y1994D01*
X16359Y1994D02*
X19347Y1994D01*
X21293Y1994D02*
X21741Y1994D01*
X23979Y1994D02*
X35027Y1994D01*
X0533Y2043D02*
X11701Y2043D01*
X13699Y2043D02*
X14121Y2043D01*
X16359Y2043D02*
X19321Y2043D01*
X21319Y2043D02*
X21741Y2043D01*
X23979Y2043D02*
X35027Y2043D01*
X0533Y2093D02*
X11682Y2093D01*
X13718Y2093D02*
X14121Y2093D01*
X16359Y2093D02*
X19302Y2093D01*
X21338Y2093D02*
X21741Y2093D01*
X23979Y2093D02*
X35027Y2093D01*
X0533Y2142D02*
X11663Y2142D01*
X13737Y2142D02*
X14121Y2142D01*
X16359Y2142D02*
X19283Y2142D01*
X21357Y2142D02*
X21741Y2142D01*
X23979Y2142D02*
X35027Y2142D01*
X0533Y2192D02*
X11644Y2192D01*
X13756Y2192D02*
X14121Y2192D01*
X16359Y2192D02*
X19264Y2192D01*
X21376Y2192D02*
X21741Y2192D01*
X23979Y2192D02*
X35027Y2192D01*
X0533Y2242D02*
X11625Y2242D01*
X13775Y2242D02*
X14121Y2242D01*
X16359Y2242D02*
X19245Y2242D01*
X21395Y2242D02*
X21741Y2242D01*
X23979Y2242D02*
X35027Y2242D01*
X0533Y2291D02*
X11611Y2291D01*
X13789Y2291D02*
X14121Y2291D01*
X16359Y2291D02*
X19231Y2291D01*
X21409Y2291D02*
X21741Y2291D01*
X23979Y2291D02*
X35027Y2291D01*
X0533Y2341D02*
X11605Y2341D01*
X13795Y2341D02*
X14121Y2341D01*
X16359Y2341D02*
X19225Y2341D01*
X21415Y2341D02*
X21741Y2341D01*
X23979Y2341D02*
X35027Y2341D01*
X0533Y2390D02*
X11599Y2390D01*
X13801Y2390D02*
X14121Y2390D01*
X16359Y2390D02*
X19219Y2390D01*
X21421Y2390D02*
X21741Y2390D01*
X23979Y2390D02*
X35027Y2390D01*
X0533Y2440D02*
X11593Y2440D01*
X13807Y2440D02*
X14121Y2440D01*
X16359Y2440D02*
X19213Y2440D01*
X21427Y2440D02*
X21741Y2440D01*
X23979Y2440D02*
X35027Y2440D01*
X0533Y2489D02*
X11587Y2489D01*
X13813Y2489D02*
X14376Y2489D01*
X16104Y2489D02*
X19207Y2489D01*
X21433Y2489D02*
X21996Y2489D01*
X23724Y2489D02*
X35027Y2489D01*
X0533Y2539D02*
X11581Y2539D01*
X13819Y2539D02*
X14376Y2539D01*
X16104Y2539D02*
X19201Y2539D01*
X21439Y2539D02*
X21996Y2539D01*
X23724Y2539D02*
X35027Y2539D01*
X0533Y2588D02*
X11587Y2588D01*
X13813Y2588D02*
X14376Y2588D01*
X16104Y2588D02*
X19207Y2588D01*
X21433Y2588D02*
X21996Y2588D01*
X23724Y2588D02*
X35027Y2588D01*
X0533Y2638D02*
X11593Y2638D01*
X13807Y2638D02*
X14121Y2638D01*
X16359Y2638D02*
X19213Y2638D01*
X21427Y2638D02*
X21741Y2638D01*
X23979Y2638D02*
X35027Y2638D01*
X0533Y2687D02*
X11599Y2687D01*
X13801Y2687D02*
X14121Y2687D01*
X16359Y2687D02*
X19219Y2687D01*
X21421Y2687D02*
X21741Y2687D01*
X23979Y2687D02*
X35027Y2687D01*
X0533Y2737D02*
X11605Y2737D01*
X13795Y2737D02*
X14121Y2737D01*
X16359Y2737D02*
X19225Y2737D01*
X21415Y2737D02*
X21741Y2737D01*
X23979Y2737D02*
X35027Y2737D01*
X0533Y2786D02*
X11611Y2786D01*
X13789Y2786D02*
X14121Y2786D01*
X16359Y2786D02*
X19231Y2786D01*
X21409Y2786D02*
X21741Y2786D01*
X23979Y2786D02*
X35027Y2786D01*
X0533Y2836D02*
X11624Y2836D01*
X13776Y2836D02*
X14121Y2836D01*
X16359Y2836D02*
X19244Y2836D01*
X21396Y2836D02*
X21741Y2836D01*
X23979Y2836D02*
X35027Y2836D01*
X0533Y2885D02*
X11643Y2885D01*
X13757Y2885D02*
X14121Y2885D01*
X16359Y2885D02*
X19263Y2885D01*
X21377Y2885D02*
X21741Y2885D01*
X23979Y2885D02*
X35027Y2885D01*
X0533Y2935D02*
X11662Y2935D01*
X13738Y2935D02*
X14121Y2935D01*
X16359Y2935D02*
X19282Y2935D01*
X21358Y2935D02*
X21741Y2935D01*
X23979Y2935D02*
X35027Y2935D01*
X0533Y2985D02*
X11681Y2985D01*
X13719Y2985D02*
X14121Y2985D01*
X16359Y2985D02*
X19301Y2985D01*
X21339Y2985D02*
X21741Y2985D01*
X23979Y2985D02*
X35027Y2985D01*
X0533Y3034D02*
X11700Y3034D01*
X13700Y3034D02*
X14121Y3034D01*
X16359Y3034D02*
X19320Y3034D01*
X21320Y3034D02*
X21741Y3034D01*
X23979Y3034D02*
X35027Y3034D01*
X0533Y3084D02*
X11726Y3084D01*
X13674Y3084D02*
X14121Y3084D01*
X16359Y3084D02*
X19346Y3084D01*
X21294Y3084D02*
X21741Y3084D01*
X23979Y3084D02*
X35027Y3084D01*
X0533Y3133D02*
X11760Y3133D01*
X13640Y3133D02*
X14121Y3133D01*
X16359Y3133D02*
X19380Y3133D01*
X21260Y3133D02*
X21741Y3133D01*
X23979Y3133D02*
X35027Y3133D01*
X0533Y3183D02*
X11794Y3183D01*
X13606Y3183D02*
X14121Y3183D01*
X16359Y3183D02*
X19414Y3183D01*
X21226Y3183D02*
X21741Y3183D01*
X23979Y3183D02*
X35027Y3183D01*
X0533Y3232D02*
X11828Y3232D01*
X13572Y3232D02*
X14121Y3232D01*
X16359Y3232D02*
X19448Y3232D01*
X21192Y3232D02*
X21741Y3232D01*
X23979Y3232D02*
X35027Y3232D01*
X0533Y3282D02*
X11863Y3282D01*
X13537Y3282D02*
X14121Y3282D01*
X16359Y3282D02*
X19483Y3282D01*
X21157Y3282D02*
X21741Y3282D01*
X23979Y3282D02*
X35027Y3282D01*
X0533Y3331D02*
X11918Y3331D01*
X13482Y3331D02*
X14121Y3331D01*
X16359Y3331D02*
X19538Y3331D01*
X21102Y3331D02*
X21741Y3331D01*
X23979Y3331D02*
X35027Y3331D01*
X0533Y3381D02*
X4565Y3381D01*
X4632Y3381D02*
X4784Y3381D01*
X4851Y3381D02*
X11974Y3381D01*
X13426Y3381D02*
X14121Y3381D01*
X16359Y3381D02*
X19594Y3381D01*
X21046Y3381D02*
X21741Y3381D01*
X23979Y3381D02*
X35027Y3381D01*
X0533Y3430D02*
X4513Y3430D01*
X4632Y3430D02*
X4784Y3430D01*
X4903Y3430D02*
X12030Y3430D01*
X13370Y3430D02*
X14121Y3430D01*
X15164Y3430D02*
X15316Y3430D01*
X16359Y3430D02*
X19650Y3430D01*
X20990Y3430D02*
X21741Y3430D01*
X22784Y3430D02*
X22936Y3430D01*
X23979Y3430D02*
X35027Y3430D01*
X0533Y3480D02*
X4463Y3480D01*
X4632Y3480D02*
X4784Y3480D01*
X4953Y3480D02*
X12101Y3480D01*
X13299Y3480D02*
X14128Y3480D01*
X15164Y3480D02*
X15316Y3480D01*
X16352Y3480D02*
X19721Y3480D01*
X20919Y3480D02*
X21748Y3480D01*
X22784Y3480D02*
X22936Y3480D01*
X23972Y3480D02*
X35027Y3480D01*
X0533Y3529D02*
X4414Y3529D01*
X4632Y3529D02*
X4784Y3529D01*
X5002Y3529D02*
X12195Y3529D01*
X13205Y3529D02*
X14145Y3529D01*
X15164Y3529D02*
X15316Y3529D01*
X16335Y3529D02*
X19815Y3529D01*
X20825Y3529D02*
X21765Y3529D01*
X22784Y3529D02*
X22936Y3529D01*
X23955Y3529D02*
X35027Y3529D01*
X0533Y3579D02*
X4364Y3579D01*
X4632Y3579D02*
X4784Y3579D01*
X5052Y3579D02*
X12290Y3579D01*
X13110Y3579D02*
X14178Y3579D01*
X15164Y3579D02*
X15316Y3579D01*
X16302Y3579D02*
X19910Y3579D01*
X20730Y3579D02*
X21798Y3579D01*
X22784Y3579D02*
X22936Y3579D01*
X23922Y3579D02*
X35027Y3579D01*
X0533Y3628D02*
X4315Y3628D01*
X4632Y3628D02*
X4784Y3628D01*
X5101Y3628D02*
X12475Y3628D01*
X12925Y3628D02*
X14238Y3628D01*
X15164Y3628D02*
X15316Y3628D01*
X16242Y3628D02*
X20095Y3628D01*
X20545Y3628D02*
X21858Y3628D01*
X22784Y3628D02*
X22936Y3628D01*
X23862Y3628D02*
X35027Y3628D01*
X0533Y3678D02*
X4265Y3678D01*
X4632Y3678D02*
X4784Y3678D01*
X5151Y3678D02*
X35027Y3678D01*
X0533Y3727D02*
X4216Y3727D01*
X5200Y3727D02*
X30631Y3727D01*
X31072Y3727D02*
X35027Y3727D01*
X0533Y3777D02*
X4166Y3777D01*
X5250Y3777D02*
X30444Y3777D01*
X31260Y3777D02*
X35027Y3777D01*
X0533Y3827D02*
X4117Y3827D01*
X5299Y3827D02*
X30349Y3827D01*
X31355Y3827D02*
X35027Y3827D01*
X0533Y3876D02*
X4067Y3876D01*
X5349Y3876D02*
X30255Y3876D01*
X31449Y3876D02*
X35027Y3876D01*
X0533Y3926D02*
X4017Y3926D01*
X5399Y3926D02*
X30183Y3926D01*
X31521Y3926D02*
X35027Y3926D01*
X0533Y3975D02*
X3968Y3975D01*
X5448Y3975D02*
X30127Y3975D01*
X31577Y3975D02*
X35027Y3975D01*
X0533Y4025D02*
X3918Y4025D01*
X5498Y4025D02*
X30071Y4025D01*
X31632Y4025D02*
X35027Y4025D01*
X0533Y4074D02*
X3869Y4074D01*
X5547Y4074D02*
X30016Y4074D01*
X31688Y4074D02*
X35027Y4074D01*
X0533Y4124D02*
X3819Y4124D01*
X5597Y4124D02*
X29981Y4124D01*
X31723Y4124D02*
X35027Y4124D01*
X0533Y4173D02*
X3770Y4173D01*
X5646Y4173D02*
X29947Y4173D01*
X31757Y4173D02*
X35027Y4173D01*
X0533Y4223D02*
X3720Y4223D01*
X5696Y4223D02*
X29913Y4223D01*
X31791Y4223D02*
X35027Y4223D01*
X0533Y4272D02*
X3671Y4272D01*
X5745Y4272D02*
X29878Y4272D01*
X31826Y4272D02*
X35027Y4272D01*
X0533Y4322D02*
X3621Y4322D01*
X5795Y4322D02*
X29852Y4322D01*
X31852Y4322D02*
X35027Y4322D01*
X0533Y4371D02*
X3572Y4371D01*
X5844Y4371D02*
X29833Y4371D01*
X31871Y4371D02*
X35027Y4371D01*
X0533Y4421D02*
X3522Y4421D01*
X5894Y4421D02*
X29814Y4421D01*
X31890Y4421D02*
X35027Y4421D01*
X0533Y4470D02*
X3473Y4470D01*
X5943Y4470D02*
X29796Y4470D01*
X31908Y4470D02*
X35027Y4470D01*
X0533Y4520D02*
X3423Y4520D01*
X5993Y4520D02*
X29777Y4520D01*
X31927Y4520D02*
X35027Y4520D01*
X0533Y4569D02*
X3374Y4569D01*
X6042Y4569D02*
X29763Y4569D01*
X31941Y4569D02*
X35027Y4569D01*
X0533Y4619D02*
X3324Y4619D01*
X6092Y4619D02*
X29757Y4619D01*
X31947Y4619D02*
X35027Y4619D01*
X0533Y4669D02*
X3276Y4669D01*
X6140Y4669D02*
X29751Y4669D01*
X31953Y4669D02*
X35027Y4669D01*
X0533Y4718D02*
X3247Y4718D01*
X6169Y4718D02*
X29745Y4718D01*
X31959Y4718D02*
X35027Y4718D01*
X0533Y4768D02*
X3578Y4768D01*
X5838Y4768D02*
X29739Y4768D01*
X31965Y4768D02*
X35027Y4768D01*
X0533Y4817D02*
X3578Y4817D01*
X5838Y4817D02*
X29733Y4817D01*
X31971Y4817D02*
X35027Y4817D01*
X0533Y4867D02*
X3578Y4867D01*
X5838Y4867D02*
X29739Y4867D01*
X31965Y4867D02*
X35027Y4867D01*
X0533Y4916D02*
X3247Y4916D01*
X6170Y4916D02*
X29745Y4916D01*
X31959Y4916D02*
X35027Y4916D01*
X0533Y4966D02*
X3277Y4966D01*
X6139Y4966D02*
X29751Y4966D01*
X31953Y4966D02*
X35027Y4966D01*
X0533Y5015D02*
X3324Y5015D01*
X6092Y5015D02*
X29757Y5015D01*
X31947Y5015D02*
X35027Y5015D01*
X0533Y5065D02*
X3374Y5065D01*
X6042Y5065D02*
X29763Y5065D01*
X31941Y5065D02*
X35027Y5065D01*
X0533Y5114D02*
X3423Y5114D01*
X5993Y5114D02*
X29777Y5114D01*
X31927Y5114D02*
X35027Y5114D01*
X0533Y5164D02*
X3473Y5164D01*
X5943Y5164D02*
X29796Y5164D01*
X31908Y5164D02*
X32523Y5164D01*
X32571Y5164D02*
X32725Y5164D01*
X32773Y5164D02*
X35027Y5164D01*
X0533Y5213D02*
X3522Y5213D01*
X5894Y5213D02*
X29814Y5213D01*
X31889Y5213D02*
X32466Y5213D01*
X32572Y5213D02*
X32724Y5213D01*
X32830Y5213D02*
X35027Y5213D01*
X0533Y5263D02*
X3572Y5263D01*
X5844Y5263D02*
X29833Y5263D01*
X31871Y5263D02*
X32416Y5263D01*
X32572Y5263D02*
X32724Y5263D01*
X32880Y5263D02*
X35027Y5263D01*
X0533Y5312D02*
X3622Y5312D01*
X5795Y5312D02*
X29852Y5312D01*
X31852Y5312D02*
X32367Y5312D01*
X32572Y5312D02*
X32724Y5312D01*
X32929Y5312D02*
X35027Y5312D01*
X0533Y5362D02*
X3671Y5362D01*
X5745Y5362D02*
X29879Y5362D01*
X31825Y5362D02*
X32317Y5362D01*
X32572Y5362D02*
X32724Y5362D01*
X32979Y5362D02*
X35027Y5362D01*
X0533Y5411D02*
X3721Y5411D01*
X5695Y5411D02*
X29913Y5411D01*
X31791Y5411D02*
X32268Y5411D01*
X32572Y5411D02*
X32724Y5411D01*
X33028Y5411D02*
X35027Y5411D01*
X0533Y5461D02*
X3770Y5461D01*
X5646Y5461D02*
X29947Y5461D01*
X31757Y5461D02*
X32218Y5461D01*
X32572Y5461D02*
X32724Y5461D01*
X33078Y5461D02*
X35027Y5461D01*
X0533Y5511D02*
X2744Y5511D01*
X3080Y5511D02*
X3820Y5511D01*
X5596Y5511D02*
X29981Y5511D01*
X31723Y5511D02*
X32169Y5511D01*
X33127Y5511D02*
X35027Y5511D01*
X0533Y5560D02*
X2543Y5560D01*
X3281Y5560D02*
X3869Y5560D01*
X5547Y5560D02*
X30016Y5560D01*
X31688Y5560D02*
X32119Y5560D01*
X33177Y5560D02*
X35027Y5560D01*
X0533Y5610D02*
X2434Y5610D01*
X3390Y5610D02*
X3919Y5610D01*
X5497Y5610D02*
X30072Y5610D01*
X31632Y5610D02*
X32070Y5610D01*
X33227Y5610D02*
X35027Y5610D01*
X0533Y5659D02*
X2340Y5659D01*
X3484Y5659D02*
X3968Y5659D01*
X5448Y5659D02*
X30128Y5659D01*
X31576Y5659D02*
X32020Y5659D01*
X33276Y5659D02*
X35027Y5659D01*
X0533Y5709D02*
X2258Y5709D01*
X3566Y5709D02*
X4018Y5709D01*
X5398Y5709D02*
X30184Y5709D01*
X31520Y5709D02*
X31970Y5709D01*
X33326Y5709D02*
X35027Y5709D01*
X0533Y5758D02*
X2202Y5758D01*
X3622Y5758D02*
X4067Y5758D01*
X5349Y5758D02*
X30255Y5758D01*
X31449Y5758D02*
X31921Y5758D01*
X33375Y5758D02*
X35027Y5758D01*
X0533Y5808D02*
X2146Y5808D01*
X3678Y5808D02*
X4117Y5808D01*
X5299Y5808D02*
X30350Y5808D01*
X31354Y5808D02*
X31871Y5808D01*
X33425Y5808D02*
X35027Y5808D01*
X0533Y5857D02*
X2090Y5857D01*
X3734Y5857D02*
X4166Y5857D01*
X5250Y5857D02*
X30444Y5857D01*
X31260Y5857D02*
X31822Y5857D01*
X33474Y5857D02*
X35027Y5857D01*
X0533Y5907D02*
X2050Y5907D01*
X3774Y5907D02*
X4216Y5907D01*
X5200Y5907D02*
X30633Y5907D01*
X31071Y5907D02*
X31772Y5907D01*
X33524Y5907D02*
X35027Y5907D01*
X0533Y5956D02*
X2016Y5956D01*
X3808Y5956D02*
X4265Y5956D01*
X5151Y5956D02*
X31723Y5956D01*
X33573Y5956D02*
X35027Y5956D01*
X0533Y6006D02*
X1982Y6006D01*
X3842Y6006D02*
X4315Y6006D01*
X4632Y6006D02*
X4784Y6006D01*
X5101Y6006D02*
X31673Y6006D01*
X33623Y6006D02*
X35027Y6006D01*
X0533Y6055D02*
X1947Y6055D01*
X3877Y6055D02*
X4364Y6055D01*
X4632Y6055D02*
X4784Y6055D01*
X5052Y6055D02*
X31624Y6055D01*
X33672Y6055D02*
X35027Y6055D01*
X0533Y6105D02*
X1917Y6105D01*
X3907Y6105D02*
X4414Y6105D01*
X4632Y6105D02*
X4784Y6105D01*
X5002Y6105D02*
X31574Y6105D01*
X33722Y6105D02*
X35027Y6105D01*
X0533Y6154D02*
X1898Y6154D01*
X3926Y6154D02*
X4464Y6154D01*
X4632Y6154D02*
X4784Y6154D01*
X4953Y6154D02*
X31525Y6154D01*
X33771Y6154D02*
X35027Y6154D01*
X0533Y6204D02*
X1879Y6204D01*
X3945Y6204D02*
X4513Y6204D01*
X4632Y6204D02*
X4784Y6204D01*
X4903Y6204D02*
X31475Y6204D01*
X33821Y6204D02*
X35027Y6204D01*
X0533Y6253D02*
X1861Y6253D01*
X3963Y6253D02*
X4565Y6253D01*
X4632Y6253D02*
X4784Y6253D01*
X4851Y6253D02*
X31426Y6253D01*
X33870Y6253D02*
X35027Y6253D01*
X0533Y6303D02*
X1842Y6303D01*
X3982Y6303D02*
X31376Y6303D01*
X33920Y6303D02*
X35027Y6303D01*
X0533Y6353D02*
X1825Y6353D01*
X3999Y6353D02*
X31327Y6353D01*
X33969Y6353D02*
X35027Y6353D01*
X0533Y6402D02*
X1819Y6402D01*
X4005Y6402D02*
X31277Y6402D01*
X34019Y6402D02*
X35027Y6402D01*
X0533Y6452D02*
X1813Y6452D01*
X4011Y6452D02*
X31228Y6452D01*
X34068Y6452D02*
X35027Y6452D01*
X0533Y6501D02*
X1807Y6501D01*
X4017Y6501D02*
X31191Y6501D01*
X34105Y6501D02*
X35027Y6501D01*
X0533Y6551D02*
X1801Y6551D01*
X4023Y6551D02*
X31467Y6551D01*
X33829Y6551D02*
X35027Y6551D01*
X0533Y6600D02*
X1795Y6600D01*
X4029Y6600D02*
X31467Y6600D01*
X33829Y6600D02*
X35027Y6600D01*
X0533Y6650D02*
X1798Y6650D01*
X4026Y6650D02*
X31467Y6650D01*
X33829Y6650D02*
X35027Y6650D01*
X0533Y6699D02*
X1804Y6699D01*
X4020Y6699D02*
X31194Y6699D01*
X34102Y6699D02*
X35027Y6699D01*
X0533Y6749D02*
X1810Y6749D01*
X4014Y6749D02*
X31206Y6749D01*
X34090Y6749D02*
X35027Y6749D01*
X0533Y6798D02*
X1816Y6798D01*
X4008Y6798D02*
X31251Y6798D01*
X34045Y6798D02*
X35027Y6798D01*
X0533Y6848D02*
X1822Y6848D01*
X4002Y6848D02*
X31301Y6848D01*
X33995Y6848D02*
X35027Y6848D01*
X0533Y6897D02*
X1832Y6897D01*
X3992Y6897D02*
X31350Y6897D01*
X33946Y6897D02*
X35027Y6897D01*
X0533Y6947D02*
X1851Y6947D01*
X3973Y6947D02*
X31400Y6947D01*
X33896Y6947D02*
X35027Y6947D01*
X0533Y6996D02*
X1870Y6996D01*
X3954Y6996D02*
X31449Y6996D01*
X33847Y6996D02*
X35027Y6996D01*
X0533Y7046D02*
X1888Y7046D01*
X3936Y7046D02*
X31499Y7046D01*
X33797Y7046D02*
X35027Y7046D01*
X0533Y7095D02*
X1907Y7095D01*
X3917Y7095D02*
X31549Y7095D01*
X33747Y7095D02*
X35027Y7095D01*
X0533Y7145D02*
X1930Y7145D01*
X3894Y7145D02*
X31598Y7145D01*
X33698Y7145D02*
X35027Y7145D01*
X0533Y7195D02*
X1964Y7195D01*
X3860Y7195D02*
X31648Y7195D01*
X33648Y7195D02*
X35027Y7195D01*
X0533Y7244D02*
X1998Y7244D01*
X3826Y7244D02*
X31697Y7244D01*
X33599Y7244D02*
X35027Y7244D01*
X0533Y7294D02*
X2032Y7294D01*
X3792Y7294D02*
X31747Y7294D01*
X33549Y7294D02*
X35027Y7294D01*
X0533Y7343D02*
X2066Y7343D01*
X3758Y7343D02*
X31796Y7343D01*
X33500Y7343D02*
X35027Y7343D01*
X0533Y7393D02*
X2117Y7393D01*
X3707Y7393D02*
X31846Y7393D01*
X33450Y7393D02*
X35027Y7393D01*
X0533Y7442D02*
X2173Y7442D01*
X3651Y7442D02*
X31895Y7442D01*
X33401Y7442D02*
X35027Y7442D01*
X0533Y7492D02*
X2229Y7492D01*
X3595Y7492D02*
X31945Y7492D01*
X33351Y7492D02*
X35027Y7492D01*
X0533Y7541D02*
X2291Y7541D01*
X3533Y7541D02*
X31994Y7541D01*
X33302Y7541D02*
X35027Y7541D01*
X0533Y7591D02*
X2385Y7591D01*
X3439Y7591D02*
X32044Y7591D01*
X33252Y7591D02*
X35027Y7591D01*
X0533Y7640D02*
X2479Y7640D01*
X3344Y7640D02*
X32093Y7640D01*
X33203Y7640D02*
X35027Y7640D01*
X0533Y7690D02*
X2640Y7690D01*
X3184Y7690D02*
X32143Y7690D01*
X33153Y7690D02*
X35027Y7690D01*
X0533Y7739D02*
X32192Y7739D01*
X33104Y7739D02*
X35027Y7739D01*
X0533Y7789D02*
X32242Y7789D01*
X32572Y7789D02*
X32724Y7789D01*
X33054Y7789D02*
X35027Y7789D01*
X0533Y7838D02*
X32292Y7838D01*
X32572Y7838D02*
X32724Y7838D01*
X33005Y7838D02*
X35027Y7838D01*
X0533Y7888D02*
X32341Y7888D01*
X32572Y7888D02*
X32724Y7888D01*
X32955Y7888D02*
X35027Y7888D01*
X0533Y7938D02*
X32391Y7938D01*
X32572Y7938D02*
X32724Y7938D01*
X32905Y7938D02*
X35027Y7938D01*
X0533Y7987D02*
X32440Y7987D01*
X32572Y7987D02*
X32724Y7987D01*
X32856Y7987D02*
X35027Y7987D01*
X0533Y8037D02*
X32490Y8037D01*
X32572Y8037D02*
X32724Y8037D01*
X32806Y8037D02*
X35027Y8037D01*
X0533Y8086D02*
X35027Y8086D01*
X0533Y8136D02*
X35027Y8136D01*
X0533Y8185D02*
X35027Y8185D01*
X0533Y8235D02*
X35027Y8235D01*
X0533Y8284D02*
X35027Y8284D01*
X0533Y8334D02*
X35027Y8334D01*
X0533Y8383D02*
X35027Y8383D01*
X0533Y8433D02*
X35027Y8433D01*
X0533Y8482D02*
X35027Y8482D01*
X0533Y8532D02*
X35027Y8532D01*
X0533Y8581D02*
X35027Y8581D01*
X0533Y8631D02*
X35027Y8631D01*
X0533Y8680D02*
X35027Y8680D01*
X0533Y8730D02*
X35027Y8730D01*
X0533Y8780D02*
X35027Y8780D01*
X0533Y8829D02*
X35027Y8829D01*
X0533Y8879D02*
X35027Y8879D01*
X0533Y8928D02*
X35027Y8928D01*
X0533Y8978D02*
X35027Y8978D01*
X0533Y9027D02*
X35027Y9027D01*
X0533Y9077D02*
X35027Y9077D01*
X0533Y9126D02*
X35027Y9126D01*
X0533Y9176D02*
X35027Y9176D01*
X0533Y9225D02*
X17558Y9225D01*
X17703Y9225D02*
X17857Y9225D01*
X18002Y9225D02*
X35027Y9225D01*
X0533Y9275D02*
X17230Y9275D01*
X17704Y9275D02*
X17856Y9275D01*
X18330Y9275D02*
X35027Y9275D01*
X0533Y9324D02*
X17089Y9324D01*
X17704Y9324D02*
X17856Y9324D01*
X18471Y9324D02*
X35027Y9324D01*
X0533Y9374D02*
X16947Y9374D01*
X17704Y9374D02*
X17856Y9374D01*
X18613Y9374D02*
X35027Y9374D01*
X0533Y9423D02*
X16809Y9423D01*
X17704Y9423D02*
X17856Y9423D01*
X18751Y9423D02*
X35027Y9423D01*
X0533Y9473D02*
X16730Y9473D01*
X18830Y9473D02*
X35027Y9473D01*
X0533Y9522D02*
X16651Y9522D01*
X18909Y9522D02*
X35027Y9522D01*
X0533Y9572D02*
X16572Y9572D01*
X18988Y9572D02*
X35027Y9572D01*
X0533Y9622D02*
X16494Y9622D01*
X19066Y9622D02*
X35027Y9622D01*
X0533Y9671D02*
X16415Y9671D01*
X19145Y9671D02*
X35027Y9671D01*
X0533Y9721D02*
X16356Y9721D01*
X19204Y9721D02*
X35027Y9721D01*
X0533Y9770D02*
X16306Y9770D01*
X19254Y9770D02*
X35027Y9770D01*
X0533Y9820D02*
X16257Y9820D01*
X19303Y9820D02*
X35027Y9820D01*
X0533Y9869D02*
X16207Y9869D01*
X19353Y9869D02*
X35027Y9869D01*
X0533Y9919D02*
X16158Y9919D01*
X19402Y9919D02*
X35027Y9919D01*
X0533Y9968D02*
X16108Y9968D01*
X19452Y9968D02*
X35027Y9968D01*
X0533Y10018D02*
X16059Y10018D01*
X19501Y10018D02*
X35027Y10018D01*
X0533Y10067D02*
X16019Y10067D01*
X19541Y10067D02*
X35027Y10067D01*
X0533Y10117D02*
X15988Y10117D01*
X19572Y10117D02*
X35027Y10117D01*
X0533Y10166D02*
X15957Y10166D01*
X19603Y10166D02*
X35027Y10166D01*
X0533Y10216D02*
X15926Y10216D01*
X19634Y10216D02*
X35027Y10216D01*
X0533Y10265D02*
X15895Y10265D01*
X19665Y10265D02*
X35027Y10265D01*
X0533Y10315D02*
X15864Y10315D01*
X19696Y10315D02*
X35027Y10315D01*
X0533Y10364D02*
X15833Y10364D01*
X19727Y10364D02*
X35027Y10364D01*
X0533Y10414D02*
X15802Y10414D01*
X19758Y10414D02*
X35027Y10414D01*
X0533Y10464D02*
X15771Y10464D01*
X19789Y10464D02*
X35027Y10464D01*
X0533Y10513D02*
X15753Y10513D01*
X19807Y10513D02*
X35027Y10513D01*
X0533Y10563D02*
X15736Y10563D01*
X19824Y10563D02*
X35027Y10563D01*
X0533Y10612D02*
X15719Y10612D01*
X19841Y10612D02*
X35027Y10612D01*
X0533Y10662D02*
X15701Y10662D01*
X19859Y10662D02*
X35027Y10662D01*
X0533Y10711D02*
X15684Y10711D01*
X19876Y10711D02*
X35027Y10711D01*
X0533Y10761D02*
X15667Y10761D01*
X19893Y10761D02*
X35027Y10761D01*
X0533Y10810D02*
X15649Y10810D01*
X19911Y10810D02*
X35027Y10810D01*
X0533Y10860D02*
X15632Y10860D01*
X19928Y10860D02*
X35027Y10860D01*
X0533Y10909D02*
X15615Y10909D01*
X19945Y10909D02*
X35027Y10909D01*
X0533Y10959D02*
X15603Y10959D01*
X19957Y10959D02*
X35027Y10959D01*
X0533Y11008D02*
X15598Y11008D01*
X19962Y11008D02*
X35027Y11008D01*
X0533Y11058D02*
X15592Y11058D01*
X19968Y11058D02*
X35027Y11058D01*
X0533Y11107D02*
X15587Y11107D01*
X19973Y11107D02*
X35027Y11107D01*
X0533Y11157D02*
X15581Y11157D01*
X19979Y11157D02*
X35027Y11157D01*
X0533Y11206D02*
X15575Y11206D01*
X19985Y11206D02*
X35027Y11206D01*
X0533Y11256D02*
X15570Y11256D01*
X19990Y11256D02*
X35027Y11256D01*
X0533Y11306D02*
X15564Y11306D01*
X19996Y11306D02*
X35027Y11306D01*
X0533Y11355D02*
X15805Y11355D01*
X19755Y11355D02*
X35027Y11355D01*
X0533Y11405D02*
X15805Y11405D01*
X19755Y11405D02*
X35027Y11405D01*
X0533Y11454D02*
X15805Y11454D01*
X19755Y11454D02*
X35027Y11454D01*
X0533Y11504D02*
X15805Y11504D01*
X19755Y11504D02*
X35027Y11504D01*
X0533Y11553D02*
X15564Y11553D01*
X19996Y11553D02*
X35027Y11553D01*
X0533Y11603D02*
X1556Y11603D01*
X2464Y11603D02*
X2616Y11603D01*
X3524Y11603D02*
X15570Y11603D01*
X19990Y11603D02*
X32831Y11603D01*
X33209Y11603D02*
X35027Y11603D01*
X0533Y11652D02*
X1485Y11652D01*
X2464Y11652D02*
X2616Y11652D01*
X3595Y11652D02*
X15575Y11652D01*
X19985Y11652D02*
X32630Y11652D01*
X33410Y11652D02*
X35027Y11652D01*
X0533Y11702D02*
X1449Y11702D01*
X2464Y11702D02*
X2616Y11702D01*
X3631Y11702D02*
X15581Y11702D01*
X19979Y11702D02*
X32532Y11702D01*
X33508Y11702D02*
X35027Y11702D01*
X0533Y11751D02*
X1430Y11751D01*
X2464Y11751D02*
X2616Y11751D01*
X3650Y11751D02*
X15586Y11751D01*
X19974Y11751D02*
X32438Y11751D01*
X33602Y11751D02*
X35027Y11751D01*
X0533Y11801D02*
X1422Y11801D01*
X2464Y11801D02*
X2616Y11801D01*
X3658Y11801D02*
X15592Y11801D01*
X19968Y11801D02*
X32360Y11801D01*
X33680Y11801D02*
X35027Y11801D01*
X0533Y11850D02*
X1421Y11850D01*
X3659Y11850D02*
X15598Y11850D01*
X19962Y11850D02*
X32304Y11850D01*
X33736Y11850D02*
X35027Y11850D01*
X0533Y11900D02*
X1421Y11900D01*
X3659Y11900D02*
X15603Y11900D01*
X19957Y11900D02*
X32248Y11900D01*
X33792Y11900D02*
X35027Y11900D01*
X0533Y11949D02*
X1421Y11949D01*
X3659Y11949D02*
X15614Y11949D01*
X19946Y11949D02*
X32192Y11949D01*
X33848Y11949D02*
X35027Y11949D01*
X0533Y11999D02*
X1421Y11999D01*
X3659Y11999D02*
X15632Y11999D01*
X19928Y11999D02*
X32154Y11999D01*
X33886Y11999D02*
X35027Y11999D01*
X0533Y12048D02*
X1421Y12048D01*
X3659Y12048D02*
X15649Y12048D01*
X19911Y12048D02*
X32120Y12048D01*
X33920Y12048D02*
X35027Y12048D01*
X0533Y12098D02*
X1421Y12098D01*
X3659Y12098D02*
X15666Y12098D01*
X19894Y12098D02*
X32086Y12098D01*
X33954Y12098D02*
X35027Y12098D01*
X0533Y12148D02*
X1421Y12148D01*
X3659Y12148D02*
X15684Y12148D01*
X19876Y12148D02*
X32052Y12148D01*
X33988Y12148D02*
X35027Y12148D01*
X0533Y12197D02*
X1421Y12197D01*
X3659Y12197D02*
X15701Y12197D01*
X19859Y12197D02*
X32023Y12197D01*
X34017Y12197D02*
X35027Y12197D01*
X0533Y12247D02*
X1421Y12247D01*
X3659Y12247D02*
X15718Y12247D01*
X19842Y12247D02*
X32004Y12247D01*
X34036Y12247D02*
X35027Y12247D01*
X0533Y12296D02*
X1421Y12296D01*
X3659Y12296D02*
X15736Y12296D01*
X19824Y12296D02*
X31985Y12296D01*
X34055Y12296D02*
X35027Y12296D01*
X0533Y12346D02*
X1421Y12346D01*
X3659Y12346D02*
X15753Y12346D01*
X19807Y12346D02*
X31967Y12346D01*
X34073Y12346D02*
X35027Y12346D01*
X0533Y12395D02*
X1421Y12395D01*
X3659Y12395D02*
X15770Y12395D01*
X19790Y12395D02*
X31948Y12395D01*
X34092Y12395D02*
X35027Y12395D01*
X0533Y12445D02*
X1421Y12445D01*
X3659Y12445D02*
X15801Y12445D01*
X19759Y12445D02*
X31932Y12445D01*
X34108Y12445D02*
X35027Y12445D01*
X0533Y12494D02*
X1421Y12494D01*
X3659Y12494D02*
X15832Y12494D01*
X19728Y12494D02*
X31926Y12494D01*
X34114Y12494D02*
X35027Y12494D01*
X0533Y12544D02*
X1421Y12544D01*
X3659Y12544D02*
X15863Y12544D01*
X19697Y12544D02*
X31920Y12544D01*
X34120Y12544D02*
X35027Y12544D01*
X0533Y12593D02*
X1421Y12593D01*
X3659Y12593D02*
X15894Y12593D01*
X19666Y12593D02*
X31914Y12593D01*
X34126Y12593D02*
X35027Y12593D01*
X0533Y12643D02*
X1676Y12643D01*
X3404Y12643D02*
X15925Y12643D01*
X19635Y12643D02*
X31908Y12643D01*
X34132Y12643D02*
X35027Y12643D01*
X0533Y12692D02*
X1676Y12692D01*
X3404Y12692D02*
X15956Y12692D01*
X19604Y12692D02*
X31902Y12692D01*
X34138Y12692D02*
X35027Y12692D01*
X0533Y12742D02*
X1676Y12742D01*
X3404Y12742D02*
X15987Y12742D01*
X19573Y12742D02*
X31906Y12742D01*
X34134Y12742D02*
X35027Y12742D01*
X0533Y12791D02*
X1421Y12791D01*
X3659Y12791D02*
X16019Y12791D01*
X19541Y12791D02*
X31912Y12791D01*
X34128Y12791D02*
X35027Y12791D01*
X0533Y12841D02*
X1421Y12841D01*
X3659Y12841D02*
X16057Y12841D01*
X19503Y12841D02*
X31918Y12841D01*
X34122Y12841D02*
X35027Y12841D01*
X0533Y12890D02*
X1421Y12890D01*
X3659Y12890D02*
X16107Y12890D01*
X19453Y12890D02*
X31924Y12890D01*
X34116Y12890D02*
X35027Y12890D01*
X0533Y12940D02*
X1421Y12940D01*
X3659Y12940D02*
X16156Y12940D01*
X19403Y12940D02*
X31930Y12940D01*
X34110Y12940D02*
X35027Y12940D01*
X0533Y12990D02*
X1421Y12990D01*
X3659Y12990D02*
X16206Y12990D01*
X19354Y12990D02*
X31942Y12990D01*
X34098Y12990D02*
X35027Y12990D01*
X0533Y13039D02*
X1421Y13039D01*
X3659Y13039D02*
X16256Y13039D01*
X19304Y13039D02*
X31961Y13039D01*
X34079Y13039D02*
X35027Y13039D01*
X0533Y13089D02*
X1421Y13089D01*
X3659Y13089D02*
X16305Y13089D01*
X19255Y13089D02*
X31980Y13089D01*
X34060Y13089D02*
X35027Y13089D01*
X0533Y13138D02*
X1421Y13138D01*
X3659Y13138D02*
X16355Y13138D01*
X19205Y13138D02*
X31998Y13138D01*
X34042Y13138D02*
X35027Y13138D01*
X0533Y13188D02*
X1421Y13188D01*
X3659Y13188D02*
X16413Y13188D01*
X19147Y13188D02*
X32017Y13188D01*
X34023Y13188D02*
X35027Y13188D01*
X0533Y13237D02*
X1421Y13237D01*
X3659Y13237D02*
X16491Y13237D01*
X19069Y13237D02*
X32041Y13237D01*
X33999Y13237D02*
X35027Y13237D01*
X0533Y13287D02*
X1421Y13287D01*
X3659Y13287D02*
X16570Y13287D01*
X18990Y13287D02*
X32075Y13287D01*
X33965Y13287D02*
X35027Y13287D01*
X0533Y13336D02*
X1421Y13336D01*
X3659Y13336D02*
X16649Y13336D01*
X18911Y13336D02*
X32110Y13336D01*
X33930Y13336D02*
X35027Y13336D01*
X0533Y13386D02*
X1421Y13386D01*
X3659Y13386D02*
X16728Y13386D01*
X18832Y13386D02*
X32144Y13386D01*
X33896Y13386D02*
X35027Y13386D01*
X0533Y13435D02*
X1421Y13435D01*
X3659Y13435D02*
X16807Y13435D01*
X17704Y13435D02*
X17856Y13435D01*
X18753Y13435D02*
X32178Y13435D01*
X33862Y13435D02*
X35027Y13435D01*
X0533Y13485D02*
X1421Y13485D01*
X3659Y13485D02*
X16944Y13485D01*
X17704Y13485D02*
X17856Y13485D01*
X18616Y13485D02*
X32231Y13485D01*
X33809Y13485D02*
X35027Y13485D01*
X0533Y13534D02*
X1421Y13534D01*
X3659Y13534D02*
X17085Y13534D01*
X17704Y13534D02*
X17856Y13534D01*
X18475Y13534D02*
X32287Y13534D01*
X33753Y13534D02*
X35027Y13534D01*
X0533Y13584D02*
X1421Y13584D01*
X2464Y13584D02*
X2616Y13584D01*
X3659Y13584D02*
X17227Y13584D01*
X17704Y13584D02*
X17856Y13584D01*
X18333Y13584D02*
X32343Y13584D01*
X33697Y13584D02*
X35027Y13584D01*
X0533Y13633D02*
X1426Y13633D01*
X2464Y13633D02*
X2616Y13633D01*
X3654Y13633D02*
X17546Y13633D01*
X17704Y13633D02*
X17856Y13633D01*
X18014Y13633D02*
X32409Y13633D01*
X33631Y13633D02*
X35027Y13633D01*
X0533Y13683D02*
X1442Y13683D01*
X2464Y13683D02*
X2616Y13683D01*
X3638Y13683D02*
X32503Y13683D01*
X33537Y13683D02*
X35027Y13683D01*
X0533Y13733D02*
X1472Y13733D01*
X2464Y13733D02*
X2616Y13733D01*
X3608Y13733D02*
X32597Y13733D01*
X33443Y13733D02*
X35027Y13733D01*
X0533Y13782D02*
X1528Y13782D01*
X2464Y13782D02*
X2616Y13782D01*
X3552Y13782D02*
X32769Y13782D01*
X33271Y13782D02*
X35027Y13782D01*
X0533Y13832D02*
X35027Y13832D01*
X0533Y13881D02*
X35027Y13881D01*
X0533Y13931D02*
X35027Y13931D01*
X0533Y13980D02*
X35027Y13980D01*
X0533Y14030D02*
X35027Y14030D01*
X0533Y14079D02*
X35027Y14079D01*
X0533Y14129D02*
X32076Y14129D01*
X32936Y14129D02*
X33104Y14129D01*
X33964Y14129D02*
X35027Y14129D01*
X0533Y14178D02*
X2207Y14178D01*
X2873Y14178D02*
X31981Y14178D01*
X32944Y14178D02*
X33096Y14178D01*
X34059Y14178D02*
X35027Y14178D01*
X0533Y14228D02*
X2079Y14228D01*
X3001Y14228D02*
X31938Y14228D01*
X32944Y14228D02*
X33096Y14228D01*
X34102Y14228D02*
X35027Y14228D01*
X0533Y14277D02*
X1984Y14277D01*
X3096Y14277D02*
X31914Y14277D01*
X32944Y14277D02*
X33096Y14277D01*
X34126Y14277D02*
X35027Y14277D01*
X0533Y14327D02*
X1896Y14327D01*
X3184Y14327D02*
X31903Y14327D01*
X32944Y14327D02*
X33096Y14327D01*
X34137Y14327D02*
X35027Y14327D01*
X0533Y14376D02*
X1840Y14376D01*
X3240Y14376D02*
X31901Y14376D01*
X34139Y14376D02*
X35027Y14376D01*
X0533Y14426D02*
X1784Y14426D01*
X3296Y14426D02*
X31901Y14426D01*
X34139Y14426D02*
X35027Y14426D01*
X0533Y14475D02*
X1728Y14475D01*
X3352Y14475D02*
X31901Y14475D01*
X34139Y14475D02*
X35027Y14475D01*
X0533Y14525D02*
X1684Y14525D01*
X3396Y14525D02*
X31901Y14525D01*
X34139Y14525D02*
X35027Y14525D01*
X0533Y14575D02*
X1650Y14575D01*
X3430Y14575D02*
X31901Y14575D01*
X34139Y14575D02*
X35027Y14575D01*
X0533Y14624D02*
X1616Y14624D01*
X3464Y14624D02*
X31901Y14624D01*
X34139Y14624D02*
X35027Y14624D01*
X0533Y14674D02*
X1581Y14674D01*
X3499Y14674D02*
X31901Y14674D01*
X34139Y14674D02*
X35027Y14674D01*
X0533Y14723D02*
X1548Y14723D01*
X3532Y14723D02*
X31901Y14723D01*
X34139Y14723D02*
X35027Y14723D01*
X0533Y14773D02*
X1529Y14773D01*
X3551Y14773D02*
X31901Y14773D01*
X34139Y14773D02*
X35027Y14773D01*
X0533Y14822D02*
X1511Y14822D01*
X3569Y14822D02*
X31901Y14822D01*
X34139Y14822D02*
X35027Y14822D01*
X0533Y14872D02*
X1492Y14872D01*
X3588Y14872D02*
X31901Y14872D01*
X34139Y14872D02*
X35027Y14872D01*
X0533Y14921D02*
X1473Y14921D01*
X3607Y14921D02*
X31901Y14921D01*
X34139Y14921D02*
X35027Y14921D01*
X0533Y14971D02*
X1454Y14971D01*
X3626Y14971D02*
X31901Y14971D01*
X34139Y14971D02*
X35027Y14971D01*
X0533Y15020D02*
X1448Y15020D01*
X3632Y15020D02*
X31901Y15020D01*
X34139Y15020D02*
X35027Y15020D01*
X0533Y15070D02*
X1442Y15070D01*
X3638Y15070D02*
X31901Y15070D01*
X34139Y15070D02*
X35027Y15070D01*
X0533Y15119D02*
X1436Y15119D01*
X3644Y15119D02*
X31901Y15119D01*
X34139Y15119D02*
X35027Y15119D01*
X0533Y15169D02*
X1430Y15169D01*
X3650Y15169D02*
X32156Y15169D01*
X33884Y15169D02*
X35027Y15169D01*
X0533Y15218D02*
X1424Y15218D01*
X3656Y15218D02*
X32156Y15218D01*
X33884Y15218D02*
X35027Y15218D01*
X0533Y15268D02*
X1425Y15268D01*
X3655Y15268D02*
X32156Y15268D01*
X33884Y15268D02*
X35027Y15268D01*
X0533Y15317D02*
X1431Y15317D01*
X3649Y15317D02*
X31915Y15317D01*
X34125Y15317D02*
X35027Y15317D01*
X0533Y15367D02*
X1437Y15367D01*
X3643Y15367D02*
X31901Y15367D01*
X34139Y15367D02*
X35027Y15367D01*
X0533Y15417D02*
X1443Y15417D01*
X3637Y15417D02*
X31901Y15417D01*
X34139Y15417D02*
X35027Y15417D01*
X0533Y15466D02*
X1449Y15466D01*
X3631Y15466D02*
X31901Y15466D01*
X34139Y15466D02*
X35027Y15466D01*
X0533Y15516D02*
X1457Y15516D01*
X3623Y15516D02*
X31901Y15516D01*
X34139Y15516D02*
X35027Y15516D01*
X0533Y15565D02*
X1475Y15565D01*
X3605Y15565D02*
X31901Y15565D01*
X34139Y15565D02*
X35027Y15565D01*
X0533Y15615D02*
X1494Y15615D01*
X3586Y15615D02*
X31901Y15615D01*
X34139Y15615D02*
X35027Y15615D01*
X0533Y15664D02*
X1513Y15664D01*
X3567Y15664D02*
X31901Y15664D01*
X34139Y15664D02*
X35027Y15664D01*
X0533Y15714D02*
X1532Y15714D01*
X3548Y15714D02*
X31901Y15714D01*
X34139Y15714D02*
X35027Y15714D01*
X0533Y15763D02*
X1552Y15763D01*
X3528Y15763D02*
X31901Y15763D01*
X34139Y15763D02*
X35027Y15763D01*
X0533Y15813D02*
X1586Y15813D01*
X3494Y15813D02*
X31901Y15813D01*
X34139Y15813D02*
X35027Y15813D01*
X0533Y15862D02*
X1620Y15862D01*
X3460Y15862D02*
X31901Y15862D01*
X34139Y15862D02*
X35027Y15862D01*
X0533Y15912D02*
X1654Y15912D01*
X3426Y15912D02*
X31901Y15912D01*
X34139Y15912D02*
X35027Y15912D01*
X0533Y15961D02*
X1688Y15961D01*
X3392Y15961D02*
X31901Y15961D01*
X34139Y15961D02*
X35027Y15961D01*
X0533Y16011D02*
X1735Y16011D01*
X3345Y16011D02*
X31901Y16011D01*
X34139Y16011D02*
X35027Y16011D01*
X0533Y16060D02*
X1791Y16060D01*
X3289Y16060D02*
X31901Y16060D01*
X34139Y16060D02*
X35027Y16060D01*
X0533Y16110D02*
X1847Y16110D01*
X3233Y16110D02*
X31901Y16110D01*
X32944Y16110D02*
X33096Y16110D01*
X34139Y16110D02*
X35027Y16110D01*
X0533Y16159D02*
X1903Y16159D01*
X3177Y16159D02*
X31904Y16159D01*
X32944Y16159D02*
X33096Y16159D01*
X34136Y16159D02*
X35027Y16159D01*
X0533Y16209D02*
X1996Y16209D01*
X3084Y16209D02*
X31916Y16209D01*
X32944Y16209D02*
X33096Y16209D01*
X34124Y16209D02*
X35027Y16209D01*
X0533Y16259D02*
X2091Y16259D01*
X2989Y16259D02*
X31942Y16259D01*
X32944Y16259D02*
X33096Y16259D01*
X34098Y16259D02*
X35027Y16259D01*
X0533Y16308D02*
X2232Y16308D01*
X2848Y16308D02*
X31988Y16308D01*
X32944Y16308D02*
X33096Y16308D01*
X34052Y16308D02*
X35027Y16308D01*
X0533Y16358D02*
X32117Y16358D01*
X32930Y16358D02*
X33110Y16358D01*
X33923Y16358D02*
X35027Y16358D01*
X0533Y16407D02*
X35027Y16407D01*
X0533Y16457D02*
X35027Y16457D01*
X0533Y16506D02*
X35027Y16506D01*
X0533Y16556D02*
X35027Y16556D01*
X0533Y16605D02*
X35027Y16605D01*
X0533Y16655D02*
X35027Y16655D01*
X0533Y16704D02*
X35027Y16704D01*
X0533Y16754D02*
X35027Y16754D01*
X0533Y16803D02*
X35027Y16803D01*
X0533Y16853D02*
X35027Y16853D01*
X0533Y16902D02*
X35027Y16902D01*
X0533Y16952D02*
X35027Y16952D01*
X0533Y17001D02*
X35027Y17001D01*
X0533Y17051D02*
X35027Y17051D01*
X0533Y17101D02*
X35027Y17101D01*
X0533Y17150D02*
X35027Y17150D01*
X0533Y17200D02*
X35027Y17200D01*
X0533Y17249D02*
X35027Y17249D01*
X0533Y17299D02*
X35027Y17299D01*
X0533Y17348D02*
X35027Y17348D01*
X0533Y17398D02*
X35027Y17398D01*
X0533Y17447D02*
X35027Y17447D01*
X0533Y17497D02*
X35027Y17497D01*
X0533Y17546D02*
X35027Y17546D01*
X0533Y17596D02*
X35027Y17596D01*
X0533Y17645D02*
X35027Y17645D01*
X0533Y17695D02*
X35027Y17695D01*
X0533Y17744D02*
X35027Y17744D01*
X0533Y17794D02*
X35027Y17794D01*
X0533Y17843D02*
X35027Y17843D01*
X0533Y17893D02*
X35027Y17893D01*
X0533Y17943D02*
X35027Y17943D01*
X0533Y17992D02*
X35027Y17992D01*
X0533Y18042D02*
X35027Y18042D01*
X0533Y18091D02*
X35027Y18091D01*
X0533Y18141D02*
X35027Y18141D01*
X0533Y18190D02*
X35027Y18190D01*
X0533Y18240D02*
X35027Y18240D01*
X0533Y18289D02*
X35027Y18289D01*
X0533Y18339D02*
X35027Y18339D01*
X0533Y18388D02*
X35027Y18388D01*
X0533Y18438D02*
X35027Y18438D01*
X0533Y18487D02*
X35027Y18487D01*
X0533Y18537D02*
X35027Y18537D01*
X0533Y18586D02*
X35027Y18586D01*
X0533Y18636D02*
X35027Y18636D01*
X0533Y18686D02*
X35027Y18686D01*
X0533Y18735D02*
X35027Y18735D01*
X0533Y18785D02*
X35027Y18785D01*
X0533Y18834D02*
X35027Y18834D01*
X0533Y18884D02*
X35027Y18884D01*
X0533Y18933D02*
X35027Y18933D01*
X0533Y18983D02*
X35027Y18983D01*
X0533Y19032D02*
X35027Y19032D01*
X0533Y19082D02*
X35027Y19082D01*
X0533Y19131D02*
X35027Y19131D01*
X0533Y19181D02*
X35027Y19181D01*
X0533Y19230D02*
X35027Y19230D01*
X0533Y19280D02*
X35027Y19280D01*
X0533Y19329D02*
X35027Y19329D01*
X0533Y19379D02*
X35027Y19379D01*
X0533Y19428D02*
X35027Y19428D01*
X0533Y19478D02*
X35027Y19478D01*
X0533Y19528D02*
X35027Y19528D01*
X0533Y19577D02*
X35027Y19577D01*
X0533Y19627D02*
X35027Y19627D01*
X0533Y19676D02*
X35027Y19676D01*
X0533Y19726D02*
X35027Y19726D01*
X0533Y19775D02*
X35027Y19775D01*
X0533Y19825D02*
X35027Y19825D01*
X0533Y19874D02*
X35027Y19874D01*
X0533Y19924D02*
X35027Y19924D01*
X0533Y19973D02*
X35027Y19973D01*
X0533Y20023D02*
X35027Y20023D01*
X0533Y20072D02*
X35027Y20072D01*
X0533Y20122D02*
X35027Y20122D01*
X0533Y20171D02*
X35027Y20171D01*
X0533Y20221D02*
X35027Y20221D01*
X0533Y20270D02*
X35027Y20270D01*
X0533Y20320D02*
X35027Y20320D01*
X0533Y20370D02*
X35027Y20370D01*
X0533Y20419D02*
X35027Y20419D01*
X0533Y20469D02*
X35027Y20469D01*
X0533Y20518D02*
X1513Y20518D01*
X2464Y20518D02*
X2616Y20518D01*
X3567Y20518D02*
X32728Y20518D01*
X33312Y20518D02*
X35027Y20518D01*
X0533Y20568D02*
X1464Y20568D01*
X2464Y20568D02*
X2616Y20568D01*
X3616Y20568D02*
X32578Y20568D01*
X33462Y20568D02*
X35027Y20568D01*
X0533Y20617D02*
X1438Y20617D01*
X2464Y20617D02*
X2616Y20617D01*
X3642Y20617D02*
X32484Y20617D01*
X33556Y20617D02*
X35027Y20617D01*
X0533Y20667D02*
X1424Y20667D01*
X2464Y20667D02*
X2616Y20667D01*
X3656Y20667D02*
X32389Y20667D01*
X33651Y20667D02*
X35027Y20667D01*
X0533Y20716D02*
X1421Y20716D01*
X2464Y20716D02*
X2616Y20716D01*
X3659Y20716D02*
X32331Y20716D01*
X33709Y20716D02*
X35027Y20716D01*
X0533Y20766D02*
X1421Y20766D01*
X3659Y20766D02*
X32276Y20766D01*
X33764Y20766D02*
X35027Y20766D01*
X0533Y20815D02*
X1421Y20815D01*
X3659Y20815D02*
X32220Y20815D01*
X33820Y20815D02*
X35027Y20815D01*
X0533Y20865D02*
X1421Y20865D01*
X3659Y20865D02*
X32171Y20865D01*
X33869Y20865D02*
X35027Y20865D01*
X0533Y20914D02*
X1421Y20914D01*
X3659Y20914D02*
X32137Y20914D01*
X33903Y20914D02*
X35027Y20914D01*
X0533Y20964D02*
X1421Y20964D01*
X3659Y20964D02*
X32103Y20964D01*
X33937Y20964D02*
X35027Y20964D01*
X0533Y21013D02*
X1421Y21013D01*
X3659Y21013D02*
X32068Y21013D01*
X33972Y21013D02*
X35027Y21013D01*
X0533Y21063D02*
X1421Y21063D01*
X3659Y21063D02*
X32034Y21063D01*
X34006Y21063D02*
X35027Y21063D01*
X0533Y21112D02*
X1421Y21112D01*
X3659Y21112D02*
X32013Y21112D01*
X34027Y21112D02*
X35027Y21112D01*
X0533Y21162D02*
X1421Y21162D01*
X3659Y21162D02*
X31994Y21162D01*
X34046Y21162D02*
X35027Y21162D01*
X0533Y21212D02*
X1421Y21212D01*
X3659Y21212D02*
X31976Y21212D01*
X34064Y21212D02*
X35027Y21212D01*
X0533Y21261D02*
X1421Y21261D01*
X3659Y21261D02*
X31957Y21261D01*
X34083Y21261D02*
X35027Y21261D01*
X0533Y21311D02*
X1421Y21311D01*
X3659Y21311D02*
X31938Y21311D01*
X34102Y21311D02*
X35027Y21311D01*
X0533Y21360D02*
X1421Y21360D01*
X3659Y21360D02*
X31929Y21360D01*
X34111Y21360D02*
X35027Y21360D01*
X0533Y21410D02*
X1421Y21410D01*
X3659Y21410D02*
X31923Y21410D01*
X34117Y21410D02*
X35027Y21410D01*
X0533Y21459D02*
X1421Y21459D01*
X3659Y21459D02*
X31917Y21459D01*
X34123Y21459D02*
X35027Y21459D01*
X0533Y21509D02*
X1431Y21509D01*
X3649Y21509D02*
X31911Y21509D01*
X34129Y21509D02*
X35027Y21509D01*
X0533Y21558D02*
X1676Y21558D01*
X3404Y21558D02*
X31905Y21558D01*
X34135Y21558D02*
X35027Y21558D01*
X0533Y21608D02*
X1676Y21608D01*
X3404Y21608D02*
X31903Y21608D01*
X34137Y21608D02*
X35027Y21608D01*
X0533Y21657D02*
X1676Y21657D01*
X3404Y21657D02*
X31909Y21657D01*
X34131Y21657D02*
X35027Y21657D01*
X0533Y21707D02*
X1421Y21707D01*
X3659Y21707D02*
X31915Y21707D01*
X34125Y21707D02*
X35027Y21707D01*
X0533Y21756D02*
X1421Y21756D01*
X3659Y21756D02*
X31921Y21756D01*
X34119Y21756D02*
X35027Y21756D01*
X0533Y21806D02*
X1421Y21806D01*
X3659Y21806D02*
X31927Y21806D01*
X34113Y21806D02*
X35027Y21806D01*
X0533Y21855D02*
X1421Y21855D01*
X3659Y21855D02*
X31933Y21855D01*
X34107Y21855D02*
X35027Y21855D01*
X0533Y21905D02*
X1421Y21905D01*
X3659Y21905D02*
X31952Y21905D01*
X34088Y21905D02*
X35027Y21905D01*
X0533Y21954D02*
X1421Y21954D01*
X3659Y21954D02*
X31970Y21954D01*
X34070Y21954D02*
X35027Y21954D01*
X0533Y22004D02*
X1421Y22004D01*
X3659Y22004D02*
X31989Y22004D01*
X34051Y22004D02*
X35027Y22004D01*
X0533Y22054D02*
X1421Y22054D01*
X3659Y22054D02*
X32008Y22054D01*
X34032Y22054D02*
X35027Y22054D01*
X0533Y22103D02*
X1421Y22103D01*
X3659Y22103D02*
X32027Y22103D01*
X34013Y22103D02*
X35027Y22103D01*
X0533Y22153D02*
X1421Y22153D01*
X3659Y22153D02*
X32059Y22153D01*
X33981Y22153D02*
X35027Y22153D01*
X0533Y22202D02*
X1421Y22202D01*
X3659Y22202D02*
X32093Y22202D01*
X33947Y22202D02*
X35027Y22202D01*
X0533Y22252D02*
X1421Y22252D01*
X3659Y22252D02*
X32127Y22252D01*
X33913Y22252D02*
X35027Y22252D01*
X0533Y22301D02*
X1421Y22301D01*
X3659Y22301D02*
X32161Y22301D01*
X33879Y22301D02*
X35027Y22301D01*
X0533Y22351D02*
X1421Y22351D01*
X3659Y22351D02*
X32204Y22351D01*
X33836Y22351D02*
X35027Y22351D01*
X0533Y22400D02*
X1421Y22400D01*
X3659Y22400D02*
X32260Y22400D01*
X33780Y22400D02*
X35027Y22400D01*
X0533Y22450D02*
X1421Y22450D01*
X3659Y22450D02*
X32316Y22450D01*
X33724Y22450D02*
X35027Y22450D01*
X0533Y22499D02*
X1423Y22499D01*
X2464Y22499D02*
X2616Y22499D01*
X3657Y22499D02*
X32372Y22499D01*
X33668Y22499D02*
X35027Y22499D01*
X0533Y22549D02*
X1432Y22549D01*
X2464Y22549D02*
X2616Y22549D01*
X3648Y22549D02*
X32457Y22549D01*
X33583Y22549D02*
X35027Y22549D01*
X0533Y22598D02*
X1456Y22598D01*
X2464Y22598D02*
X2616Y22598D01*
X3624Y22598D02*
X32551Y22598D01*
X33489Y22598D02*
X35027Y22598D01*
X0533Y22648D02*
X1496Y22648D01*
X2464Y22648D02*
X2616Y22648D01*
X3584Y22648D02*
X32671Y22648D01*
X33369Y22648D02*
X35027Y22648D01*
X0533Y22697D02*
X1580Y22697D01*
X2460Y22697D02*
X2620Y22697D01*
X3500Y22697D02*
X32872Y22697D01*
X33168Y22697D02*
X35027Y22697D01*
X0533Y22747D02*
X35027Y22747D01*
X0533Y22797D02*
X35027Y22797D01*
X0533Y22846D02*
X35027Y22846D01*
X0533Y22896D02*
X35027Y22896D01*
X0533Y22945D02*
X35027Y22945D01*
X0533Y22995D02*
X35027Y22995D01*
X0533Y23044D02*
X2305Y23044D01*
X2775Y23044D02*
X32014Y23044D01*
X32944Y23044D02*
X33096Y23044D01*
X34026Y23044D02*
X35027Y23044D01*
X0533Y23094D02*
X2125Y23094D01*
X2955Y23094D02*
X31956Y23094D01*
X32944Y23094D02*
X33096Y23094D01*
X34084Y23094D02*
X35027Y23094D01*
X0533Y23143D02*
X2030Y23143D01*
X3050Y23143D02*
X31924Y23143D01*
X32944Y23143D02*
X33096Y23143D01*
X34116Y23143D02*
X35027Y23143D01*
X0533Y23193D02*
X1936Y23193D01*
X3144Y23193D02*
X31907Y23193D01*
X32944Y23193D02*
X33096Y23193D01*
X34133Y23193D02*
X35027Y23193D01*
X0533Y23242D02*
X1867Y23242D01*
X3213Y23242D02*
X31901Y23242D01*
X32944Y23242D02*
X33096Y23242D01*
X34139Y23242D02*
X35027Y23242D01*
X0533Y23292D02*
X1811Y23292D01*
X3269Y23292D02*
X31901Y23292D01*
X34139Y23292D02*
X35027Y23292D01*
X0533Y23341D02*
X1755Y23341D01*
X3325Y23341D02*
X31901Y23341D01*
X34139Y23341D02*
X35027Y23341D01*
X0533Y23391D02*
X1701Y23391D01*
X3379Y23391D02*
X31901Y23391D01*
X34139Y23391D02*
X35027Y23391D01*
X0533Y23440D02*
X1666Y23440D01*
X3414Y23440D02*
X31901Y23440D01*
X34139Y23440D02*
X35027Y23440D01*
X0533Y23490D02*
X1632Y23490D01*
X3448Y23490D02*
X31901Y23490D01*
X34139Y23490D02*
X35027Y23490D01*
X0533Y23539D02*
X1598Y23539D01*
X3482Y23539D02*
X31901Y23539D01*
X34139Y23539D02*
X35027Y23539D01*
X0533Y23589D02*
X1564Y23589D01*
X3516Y23589D02*
X31901Y23589D01*
X34139Y23589D02*
X35027Y23589D01*
X0533Y23639D02*
X1539Y23639D01*
X3541Y23639D02*
X31901Y23639D01*
X34139Y23639D02*
X35027Y23639D01*
X0533Y23688D02*
X1520Y23688D01*
X3560Y23688D02*
X31901Y23688D01*
X34139Y23688D02*
X35027Y23688D01*
X0533Y23738D02*
X1501Y23738D01*
X3579Y23738D02*
X31901Y23738D01*
X34139Y23738D02*
X35027Y23738D01*
X0533Y23787D02*
X1482Y23787D01*
X3598Y23787D02*
X31901Y23787D01*
X34139Y23787D02*
X35027Y23787D01*
X0533Y23837D02*
X1463Y23837D01*
X3617Y23837D02*
X31901Y23837D01*
X34139Y23837D02*
X35027Y23837D01*
X0533Y23886D02*
X1451Y23886D01*
X3629Y23886D02*
X31901Y23886D01*
X34139Y23886D02*
X35027Y23886D01*
X0533Y23936D02*
X1445Y23936D01*
X3635Y23936D02*
X31901Y23936D01*
X34139Y23936D02*
X35027Y23936D01*
X0533Y23985D02*
X1439Y23985D01*
X3641Y23985D02*
X31901Y23985D01*
X34139Y23985D02*
X35027Y23985D01*
X0533Y24035D02*
X1433Y24035D01*
X3647Y24035D02*
X31901Y24035D01*
X34139Y24035D02*
X35027Y24035D01*
X0533Y24084D02*
X1427Y24084D01*
X3653Y24084D02*
X32156Y24084D01*
X33884Y24084D02*
X35027Y24084D01*
X0533Y24134D02*
X1422Y24134D01*
X3658Y24134D02*
X32156Y24134D01*
X33884Y24134D02*
X35027Y24134D01*
X0533Y24183D02*
X1428Y24183D01*
X3652Y24183D02*
X32156Y24183D01*
X33884Y24183D02*
X35027Y24183D01*
X0533Y24233D02*
X1434Y24233D01*
X3646Y24233D02*
X31901Y24233D01*
X34139Y24233D02*
X35027Y24233D01*
X0533Y24282D02*
X1440Y24282D01*
X3640Y24282D02*
X31901Y24282D01*
X34139Y24282D02*
X35027Y24282D01*
X0533Y24332D02*
X1446Y24332D01*
X3634Y24332D02*
X31901Y24332D01*
X34139Y24332D02*
X35027Y24332D01*
X0533Y24381D02*
X1452Y24381D01*
X3628Y24381D02*
X31901Y24381D01*
X34139Y24381D02*
X35027Y24381D01*
X0533Y24431D02*
X1466Y24431D01*
X3614Y24431D02*
X31901Y24431D01*
X34139Y24431D02*
X35027Y24431D01*
X0533Y24481D02*
X1485Y24481D01*
X3595Y24481D02*
X31901Y24481D01*
X34139Y24481D02*
X35027Y24481D01*
X0533Y24530D02*
X1504Y24530D01*
X3576Y24530D02*
X31901Y24530D01*
X34139Y24530D02*
X35027Y24530D01*
X0533Y24580D02*
X1523Y24580D01*
X3557Y24580D02*
X31901Y24580D01*
X34139Y24580D02*
X35027Y24580D01*
X0533Y24629D02*
X1541Y24629D01*
X3539Y24629D02*
X31901Y24629D01*
X34139Y24629D02*
X35027Y24629D01*
X0533Y24679D02*
X1569Y24679D01*
X3511Y24679D02*
X31901Y24679D01*
X34139Y24679D02*
X35027Y24679D01*
X0533Y24728D02*
X1603Y24728D01*
X3477Y24728D02*
X31901Y24728D01*
X34139Y24728D02*
X35027Y24728D01*
X0533Y24778D02*
X1638Y24778D01*
X3442Y24778D02*
X31901Y24778D01*
X34139Y24778D02*
X35027Y24778D01*
X0533Y24827D02*
X1672Y24827D01*
X3408Y24827D02*
X31901Y24827D01*
X34139Y24827D02*
X35027Y24827D01*
X0533Y24877D02*
X1708Y24877D01*
X3372Y24877D02*
X31901Y24877D01*
X34139Y24877D02*
X35027Y24877D01*
X0533Y24926D02*
X1764Y24926D01*
X3316Y24926D02*
X31901Y24926D01*
X34139Y24926D02*
X35027Y24926D01*
X0533Y24976D02*
X1820Y24976D01*
X3260Y24976D02*
X31901Y24976D01*
X34139Y24976D02*
X35027Y24976D01*
X0533Y25025D02*
X1876Y25025D01*
X3204Y25025D02*
X31902Y25025D01*
X32944Y25025D02*
X33096Y25025D01*
X34138Y25025D02*
X35027Y25025D01*
X0533Y25075D02*
X1950Y25075D01*
X3130Y25075D02*
X31909Y25075D01*
X32944Y25075D02*
X33096Y25075D01*
X34131Y25075D02*
X35027Y25075D01*
X0533Y25124D02*
X2045Y25124D01*
X3035Y25124D02*
X31927Y25124D01*
X32944Y25124D02*
X33096Y25124D01*
X34113Y25124D02*
X35027Y25124D01*
X0533Y25174D02*
X2139Y25174D01*
X2941Y25174D02*
X31962Y25174D01*
X32944Y25174D02*
X33096Y25174D01*
X34078Y25174D02*
X35027Y25174D01*
X0533Y25223D02*
X2336Y25223D01*
X2744Y25223D02*
X32027Y25223D01*
X32944Y25223D02*
X33096Y25223D01*
X34013Y25223D02*
X35027Y25223D01*
X0533Y25273D02*
X35027Y25273D01*
X0533Y25323D02*
X35027Y25323D01*
X0533Y25372D02*
X35027Y25372D01*
X0533Y25422D02*
X35027Y25422D01*
X0533Y25471D02*
X35027Y25471D01*
X0533Y25521D02*
X35027Y25521D01*
X0533Y25570D02*
X35027Y25570D01*
X0533Y25620D02*
X35027Y25620D01*
X0533Y25669D02*
X35027Y25669D01*
X0533Y25719D02*
X35027Y25719D01*
X0533Y25768D02*
X35027Y25768D01*
X0533Y25818D02*
X35027Y25818D01*
X0533Y25867D02*
X35027Y25867D01*
X0533Y25917D02*
X35027Y25917D01*
X0533Y25966D02*
X35027Y25966D01*
X0533Y26016D02*
X35027Y26016D01*
X0533Y26065D02*
X35027Y26065D01*
X0533Y26115D02*
X35027Y26115D01*
X0533Y26165D02*
X35027Y26165D01*
X0533Y26214D02*
X35027Y26214D01*
X0533Y26264D02*
X35027Y26264D01*
X0533Y26313D02*
X35027Y26313D01*
X0533Y26363D02*
X35027Y26363D01*
X0533Y26412D02*
X35027Y26412D01*
X0533Y26462D02*
X35027Y26462D01*
X0533Y26511D02*
X35027Y26511D01*
X0533Y26561D02*
X35027Y26561D01*
X0533Y26610D02*
X35027Y26610D01*
X0533Y26660D02*
X35027Y26660D01*
X0533Y26709D02*
X35027Y26709D01*
X0533Y26759D02*
X35027Y26759D01*
X0533Y26808D02*
X35027Y26808D01*
X0533Y26858D02*
X35027Y26858D01*
X0533Y26907D02*
X35027Y26907D01*
X0533Y26957D02*
X35027Y26957D01*
X0533Y27007D02*
X35027Y27007D01*
X0533Y27056D02*
X35027Y27056D01*
X0533Y27106D02*
X35027Y27106D01*
X0533Y27155D02*
X35027Y27155D01*
X0533Y27205D02*
X35027Y27205D01*
X0533Y27254D02*
X35027Y27254D01*
X0533Y27304D02*
X35027Y27304D01*
X0533Y27353D02*
X35027Y27353D01*
X0533Y27403D02*
X35027Y27403D01*
X0533Y27452D02*
X35027Y27452D01*
X0533Y27502D02*
X35027Y27502D01*
X0533Y27551D02*
X35027Y27551D01*
X0533Y27601D02*
X35027Y27601D01*
X0533Y27650D02*
X35027Y27650D01*
X0533Y27700D02*
X35027Y27700D01*
X0533Y27750D02*
X35027Y27750D01*
X0533Y27799D02*
X35027Y27799D01*
X0533Y27849D02*
X35027Y27849D01*
X0533Y27898D02*
X35027Y27898D01*
X0533Y27948D02*
X35027Y27948D01*
X0533Y27997D02*
X35027Y27997D01*
X0533Y28047D02*
X35027Y28047D01*
X0533Y28096D02*
X35027Y28096D01*
X0533Y28146D02*
X35027Y28146D01*
X0533Y28195D02*
X35027Y28195D01*
X0533Y28245D02*
X35027Y28245D01*
X0533Y28294D02*
X35027Y28294D01*
X0533Y28344D02*
X35027Y28344D01*
X0533Y28393D02*
X35027Y28393D01*
X0533Y28443D02*
X35027Y28443D01*
X0533Y28492D02*
X35027Y28492D01*
X0533Y28542D02*
X35027Y28542D01*
X0533Y28592D02*
X35027Y28592D01*
X0533Y28641D02*
X35027Y28641D01*
X0533Y28691D02*
X35027Y28691D01*
X0533Y28740D02*
X35027Y28740D01*
X0533Y28790D02*
X35027Y28790D01*
X0533Y28839D02*
X35027Y28839D01*
X0533Y28889D02*
X8706Y28889D01*
X9074Y28889D02*
X11246Y28889D01*
X11614Y28889D02*
X13786Y28889D01*
X14154Y28889D02*
X16326Y28889D01*
X16694Y28889D02*
X18866Y28889D01*
X19234Y28889D02*
X21406Y28889D01*
X21774Y28889D02*
X23946Y28889D01*
X24314Y28889D02*
X25820Y28889D01*
X26495Y28889D02*
X26845Y28889D01*
X27520Y28889D02*
X35027Y28889D01*
X0533Y28938D02*
X8525Y28938D01*
X9255Y28938D02*
X11065Y28938D01*
X11795Y28938D02*
X13605Y28938D01*
X14335Y28938D02*
X16145Y28938D01*
X16875Y28938D02*
X18685Y28938D01*
X19415Y28938D02*
X21225Y28938D01*
X21955Y28938D02*
X23765Y28938D01*
X24495Y28938D02*
X25753Y28938D01*
X26495Y28938D02*
X26845Y28938D01*
X27587Y28938D02*
X35027Y28938D01*
X0533Y28988D02*
X8430Y28988D01*
X9350Y28988D02*
X10970Y28988D01*
X11890Y28988D02*
X13510Y28988D01*
X14430Y28988D02*
X16050Y28988D01*
X16970Y28988D02*
X18590Y28988D01*
X19510Y28988D02*
X21130Y28988D01*
X22050Y28988D02*
X23670Y28988D01*
X24590Y28988D02*
X25717Y28988D01*
X26495Y28988D02*
X26845Y28988D01*
X27623Y28988D02*
X35027Y28988D01*
X0533Y29037D02*
X8336Y29037D01*
X9444Y29037D02*
X10876Y29037D01*
X11984Y29037D02*
X13416Y29037D01*
X14524Y29037D02*
X15956Y29037D01*
X17064Y29037D02*
X18496Y29037D01*
X19604Y29037D02*
X21036Y29037D01*
X22144Y29037D02*
X23576Y29037D01*
X24684Y29037D02*
X25698Y29037D01*
X26495Y29037D02*
X26845Y29037D01*
X27642Y29037D02*
X35027Y29037D01*
X0533Y29087D02*
X8279Y29087D01*
X9501Y29087D02*
X10819Y29087D01*
X12041Y29087D02*
X13359Y29087D01*
X14581Y29087D02*
X15899Y29087D01*
X17121Y29087D02*
X18439Y29087D01*
X19661Y29087D02*
X20979Y29087D01*
X22201Y29087D02*
X23519Y29087D01*
X24741Y29087D02*
X25691Y29087D01*
X26495Y29087D02*
X26845Y29087D01*
X27649Y29087D02*
X35027Y29087D01*
X0533Y29136D02*
X8223Y29136D01*
X9557Y29136D02*
X10763Y29136D01*
X12097Y29136D02*
X13303Y29136D01*
X14637Y29136D02*
X15843Y29136D01*
X17177Y29136D02*
X18383Y29136D01*
X19717Y29136D02*
X20923Y29136D01*
X22257Y29136D02*
X23463Y29136D01*
X24797Y29136D02*
X25690Y29136D01*
X27650Y29136D02*
X35027Y29136D01*
X0533Y29186D02*
X8167Y29186D01*
X9613Y29186D02*
X10707Y29186D01*
X12153Y29186D02*
X13247Y29186D01*
X14693Y29186D02*
X15787Y29186D01*
X17233Y29186D02*
X18327Y29186D01*
X19773Y29186D02*
X20867Y29186D01*
X22313Y29186D02*
X23407Y29186D01*
X24853Y29186D02*
X25690Y29186D01*
X27650Y29186D02*
X35027Y29186D01*
X0533Y29235D02*
X8129Y29235D01*
X9651Y29235D02*
X10669Y29235D01*
X12191Y29235D02*
X13209Y29235D01*
X14731Y29235D02*
X15749Y29235D01*
X17271Y29235D02*
X18289Y29235D01*
X19811Y29235D02*
X20829Y29235D01*
X22351Y29235D02*
X23369Y29235D01*
X24891Y29235D02*
X25690Y29235D01*
X27650Y29235D02*
X35027Y29235D01*
X0533Y29285D02*
X8095Y29285D01*
X9685Y29285D02*
X10635Y29285D01*
X12225Y29285D02*
X13175Y29285D01*
X14765Y29285D02*
X15715Y29285D01*
X17305Y29285D02*
X18255Y29285D01*
X19845Y29285D02*
X20795Y29285D01*
X22385Y29285D02*
X23335Y29285D01*
X24925Y29285D02*
X25690Y29285D01*
X27650Y29285D02*
X35027Y29285D01*
X0533Y29334D02*
X8061Y29334D01*
X9719Y29334D02*
X10601Y29334D01*
X12259Y29334D02*
X13141Y29334D01*
X14799Y29334D02*
X15681Y29334D01*
X17339Y29334D02*
X18221Y29334D01*
X19879Y29334D02*
X20761Y29334D01*
X22419Y29334D02*
X23301Y29334D01*
X24959Y29334D02*
X25690Y29334D01*
X27650Y29334D02*
X35027Y29334D01*
X0533Y29384D02*
X8026Y29384D01*
X9754Y29384D02*
X10566Y29384D01*
X12294Y29384D02*
X13106Y29384D01*
X14834Y29384D02*
X15646Y29384D01*
X17374Y29384D02*
X18186Y29384D01*
X19914Y29384D02*
X20726Y29384D01*
X22454Y29384D02*
X23266Y29384D01*
X24994Y29384D02*
X25690Y29384D01*
X27650Y29384D02*
X35027Y29384D01*
X0533Y29434D02*
X8006Y29434D01*
X9774Y29434D02*
X10546Y29434D01*
X12314Y29434D02*
X13086Y29434D01*
X14854Y29434D02*
X15626Y29434D01*
X17394Y29434D02*
X18166Y29434D01*
X19934Y29434D02*
X20706Y29434D01*
X22474Y29434D02*
X23246Y29434D01*
X25014Y29434D02*
X25690Y29434D01*
X27650Y29434D02*
X35027Y29434D01*
X0533Y29483D02*
X7987Y29483D01*
X9793Y29483D02*
X10527Y29483D01*
X12333Y29483D02*
X13067Y29483D01*
X14873Y29483D02*
X15607Y29483D01*
X17413Y29483D02*
X18147Y29483D01*
X19953Y29483D02*
X20687Y29483D01*
X22493Y29483D02*
X23227Y29483D01*
X25033Y29483D02*
X25690Y29483D01*
X27650Y29483D02*
X35027Y29483D01*
X0533Y29533D02*
X3700Y29533D01*
X3719Y29533D02*
X3901Y29533D01*
X3920Y29533D02*
X7968Y29533D01*
X9812Y29533D02*
X10508Y29533D01*
X12352Y29533D02*
X13048Y29533D01*
X14892Y29533D02*
X15588Y29533D01*
X17432Y29533D02*
X18128Y29533D01*
X19972Y29533D02*
X20668Y29533D01*
X22512Y29533D02*
X23208Y29533D01*
X25052Y29533D02*
X25690Y29533D01*
X27650Y29533D02*
X31640Y29533D01*
X31659Y29533D02*
X31841Y29533D01*
X31860Y29533D02*
X35027Y29533D01*
X0533Y29582D02*
X3297Y29582D01*
X3734Y29582D02*
X3886Y29582D01*
X4323Y29582D02*
X7949Y29582D01*
X9831Y29582D02*
X10489Y29582D01*
X12371Y29582D02*
X13029Y29582D01*
X14911Y29582D02*
X15569Y29582D01*
X17451Y29582D02*
X18109Y29582D01*
X19991Y29582D02*
X20649Y29582D01*
X22531Y29582D02*
X23189Y29582D01*
X25071Y29582D02*
X25690Y29582D01*
X27650Y29582D02*
X31237Y29582D01*
X31674Y29582D02*
X31826Y29582D01*
X32263Y29582D02*
X35027Y29582D01*
X0533Y29632D02*
X3155Y29632D01*
X3734Y29632D02*
X3886Y29632D01*
X4465Y29632D02*
X7936Y29632D01*
X9844Y29632D02*
X10476Y29632D01*
X12384Y29632D02*
X13016Y29632D01*
X14924Y29632D02*
X15556Y29632D01*
X17464Y29632D02*
X18096Y29632D01*
X20004Y29632D02*
X20636Y29632D01*
X22544Y29632D02*
X23176Y29632D01*
X25084Y29632D02*
X25690Y29632D01*
X27650Y29632D02*
X31095Y29632D01*
X31674Y29632D02*
X31826Y29632D01*
X32405Y29632D02*
X35027Y29632D01*
X0533Y29681D02*
X3014Y29681D01*
X3734Y29681D02*
X3886Y29681D01*
X4606Y29681D02*
X7930Y29681D01*
X9850Y29681D02*
X10470Y29681D01*
X12390Y29681D02*
X13010Y29681D01*
X14930Y29681D02*
X15550Y29681D01*
X17470Y29681D02*
X18090Y29681D01*
X20010Y29681D02*
X20630Y29681D01*
X22550Y29681D02*
X23170Y29681D01*
X25090Y29681D02*
X25945Y29681D01*
X27395Y29681D02*
X30954Y29681D01*
X31674Y29681D02*
X31826Y29681D01*
X32546Y29681D02*
X35027Y29681D01*
X0533Y29731D02*
X2872Y29731D01*
X3734Y29731D02*
X3886Y29731D01*
X4748Y29731D02*
X7924Y29731D01*
X9856Y29731D02*
X10464Y29731D01*
X12396Y29731D02*
X13004Y29731D01*
X14936Y29731D02*
X15544Y29731D01*
X17476Y29731D02*
X18084Y29731D01*
X20016Y29731D02*
X20624Y29731D01*
X22556Y29731D02*
X23164Y29731D01*
X25096Y29731D02*
X25945Y29731D01*
X27395Y29731D02*
X30812Y29731D01*
X31674Y29731D02*
X31826Y29731D01*
X32688Y29731D02*
X35027Y29731D01*
X0533Y29780D02*
X2780Y29780D01*
X4840Y29780D02*
X7918Y29780D01*
X9862Y29780D02*
X10458Y29780D01*
X12402Y29780D02*
X12998Y29780D01*
X14942Y29780D02*
X15538Y29780D01*
X17482Y29780D02*
X18078Y29780D01*
X20022Y29780D02*
X20618Y29780D01*
X22562Y29780D02*
X23158Y29780D01*
X25102Y29780D02*
X25945Y29780D01*
X27395Y29780D02*
X30720Y29780D01*
X32780Y29780D02*
X35027Y29780D01*
X0533Y29830D02*
X2701Y29830D01*
X4919Y29830D02*
X7912Y29830D01*
X9868Y29830D02*
X10452Y29830D01*
X12408Y29830D02*
X12992Y29830D01*
X14948Y29830D02*
X15532Y29830D01*
X17488Y29830D02*
X18072Y29830D01*
X20028Y29830D02*
X20612Y29830D01*
X22568Y29830D02*
X23152Y29830D01*
X25108Y29830D02*
X25945Y29830D01*
X27395Y29830D02*
X30641Y29830D01*
X32859Y29830D02*
X35027Y29830D01*
X0533Y29879D02*
X2623Y29879D01*
X4997Y29879D02*
X7914Y29879D01*
X9866Y29879D02*
X10454Y29879D01*
X12406Y29879D02*
X12994Y29879D01*
X14946Y29879D02*
X15534Y29879D01*
X17486Y29879D02*
X18074Y29879D01*
X20026Y29879D02*
X20614Y29879D01*
X22566Y29879D02*
X23154Y29879D01*
X25106Y29879D02*
X25945Y29879D01*
X27395Y29879D02*
X30563Y29879D01*
X32937Y29879D02*
X35027Y29879D01*
X0533Y29929D02*
X2544Y29929D01*
X5076Y29929D02*
X7920Y29929D01*
X9860Y29929D02*
X10460Y29929D01*
X12400Y29929D02*
X13000Y29929D01*
X14940Y29929D02*
X15540Y29929D01*
X17480Y29929D02*
X18080Y29929D01*
X20020Y29929D02*
X20620Y29929D01*
X22560Y29929D02*
X23160Y29929D01*
X25100Y29929D02*
X25945Y29929D01*
X27395Y29929D02*
X30484Y29929D01*
X33016Y29929D02*
X35027Y29929D01*
X0533Y29978D02*
X2465Y29978D01*
X5155Y29978D02*
X7926Y29978D01*
X9854Y29978D02*
X10466Y29978D01*
X12394Y29978D02*
X13006Y29978D01*
X14934Y29978D02*
X15546Y29978D01*
X17474Y29978D02*
X18086Y29978D01*
X20014Y29978D02*
X20626Y29978D01*
X22554Y29978D02*
X23166Y29978D01*
X25094Y29978D02*
X25945Y29978D01*
X27395Y29978D02*
X30405Y29978D01*
X33095Y29978D02*
X35027Y29978D01*
X0533Y30028D02*
X2399Y30028D01*
X5221Y30028D02*
X7932Y30028D01*
X9848Y30028D02*
X10472Y30028D01*
X12388Y30028D02*
X13012Y30028D01*
X14928Y30028D02*
X15552Y30028D01*
X17468Y30028D02*
X18092Y30028D01*
X20008Y30028D02*
X20632Y30028D01*
X22548Y30028D02*
X23172Y30028D01*
X25088Y30028D02*
X25697Y30028D01*
X27643Y30028D02*
X30339Y30028D01*
X33161Y30028D02*
X35027Y30028D01*
X0533Y30077D02*
X2349Y30077D01*
X5271Y30077D02*
X7938Y30077D01*
X9842Y30077D02*
X10478Y30077D01*
X12382Y30077D02*
X13018Y30077D01*
X14922Y30077D02*
X15558Y30077D01*
X17462Y30077D02*
X18098Y30077D01*
X20002Y30077D02*
X20638Y30077D01*
X22542Y30077D02*
X23178Y30077D01*
X25082Y30077D02*
X25690Y30077D01*
X27650Y30077D02*
X30289Y30077D01*
X33211Y30077D02*
X35027Y30077D01*
X0533Y30127D02*
X2300Y30127D01*
X5320Y30127D02*
X7957Y30127D01*
X9823Y30127D02*
X10497Y30127D01*
X12363Y30127D02*
X13037Y30127D01*
X14903Y30127D02*
X15577Y30127D01*
X17443Y30127D02*
X18117Y30127D01*
X19983Y30127D02*
X20657Y30127D01*
X22523Y30127D02*
X23197Y30127D01*
X25063Y30127D02*
X25690Y30127D01*
X27650Y30127D02*
X30240Y30127D01*
X33260Y30127D02*
X35027Y30127D01*
X0533Y30176D02*
X2250Y30176D01*
X5370Y30176D02*
X7975Y30176D01*
X9805Y30176D02*
X10515Y30176D01*
X12345Y30176D02*
X13055Y30176D01*
X14885Y30176D02*
X15595Y30176D01*
X17425Y30176D02*
X18135Y30176D01*
X19965Y30176D02*
X20675Y30176D01*
X22505Y30176D02*
X23215Y30176D01*
X25045Y30176D02*
X25690Y30176D01*
X27650Y30176D02*
X30190Y30176D01*
X33310Y30176D02*
X35027Y30176D01*
X0533Y30226D02*
X2200Y30226D01*
X5420Y30226D02*
X7994Y30226D01*
X9786Y30226D02*
X10534Y30226D01*
X12326Y30226D02*
X13074Y30226D01*
X14866Y30226D02*
X15614Y30226D01*
X17406Y30226D02*
X18154Y30226D01*
X19946Y30226D02*
X20694Y30226D01*
X22486Y30226D02*
X23234Y30226D01*
X25026Y30226D02*
X25690Y30226D01*
X27650Y30226D02*
X30140Y30226D01*
X33360Y30226D02*
X35027Y30226D01*
X0533Y30276D02*
X2151Y30276D01*
X5469Y30276D02*
X8013Y30276D01*
X9767Y30276D02*
X10553Y30276D01*
X12307Y30276D02*
X13093Y30276D01*
X14847Y30276D02*
X15633Y30276D01*
X17387Y30276D02*
X18173Y30276D01*
X19927Y30276D02*
X20713Y30276D01*
X22467Y30276D02*
X23253Y30276D01*
X25007Y30276D02*
X25690Y30276D01*
X27650Y30276D02*
X30091Y30276D01*
X33409Y30276D02*
X35027Y30276D01*
X0533Y30325D02*
X2101Y30325D01*
X5519Y30325D02*
X8040Y30325D01*
X9740Y30325D02*
X10580Y30325D01*
X12280Y30325D02*
X13120Y30325D01*
X14820Y30325D02*
X15660Y30325D01*
X17360Y30325D02*
X18200Y30325D01*
X19900Y30325D02*
X20740Y30325D01*
X22440Y30325D02*
X23280Y30325D01*
X24980Y30325D02*
X25690Y30325D01*
X27650Y30325D02*
X30041Y30325D01*
X33459Y30325D02*
X35027Y30325D01*
X0533Y30375D02*
X2057Y30375D01*
X5563Y30375D02*
X8074Y30375D01*
X9706Y30375D02*
X10614Y30375D01*
X12246Y30375D02*
X13154Y30375D01*
X14786Y30375D02*
X15694Y30375D01*
X17326Y30375D02*
X18234Y30375D01*
X19866Y30375D02*
X20774Y30375D01*
X22406Y30375D02*
X23314Y30375D01*
X24946Y30375D02*
X25690Y30375D01*
X27650Y30375D02*
X29997Y30375D01*
X33503Y30375D02*
X35027Y30375D01*
X0533Y30424D02*
X2026Y30424D01*
X5594Y30424D02*
X8108Y30424D01*
X9672Y30424D02*
X10648Y30424D01*
X12212Y30424D02*
X13188Y30424D01*
X14752Y30424D02*
X15728Y30424D01*
X17292Y30424D02*
X18268Y30424D01*
X19832Y30424D02*
X20808Y30424D01*
X22372Y30424D02*
X23348Y30424D01*
X24912Y30424D02*
X25690Y30424D01*
X27650Y30424D02*
X29966Y30424D01*
X33534Y30424D02*
X35027Y30424D01*
X0533Y30474D02*
X1995Y30474D01*
X5625Y30474D02*
X8142Y30474D01*
X9638Y30474D02*
X10682Y30474D01*
X12178Y30474D02*
X13222Y30474D01*
X14718Y30474D02*
X15762Y30474D01*
X17258Y30474D02*
X18302Y30474D01*
X19798Y30474D02*
X20842Y30474D01*
X22338Y30474D02*
X23382Y30474D01*
X24878Y30474D02*
X25690Y30474D01*
X27650Y30474D02*
X29935Y30474D01*
X33565Y30474D02*
X35027Y30474D01*
X0533Y30523D02*
X1964Y30523D01*
X5656Y30523D02*
X8189Y30523D01*
X9591Y30523D02*
X10729Y30523D01*
X12131Y30523D02*
X13269Y30523D01*
X14671Y30523D02*
X15809Y30523D01*
X17211Y30523D02*
X18349Y30523D01*
X19751Y30523D02*
X20889Y30523D01*
X22291Y30523D02*
X23429Y30523D01*
X24831Y30523D02*
X25690Y30523D01*
X27650Y30523D02*
X29904Y30523D01*
X33596Y30523D02*
X35027Y30523D01*
X0533Y30573D02*
X1933Y30573D01*
X5687Y30573D02*
X8245Y30573D01*
X9535Y30573D02*
X10785Y30573D01*
X12075Y30573D02*
X13325Y30573D01*
X14615Y30573D02*
X15865Y30573D01*
X17155Y30573D02*
X18405Y30573D01*
X19695Y30573D02*
X20945Y30573D01*
X22235Y30573D02*
X23485Y30573D01*
X24775Y30573D02*
X25690Y30573D01*
X26495Y30573D02*
X26845Y30573D01*
X27650Y30573D02*
X29873Y30573D01*
X33627Y30573D02*
X35027Y30573D01*
X0533Y30622D02*
X1902Y30622D01*
X5718Y30622D02*
X8301Y30622D01*
X9479Y30622D02*
X10841Y30622D01*
X12019Y30622D02*
X13381Y30622D01*
X14559Y30622D02*
X15921Y30622D01*
X17099Y30622D02*
X18461Y30622D01*
X19639Y30622D02*
X21001Y30622D01*
X22179Y30622D02*
X23541Y30622D01*
X24719Y30622D02*
X25692Y30622D01*
X26495Y30622D02*
X26845Y30622D01*
X27648Y30622D02*
X29842Y30622D01*
X33658Y30622D02*
X35027Y30622D01*
X0533Y30672D02*
X1871Y30672D01*
X5749Y30672D02*
X8372Y30672D01*
X9408Y30672D02*
X10912Y30672D01*
X11948Y30672D02*
X13452Y30672D01*
X14488Y30672D02*
X15992Y30672D01*
X17028Y30672D02*
X18532Y30672D01*
X19568Y30672D02*
X21072Y30672D01*
X22108Y30672D02*
X23612Y30672D01*
X24648Y30672D02*
X25704Y30672D01*
X26495Y30672D02*
X26845Y30672D01*
X27636Y30672D02*
X29811Y30672D01*
X33689Y30672D02*
X35027Y30672D01*
X0533Y30721D02*
X1840Y30721D01*
X5780Y30721D02*
X8467Y30721D01*
X9313Y30721D02*
X11007Y30721D01*
X11853Y30721D02*
X13547Y30721D01*
X14393Y30721D02*
X16087Y30721D01*
X16933Y30721D02*
X18627Y30721D01*
X19473Y30721D02*
X21167Y30721D01*
X22013Y30721D02*
X23707Y30721D01*
X24553Y30721D02*
X25729Y30721D01*
X26495Y30721D02*
X26845Y30721D01*
X27611Y30721D02*
X29780Y30721D01*
X33720Y30721D02*
X35027Y30721D01*
X0533Y30771D02*
X1808Y30771D01*
X5812Y30771D02*
X8582Y30771D01*
X9198Y30771D02*
X11122Y30771D01*
X11738Y30771D02*
X13662Y30771D01*
X14278Y30771D02*
X16202Y30771D01*
X16818Y30771D02*
X18742Y30771D01*
X19358Y30771D02*
X21282Y30771D01*
X21898Y30771D02*
X23822Y30771D01*
X24438Y30771D02*
X25773Y30771D01*
X26495Y30771D02*
X26845Y30771D01*
X27567Y30771D02*
X29748Y30771D01*
X33752Y30771D02*
X35027Y30771D01*
X0533Y30820D02*
X1788Y30820D01*
X5832Y30820D02*
X25878Y30820D01*
X26485Y30820D02*
X26855Y30820D01*
X27462Y30820D02*
X29728Y30820D01*
X33772Y30820D02*
X35027Y30820D01*
X0533Y30870D02*
X1770Y30870D01*
X5850Y30870D02*
X29710Y30870D01*
X33790Y30870D02*
X35027Y30870D01*
X0533Y30919D02*
X1753Y30919D01*
X5867Y30919D02*
X29693Y30919D01*
X33807Y30919D02*
X35027Y30919D01*
X0533Y30969D02*
X1736Y30969D01*
X5884Y30969D02*
X29676Y30969D01*
X33824Y30969D02*
X35027Y30969D01*
X0533Y31018D02*
X1718Y31018D01*
X5902Y31018D02*
X29658Y31018D01*
X33842Y31018D02*
X35027Y31018D01*
X0533Y31068D02*
X1701Y31068D01*
X5919Y31068D02*
X29641Y31068D01*
X33859Y31068D02*
X35027Y31068D01*
X0533Y31118D02*
X1684Y31118D01*
X5936Y31118D02*
X29624Y31118D01*
X33876Y31118D02*
X35027Y31118D01*
X0533Y31167D02*
X1667Y31167D01*
X5953Y31167D02*
X29607Y31167D01*
X33893Y31167D02*
X35027Y31167D01*
X0533Y31217D02*
X1649Y31217D01*
X5971Y31217D02*
X29589Y31217D01*
X33911Y31217D02*
X35027Y31217D01*
X0533Y31266D02*
X1635Y31266D01*
X5985Y31266D02*
X29575Y31266D01*
X33925Y31266D02*
X35027Y31266D01*
X0533Y31316D02*
X1629Y31316D01*
X5991Y31316D02*
X29569Y31316D01*
X33931Y31316D02*
X35027Y31316D01*
X0533Y31365D02*
X1624Y31365D01*
X5996Y31365D02*
X29564Y31365D01*
X33936Y31365D02*
X35027Y31365D01*
X0533Y31415D02*
X1618Y31415D01*
X6002Y31415D02*
X29558Y31415D01*
X33942Y31415D02*
X35027Y31415D01*
X0533Y31464D02*
X1612Y31464D01*
X6008Y31464D02*
X29552Y31464D01*
X33948Y31464D02*
X35027Y31464D01*
X0533Y31514D02*
X1607Y31514D01*
X6013Y31514D02*
X29547Y31514D01*
X33953Y31514D02*
X35027Y31514D01*
X0533Y31563D02*
X1601Y31563D01*
X6019Y31563D02*
X29541Y31563D01*
X33959Y31563D02*
X35027Y31563D01*
X0533Y31613D02*
X1596Y31613D01*
X6024Y31613D02*
X29536Y31613D01*
X33964Y31613D02*
X35027Y31613D01*
X0533Y31662D02*
X1596Y31662D01*
X6024Y31662D02*
X29536Y31662D01*
X33964Y31662D02*
X35027Y31662D01*
X0533Y31712D02*
X1835Y31712D01*
X5785Y31712D02*
X29775Y31712D01*
X33725Y31712D02*
X35027Y31712D01*
X0533Y31761D02*
X1835Y31761D01*
X5785Y31761D02*
X29775Y31761D01*
X33725Y31761D02*
X35027Y31761D01*
X0533Y31811D02*
X1835Y31811D01*
X5785Y31811D02*
X29775Y31811D01*
X33725Y31811D02*
X35027Y31811D01*
X0533Y31860D02*
X1593Y31860D01*
X6027Y31860D02*
X29533Y31860D01*
X33967Y31860D02*
X35027Y31860D01*
X0533Y31910D02*
X1598Y31910D01*
X6022Y31910D02*
X29538Y31910D01*
X33962Y31910D02*
X35027Y31910D01*
X0533Y31960D02*
X1604Y31960D01*
X6016Y31960D02*
X29544Y31960D01*
X33956Y31960D02*
X35027Y31960D01*
X0533Y32009D02*
X1609Y32009D01*
X6011Y32009D02*
X29549Y32009D01*
X33951Y32009D02*
X35027Y32009D01*
X0533Y32059D02*
X1615Y32059D01*
X6005Y32059D02*
X29555Y32059D01*
X33945Y32059D02*
X35027Y32059D01*
X0533Y32108D02*
X1621Y32108D01*
X5999Y32108D02*
X29561Y32108D01*
X33939Y32108D02*
X35027Y32108D01*
X0533Y32158D02*
X1626Y32158D01*
X5994Y32158D02*
X29566Y32158D01*
X33934Y32158D02*
X35027Y32158D01*
X0533Y32207D02*
X1632Y32207D01*
X5988Y32207D02*
X29572Y32207D01*
X33928Y32207D02*
X35027Y32207D01*
X0533Y32257D02*
X1640Y32257D01*
X5980Y32257D02*
X29580Y32257D01*
X33920Y32257D02*
X35027Y32257D01*
X0533Y32306D02*
X1657Y32306D01*
X5963Y32306D02*
X29597Y32306D01*
X33903Y32306D02*
X35027Y32306D01*
X0533Y32356D02*
X1675Y32356D01*
X5945Y32356D02*
X29615Y32356D01*
X33885Y32356D02*
X35027Y32356D01*
X0533Y32405D02*
X1692Y32405D01*
X5928Y32405D02*
X29632Y32405D01*
X33868Y32405D02*
X35027Y32405D01*
X0533Y32455D02*
X1709Y32455D01*
X5911Y32455D02*
X29649Y32455D01*
X33851Y32455D02*
X35027Y32455D01*
X0533Y32504D02*
X1726Y32504D01*
X5894Y32504D02*
X29666Y32504D01*
X33834Y32504D02*
X35027Y32504D01*
X0533Y32554D02*
X1744Y32554D01*
X5876Y32554D02*
X29684Y32554D01*
X33816Y32554D02*
X35027Y32554D01*
X0533Y32603D02*
X1761Y32603D01*
X5859Y32603D02*
X29701Y32603D01*
X33799Y32603D02*
X35027Y32603D01*
X0533Y32653D02*
X1778Y32653D01*
X5842Y32653D02*
X29718Y32653D01*
X33782Y32653D02*
X35027Y32653D01*
X0533Y32703D02*
X1796Y32703D01*
X5824Y32703D02*
X29736Y32703D01*
X33764Y32703D02*
X35027Y32703D01*
X0533Y32752D02*
X1823Y32752D01*
X5797Y32752D02*
X29763Y32752D01*
X33737Y32752D02*
X35027Y32752D01*
X0533Y32802D02*
X1854Y32802D01*
X5766Y32802D02*
X29794Y32802D01*
X33706Y32802D02*
X35027Y32802D01*
X0533Y32851D02*
X1885Y32851D01*
X5735Y32851D02*
X29825Y32851D01*
X33675Y32851D02*
X35027Y32851D01*
X0533Y32901D02*
X1916Y32901D01*
X5704Y32901D02*
X29856Y32901D01*
X33644Y32901D02*
X35027Y32901D01*
X0533Y32950D02*
X1947Y32950D01*
X5673Y32950D02*
X29887Y32950D01*
X33613Y32950D02*
X35027Y32950D01*
X0533Y33000D02*
X1978Y33000D01*
X5642Y33000D02*
X29918Y33000D01*
X33582Y33000D02*
X35027Y33000D01*
X0533Y33049D02*
X2010Y33049D01*
X5610Y33049D02*
X29950Y33049D01*
X33550Y33049D02*
X35027Y33049D01*
X0533Y33099D02*
X2041Y33099D01*
X5579Y33099D02*
X29981Y33099D01*
X33519Y33099D02*
X35027Y33099D01*
X0533Y33148D02*
X2075Y33148D01*
X5545Y33148D02*
X30015Y33148D01*
X33485Y33148D02*
X35027Y33148D01*
X0533Y33198D02*
X2124Y33198D01*
X5496Y33198D02*
X30064Y33198D01*
X33436Y33198D02*
X35027Y33198D01*
X0533Y33247D02*
X2174Y33247D01*
X5446Y33247D02*
X30114Y33247D01*
X33386Y33247D02*
X35027Y33247D01*
X0533Y33297D02*
X2223Y33297D01*
X5397Y33297D02*
X30163Y33297D01*
X33337Y33297D02*
X35027Y33297D01*
X0533Y33346D02*
X2273Y33346D01*
X5347Y33346D02*
X30213Y33346D01*
X33287Y33346D02*
X35027Y33346D01*
X0533Y33396D02*
X2322Y33396D01*
X5298Y33396D02*
X30262Y33396D01*
X33238Y33396D02*
X35027Y33396D01*
X0533Y33445D02*
X2372Y33445D01*
X5248Y33445D02*
X30312Y33445D01*
X33188Y33445D02*
X35027Y33445D01*
X0533Y33495D02*
X2422Y33495D01*
X5198Y33495D02*
X30362Y33495D01*
X33138Y33495D02*
X35027Y33495D01*
X0533Y33545D02*
X2501Y33545D01*
X5119Y33545D02*
X30441Y33545D01*
X33059Y33545D02*
X35027Y33545D01*
X0533Y33594D02*
X2580Y33594D01*
X5040Y33594D02*
X30520Y33594D01*
X32980Y33594D02*
X35027Y33594D01*
X0533Y33644D02*
X2659Y33644D01*
X4961Y33644D02*
X30599Y33644D01*
X32901Y33644D02*
X35027Y33644D01*
X0533Y33693D02*
X2738Y33693D01*
X4882Y33693D02*
X30678Y33693D01*
X32822Y33693D02*
X35027Y33693D01*
X0533Y33743D02*
X2817Y33743D01*
X3734Y33743D02*
X3886Y33743D01*
X4803Y33743D02*
X30757Y33743D01*
X31674Y33743D02*
X31826Y33743D01*
X32743Y33743D02*
X35027Y33743D01*
X0533Y33792D02*
X2937Y33792D01*
X3734Y33792D02*
X3886Y33792D01*
X4683Y33792D02*
X30877Y33792D01*
X31674Y33792D02*
X31826Y33792D01*
X32623Y33792D02*
X35027Y33792D01*
X0533Y33842D02*
X3079Y33842D01*
X3734Y33842D02*
X3886Y33842D01*
X4541Y33842D02*
X31019Y33842D01*
X31674Y33842D02*
X31826Y33842D01*
X32481Y33842D02*
X35027Y33842D01*
X0533Y33891D02*
X3221Y33891D01*
X3734Y33891D02*
X3886Y33891D01*
X4399Y33891D02*
X31161Y33891D01*
X31674Y33891D02*
X31826Y33891D01*
X32339Y33891D02*
X35027Y33891D01*
X0533Y33941D02*
X3464Y33941D01*
X3734Y33941D02*
X3886Y33941D01*
X4156Y33941D02*
X31404Y33941D01*
X31674Y33941D02*
X31826Y33941D01*
X32096Y33941D02*
X35027Y33941D01*
X0533Y33990D02*
X35027Y33990D01*
X0533Y34040D02*
X35027Y34040D01*
X0533Y34089D02*
X35027Y34089D01*
X0533Y34139D02*
X35027Y34139D01*
X0533Y34188D02*
X35027Y34188D01*
X0533Y34238D02*
X35027Y34238D01*
X0533Y34287D02*
X35027Y34287D01*
X0533Y34337D02*
X35027Y34337D01*
X0533Y34387D02*
X35027Y34387D01*
X0533Y34436D02*
X35027Y34436D01*
X0533Y34486D02*
X35027Y34486D01*
X0533Y34535D02*
X35027Y34535D01*
X0533Y34585D02*
X35027Y34585D01*
X0533Y34634D02*
X35027Y34634D01*
X0533Y34684D02*
X35027Y34684D01*
X0533Y34733D02*
X35027Y34733D01*
X0533Y34783D02*
X35027Y34783D01*
X0533Y34832D02*
X35027Y34832D01*
X0533Y34882D02*
X35027Y34882D01*
X0533Y34931D02*
X35027Y34931D01*
X0533Y34981D02*
X35027Y34981D01*
%LNbottom copper_traces*%
D11*
X11557Y15113D03*
%LNbottom copper component fc4ab4143d6492ec*%
D12*
X2540Y15240D03*
D13*
X2540Y12700D03*
%LNbottom copper component acea897f8989f1d9*%
D14*
X30852Y4817D03*
D15*
X32648Y6613D03*
%LNbottom copper component 50fb72db43f2db52*%
D16*
X33020Y24130D03*
D17*
X33020Y21590D03*
%LNbottom copper component 07940880643af1f4*%
D18*
X2912Y6613D03*
D19*
X4708Y4817D03*
%LNbottom copper component c49cb73e0cfdca39*%
D20*
X17780Y11430D03*
%LNbottom copper component 8081dbe1fc64fbc3*%
D12*
X2540Y24130D03*
D13*
X2540Y21590D03*
%LNbottom copper component 432a153fe0b184c8*%
D16*
X33020Y15240D03*
D17*
X33020Y12700D03*
%LNbottom copper component 2783f7ae62fabf0f*%
D21*
X12700Y2540D03*
D22*
X15240Y2540D03*
%LNbottom copper component 96b70c30af19ca9a*%
D20*
X31750Y31750D03*
%LNbottom copper component 7b98a7e85593e7e7*%
D21*
X20320Y2540D03*
D22*
X22860Y2540D03*
%LNbottom copper component be02c169f3ae9f69*%
D20*
X3810Y31750D03*
%LNbottom copper component 005ca3e7d4f4fb47*%
D23*
X24130Y29845D03*
X21590Y29845D03*
X19050Y29845D03*
X16510Y29845D03*
X13970Y29845D03*
X11430Y29845D03*
X8890Y29845D03*
D24*
X26670Y29845D03*
M02*