<?xml version="1.0" encoding="utf-8" ?>
<svg baseProfile="tiny" height="135.786610854" version="1.2" width="135.786610854" xmlns="http://www.w3.org/2000/svg" xmlns:ev="http://www.w3.org/2001/xml-events" xmlns:xlink="http://www.w3.org/1999/xlink"><defs /><g id="paths" stroke="green"><path d="M 4.893306967,130.893303887 L 130.893303887,130.893303887 L 130.893303887,4.893306967 L 4.893306967,4.893306967 L 4.893306967,130.893303887 Z" fill-opacity="0" stroke-linejoin="round" stroke-width="1.0" /></g><g fill="red" id="top_parts" stroke="red"><line stroke-linecap="round" stroke-width="0.5" x1="113.7484" x2="103.1734" y1="100.9234" y2="111.4984" /><line stroke-linecap="round" stroke-width="0.5" x1="103.1734" x2="98.5382" y1="111.4984" y2="106.8632" /><line stroke-linecap="round" stroke-width="0.5" x1="98.5382" x2="109.1132" y1="106.8632" y2="96.2882" /><line stroke-linecap="round" stroke-width="0.5" x1="109.1132" x2="113.7484" y1="96.2882" y2="100.9234" /><text font-family="monospace" font-size="2" stroke-width="0.1" text-anchor="middle" x="106.143304492" y="103.893304547">R6</text><line stroke-linecap="round" stroke-width="0.5" x1="20.165" x2="7.6217" y1="92.165" y2="92.165" /><line stroke-linecap="round" stroke-width="0.5" x1="7.6217" x2="7.6217" y1="92.165" y2="70.6217" /><line stroke-linecap="round" stroke-width="0.5" x1="7.6217" x2="20.165" y1="70.6217" y2="70.6217" /><line stroke-linecap="round" stroke-width="0.5" x1="20.165" x2="20.165" y1="70.6217" y2="92.165" /><text font-family="monospace" font-size="2" stroke-width="0.1" text-anchor="middle" x="13.893306747" y="81.393305097">J2</text><line stroke-linecap="round" stroke-width="0.5" x1="120.5753" x2="129.4447" y1="98.5919" y2="107.4613" /><line stroke-linecap="round" stroke-width="0.5" x1="129.4447" x2="114.2113" y1="107.4613" y2="122.6947" /><line stroke-linecap="round" stroke-width="0.5" x1="114.2113" x2="105.3419" y1="122.6947" y2="113.8253" /><line stroke-linecap="round" stroke-width="0.5" x1="105.3419" x2="120.5753" y1="113.8253" y2="98.5919" /><text font-family="monospace" font-size="2" stroke-width="0.1" text-anchor="middle" x="117.393304217" y="110.643304382">J6</text><line stroke-linecap="round" stroke-width="0.5" x1="61.8709" x2="46.9157" y1="111.6709" y2="111.6709" /><line stroke-linecap="round" stroke-width="0.5" x1="46.9157" x2="46.9157" y1="111.6709" y2="105.1157" /><line stroke-linecap="round" stroke-width="0.5" x1="46.9157" x2="61.8709" y1="105.1157" y2="105.1157" /><line stroke-linecap="round" stroke-width="0.5" x1="61.8709" x2="61.8709" y1="105.1157" y2="111.6709" /><text font-family="monospace" font-size="2" stroke-width="0.1" text-anchor="middle" x="54.393305757" y="108.393304437">R4</text><line stroke-linecap="round" stroke-width="0.5" x1="115.6217" x2="128.165" y1="39.1217" y2="39.1217" /><line stroke-linecap="round" stroke-width="0.5" x1="128.165" x2="128.165" y1="39.1217" y2="60.665" /><line stroke-linecap="round" stroke-width="0.5" x1="128.165" x2="115.6217" y1="60.665" y2="60.665" /><line stroke-linecap="round" stroke-width="0.5" x1="115.6217" x2="115.6217" y1="60.665" y2="39.1217" /><text font-family="monospace" font-size="2" stroke-width="0.1" text-anchor="middle" x="121.893304107" y="49.893305867">J8</text><line stroke-linecap="round" stroke-width="0.5" x1="32.6132" x2="22.0382" y1="111.4984" y2="100.9234" /><line stroke-linecap="round" stroke-width="0.5" x1="22.0382" x2="26.6734" y1="100.9234" y2="96.2882" /><line stroke-linecap="round" stroke-width="0.5" x1="26.6734" x2="37.2484" y1="96.2882" y2="106.8632" /><line stroke-linecap="round" stroke-width="0.5" x1="37.2484" x2="32.6132" y1="106.8632" y2="111.4984" /><text font-family="monospace" font-size="2" stroke-width="0.1" text-anchor="middle" x="29.643306362" y="103.893304547">R3</text><line stroke-linecap="round" stroke-width="0.5" x1="24.1157" x2="24.1157" y1="88.8709" y2="73.9157" /><line stroke-linecap="round" stroke-width="0.5" x1="24.1157" x2="30.6709" y1="73.9157" y2="73.9157" /><line stroke-linecap="round" stroke-width="0.5" x1="30.6709" x2="30.6709" y1="73.9157" y2="88.8709" /><line stroke-linecap="round" stroke-width="0.5" x1="30.6709" x2="24.1157" y1="88.8709" y2="88.8709" /><text font-family="monospace" font-size="2" stroke-width="0.1" text-anchor="middle" x="27.393306417" y="81.393305097">R2</text><line stroke-linecap="round" stroke-width="0.5" x1="24.1157" x2="24.1157" y1="57.3709" y2="42.4157" /><line stroke-linecap="round" stroke-width="0.5" x1="24.1157" x2="30.6709" y1="42.4157" y2="42.4157" /><line stroke-linecap="round" stroke-width="0.5" x1="30.6709" x2="30.6709" y1="42.4157" y2="57.3709" /><line stroke-linecap="round" stroke-width="0.5" x1="30.6709" x2="24.1157" y1="57.3709" y2="57.3709" /><text font-family="monospace" font-size="2" stroke-width="0.1" text-anchor="middle" x="27.393306417" y="49.893305867">R1</text><line stroke-linecap="round" stroke-width="0.5" x1="30.4447" x2="21.5753" y1="113.8253" y2="122.6947" /><line stroke-linecap="round" stroke-width="0.5" x1="21.5753" x2="6.3419" y1="122.6947" y2="107.4613" /><line stroke-linecap="round" stroke-width="0.5" x1="6.3419" x2="15.2113" y1="107.4613" y2="98.5919" /><line stroke-linecap="round" stroke-width="0.5" x1="15.2113" x2="30.4447" y1="98.5919" y2="113.8253" /><text font-family="monospace" font-size="2" stroke-width="0.1" text-anchor="middle" x="18.393306637" y="110.643304382">J3</text><line stroke-linecap="round" stroke-width="0.5" x1="111.6709" x2="111.6709" y1="42.4157" y2="57.3709" /><line stroke-linecap="round" stroke-width="0.5" x1="111.6709" x2="105.1157" y1="57.3709" y2="57.3709" /><line stroke-linecap="round" stroke-width="0.5" x1="105.1157" x2="105.1157" y1="57.3709" y2="42.4157" /><line stroke-linecap="round" stroke-width="0.5" x1="105.1157" x2="111.6709" y1="42.4157" y2="42.4157" /><text font-family="monospace" font-size="2" stroke-width="0.1" text-anchor="middle" x="108.393304437" y="49.893305867">R8</text><line stroke-linecap="round" stroke-width="0.5" x1="20.165" x2="7.6217" y1="60.665" y2="60.665" /><line stroke-linecap="round" stroke-width="0.5" x1="7.6217" x2="7.6217" y1="60.665" y2="39.1217" /><line stroke-linecap="round" stroke-width="0.5" x1="7.6217" x2="20.165" y1="39.1217" y2="39.1217" /><line stroke-linecap="round" stroke-width="0.5" x1="20.165" x2="20.165" y1="39.1217" y2="60.665" /><text font-family="monospace" font-size="2" stroke-width="0.1" text-anchor="middle" x="13.893306747" y="49.893305867">J1</text><line stroke-linecap="round" stroke-width="0.5" x1="115.6217" x2="128.165" y1="70.6217" y2="70.6217" /><line stroke-linecap="round" stroke-width="0.5" x1="128.165" x2="128.165" y1="70.6217" y2="92.165" /><line stroke-linecap="round" stroke-width="0.5" x1="128.165" x2="115.6217" y1="92.165" y2="92.165" /><line stroke-linecap="round" stroke-width="0.5" x1="115.6217" x2="115.6217" y1="92.165" y2="70.6217" /><text font-family="monospace" font-size="2" stroke-width="0.1" text-anchor="middle" x="121.893304107" y="81.393305097">J7</text><line stroke-linecap="round" stroke-width="0.5" x1="65.165" x2="65.165" y1="115.6217" y2="128.165" /><line stroke-linecap="round" stroke-width="0.5" x1="65.165" x2="43.6217" y1="128.165" y2="128.165" /><line stroke-linecap="round" stroke-width="0.5" x1="43.6217" x2="43.6217" y1="128.165" y2="115.6217" /><line stroke-linecap="round" stroke-width="0.5" x1="43.6217" x2="65.165" y1="115.6217" y2="115.6217" /><text font-family="monospace" font-size="2" stroke-width="0.1" text-anchor="middle" x="54.393305757" y="121.893304107">J4</text><line stroke-linecap="round" stroke-width="0.5" x1="48.1394" x2="87.6472" y1="39.9366" y2="39.9366" /><line stroke-linecap="round" stroke-width="0.5" x1="87.6472" x2="87.6472" y1="39.9366" y2="77.85" /><line stroke-linecap="round" stroke-width="0.5" x1="87.6472" x2="48.1394" y1="77.85" y2="77.85" /><line stroke-linecap="round" stroke-width="0.5" x1="48.1394" x2="48.1394" y1="77.85" y2="39.9366" /><text font-family="monospace" font-size="2" stroke-width="0.1" text-anchor="middle" x="67.8933089703" y="58.893305647">U1</text><line stroke-linecap="round" stroke-width="0.5" x1="88.8709" x2="73.9157" y1="111.6709" y2="111.6709" /><line stroke-linecap="round" stroke-width="0.5" x1="73.9157" x2="73.9157" y1="111.6709" y2="105.1157" /><line stroke-linecap="round" stroke-width="0.5" x1="73.9157" x2="88.8709" y1="105.1157" y2="105.1157" /><line stroke-linecap="round" stroke-width="0.5" x1="88.8709" x2="88.8709" y1="105.1157" y2="111.6709" /><text font-family="monospace" font-size="2" stroke-width="0.1" text-anchor="middle" x="81.393305097" y="108.393304437">R5</text><line stroke-linecap="round" stroke-width="0.5" x1="92.165" x2="92.165" y1="115.6217" y2="128.165" /><line stroke-linecap="round" stroke-width="0.5" x1="92.165" x2="70.6217" y1="128.165" y2="128.165" /><line stroke-linecap="round" stroke-width="0.5" x1="70.6217" x2="70.6217" y1="128.165" y2="115.6217" /><line stroke-linecap="round" stroke-width="0.5" x1="70.6217" x2="92.165" y1="115.6217" y2="115.6217" /><text font-family="monospace" font-size="2" stroke-width="0.1" text-anchor="middle" x="81.393305097" y="121.893304107">J5</text><line stroke-linecap="round" stroke-width="0.5" x1="105.665" x2="105.665" y1="18.8717" y2="31.415" /><line stroke-linecap="round" stroke-width="0.5" x1="105.665" x2="30.1217" y1="31.415" y2="31.415" /><line stroke-linecap="round" stroke-width="0.5" x1="30.1217" x2="30.1217" y1="31.415" y2="18.8717" /><line stroke-linecap="round" stroke-width="0.5" x1="30.1217" x2="105.665" y1="18.8717" y2="18.8717" /><line stroke-linecap="round" stroke-width="0.5" x1="99.9709" x2="99.9709" y1="37.4657" y2="52.4209" /><line stroke-linecap="round" stroke-width="0.5" x1="99.9709" x2="93.4157" y1="52.4209" y2="52.4209" /><line stroke-linecap="round" stroke-width="0.5" x1="93.4157" x2="93.4157" y1="52.4209" y2="37.4657" /><line stroke-linecap="round" stroke-width="0.5" x1="93.4157" x2="99.9709" y1="37.4657" y2="37.4657" /><text font-family="monospace" font-size="2" stroke-width="0.1" text-anchor="middle" x="96.693304723" y="44.943305988">R9</text><line stroke-linecap="round" stroke-width="0.5" x1="37.6157" x2="37.6157" y1="95.6209" y2="80.6657" /><line stroke-linecap="round" stroke-width="0.5" x1="37.6157" x2="44.1709" y1="80.6657" y2="80.6657" /><line stroke-linecap="round" stroke-width="0.5" x1="44.1709" x2="44.1709" y1="80.6657" y2="95.6209" /><line stroke-linecap="round" stroke-width="0.5" x1="44.1709" x2="37.6157" y1="95.6209" y2="95.6209" /><text font-family="monospace" font-size="2" stroke-width="0.1" text-anchor="middle" x="40.893306087" y="88.143304932">C1</text><line stroke-linecap="round" stroke-width="0.5" x1="111.6709" x2="111.6709" y1="73.9157" y2="88.8709" /><line stroke-linecap="round" stroke-width="0.5" x1="111.6709" x2="105.1157" y1="88.8709" y2="88.8709" /><line stroke-linecap="round" stroke-width="0.5" x1="105.1157" x2="105.1157" y1="88.8709" y2="73.9157" /><line stroke-linecap="round" stroke-width="0.5" x1="105.1157" x2="111.6709" y1="73.9157" y2="73.9157" /><text font-family="monospace" font-size="2" stroke-width="0.1" text-anchor="middle" x="108.393304437" y="81.393305097">R7</text></g><g fill="blue" id="bottom_parts" stroke="blue" /></svg>