<?xml version="1.0" encoding="utf-8" ?>
<svg baseProfile="tiny" height="161.04330348" version="1.2" width="217.54330348" xmlns="http://www.w3.org/2000/svg" xmlns:ev="http://www.w3.org/2001/xml-events" xmlns:xlink="http://www.w3.org/1999/xlink"><defs /><g id="paths" stroke="blue"><path d="M 12.54330678,138.5433037 L 138.5433037,138.5433037 L 138.5433037,12.54330678 L 12.54330678,12.54330678 L 12.54330678,138.5433037 Z" fill-opacity="0" stroke-linejoin="round" stroke-width="1.0" /></g><g fill="red" id="holes"><circle cx="53.4933" cy="82.7433" r="0.585" stroke-width="0.0" /><circle cx="21.5433" cy="93.5433" r="1.8" stroke-width="0.0" /><circle cx="21.5433" cy="84.5433" r="1.8" stroke-width="0.0" /><circle cx="21.5433" cy="62.0433" r="1.8" stroke-width="0.0" /><circle cx="21.5433" cy="53.0433" r="1.8" stroke-width="0.0" /><circle cx="121.8613" cy="121.4753" r="1.8" stroke-width="0.0" /><circle cx="128.2253" cy="115.1113" r="1.8" stroke-width="0.0" /><circle cx="129.5433" cy="62.0433" r="1.8" stroke-width="0.0" /><circle cx="129.5433" cy="53.0433" r="1.8" stroke-width="0.0" /><circle cx="29.2253" cy="121.4753" r="1.8" stroke-width="0.0" /><circle cx="22.8613" cy="115.1113" r="1.8" stroke-width="0.0" /><circle cx="75.5433" cy="98.0433" r="3.8976" stroke-width="0.0" /><circle cx="129.5433" cy="93.5433" r="1.8" stroke-width="0.0" /><circle cx="129.5433" cy="84.5433" r="1.8" stroke-width="0.0" /><circle cx="66.5433" cy="129.5433" r="1.8" stroke-width="0.0" /><circle cx="57.5433" cy="129.5433" r="1.8" stroke-width="0.0" /><circle cx="125.0433" cy="26.0433" r="3.8976" stroke-width="0.0" /><circle cx="84.5433" cy="129.5433" r="1.8" stroke-width="0.0" /><circle cx="93.5433" cy="129.5433" r="1.8" stroke-width="0.0" /><circle cx="26.0433" cy="26.0433" r="3.8976" stroke-width="0.0" /><circle cx="107.0433" cy="35.0433" r="1.7717" stroke-width="0.0" /><circle cx="98.0433" cy="35.0433" r="1.7717" stroke-width="0.0" /><circle cx="89.0433" cy="35.0433" r="1.7717" stroke-width="0.0" /><circle cx="80.0433" cy="35.0433" r="1.7717" stroke-width="0.0" /><circle cx="71.0433" cy="35.0433" r="1.7717" stroke-width="0.0" /><circle cx="62.0433" cy="35.0433" r="1.7717" stroke-width="0.0" /><circle cx="53.0433" cy="35.0433" r="1.7717" stroke-width="0.0" /><circle cx="44.0433" cy="35.0433" r="1.7717" stroke-width="0.0" /></g><g id="rulers" stroke="black"><line stroke-width="1.0" x1="147.5433" x2="147.5433" y1="26.0433" y2="12.5433" /><text font-family="monospace" font-size="5" stroke-width="0.3" x="152.54330348" y="19.293306615">3.8100mm</text><text font-family="monospace" font-size="5" stroke-width="0.3" x="152.54330348" y="25.293306615">(Δy=3.8100mm)</text><line stroke-width="1.0" x1="138.5433" x2="125.0433" y1="3.5433" y2="3.5433" /><text font-family="monospace" font-size="5" stroke-width="0.3" x="131.793303865" y="-1.456693">3.8100mm</text><text font-family="monospace" font-size="5" stroke-width="0.3" x="131.793303865" y="4.543307">(Δx=3.8100mm)</text><line stroke-width="1.0" x1="3.5433" x2="3.5433" y1="98.0433" y2="138.5433" /><text font-family="monospace" font-size="5" stroke-width="0.3" x="8.543307" y="118.293304195">11.4300mm</text><text font-family="monospace" font-size="5" stroke-width="0.3" x="8.543307" y="124.293304195">(Δy=11.4300mm)</text><line stroke-width="1.0" x1="12.5433" x2="75.5433" y1="147.5433" y2="147.5433" /><text font-family="monospace" font-size="5" stroke-width="0.3" x="44.04330601" y="152.54330348">17.7800mm</text><text font-family="monospace" font-size="5" stroke-width="0.3" x="44.04330601" y="158.54330348">(Δx=17.7800mm)</text></g></svg>